%TF.GenerationSoftware,KiCad,Pcbnew,(5.1.9)-1*%
%TF.CreationDate,2021-06-23T22:51:48+02:00*%
%TF.ProjectId,EndatDecoder,456e6461-7444-4656-936f-6465722e6b69,rev?*%
%TF.SameCoordinates,Original*%
%TF.FileFunction,Soldermask,Top*%
%TF.FilePolarity,Negative*%
%FSLAX46Y46*%
G04 Gerber Fmt 4.6, Leading zero omitted, Abs format (unit mm)*
G04 Created by KiCad (PCBNEW (5.1.9)-1) date 2021-06-23 22:51:48*
%MOMM*%
%LPD*%
G01*
G04 APERTURE LIST*
%ADD10C,1.700000*%
%ADD11C,4.500000*%
%ADD12R,0.800000X0.900000*%
%ADD13O,2.000000X3.500000*%
%ADD14C,1.600000*%
%ADD15R,1.600000X1.600000*%
%ADD16C,1.300000*%
%ADD17C,1.900000*%
%ADD18C,3.100000*%
%ADD19R,1.500000X1.000000*%
%ADD20R,1.905000X2.000000*%
%ADD21O,1.905000X2.000000*%
%ADD22R,3.800000X2.000000*%
%ADD23R,1.500000X2.000000*%
G04 APERTURE END LIST*
%TO.C,U3*%
G36*
G01*
X60275000Y-147575000D02*
X60275000Y-147425000D01*
G75*
G02*
X60350000Y-147350000I75000J0D01*
G01*
X61800000Y-147350000D01*
G75*
G02*
X61875000Y-147425000I0J-75000D01*
G01*
X61875000Y-147575000D01*
G75*
G02*
X61800000Y-147650000I-75000J0D01*
G01*
X60350000Y-147650000D01*
G75*
G02*
X60275000Y-147575000I0J75000D01*
G01*
G37*
G36*
G01*
X60275000Y-148075000D02*
X60275000Y-147925000D01*
G75*
G02*
X60350000Y-147850000I75000J0D01*
G01*
X61800000Y-147850000D01*
G75*
G02*
X61875000Y-147925000I0J-75000D01*
G01*
X61875000Y-148075000D01*
G75*
G02*
X61800000Y-148150000I-75000J0D01*
G01*
X60350000Y-148150000D01*
G75*
G02*
X60275000Y-148075000I0J75000D01*
G01*
G37*
G36*
G01*
X60275000Y-148575000D02*
X60275000Y-148425000D01*
G75*
G02*
X60350000Y-148350000I75000J0D01*
G01*
X61800000Y-148350000D01*
G75*
G02*
X61875000Y-148425000I0J-75000D01*
G01*
X61875000Y-148575000D01*
G75*
G02*
X61800000Y-148650000I-75000J0D01*
G01*
X60350000Y-148650000D01*
G75*
G02*
X60275000Y-148575000I0J75000D01*
G01*
G37*
G36*
G01*
X60275000Y-149075000D02*
X60275000Y-148925000D01*
G75*
G02*
X60350000Y-148850000I75000J0D01*
G01*
X61800000Y-148850000D01*
G75*
G02*
X61875000Y-148925000I0J-75000D01*
G01*
X61875000Y-149075000D01*
G75*
G02*
X61800000Y-149150000I-75000J0D01*
G01*
X60350000Y-149150000D01*
G75*
G02*
X60275000Y-149075000I0J75000D01*
G01*
G37*
G36*
G01*
X60275000Y-149575000D02*
X60275000Y-149425000D01*
G75*
G02*
X60350000Y-149350000I75000J0D01*
G01*
X61800000Y-149350000D01*
G75*
G02*
X61875000Y-149425000I0J-75000D01*
G01*
X61875000Y-149575000D01*
G75*
G02*
X61800000Y-149650000I-75000J0D01*
G01*
X60350000Y-149650000D01*
G75*
G02*
X60275000Y-149575000I0J75000D01*
G01*
G37*
G36*
G01*
X60275000Y-150075000D02*
X60275000Y-149925000D01*
G75*
G02*
X60350000Y-149850000I75000J0D01*
G01*
X61800000Y-149850000D01*
G75*
G02*
X61875000Y-149925000I0J-75000D01*
G01*
X61875000Y-150075000D01*
G75*
G02*
X61800000Y-150150000I-75000J0D01*
G01*
X60350000Y-150150000D01*
G75*
G02*
X60275000Y-150075000I0J75000D01*
G01*
G37*
G36*
G01*
X60275000Y-150575000D02*
X60275000Y-150425000D01*
G75*
G02*
X60350000Y-150350000I75000J0D01*
G01*
X61800000Y-150350000D01*
G75*
G02*
X61875000Y-150425000I0J-75000D01*
G01*
X61875000Y-150575000D01*
G75*
G02*
X61800000Y-150650000I-75000J0D01*
G01*
X60350000Y-150650000D01*
G75*
G02*
X60275000Y-150575000I0J75000D01*
G01*
G37*
G36*
G01*
X60275000Y-151075000D02*
X60275000Y-150925000D01*
G75*
G02*
X60350000Y-150850000I75000J0D01*
G01*
X61800000Y-150850000D01*
G75*
G02*
X61875000Y-150925000I0J-75000D01*
G01*
X61875000Y-151075000D01*
G75*
G02*
X61800000Y-151150000I-75000J0D01*
G01*
X60350000Y-151150000D01*
G75*
G02*
X60275000Y-151075000I0J75000D01*
G01*
G37*
G36*
G01*
X60275000Y-151575000D02*
X60275000Y-151425000D01*
G75*
G02*
X60350000Y-151350000I75000J0D01*
G01*
X61800000Y-151350000D01*
G75*
G02*
X61875000Y-151425000I0J-75000D01*
G01*
X61875000Y-151575000D01*
G75*
G02*
X61800000Y-151650000I-75000J0D01*
G01*
X60350000Y-151650000D01*
G75*
G02*
X60275000Y-151575000I0J75000D01*
G01*
G37*
G36*
G01*
X60275000Y-152075000D02*
X60275000Y-151925000D01*
G75*
G02*
X60350000Y-151850000I75000J0D01*
G01*
X61800000Y-151850000D01*
G75*
G02*
X61875000Y-151925000I0J-75000D01*
G01*
X61875000Y-152075000D01*
G75*
G02*
X61800000Y-152150000I-75000J0D01*
G01*
X60350000Y-152150000D01*
G75*
G02*
X60275000Y-152075000I0J75000D01*
G01*
G37*
G36*
G01*
X60275000Y-152575000D02*
X60275000Y-152425000D01*
G75*
G02*
X60350000Y-152350000I75000J0D01*
G01*
X61800000Y-152350000D01*
G75*
G02*
X61875000Y-152425000I0J-75000D01*
G01*
X61875000Y-152575000D01*
G75*
G02*
X61800000Y-152650000I-75000J0D01*
G01*
X60350000Y-152650000D01*
G75*
G02*
X60275000Y-152575000I0J75000D01*
G01*
G37*
G36*
G01*
X60275000Y-153075000D02*
X60275000Y-152925000D01*
G75*
G02*
X60350000Y-152850000I75000J0D01*
G01*
X61800000Y-152850000D01*
G75*
G02*
X61875000Y-152925000I0J-75000D01*
G01*
X61875000Y-153075000D01*
G75*
G02*
X61800000Y-153150000I-75000J0D01*
G01*
X60350000Y-153150000D01*
G75*
G02*
X60275000Y-153075000I0J75000D01*
G01*
G37*
G36*
G01*
X60275000Y-153575000D02*
X60275000Y-153425000D01*
G75*
G02*
X60350000Y-153350000I75000J0D01*
G01*
X61800000Y-153350000D01*
G75*
G02*
X61875000Y-153425000I0J-75000D01*
G01*
X61875000Y-153575000D01*
G75*
G02*
X61800000Y-153650000I-75000J0D01*
G01*
X60350000Y-153650000D01*
G75*
G02*
X60275000Y-153575000I0J75000D01*
G01*
G37*
G36*
G01*
X60275000Y-154075000D02*
X60275000Y-153925000D01*
G75*
G02*
X60350000Y-153850000I75000J0D01*
G01*
X61800000Y-153850000D01*
G75*
G02*
X61875000Y-153925000I0J-75000D01*
G01*
X61875000Y-154075000D01*
G75*
G02*
X61800000Y-154150000I-75000J0D01*
G01*
X60350000Y-154150000D01*
G75*
G02*
X60275000Y-154075000I0J75000D01*
G01*
G37*
G36*
G01*
X60275000Y-154575000D02*
X60275000Y-154425000D01*
G75*
G02*
X60350000Y-154350000I75000J0D01*
G01*
X61800000Y-154350000D01*
G75*
G02*
X61875000Y-154425000I0J-75000D01*
G01*
X61875000Y-154575000D01*
G75*
G02*
X61800000Y-154650000I-75000J0D01*
G01*
X60350000Y-154650000D01*
G75*
G02*
X60275000Y-154575000I0J75000D01*
G01*
G37*
G36*
G01*
X60275000Y-155075000D02*
X60275000Y-154925000D01*
G75*
G02*
X60350000Y-154850000I75000J0D01*
G01*
X61800000Y-154850000D01*
G75*
G02*
X61875000Y-154925000I0J-75000D01*
G01*
X61875000Y-155075000D01*
G75*
G02*
X61800000Y-155150000I-75000J0D01*
G01*
X60350000Y-155150000D01*
G75*
G02*
X60275000Y-155075000I0J75000D01*
G01*
G37*
G36*
G01*
X60275000Y-155575000D02*
X60275000Y-155425000D01*
G75*
G02*
X60350000Y-155350000I75000J0D01*
G01*
X61800000Y-155350000D01*
G75*
G02*
X61875000Y-155425000I0J-75000D01*
G01*
X61875000Y-155575000D01*
G75*
G02*
X61800000Y-155650000I-75000J0D01*
G01*
X60350000Y-155650000D01*
G75*
G02*
X60275000Y-155575000I0J75000D01*
G01*
G37*
G36*
G01*
X60275000Y-156075000D02*
X60275000Y-155925000D01*
G75*
G02*
X60350000Y-155850000I75000J0D01*
G01*
X61800000Y-155850000D01*
G75*
G02*
X61875000Y-155925000I0J-75000D01*
G01*
X61875000Y-156075000D01*
G75*
G02*
X61800000Y-156150000I-75000J0D01*
G01*
X60350000Y-156150000D01*
G75*
G02*
X60275000Y-156075000I0J75000D01*
G01*
G37*
G36*
G01*
X60275000Y-156575000D02*
X60275000Y-156425000D01*
G75*
G02*
X60350000Y-156350000I75000J0D01*
G01*
X61800000Y-156350000D01*
G75*
G02*
X61875000Y-156425000I0J-75000D01*
G01*
X61875000Y-156575000D01*
G75*
G02*
X61800000Y-156650000I-75000J0D01*
G01*
X60350000Y-156650000D01*
G75*
G02*
X60275000Y-156575000I0J75000D01*
G01*
G37*
G36*
G01*
X60275000Y-157075000D02*
X60275000Y-156925000D01*
G75*
G02*
X60350000Y-156850000I75000J0D01*
G01*
X61800000Y-156850000D01*
G75*
G02*
X61875000Y-156925000I0J-75000D01*
G01*
X61875000Y-157075000D01*
G75*
G02*
X61800000Y-157150000I-75000J0D01*
G01*
X60350000Y-157150000D01*
G75*
G02*
X60275000Y-157075000I0J75000D01*
G01*
G37*
G36*
G01*
X60275000Y-157575000D02*
X60275000Y-157425000D01*
G75*
G02*
X60350000Y-157350000I75000J0D01*
G01*
X61800000Y-157350000D01*
G75*
G02*
X61875000Y-157425000I0J-75000D01*
G01*
X61875000Y-157575000D01*
G75*
G02*
X61800000Y-157650000I-75000J0D01*
G01*
X60350000Y-157650000D01*
G75*
G02*
X60275000Y-157575000I0J75000D01*
G01*
G37*
G36*
G01*
X60275000Y-158075000D02*
X60275000Y-157925000D01*
G75*
G02*
X60350000Y-157850000I75000J0D01*
G01*
X61800000Y-157850000D01*
G75*
G02*
X61875000Y-157925000I0J-75000D01*
G01*
X61875000Y-158075000D01*
G75*
G02*
X61800000Y-158150000I-75000J0D01*
G01*
X60350000Y-158150000D01*
G75*
G02*
X60275000Y-158075000I0J75000D01*
G01*
G37*
G36*
G01*
X60275000Y-158575000D02*
X60275000Y-158425000D01*
G75*
G02*
X60350000Y-158350000I75000J0D01*
G01*
X61800000Y-158350000D01*
G75*
G02*
X61875000Y-158425000I0J-75000D01*
G01*
X61875000Y-158575000D01*
G75*
G02*
X61800000Y-158650000I-75000J0D01*
G01*
X60350000Y-158650000D01*
G75*
G02*
X60275000Y-158575000I0J75000D01*
G01*
G37*
G36*
G01*
X60275000Y-159075000D02*
X60275000Y-158925000D01*
G75*
G02*
X60350000Y-158850000I75000J0D01*
G01*
X61800000Y-158850000D01*
G75*
G02*
X61875000Y-158925000I0J-75000D01*
G01*
X61875000Y-159075000D01*
G75*
G02*
X61800000Y-159150000I-75000J0D01*
G01*
X60350000Y-159150000D01*
G75*
G02*
X60275000Y-159075000I0J75000D01*
G01*
G37*
G36*
G01*
X60275000Y-159575000D02*
X60275000Y-159425000D01*
G75*
G02*
X60350000Y-159350000I75000J0D01*
G01*
X61800000Y-159350000D01*
G75*
G02*
X61875000Y-159425000I0J-75000D01*
G01*
X61875000Y-159575000D01*
G75*
G02*
X61800000Y-159650000I-75000J0D01*
G01*
X60350000Y-159650000D01*
G75*
G02*
X60275000Y-159575000I0J75000D01*
G01*
G37*
G36*
G01*
X62600000Y-161900000D02*
X62600000Y-160450000D01*
G75*
G02*
X62675000Y-160375000I75000J0D01*
G01*
X62825000Y-160375000D01*
G75*
G02*
X62900000Y-160450000I0J-75000D01*
G01*
X62900000Y-161900000D01*
G75*
G02*
X62825000Y-161975000I-75000J0D01*
G01*
X62675000Y-161975000D01*
G75*
G02*
X62600000Y-161900000I0J75000D01*
G01*
G37*
G36*
G01*
X63100000Y-161900000D02*
X63100000Y-160450000D01*
G75*
G02*
X63175000Y-160375000I75000J0D01*
G01*
X63325000Y-160375000D01*
G75*
G02*
X63400000Y-160450000I0J-75000D01*
G01*
X63400000Y-161900000D01*
G75*
G02*
X63325000Y-161975000I-75000J0D01*
G01*
X63175000Y-161975000D01*
G75*
G02*
X63100000Y-161900000I0J75000D01*
G01*
G37*
G36*
G01*
X63600000Y-161900000D02*
X63600000Y-160450000D01*
G75*
G02*
X63675000Y-160375000I75000J0D01*
G01*
X63825000Y-160375000D01*
G75*
G02*
X63900000Y-160450000I0J-75000D01*
G01*
X63900000Y-161900000D01*
G75*
G02*
X63825000Y-161975000I-75000J0D01*
G01*
X63675000Y-161975000D01*
G75*
G02*
X63600000Y-161900000I0J75000D01*
G01*
G37*
G36*
G01*
X64100000Y-161900000D02*
X64100000Y-160450000D01*
G75*
G02*
X64175000Y-160375000I75000J0D01*
G01*
X64325000Y-160375000D01*
G75*
G02*
X64400000Y-160450000I0J-75000D01*
G01*
X64400000Y-161900000D01*
G75*
G02*
X64325000Y-161975000I-75000J0D01*
G01*
X64175000Y-161975000D01*
G75*
G02*
X64100000Y-161900000I0J75000D01*
G01*
G37*
G36*
G01*
X64600000Y-161900000D02*
X64600000Y-160450000D01*
G75*
G02*
X64675000Y-160375000I75000J0D01*
G01*
X64825000Y-160375000D01*
G75*
G02*
X64900000Y-160450000I0J-75000D01*
G01*
X64900000Y-161900000D01*
G75*
G02*
X64825000Y-161975000I-75000J0D01*
G01*
X64675000Y-161975000D01*
G75*
G02*
X64600000Y-161900000I0J75000D01*
G01*
G37*
G36*
G01*
X65100000Y-161900000D02*
X65100000Y-160450000D01*
G75*
G02*
X65175000Y-160375000I75000J0D01*
G01*
X65325000Y-160375000D01*
G75*
G02*
X65400000Y-160450000I0J-75000D01*
G01*
X65400000Y-161900000D01*
G75*
G02*
X65325000Y-161975000I-75000J0D01*
G01*
X65175000Y-161975000D01*
G75*
G02*
X65100000Y-161900000I0J75000D01*
G01*
G37*
G36*
G01*
X65600000Y-161900000D02*
X65600000Y-160450000D01*
G75*
G02*
X65675000Y-160375000I75000J0D01*
G01*
X65825000Y-160375000D01*
G75*
G02*
X65900000Y-160450000I0J-75000D01*
G01*
X65900000Y-161900000D01*
G75*
G02*
X65825000Y-161975000I-75000J0D01*
G01*
X65675000Y-161975000D01*
G75*
G02*
X65600000Y-161900000I0J75000D01*
G01*
G37*
G36*
G01*
X66100000Y-161900000D02*
X66100000Y-160450000D01*
G75*
G02*
X66175000Y-160375000I75000J0D01*
G01*
X66325000Y-160375000D01*
G75*
G02*
X66400000Y-160450000I0J-75000D01*
G01*
X66400000Y-161900000D01*
G75*
G02*
X66325000Y-161975000I-75000J0D01*
G01*
X66175000Y-161975000D01*
G75*
G02*
X66100000Y-161900000I0J75000D01*
G01*
G37*
G36*
G01*
X66600000Y-161900000D02*
X66600000Y-160450000D01*
G75*
G02*
X66675000Y-160375000I75000J0D01*
G01*
X66825000Y-160375000D01*
G75*
G02*
X66900000Y-160450000I0J-75000D01*
G01*
X66900000Y-161900000D01*
G75*
G02*
X66825000Y-161975000I-75000J0D01*
G01*
X66675000Y-161975000D01*
G75*
G02*
X66600000Y-161900000I0J75000D01*
G01*
G37*
G36*
G01*
X67100000Y-161900000D02*
X67100000Y-160450000D01*
G75*
G02*
X67175000Y-160375000I75000J0D01*
G01*
X67325000Y-160375000D01*
G75*
G02*
X67400000Y-160450000I0J-75000D01*
G01*
X67400000Y-161900000D01*
G75*
G02*
X67325000Y-161975000I-75000J0D01*
G01*
X67175000Y-161975000D01*
G75*
G02*
X67100000Y-161900000I0J75000D01*
G01*
G37*
G36*
G01*
X67600000Y-161900000D02*
X67600000Y-160450000D01*
G75*
G02*
X67675000Y-160375000I75000J0D01*
G01*
X67825000Y-160375000D01*
G75*
G02*
X67900000Y-160450000I0J-75000D01*
G01*
X67900000Y-161900000D01*
G75*
G02*
X67825000Y-161975000I-75000J0D01*
G01*
X67675000Y-161975000D01*
G75*
G02*
X67600000Y-161900000I0J75000D01*
G01*
G37*
G36*
G01*
X68100000Y-161900000D02*
X68100000Y-160450000D01*
G75*
G02*
X68175000Y-160375000I75000J0D01*
G01*
X68325000Y-160375000D01*
G75*
G02*
X68400000Y-160450000I0J-75000D01*
G01*
X68400000Y-161900000D01*
G75*
G02*
X68325000Y-161975000I-75000J0D01*
G01*
X68175000Y-161975000D01*
G75*
G02*
X68100000Y-161900000I0J75000D01*
G01*
G37*
G36*
G01*
X68600000Y-161900000D02*
X68600000Y-160450000D01*
G75*
G02*
X68675000Y-160375000I75000J0D01*
G01*
X68825000Y-160375000D01*
G75*
G02*
X68900000Y-160450000I0J-75000D01*
G01*
X68900000Y-161900000D01*
G75*
G02*
X68825000Y-161975000I-75000J0D01*
G01*
X68675000Y-161975000D01*
G75*
G02*
X68600000Y-161900000I0J75000D01*
G01*
G37*
G36*
G01*
X69100000Y-161900000D02*
X69100000Y-160450000D01*
G75*
G02*
X69175000Y-160375000I75000J0D01*
G01*
X69325000Y-160375000D01*
G75*
G02*
X69400000Y-160450000I0J-75000D01*
G01*
X69400000Y-161900000D01*
G75*
G02*
X69325000Y-161975000I-75000J0D01*
G01*
X69175000Y-161975000D01*
G75*
G02*
X69100000Y-161900000I0J75000D01*
G01*
G37*
G36*
G01*
X69600000Y-161900000D02*
X69600000Y-160450000D01*
G75*
G02*
X69675000Y-160375000I75000J0D01*
G01*
X69825000Y-160375000D01*
G75*
G02*
X69900000Y-160450000I0J-75000D01*
G01*
X69900000Y-161900000D01*
G75*
G02*
X69825000Y-161975000I-75000J0D01*
G01*
X69675000Y-161975000D01*
G75*
G02*
X69600000Y-161900000I0J75000D01*
G01*
G37*
G36*
G01*
X70100000Y-161900000D02*
X70100000Y-160450000D01*
G75*
G02*
X70175000Y-160375000I75000J0D01*
G01*
X70325000Y-160375000D01*
G75*
G02*
X70400000Y-160450000I0J-75000D01*
G01*
X70400000Y-161900000D01*
G75*
G02*
X70325000Y-161975000I-75000J0D01*
G01*
X70175000Y-161975000D01*
G75*
G02*
X70100000Y-161900000I0J75000D01*
G01*
G37*
G36*
G01*
X70600000Y-161900000D02*
X70600000Y-160450000D01*
G75*
G02*
X70675000Y-160375000I75000J0D01*
G01*
X70825000Y-160375000D01*
G75*
G02*
X70900000Y-160450000I0J-75000D01*
G01*
X70900000Y-161900000D01*
G75*
G02*
X70825000Y-161975000I-75000J0D01*
G01*
X70675000Y-161975000D01*
G75*
G02*
X70600000Y-161900000I0J75000D01*
G01*
G37*
G36*
G01*
X71100000Y-161900000D02*
X71100000Y-160450000D01*
G75*
G02*
X71175000Y-160375000I75000J0D01*
G01*
X71325000Y-160375000D01*
G75*
G02*
X71400000Y-160450000I0J-75000D01*
G01*
X71400000Y-161900000D01*
G75*
G02*
X71325000Y-161975000I-75000J0D01*
G01*
X71175000Y-161975000D01*
G75*
G02*
X71100000Y-161900000I0J75000D01*
G01*
G37*
G36*
G01*
X71600000Y-161900000D02*
X71600000Y-160450000D01*
G75*
G02*
X71675000Y-160375000I75000J0D01*
G01*
X71825000Y-160375000D01*
G75*
G02*
X71900000Y-160450000I0J-75000D01*
G01*
X71900000Y-161900000D01*
G75*
G02*
X71825000Y-161975000I-75000J0D01*
G01*
X71675000Y-161975000D01*
G75*
G02*
X71600000Y-161900000I0J75000D01*
G01*
G37*
G36*
G01*
X72100000Y-161900000D02*
X72100000Y-160450000D01*
G75*
G02*
X72175000Y-160375000I75000J0D01*
G01*
X72325000Y-160375000D01*
G75*
G02*
X72400000Y-160450000I0J-75000D01*
G01*
X72400000Y-161900000D01*
G75*
G02*
X72325000Y-161975000I-75000J0D01*
G01*
X72175000Y-161975000D01*
G75*
G02*
X72100000Y-161900000I0J75000D01*
G01*
G37*
G36*
G01*
X72600000Y-161900000D02*
X72600000Y-160450000D01*
G75*
G02*
X72675000Y-160375000I75000J0D01*
G01*
X72825000Y-160375000D01*
G75*
G02*
X72900000Y-160450000I0J-75000D01*
G01*
X72900000Y-161900000D01*
G75*
G02*
X72825000Y-161975000I-75000J0D01*
G01*
X72675000Y-161975000D01*
G75*
G02*
X72600000Y-161900000I0J75000D01*
G01*
G37*
G36*
G01*
X73100000Y-161900000D02*
X73100000Y-160450000D01*
G75*
G02*
X73175000Y-160375000I75000J0D01*
G01*
X73325000Y-160375000D01*
G75*
G02*
X73400000Y-160450000I0J-75000D01*
G01*
X73400000Y-161900000D01*
G75*
G02*
X73325000Y-161975000I-75000J0D01*
G01*
X73175000Y-161975000D01*
G75*
G02*
X73100000Y-161900000I0J75000D01*
G01*
G37*
G36*
G01*
X73600000Y-161900000D02*
X73600000Y-160450000D01*
G75*
G02*
X73675000Y-160375000I75000J0D01*
G01*
X73825000Y-160375000D01*
G75*
G02*
X73900000Y-160450000I0J-75000D01*
G01*
X73900000Y-161900000D01*
G75*
G02*
X73825000Y-161975000I-75000J0D01*
G01*
X73675000Y-161975000D01*
G75*
G02*
X73600000Y-161900000I0J75000D01*
G01*
G37*
G36*
G01*
X74100000Y-161900000D02*
X74100000Y-160450000D01*
G75*
G02*
X74175000Y-160375000I75000J0D01*
G01*
X74325000Y-160375000D01*
G75*
G02*
X74400000Y-160450000I0J-75000D01*
G01*
X74400000Y-161900000D01*
G75*
G02*
X74325000Y-161975000I-75000J0D01*
G01*
X74175000Y-161975000D01*
G75*
G02*
X74100000Y-161900000I0J75000D01*
G01*
G37*
G36*
G01*
X74600000Y-161900000D02*
X74600000Y-160450000D01*
G75*
G02*
X74675000Y-160375000I75000J0D01*
G01*
X74825000Y-160375000D01*
G75*
G02*
X74900000Y-160450000I0J-75000D01*
G01*
X74900000Y-161900000D01*
G75*
G02*
X74825000Y-161975000I-75000J0D01*
G01*
X74675000Y-161975000D01*
G75*
G02*
X74600000Y-161900000I0J75000D01*
G01*
G37*
G36*
G01*
X75625000Y-159575000D02*
X75625000Y-159425000D01*
G75*
G02*
X75700000Y-159350000I75000J0D01*
G01*
X77150000Y-159350000D01*
G75*
G02*
X77225000Y-159425000I0J-75000D01*
G01*
X77225000Y-159575000D01*
G75*
G02*
X77150000Y-159650000I-75000J0D01*
G01*
X75700000Y-159650000D01*
G75*
G02*
X75625000Y-159575000I0J75000D01*
G01*
G37*
G36*
G01*
X75625000Y-159075000D02*
X75625000Y-158925000D01*
G75*
G02*
X75700000Y-158850000I75000J0D01*
G01*
X77150000Y-158850000D01*
G75*
G02*
X77225000Y-158925000I0J-75000D01*
G01*
X77225000Y-159075000D01*
G75*
G02*
X77150000Y-159150000I-75000J0D01*
G01*
X75700000Y-159150000D01*
G75*
G02*
X75625000Y-159075000I0J75000D01*
G01*
G37*
G36*
G01*
X75625000Y-158575000D02*
X75625000Y-158425000D01*
G75*
G02*
X75700000Y-158350000I75000J0D01*
G01*
X77150000Y-158350000D01*
G75*
G02*
X77225000Y-158425000I0J-75000D01*
G01*
X77225000Y-158575000D01*
G75*
G02*
X77150000Y-158650000I-75000J0D01*
G01*
X75700000Y-158650000D01*
G75*
G02*
X75625000Y-158575000I0J75000D01*
G01*
G37*
G36*
G01*
X75625000Y-158075000D02*
X75625000Y-157925000D01*
G75*
G02*
X75700000Y-157850000I75000J0D01*
G01*
X77150000Y-157850000D01*
G75*
G02*
X77225000Y-157925000I0J-75000D01*
G01*
X77225000Y-158075000D01*
G75*
G02*
X77150000Y-158150000I-75000J0D01*
G01*
X75700000Y-158150000D01*
G75*
G02*
X75625000Y-158075000I0J75000D01*
G01*
G37*
G36*
G01*
X75625000Y-157575000D02*
X75625000Y-157425000D01*
G75*
G02*
X75700000Y-157350000I75000J0D01*
G01*
X77150000Y-157350000D01*
G75*
G02*
X77225000Y-157425000I0J-75000D01*
G01*
X77225000Y-157575000D01*
G75*
G02*
X77150000Y-157650000I-75000J0D01*
G01*
X75700000Y-157650000D01*
G75*
G02*
X75625000Y-157575000I0J75000D01*
G01*
G37*
G36*
G01*
X75625000Y-157075000D02*
X75625000Y-156925000D01*
G75*
G02*
X75700000Y-156850000I75000J0D01*
G01*
X77150000Y-156850000D01*
G75*
G02*
X77225000Y-156925000I0J-75000D01*
G01*
X77225000Y-157075000D01*
G75*
G02*
X77150000Y-157150000I-75000J0D01*
G01*
X75700000Y-157150000D01*
G75*
G02*
X75625000Y-157075000I0J75000D01*
G01*
G37*
G36*
G01*
X75625000Y-156575000D02*
X75625000Y-156425000D01*
G75*
G02*
X75700000Y-156350000I75000J0D01*
G01*
X77150000Y-156350000D01*
G75*
G02*
X77225000Y-156425000I0J-75000D01*
G01*
X77225000Y-156575000D01*
G75*
G02*
X77150000Y-156650000I-75000J0D01*
G01*
X75700000Y-156650000D01*
G75*
G02*
X75625000Y-156575000I0J75000D01*
G01*
G37*
G36*
G01*
X75625000Y-156075000D02*
X75625000Y-155925000D01*
G75*
G02*
X75700000Y-155850000I75000J0D01*
G01*
X77150000Y-155850000D01*
G75*
G02*
X77225000Y-155925000I0J-75000D01*
G01*
X77225000Y-156075000D01*
G75*
G02*
X77150000Y-156150000I-75000J0D01*
G01*
X75700000Y-156150000D01*
G75*
G02*
X75625000Y-156075000I0J75000D01*
G01*
G37*
G36*
G01*
X75625000Y-155575000D02*
X75625000Y-155425000D01*
G75*
G02*
X75700000Y-155350000I75000J0D01*
G01*
X77150000Y-155350000D01*
G75*
G02*
X77225000Y-155425000I0J-75000D01*
G01*
X77225000Y-155575000D01*
G75*
G02*
X77150000Y-155650000I-75000J0D01*
G01*
X75700000Y-155650000D01*
G75*
G02*
X75625000Y-155575000I0J75000D01*
G01*
G37*
G36*
G01*
X75625000Y-155075000D02*
X75625000Y-154925000D01*
G75*
G02*
X75700000Y-154850000I75000J0D01*
G01*
X77150000Y-154850000D01*
G75*
G02*
X77225000Y-154925000I0J-75000D01*
G01*
X77225000Y-155075000D01*
G75*
G02*
X77150000Y-155150000I-75000J0D01*
G01*
X75700000Y-155150000D01*
G75*
G02*
X75625000Y-155075000I0J75000D01*
G01*
G37*
G36*
G01*
X75625000Y-154575000D02*
X75625000Y-154425000D01*
G75*
G02*
X75700000Y-154350000I75000J0D01*
G01*
X77150000Y-154350000D01*
G75*
G02*
X77225000Y-154425000I0J-75000D01*
G01*
X77225000Y-154575000D01*
G75*
G02*
X77150000Y-154650000I-75000J0D01*
G01*
X75700000Y-154650000D01*
G75*
G02*
X75625000Y-154575000I0J75000D01*
G01*
G37*
G36*
G01*
X75625000Y-154075000D02*
X75625000Y-153925000D01*
G75*
G02*
X75700000Y-153850000I75000J0D01*
G01*
X77150000Y-153850000D01*
G75*
G02*
X77225000Y-153925000I0J-75000D01*
G01*
X77225000Y-154075000D01*
G75*
G02*
X77150000Y-154150000I-75000J0D01*
G01*
X75700000Y-154150000D01*
G75*
G02*
X75625000Y-154075000I0J75000D01*
G01*
G37*
G36*
G01*
X75625000Y-153575000D02*
X75625000Y-153425000D01*
G75*
G02*
X75700000Y-153350000I75000J0D01*
G01*
X77150000Y-153350000D01*
G75*
G02*
X77225000Y-153425000I0J-75000D01*
G01*
X77225000Y-153575000D01*
G75*
G02*
X77150000Y-153650000I-75000J0D01*
G01*
X75700000Y-153650000D01*
G75*
G02*
X75625000Y-153575000I0J75000D01*
G01*
G37*
G36*
G01*
X75625000Y-153075000D02*
X75625000Y-152925000D01*
G75*
G02*
X75700000Y-152850000I75000J0D01*
G01*
X77150000Y-152850000D01*
G75*
G02*
X77225000Y-152925000I0J-75000D01*
G01*
X77225000Y-153075000D01*
G75*
G02*
X77150000Y-153150000I-75000J0D01*
G01*
X75700000Y-153150000D01*
G75*
G02*
X75625000Y-153075000I0J75000D01*
G01*
G37*
G36*
G01*
X75625000Y-152575000D02*
X75625000Y-152425000D01*
G75*
G02*
X75700000Y-152350000I75000J0D01*
G01*
X77150000Y-152350000D01*
G75*
G02*
X77225000Y-152425000I0J-75000D01*
G01*
X77225000Y-152575000D01*
G75*
G02*
X77150000Y-152650000I-75000J0D01*
G01*
X75700000Y-152650000D01*
G75*
G02*
X75625000Y-152575000I0J75000D01*
G01*
G37*
G36*
G01*
X75625000Y-152075000D02*
X75625000Y-151925000D01*
G75*
G02*
X75700000Y-151850000I75000J0D01*
G01*
X77150000Y-151850000D01*
G75*
G02*
X77225000Y-151925000I0J-75000D01*
G01*
X77225000Y-152075000D01*
G75*
G02*
X77150000Y-152150000I-75000J0D01*
G01*
X75700000Y-152150000D01*
G75*
G02*
X75625000Y-152075000I0J75000D01*
G01*
G37*
G36*
G01*
X75625000Y-151575000D02*
X75625000Y-151425000D01*
G75*
G02*
X75700000Y-151350000I75000J0D01*
G01*
X77150000Y-151350000D01*
G75*
G02*
X77225000Y-151425000I0J-75000D01*
G01*
X77225000Y-151575000D01*
G75*
G02*
X77150000Y-151650000I-75000J0D01*
G01*
X75700000Y-151650000D01*
G75*
G02*
X75625000Y-151575000I0J75000D01*
G01*
G37*
G36*
G01*
X75625000Y-151075000D02*
X75625000Y-150925000D01*
G75*
G02*
X75700000Y-150850000I75000J0D01*
G01*
X77150000Y-150850000D01*
G75*
G02*
X77225000Y-150925000I0J-75000D01*
G01*
X77225000Y-151075000D01*
G75*
G02*
X77150000Y-151150000I-75000J0D01*
G01*
X75700000Y-151150000D01*
G75*
G02*
X75625000Y-151075000I0J75000D01*
G01*
G37*
G36*
G01*
X75625000Y-150575000D02*
X75625000Y-150425000D01*
G75*
G02*
X75700000Y-150350000I75000J0D01*
G01*
X77150000Y-150350000D01*
G75*
G02*
X77225000Y-150425000I0J-75000D01*
G01*
X77225000Y-150575000D01*
G75*
G02*
X77150000Y-150650000I-75000J0D01*
G01*
X75700000Y-150650000D01*
G75*
G02*
X75625000Y-150575000I0J75000D01*
G01*
G37*
G36*
G01*
X75625000Y-150075000D02*
X75625000Y-149925000D01*
G75*
G02*
X75700000Y-149850000I75000J0D01*
G01*
X77150000Y-149850000D01*
G75*
G02*
X77225000Y-149925000I0J-75000D01*
G01*
X77225000Y-150075000D01*
G75*
G02*
X77150000Y-150150000I-75000J0D01*
G01*
X75700000Y-150150000D01*
G75*
G02*
X75625000Y-150075000I0J75000D01*
G01*
G37*
G36*
G01*
X75625000Y-149575000D02*
X75625000Y-149425000D01*
G75*
G02*
X75700000Y-149350000I75000J0D01*
G01*
X77150000Y-149350000D01*
G75*
G02*
X77225000Y-149425000I0J-75000D01*
G01*
X77225000Y-149575000D01*
G75*
G02*
X77150000Y-149650000I-75000J0D01*
G01*
X75700000Y-149650000D01*
G75*
G02*
X75625000Y-149575000I0J75000D01*
G01*
G37*
G36*
G01*
X75625000Y-149075000D02*
X75625000Y-148925000D01*
G75*
G02*
X75700000Y-148850000I75000J0D01*
G01*
X77150000Y-148850000D01*
G75*
G02*
X77225000Y-148925000I0J-75000D01*
G01*
X77225000Y-149075000D01*
G75*
G02*
X77150000Y-149150000I-75000J0D01*
G01*
X75700000Y-149150000D01*
G75*
G02*
X75625000Y-149075000I0J75000D01*
G01*
G37*
G36*
G01*
X75625000Y-148575000D02*
X75625000Y-148425000D01*
G75*
G02*
X75700000Y-148350000I75000J0D01*
G01*
X77150000Y-148350000D01*
G75*
G02*
X77225000Y-148425000I0J-75000D01*
G01*
X77225000Y-148575000D01*
G75*
G02*
X77150000Y-148650000I-75000J0D01*
G01*
X75700000Y-148650000D01*
G75*
G02*
X75625000Y-148575000I0J75000D01*
G01*
G37*
G36*
G01*
X75625000Y-148075000D02*
X75625000Y-147925000D01*
G75*
G02*
X75700000Y-147850000I75000J0D01*
G01*
X77150000Y-147850000D01*
G75*
G02*
X77225000Y-147925000I0J-75000D01*
G01*
X77225000Y-148075000D01*
G75*
G02*
X77150000Y-148150000I-75000J0D01*
G01*
X75700000Y-148150000D01*
G75*
G02*
X75625000Y-148075000I0J75000D01*
G01*
G37*
G36*
G01*
X75625000Y-147575000D02*
X75625000Y-147425000D01*
G75*
G02*
X75700000Y-147350000I75000J0D01*
G01*
X77150000Y-147350000D01*
G75*
G02*
X77225000Y-147425000I0J-75000D01*
G01*
X77225000Y-147575000D01*
G75*
G02*
X77150000Y-147650000I-75000J0D01*
G01*
X75700000Y-147650000D01*
G75*
G02*
X75625000Y-147575000I0J75000D01*
G01*
G37*
G36*
G01*
X74600000Y-146550000D02*
X74600000Y-145100000D01*
G75*
G02*
X74675000Y-145025000I75000J0D01*
G01*
X74825000Y-145025000D01*
G75*
G02*
X74900000Y-145100000I0J-75000D01*
G01*
X74900000Y-146550000D01*
G75*
G02*
X74825000Y-146625000I-75000J0D01*
G01*
X74675000Y-146625000D01*
G75*
G02*
X74600000Y-146550000I0J75000D01*
G01*
G37*
G36*
G01*
X74100000Y-146550000D02*
X74100000Y-145100000D01*
G75*
G02*
X74175000Y-145025000I75000J0D01*
G01*
X74325000Y-145025000D01*
G75*
G02*
X74400000Y-145100000I0J-75000D01*
G01*
X74400000Y-146550000D01*
G75*
G02*
X74325000Y-146625000I-75000J0D01*
G01*
X74175000Y-146625000D01*
G75*
G02*
X74100000Y-146550000I0J75000D01*
G01*
G37*
G36*
G01*
X73600000Y-146550000D02*
X73600000Y-145100000D01*
G75*
G02*
X73675000Y-145025000I75000J0D01*
G01*
X73825000Y-145025000D01*
G75*
G02*
X73900000Y-145100000I0J-75000D01*
G01*
X73900000Y-146550000D01*
G75*
G02*
X73825000Y-146625000I-75000J0D01*
G01*
X73675000Y-146625000D01*
G75*
G02*
X73600000Y-146550000I0J75000D01*
G01*
G37*
G36*
G01*
X73100000Y-146550000D02*
X73100000Y-145100000D01*
G75*
G02*
X73175000Y-145025000I75000J0D01*
G01*
X73325000Y-145025000D01*
G75*
G02*
X73400000Y-145100000I0J-75000D01*
G01*
X73400000Y-146550000D01*
G75*
G02*
X73325000Y-146625000I-75000J0D01*
G01*
X73175000Y-146625000D01*
G75*
G02*
X73100000Y-146550000I0J75000D01*
G01*
G37*
G36*
G01*
X72600000Y-146550000D02*
X72600000Y-145100000D01*
G75*
G02*
X72675000Y-145025000I75000J0D01*
G01*
X72825000Y-145025000D01*
G75*
G02*
X72900000Y-145100000I0J-75000D01*
G01*
X72900000Y-146550000D01*
G75*
G02*
X72825000Y-146625000I-75000J0D01*
G01*
X72675000Y-146625000D01*
G75*
G02*
X72600000Y-146550000I0J75000D01*
G01*
G37*
G36*
G01*
X72100000Y-146550000D02*
X72100000Y-145100000D01*
G75*
G02*
X72175000Y-145025000I75000J0D01*
G01*
X72325000Y-145025000D01*
G75*
G02*
X72400000Y-145100000I0J-75000D01*
G01*
X72400000Y-146550000D01*
G75*
G02*
X72325000Y-146625000I-75000J0D01*
G01*
X72175000Y-146625000D01*
G75*
G02*
X72100000Y-146550000I0J75000D01*
G01*
G37*
G36*
G01*
X71600000Y-146550000D02*
X71600000Y-145100000D01*
G75*
G02*
X71675000Y-145025000I75000J0D01*
G01*
X71825000Y-145025000D01*
G75*
G02*
X71900000Y-145100000I0J-75000D01*
G01*
X71900000Y-146550000D01*
G75*
G02*
X71825000Y-146625000I-75000J0D01*
G01*
X71675000Y-146625000D01*
G75*
G02*
X71600000Y-146550000I0J75000D01*
G01*
G37*
G36*
G01*
X71100000Y-146550000D02*
X71100000Y-145100000D01*
G75*
G02*
X71175000Y-145025000I75000J0D01*
G01*
X71325000Y-145025000D01*
G75*
G02*
X71400000Y-145100000I0J-75000D01*
G01*
X71400000Y-146550000D01*
G75*
G02*
X71325000Y-146625000I-75000J0D01*
G01*
X71175000Y-146625000D01*
G75*
G02*
X71100000Y-146550000I0J75000D01*
G01*
G37*
G36*
G01*
X70600000Y-146550000D02*
X70600000Y-145100000D01*
G75*
G02*
X70675000Y-145025000I75000J0D01*
G01*
X70825000Y-145025000D01*
G75*
G02*
X70900000Y-145100000I0J-75000D01*
G01*
X70900000Y-146550000D01*
G75*
G02*
X70825000Y-146625000I-75000J0D01*
G01*
X70675000Y-146625000D01*
G75*
G02*
X70600000Y-146550000I0J75000D01*
G01*
G37*
G36*
G01*
X70100000Y-146550000D02*
X70100000Y-145100000D01*
G75*
G02*
X70175000Y-145025000I75000J0D01*
G01*
X70325000Y-145025000D01*
G75*
G02*
X70400000Y-145100000I0J-75000D01*
G01*
X70400000Y-146550000D01*
G75*
G02*
X70325000Y-146625000I-75000J0D01*
G01*
X70175000Y-146625000D01*
G75*
G02*
X70100000Y-146550000I0J75000D01*
G01*
G37*
G36*
G01*
X69600000Y-146550000D02*
X69600000Y-145100000D01*
G75*
G02*
X69675000Y-145025000I75000J0D01*
G01*
X69825000Y-145025000D01*
G75*
G02*
X69900000Y-145100000I0J-75000D01*
G01*
X69900000Y-146550000D01*
G75*
G02*
X69825000Y-146625000I-75000J0D01*
G01*
X69675000Y-146625000D01*
G75*
G02*
X69600000Y-146550000I0J75000D01*
G01*
G37*
G36*
G01*
X69100000Y-146550000D02*
X69100000Y-145100000D01*
G75*
G02*
X69175000Y-145025000I75000J0D01*
G01*
X69325000Y-145025000D01*
G75*
G02*
X69400000Y-145100000I0J-75000D01*
G01*
X69400000Y-146550000D01*
G75*
G02*
X69325000Y-146625000I-75000J0D01*
G01*
X69175000Y-146625000D01*
G75*
G02*
X69100000Y-146550000I0J75000D01*
G01*
G37*
G36*
G01*
X68600000Y-146550000D02*
X68600000Y-145100000D01*
G75*
G02*
X68675000Y-145025000I75000J0D01*
G01*
X68825000Y-145025000D01*
G75*
G02*
X68900000Y-145100000I0J-75000D01*
G01*
X68900000Y-146550000D01*
G75*
G02*
X68825000Y-146625000I-75000J0D01*
G01*
X68675000Y-146625000D01*
G75*
G02*
X68600000Y-146550000I0J75000D01*
G01*
G37*
G36*
G01*
X68100000Y-146550000D02*
X68100000Y-145100000D01*
G75*
G02*
X68175000Y-145025000I75000J0D01*
G01*
X68325000Y-145025000D01*
G75*
G02*
X68400000Y-145100000I0J-75000D01*
G01*
X68400000Y-146550000D01*
G75*
G02*
X68325000Y-146625000I-75000J0D01*
G01*
X68175000Y-146625000D01*
G75*
G02*
X68100000Y-146550000I0J75000D01*
G01*
G37*
G36*
G01*
X67600000Y-146550000D02*
X67600000Y-145100000D01*
G75*
G02*
X67675000Y-145025000I75000J0D01*
G01*
X67825000Y-145025000D01*
G75*
G02*
X67900000Y-145100000I0J-75000D01*
G01*
X67900000Y-146550000D01*
G75*
G02*
X67825000Y-146625000I-75000J0D01*
G01*
X67675000Y-146625000D01*
G75*
G02*
X67600000Y-146550000I0J75000D01*
G01*
G37*
G36*
G01*
X67100000Y-146550000D02*
X67100000Y-145100000D01*
G75*
G02*
X67175000Y-145025000I75000J0D01*
G01*
X67325000Y-145025000D01*
G75*
G02*
X67400000Y-145100000I0J-75000D01*
G01*
X67400000Y-146550000D01*
G75*
G02*
X67325000Y-146625000I-75000J0D01*
G01*
X67175000Y-146625000D01*
G75*
G02*
X67100000Y-146550000I0J75000D01*
G01*
G37*
G36*
G01*
X66600000Y-146550000D02*
X66600000Y-145100000D01*
G75*
G02*
X66675000Y-145025000I75000J0D01*
G01*
X66825000Y-145025000D01*
G75*
G02*
X66900000Y-145100000I0J-75000D01*
G01*
X66900000Y-146550000D01*
G75*
G02*
X66825000Y-146625000I-75000J0D01*
G01*
X66675000Y-146625000D01*
G75*
G02*
X66600000Y-146550000I0J75000D01*
G01*
G37*
G36*
G01*
X66100000Y-146550000D02*
X66100000Y-145100000D01*
G75*
G02*
X66175000Y-145025000I75000J0D01*
G01*
X66325000Y-145025000D01*
G75*
G02*
X66400000Y-145100000I0J-75000D01*
G01*
X66400000Y-146550000D01*
G75*
G02*
X66325000Y-146625000I-75000J0D01*
G01*
X66175000Y-146625000D01*
G75*
G02*
X66100000Y-146550000I0J75000D01*
G01*
G37*
G36*
G01*
X65600000Y-146550000D02*
X65600000Y-145100000D01*
G75*
G02*
X65675000Y-145025000I75000J0D01*
G01*
X65825000Y-145025000D01*
G75*
G02*
X65900000Y-145100000I0J-75000D01*
G01*
X65900000Y-146550000D01*
G75*
G02*
X65825000Y-146625000I-75000J0D01*
G01*
X65675000Y-146625000D01*
G75*
G02*
X65600000Y-146550000I0J75000D01*
G01*
G37*
G36*
G01*
X65100000Y-146550000D02*
X65100000Y-145100000D01*
G75*
G02*
X65175000Y-145025000I75000J0D01*
G01*
X65325000Y-145025000D01*
G75*
G02*
X65400000Y-145100000I0J-75000D01*
G01*
X65400000Y-146550000D01*
G75*
G02*
X65325000Y-146625000I-75000J0D01*
G01*
X65175000Y-146625000D01*
G75*
G02*
X65100000Y-146550000I0J75000D01*
G01*
G37*
G36*
G01*
X64600000Y-146550000D02*
X64600000Y-145100000D01*
G75*
G02*
X64675000Y-145025000I75000J0D01*
G01*
X64825000Y-145025000D01*
G75*
G02*
X64900000Y-145100000I0J-75000D01*
G01*
X64900000Y-146550000D01*
G75*
G02*
X64825000Y-146625000I-75000J0D01*
G01*
X64675000Y-146625000D01*
G75*
G02*
X64600000Y-146550000I0J75000D01*
G01*
G37*
G36*
G01*
X64100000Y-146550000D02*
X64100000Y-145100000D01*
G75*
G02*
X64175000Y-145025000I75000J0D01*
G01*
X64325000Y-145025000D01*
G75*
G02*
X64400000Y-145100000I0J-75000D01*
G01*
X64400000Y-146550000D01*
G75*
G02*
X64325000Y-146625000I-75000J0D01*
G01*
X64175000Y-146625000D01*
G75*
G02*
X64100000Y-146550000I0J75000D01*
G01*
G37*
G36*
G01*
X63600000Y-146550000D02*
X63600000Y-145100000D01*
G75*
G02*
X63675000Y-145025000I75000J0D01*
G01*
X63825000Y-145025000D01*
G75*
G02*
X63900000Y-145100000I0J-75000D01*
G01*
X63900000Y-146550000D01*
G75*
G02*
X63825000Y-146625000I-75000J0D01*
G01*
X63675000Y-146625000D01*
G75*
G02*
X63600000Y-146550000I0J75000D01*
G01*
G37*
G36*
G01*
X63100000Y-146550000D02*
X63100000Y-145100000D01*
G75*
G02*
X63175000Y-145025000I75000J0D01*
G01*
X63325000Y-145025000D01*
G75*
G02*
X63400000Y-145100000I0J-75000D01*
G01*
X63400000Y-146550000D01*
G75*
G02*
X63325000Y-146625000I-75000J0D01*
G01*
X63175000Y-146625000D01*
G75*
G02*
X63100000Y-146550000I0J75000D01*
G01*
G37*
G36*
G01*
X62600000Y-146550000D02*
X62600000Y-145100000D01*
G75*
G02*
X62675000Y-145025000I75000J0D01*
G01*
X62825000Y-145025000D01*
G75*
G02*
X62900000Y-145100000I0J-75000D01*
G01*
X62900000Y-146550000D01*
G75*
G02*
X62825000Y-146625000I-75000J0D01*
G01*
X62675000Y-146625000D01*
G75*
G02*
X62600000Y-146550000I0J75000D01*
G01*
G37*
%TD*%
%TO.C,U7*%
G36*
G01*
X110405000Y-152850000D02*
X110405000Y-153850000D01*
G75*
G02*
X110280000Y-153975000I-125000J0D01*
G01*
X110030000Y-153975000D01*
G75*
G02*
X109905000Y-153850000I0J125000D01*
G01*
X109905000Y-152850000D01*
G75*
G02*
X110030000Y-152725000I125000J0D01*
G01*
X110280000Y-152725000D01*
G75*
G02*
X110405000Y-152850000I0J-125000D01*
G01*
G37*
G36*
G01*
X109135000Y-152850000D02*
X109135000Y-153850000D01*
G75*
G02*
X109010000Y-153975000I-125000J0D01*
G01*
X108760000Y-153975000D01*
G75*
G02*
X108635000Y-153850000I0J125000D01*
G01*
X108635000Y-152850000D01*
G75*
G02*
X108760000Y-152725000I125000J0D01*
G01*
X109010000Y-152725000D01*
G75*
G02*
X109135000Y-152850000I0J-125000D01*
G01*
G37*
G36*
G01*
X107865000Y-152850000D02*
X107865000Y-153850000D01*
G75*
G02*
X107740000Y-153975000I-125000J0D01*
G01*
X107490000Y-153975000D01*
G75*
G02*
X107365000Y-153850000I0J125000D01*
G01*
X107365000Y-152850000D01*
G75*
G02*
X107490000Y-152725000I125000J0D01*
G01*
X107740000Y-152725000D01*
G75*
G02*
X107865000Y-152850000I0J-125000D01*
G01*
G37*
G36*
G01*
X106595000Y-152850000D02*
X106595000Y-153850000D01*
G75*
G02*
X106470000Y-153975000I-125000J0D01*
G01*
X106220000Y-153975000D01*
G75*
G02*
X106095000Y-153850000I0J125000D01*
G01*
X106095000Y-152850000D01*
G75*
G02*
X106220000Y-152725000I125000J0D01*
G01*
X106470000Y-152725000D01*
G75*
G02*
X106595000Y-152850000I0J-125000D01*
G01*
G37*
G36*
G01*
X106595000Y-147350000D02*
X106595000Y-148350000D01*
G75*
G02*
X106470000Y-148475000I-125000J0D01*
G01*
X106220000Y-148475000D01*
G75*
G02*
X106095000Y-148350000I0J125000D01*
G01*
X106095000Y-147350000D01*
G75*
G02*
X106220000Y-147225000I125000J0D01*
G01*
X106470000Y-147225000D01*
G75*
G02*
X106595000Y-147350000I0J-125000D01*
G01*
G37*
G36*
G01*
X107865000Y-147350000D02*
X107865000Y-148350000D01*
G75*
G02*
X107740000Y-148475000I-125000J0D01*
G01*
X107490000Y-148475000D01*
G75*
G02*
X107365000Y-148350000I0J125000D01*
G01*
X107365000Y-147350000D01*
G75*
G02*
X107490000Y-147225000I125000J0D01*
G01*
X107740000Y-147225000D01*
G75*
G02*
X107865000Y-147350000I0J-125000D01*
G01*
G37*
G36*
G01*
X109135000Y-147350000D02*
X109135000Y-148350000D01*
G75*
G02*
X109010000Y-148475000I-125000J0D01*
G01*
X108760000Y-148475000D01*
G75*
G02*
X108635000Y-148350000I0J125000D01*
G01*
X108635000Y-147350000D01*
G75*
G02*
X108760000Y-147225000I125000J0D01*
G01*
X109010000Y-147225000D01*
G75*
G02*
X109135000Y-147350000I0J-125000D01*
G01*
G37*
G36*
G01*
X110405000Y-147350000D02*
X110405000Y-148350000D01*
G75*
G02*
X110280000Y-148475000I-125000J0D01*
G01*
X110030000Y-148475000D01*
G75*
G02*
X109905000Y-148350000I0J125000D01*
G01*
X109905000Y-147350000D01*
G75*
G02*
X110030000Y-147225000I125000J0D01*
G01*
X110280000Y-147225000D01*
G75*
G02*
X110405000Y-147350000I0J-125000D01*
G01*
G37*
%TD*%
%TO.C,R1*%
G36*
G01*
X64262500Y-140350000D02*
X64737500Y-140350000D01*
G75*
G02*
X64975000Y-140587500I0J-237500D01*
G01*
X64975000Y-141087500D01*
G75*
G02*
X64737500Y-141325000I-237500J0D01*
G01*
X64262500Y-141325000D01*
G75*
G02*
X64025000Y-141087500I0J237500D01*
G01*
X64025000Y-140587500D01*
G75*
G02*
X64262500Y-140350000I237500J0D01*
G01*
G37*
G36*
G01*
X64262500Y-142175000D02*
X64737500Y-142175000D01*
G75*
G02*
X64975000Y-142412500I0J-237500D01*
G01*
X64975000Y-142912500D01*
G75*
G02*
X64737500Y-143150000I-237500J0D01*
G01*
X64262500Y-143150000D01*
G75*
G02*
X64025000Y-142912500I0J237500D01*
G01*
X64025000Y-142412500D01*
G75*
G02*
X64262500Y-142175000I237500J0D01*
G01*
G37*
%TD*%
%TO.C,C7*%
G36*
G01*
X81212500Y-148987500D02*
X81212500Y-148512500D01*
G75*
G02*
X81450000Y-148275000I237500J0D01*
G01*
X82050000Y-148275000D01*
G75*
G02*
X82287500Y-148512500I0J-237500D01*
G01*
X82287500Y-148987500D01*
G75*
G02*
X82050000Y-149225000I-237500J0D01*
G01*
X81450000Y-149225000D01*
G75*
G02*
X81212500Y-148987500I0J237500D01*
G01*
G37*
G36*
G01*
X79487500Y-148987500D02*
X79487500Y-148512500D01*
G75*
G02*
X79725000Y-148275000I237500J0D01*
G01*
X80325000Y-148275000D01*
G75*
G02*
X80562500Y-148512500I0J-237500D01*
G01*
X80562500Y-148987500D01*
G75*
G02*
X80325000Y-149225000I-237500J0D01*
G01*
X79725000Y-149225000D01*
G75*
G02*
X79487500Y-148987500I0J237500D01*
G01*
G37*
%TD*%
%TO.C,C6*%
G36*
G01*
X74512500Y-164575000D02*
X74987500Y-164575000D01*
G75*
G02*
X75225000Y-164812500I0J-237500D01*
G01*
X75225000Y-165412500D01*
G75*
G02*
X74987500Y-165650000I-237500J0D01*
G01*
X74512500Y-165650000D01*
G75*
G02*
X74275000Y-165412500I0J237500D01*
G01*
X74275000Y-164812500D01*
G75*
G02*
X74512500Y-164575000I237500J0D01*
G01*
G37*
G36*
G01*
X74512500Y-162850000D02*
X74987500Y-162850000D01*
G75*
G02*
X75225000Y-163087500I0J-237500D01*
G01*
X75225000Y-163687500D01*
G75*
G02*
X74987500Y-163925000I-237500J0D01*
G01*
X74512500Y-163925000D01*
G75*
G02*
X74275000Y-163687500I0J237500D01*
G01*
X74275000Y-163087500D01*
G75*
G02*
X74512500Y-162850000I237500J0D01*
G01*
G37*
%TD*%
D10*
%TO.C,J13*%
X62330000Y-172460000D03*
X59790000Y-172460000D03*
X57250000Y-172460000D03*
X62330000Y-175000000D03*
X59790000Y-175000000D03*
G36*
G01*
X57850000Y-175850000D02*
X56650000Y-175850000D01*
G75*
G02*
X56400000Y-175600000I0J250000D01*
G01*
X56400000Y-174400000D01*
G75*
G02*
X56650000Y-174150000I250000J0D01*
G01*
X57850000Y-174150000D01*
G75*
G02*
X58100000Y-174400000I0J-250000D01*
G01*
X58100000Y-175600000D01*
G75*
G02*
X57850000Y-175850000I-250000J0D01*
G01*
G37*
%TD*%
D11*
%TO.C,U22*%
X120000000Y-113000000D03*
%TD*%
%TO.C,U21*%
X55000000Y-88000000D03*
%TD*%
%TO.C,U20*%
X120000000Y-88000000D03*
%TD*%
%TO.C,U19*%
X55000000Y-113000000D03*
%TD*%
%TO.C,R43*%
G36*
G01*
X132145000Y-112697500D02*
X132145000Y-113302500D01*
G75*
G02*
X131947500Y-113500000I-197500J0D01*
G01*
X131552500Y-113500000D01*
G75*
G02*
X131355000Y-113302500I0J197500D01*
G01*
X131355000Y-112697500D01*
G75*
G02*
X131552500Y-112500000I197500J0D01*
G01*
X131947500Y-112500000D01*
G75*
G02*
X132145000Y-112697500I0J-197500D01*
G01*
G37*
G36*
G01*
X133645000Y-112697500D02*
X133645000Y-113302500D01*
G75*
G02*
X133447500Y-113500000I-197500J0D01*
G01*
X133052500Y-113500000D01*
G75*
G02*
X132855000Y-113302500I0J197500D01*
G01*
X132855000Y-112697500D01*
G75*
G02*
X133052500Y-112500000I197500J0D01*
G01*
X133447500Y-112500000D01*
G75*
G02*
X133645000Y-112697500I0J-197500D01*
G01*
G37*
%TD*%
%TO.C,R34*%
G36*
G01*
X132395000Y-101197500D02*
X132395000Y-101802500D01*
G75*
G02*
X132197500Y-102000000I-197500J0D01*
G01*
X131802500Y-102000000D01*
G75*
G02*
X131605000Y-101802500I0J197500D01*
G01*
X131605000Y-101197500D01*
G75*
G02*
X131802500Y-101000000I197500J0D01*
G01*
X132197500Y-101000000D01*
G75*
G02*
X132395000Y-101197500I0J-197500D01*
G01*
G37*
G36*
G01*
X133895000Y-101197500D02*
X133895000Y-101802500D01*
G75*
G02*
X133697500Y-102000000I-197500J0D01*
G01*
X133302500Y-102000000D01*
G75*
G02*
X133105000Y-101802500I0J197500D01*
G01*
X133105000Y-101197500D01*
G75*
G02*
X133302500Y-101000000I197500J0D01*
G01*
X133697500Y-101000000D01*
G75*
G02*
X133895000Y-101197500I0J-197500D01*
G01*
G37*
%TD*%
%TO.C,R33*%
G36*
G01*
X132395000Y-129947500D02*
X132395000Y-130552500D01*
G75*
G02*
X132197500Y-130750000I-197500J0D01*
G01*
X131802500Y-130750000D01*
G75*
G02*
X131605000Y-130552500I0J197500D01*
G01*
X131605000Y-129947500D01*
G75*
G02*
X131802500Y-129750000I197500J0D01*
G01*
X132197500Y-129750000D01*
G75*
G02*
X132395000Y-129947500I0J-197500D01*
G01*
G37*
G36*
G01*
X133895000Y-129947500D02*
X133895000Y-130552500D01*
G75*
G02*
X133697500Y-130750000I-197500J0D01*
G01*
X133302500Y-130750000D01*
G75*
G02*
X133105000Y-130552500I0J197500D01*
G01*
X133105000Y-129947500D01*
G75*
G02*
X133302500Y-129750000I197500J0D01*
G01*
X133697500Y-129750000D01*
G75*
G02*
X133895000Y-129947500I0J-197500D01*
G01*
G37*
%TD*%
%TO.C,R32*%
G36*
G01*
X131895000Y-118697500D02*
X131895000Y-119302500D01*
G75*
G02*
X131697500Y-119500000I-197500J0D01*
G01*
X131302500Y-119500000D01*
G75*
G02*
X131105000Y-119302500I0J197500D01*
G01*
X131105000Y-118697500D01*
G75*
G02*
X131302500Y-118500000I197500J0D01*
G01*
X131697500Y-118500000D01*
G75*
G02*
X131895000Y-118697500I0J-197500D01*
G01*
G37*
G36*
G01*
X133395000Y-118697500D02*
X133395000Y-119302500D01*
G75*
G02*
X133197500Y-119500000I-197500J0D01*
G01*
X132802500Y-119500000D01*
G75*
G02*
X132605000Y-119302500I0J197500D01*
G01*
X132605000Y-118697500D01*
G75*
G02*
X132802500Y-118500000I197500J0D01*
G01*
X133197500Y-118500000D01*
G75*
G02*
X133395000Y-118697500I0J-197500D01*
G01*
G37*
%TD*%
%TO.C,R31*%
G36*
G01*
X148339999Y-95044000D02*
X148339999Y-94439000D01*
G75*
G02*
X148537499Y-94241500I197500J0D01*
G01*
X148932499Y-94241500D01*
G75*
G02*
X149129999Y-94439000I0J-197500D01*
G01*
X149129999Y-95044000D01*
G75*
G02*
X148932499Y-95241500I-197500J0D01*
G01*
X148537499Y-95241500D01*
G75*
G02*
X148339999Y-95044000I0J197500D01*
G01*
G37*
G36*
G01*
X146839999Y-95044000D02*
X146839999Y-94439000D01*
G75*
G02*
X147037499Y-94241500I197500J0D01*
G01*
X147432499Y-94241500D01*
G75*
G02*
X147629999Y-94439000I0J-197500D01*
G01*
X147629999Y-95044000D01*
G75*
G02*
X147432499Y-95241500I-197500J0D01*
G01*
X147037499Y-95241500D01*
G75*
G02*
X146839999Y-95044000I0J197500D01*
G01*
G37*
%TD*%
%TO.C,R30*%
G36*
G01*
X141787499Y-91386500D02*
X141182499Y-91386500D01*
G75*
G02*
X140984999Y-91189000I0J197500D01*
G01*
X140984999Y-90794000D01*
G75*
G02*
X141182499Y-90596500I197500J0D01*
G01*
X141787499Y-90596500D01*
G75*
G02*
X141984999Y-90794000I0J-197500D01*
G01*
X141984999Y-91189000D01*
G75*
G02*
X141787499Y-91386500I-197500J0D01*
G01*
G37*
G36*
G01*
X141787499Y-92886500D02*
X141182499Y-92886500D01*
G75*
G02*
X140984999Y-92689000I0J197500D01*
G01*
X140984999Y-92294000D01*
G75*
G02*
X141182499Y-92096500I197500J0D01*
G01*
X141787499Y-92096500D01*
G75*
G02*
X141984999Y-92294000I0J-197500D01*
G01*
X141984999Y-92689000D01*
G75*
G02*
X141787499Y-92886500I-197500J0D01*
G01*
G37*
%TD*%
%TO.C,R29*%
G36*
G01*
X143287499Y-91386500D02*
X142682499Y-91386500D01*
G75*
G02*
X142484999Y-91189000I0J197500D01*
G01*
X142484999Y-90794000D01*
G75*
G02*
X142682499Y-90596500I197500J0D01*
G01*
X143287499Y-90596500D01*
G75*
G02*
X143484999Y-90794000I0J-197500D01*
G01*
X143484999Y-91189000D01*
G75*
G02*
X143287499Y-91386500I-197500J0D01*
G01*
G37*
G36*
G01*
X143287499Y-92886500D02*
X142682499Y-92886500D01*
G75*
G02*
X142484999Y-92689000I0J197500D01*
G01*
X142484999Y-92294000D01*
G75*
G02*
X142682499Y-92096500I197500J0D01*
G01*
X143287499Y-92096500D01*
G75*
G02*
X143484999Y-92294000I0J-197500D01*
G01*
X143484999Y-92689000D01*
G75*
G02*
X143287499Y-92886500I-197500J0D01*
G01*
G37*
%TD*%
%TO.C,R28*%
G36*
G01*
X143287499Y-88636500D02*
X142682499Y-88636500D01*
G75*
G02*
X142484999Y-88439000I0J197500D01*
G01*
X142484999Y-88044000D01*
G75*
G02*
X142682499Y-87846500I197500J0D01*
G01*
X143287499Y-87846500D01*
G75*
G02*
X143484999Y-88044000I0J-197500D01*
G01*
X143484999Y-88439000D01*
G75*
G02*
X143287499Y-88636500I-197500J0D01*
G01*
G37*
G36*
G01*
X143287499Y-90136500D02*
X142682499Y-90136500D01*
G75*
G02*
X142484999Y-89939000I0J197500D01*
G01*
X142484999Y-89544000D01*
G75*
G02*
X142682499Y-89346500I197500J0D01*
G01*
X143287499Y-89346500D01*
G75*
G02*
X143484999Y-89544000I0J-197500D01*
G01*
X143484999Y-89939000D01*
G75*
G02*
X143287499Y-90136500I-197500J0D01*
G01*
G37*
%TD*%
%TO.C,R27*%
G36*
G01*
X141787499Y-88636500D02*
X141182499Y-88636500D01*
G75*
G02*
X140984999Y-88439000I0J197500D01*
G01*
X140984999Y-88044000D01*
G75*
G02*
X141182499Y-87846500I197500J0D01*
G01*
X141787499Y-87846500D01*
G75*
G02*
X141984999Y-88044000I0J-197500D01*
G01*
X141984999Y-88439000D01*
G75*
G02*
X141787499Y-88636500I-197500J0D01*
G01*
G37*
G36*
G01*
X141787499Y-90136500D02*
X141182499Y-90136500D01*
G75*
G02*
X140984999Y-89939000I0J197500D01*
G01*
X140984999Y-89544000D01*
G75*
G02*
X141182499Y-89346500I197500J0D01*
G01*
X141787499Y-89346500D01*
G75*
G02*
X141984999Y-89544000I0J-197500D01*
G01*
X141984999Y-89939000D01*
G75*
G02*
X141787499Y-90136500I-197500J0D01*
G01*
G37*
%TD*%
%TO.C,R26*%
G36*
G01*
X141479999Y-94994000D02*
X141479999Y-94389000D01*
G75*
G02*
X141677499Y-94191500I197500J0D01*
G01*
X142072499Y-94191500D01*
G75*
G02*
X142269999Y-94389000I0J-197500D01*
G01*
X142269999Y-94994000D01*
G75*
G02*
X142072499Y-95191500I-197500J0D01*
G01*
X141677499Y-95191500D01*
G75*
G02*
X141479999Y-94994000I0J197500D01*
G01*
G37*
G36*
G01*
X139979999Y-94994000D02*
X139979999Y-94389000D01*
G75*
G02*
X140177499Y-94191500I197500J0D01*
G01*
X140572499Y-94191500D01*
G75*
G02*
X140769999Y-94389000I0J-197500D01*
G01*
X140769999Y-94994000D01*
G75*
G02*
X140572499Y-95191500I-197500J0D01*
G01*
X140177499Y-95191500D01*
G75*
G02*
X139979999Y-94994000I0J197500D01*
G01*
G37*
%TD*%
%TO.C,R25*%
G36*
G01*
X134927499Y-91336500D02*
X134322499Y-91336500D01*
G75*
G02*
X134124999Y-91139000I0J197500D01*
G01*
X134124999Y-90744000D01*
G75*
G02*
X134322499Y-90546500I197500J0D01*
G01*
X134927499Y-90546500D01*
G75*
G02*
X135124999Y-90744000I0J-197500D01*
G01*
X135124999Y-91139000D01*
G75*
G02*
X134927499Y-91336500I-197500J0D01*
G01*
G37*
G36*
G01*
X134927499Y-92836500D02*
X134322499Y-92836500D01*
G75*
G02*
X134124999Y-92639000I0J197500D01*
G01*
X134124999Y-92244000D01*
G75*
G02*
X134322499Y-92046500I197500J0D01*
G01*
X134927499Y-92046500D01*
G75*
G02*
X135124999Y-92244000I0J-197500D01*
G01*
X135124999Y-92639000D01*
G75*
G02*
X134927499Y-92836500I-197500J0D01*
G01*
G37*
%TD*%
%TO.C,R23*%
G36*
G01*
X136427499Y-91336500D02*
X135822499Y-91336500D01*
G75*
G02*
X135624999Y-91139000I0J197500D01*
G01*
X135624999Y-90744000D01*
G75*
G02*
X135822499Y-90546500I197500J0D01*
G01*
X136427499Y-90546500D01*
G75*
G02*
X136624999Y-90744000I0J-197500D01*
G01*
X136624999Y-91139000D01*
G75*
G02*
X136427499Y-91336500I-197500J0D01*
G01*
G37*
G36*
G01*
X136427499Y-92836500D02*
X135822499Y-92836500D01*
G75*
G02*
X135624999Y-92639000I0J197500D01*
G01*
X135624999Y-92244000D01*
G75*
G02*
X135822499Y-92046500I197500J0D01*
G01*
X136427499Y-92046500D01*
G75*
G02*
X136624999Y-92244000I0J-197500D01*
G01*
X136624999Y-92639000D01*
G75*
G02*
X136427499Y-92836500I-197500J0D01*
G01*
G37*
%TD*%
%TO.C,R22*%
G36*
G01*
X136427499Y-88586500D02*
X135822499Y-88586500D01*
G75*
G02*
X135624999Y-88389000I0J197500D01*
G01*
X135624999Y-87994000D01*
G75*
G02*
X135822499Y-87796500I197500J0D01*
G01*
X136427499Y-87796500D01*
G75*
G02*
X136624999Y-87994000I0J-197500D01*
G01*
X136624999Y-88389000D01*
G75*
G02*
X136427499Y-88586500I-197500J0D01*
G01*
G37*
G36*
G01*
X136427499Y-90086500D02*
X135822499Y-90086500D01*
G75*
G02*
X135624999Y-89889000I0J197500D01*
G01*
X135624999Y-89494000D01*
G75*
G02*
X135822499Y-89296500I197500J0D01*
G01*
X136427499Y-89296500D01*
G75*
G02*
X136624999Y-89494000I0J-197500D01*
G01*
X136624999Y-89889000D01*
G75*
G02*
X136427499Y-90086500I-197500J0D01*
G01*
G37*
%TD*%
%TO.C,R21*%
G36*
G01*
X134927499Y-88586500D02*
X134322499Y-88586500D01*
G75*
G02*
X134124999Y-88389000I0J197500D01*
G01*
X134124999Y-87994000D01*
G75*
G02*
X134322499Y-87796500I197500J0D01*
G01*
X134927499Y-87796500D01*
G75*
G02*
X135124999Y-87994000I0J-197500D01*
G01*
X135124999Y-88389000D01*
G75*
G02*
X134927499Y-88586500I-197500J0D01*
G01*
G37*
G36*
G01*
X134927499Y-90086500D02*
X134322499Y-90086500D01*
G75*
G02*
X134124999Y-89889000I0J197500D01*
G01*
X134124999Y-89494000D01*
G75*
G02*
X134322499Y-89296500I197500J0D01*
G01*
X134927499Y-89296500D01*
G75*
G02*
X135124999Y-89494000I0J-197500D01*
G01*
X135124999Y-89889000D01*
G75*
G02*
X134927499Y-90086500I-197500J0D01*
G01*
G37*
%TD*%
%TO.C,R20*%
G36*
G01*
X134605000Y-95052500D02*
X134605000Y-94447500D01*
G75*
G02*
X134802500Y-94250000I197500J0D01*
G01*
X135197500Y-94250000D01*
G75*
G02*
X135395000Y-94447500I0J-197500D01*
G01*
X135395000Y-95052500D01*
G75*
G02*
X135197500Y-95250000I-197500J0D01*
G01*
X134802500Y-95250000D01*
G75*
G02*
X134605000Y-95052500I0J197500D01*
G01*
G37*
G36*
G01*
X133105000Y-95052500D02*
X133105000Y-94447500D01*
G75*
G02*
X133302500Y-94250000I197500J0D01*
G01*
X133697500Y-94250000D01*
G75*
G02*
X133895000Y-94447500I0J-197500D01*
G01*
X133895000Y-95052500D01*
G75*
G02*
X133697500Y-95250000I-197500J0D01*
G01*
X133302500Y-95250000D01*
G75*
G02*
X133105000Y-95052500I0J197500D01*
G01*
G37*
%TD*%
%TO.C,R19*%
G36*
G01*
X128052500Y-91395000D02*
X127447500Y-91395000D01*
G75*
G02*
X127250000Y-91197500I0J197500D01*
G01*
X127250000Y-90802500D01*
G75*
G02*
X127447500Y-90605000I197500J0D01*
G01*
X128052500Y-90605000D01*
G75*
G02*
X128250000Y-90802500I0J-197500D01*
G01*
X128250000Y-91197500D01*
G75*
G02*
X128052500Y-91395000I-197500J0D01*
G01*
G37*
G36*
G01*
X128052500Y-92895000D02*
X127447500Y-92895000D01*
G75*
G02*
X127250000Y-92697500I0J197500D01*
G01*
X127250000Y-92302500D01*
G75*
G02*
X127447500Y-92105000I197500J0D01*
G01*
X128052500Y-92105000D01*
G75*
G02*
X128250000Y-92302500I0J-197500D01*
G01*
X128250000Y-92697500D01*
G75*
G02*
X128052500Y-92895000I-197500J0D01*
G01*
G37*
%TD*%
%TO.C,R15*%
G36*
G01*
X129552500Y-91395000D02*
X128947500Y-91395000D01*
G75*
G02*
X128750000Y-91197500I0J197500D01*
G01*
X128750000Y-90802500D01*
G75*
G02*
X128947500Y-90605000I197500J0D01*
G01*
X129552500Y-90605000D01*
G75*
G02*
X129750000Y-90802500I0J-197500D01*
G01*
X129750000Y-91197500D01*
G75*
G02*
X129552500Y-91395000I-197500J0D01*
G01*
G37*
G36*
G01*
X129552500Y-92895000D02*
X128947500Y-92895000D01*
G75*
G02*
X128750000Y-92697500I0J197500D01*
G01*
X128750000Y-92302500D01*
G75*
G02*
X128947500Y-92105000I197500J0D01*
G01*
X129552500Y-92105000D01*
G75*
G02*
X129750000Y-92302500I0J-197500D01*
G01*
X129750000Y-92697500D01*
G75*
G02*
X129552500Y-92895000I-197500J0D01*
G01*
G37*
%TD*%
%TO.C,R14*%
G36*
G01*
X129552500Y-88645000D02*
X128947500Y-88645000D01*
G75*
G02*
X128750000Y-88447500I0J197500D01*
G01*
X128750000Y-88052500D01*
G75*
G02*
X128947500Y-87855000I197500J0D01*
G01*
X129552500Y-87855000D01*
G75*
G02*
X129750000Y-88052500I0J-197500D01*
G01*
X129750000Y-88447500D01*
G75*
G02*
X129552500Y-88645000I-197500J0D01*
G01*
G37*
G36*
G01*
X129552500Y-90145000D02*
X128947500Y-90145000D01*
G75*
G02*
X128750000Y-89947500I0J197500D01*
G01*
X128750000Y-89552500D01*
G75*
G02*
X128947500Y-89355000I197500J0D01*
G01*
X129552500Y-89355000D01*
G75*
G02*
X129750000Y-89552500I0J-197500D01*
G01*
X129750000Y-89947500D01*
G75*
G02*
X129552500Y-90145000I-197500J0D01*
G01*
G37*
%TD*%
%TO.C,R13*%
G36*
G01*
X128052500Y-88645000D02*
X127447500Y-88645000D01*
G75*
G02*
X127250000Y-88447500I0J197500D01*
G01*
X127250000Y-88052500D01*
G75*
G02*
X127447500Y-87855000I197500J0D01*
G01*
X128052500Y-87855000D01*
G75*
G02*
X128250000Y-88052500I0J-197500D01*
G01*
X128250000Y-88447500D01*
G75*
G02*
X128052500Y-88645000I-197500J0D01*
G01*
G37*
G36*
G01*
X128052500Y-90145000D02*
X127447500Y-90145000D01*
G75*
G02*
X127250000Y-89947500I0J197500D01*
G01*
X127250000Y-89552500D01*
G75*
G02*
X127447500Y-89355000I197500J0D01*
G01*
X128052500Y-89355000D01*
G75*
G02*
X128250000Y-89552500I0J-197500D01*
G01*
X128250000Y-89947500D01*
G75*
G02*
X128052500Y-90145000I-197500J0D01*
G01*
G37*
%TD*%
D12*
%TO.C,Q6*%
X145734999Y-94741500D03*
X144784999Y-92741500D03*
X146684999Y-92741500D03*
%TD*%
%TO.C,Q5*%
X145734999Y-90741500D03*
X144784999Y-88741500D03*
X146684999Y-88741500D03*
%TD*%
%TO.C,Q4*%
X138874999Y-94691500D03*
X137924999Y-92691500D03*
X139824999Y-92691500D03*
%TD*%
%TO.C,Q3*%
X138874999Y-90691500D03*
X137924999Y-88691500D03*
X139824999Y-88691500D03*
%TD*%
%TO.C,Q2*%
X132000000Y-94750000D03*
X131050000Y-92750000D03*
X132950000Y-92750000D03*
%TD*%
%TO.C,Q1*%
X132000000Y-90750000D03*
X131050000Y-88750000D03*
X132950000Y-88750000D03*
%TD*%
D13*
%TO.C,J12*%
X148000000Y-171700000D03*
X146250000Y-160300000D03*
X144500000Y-171700000D03*
X142750000Y-160300000D03*
%TD*%
%TO.C,J11*%
X141000000Y-171700000D03*
X139250000Y-160300000D03*
X137500000Y-171700000D03*
X135750000Y-160300000D03*
%TD*%
%TO.C,J10*%
X134000000Y-171700000D03*
X132250000Y-160300000D03*
X130500000Y-171700000D03*
X128750000Y-160300000D03*
%TD*%
%TO.C,J6*%
X127000000Y-171700000D03*
X125250000Y-160300000D03*
X123500000Y-171700000D03*
X121750000Y-160300000D03*
%TD*%
%TO.C,J5*%
X120000000Y-171700000D03*
X118250000Y-160300000D03*
X116500000Y-171700000D03*
X114750000Y-160300000D03*
%TD*%
%TO.C,J4*%
X113000000Y-171700000D03*
X111250000Y-160300000D03*
X109500000Y-171700000D03*
X107750000Y-160300000D03*
%TD*%
%TO.C,C5*%
G36*
G01*
X54425000Y-156262500D02*
X54425000Y-156737500D01*
G75*
G02*
X54187500Y-156975000I-237500J0D01*
G01*
X53587500Y-156975000D01*
G75*
G02*
X53350000Y-156737500I0J237500D01*
G01*
X53350000Y-156262500D01*
G75*
G02*
X53587500Y-156025000I237500J0D01*
G01*
X54187500Y-156025000D01*
G75*
G02*
X54425000Y-156262500I0J-237500D01*
G01*
G37*
G36*
G01*
X56150000Y-156262500D02*
X56150000Y-156737500D01*
G75*
G02*
X55912500Y-156975000I-237500J0D01*
G01*
X55312500Y-156975000D01*
G75*
G02*
X55075000Y-156737500I0J237500D01*
G01*
X55075000Y-156262500D01*
G75*
G02*
X55312500Y-156025000I237500J0D01*
G01*
X55912500Y-156025000D01*
G75*
G02*
X56150000Y-156262500I0J-237500D01*
G01*
G37*
%TD*%
%TO.C,C4*%
G36*
G01*
X54825000Y-146987500D02*
X54825000Y-146512500D01*
G75*
G02*
X55062500Y-146275000I237500J0D01*
G01*
X55662500Y-146275000D01*
G75*
G02*
X55900000Y-146512500I0J-237500D01*
G01*
X55900000Y-146987500D01*
G75*
G02*
X55662500Y-147225000I-237500J0D01*
G01*
X55062500Y-147225000D01*
G75*
G02*
X54825000Y-146987500I0J237500D01*
G01*
G37*
G36*
G01*
X53100000Y-146987500D02*
X53100000Y-146512500D01*
G75*
G02*
X53337500Y-146275000I237500J0D01*
G01*
X53937500Y-146275000D01*
G75*
G02*
X54175000Y-146512500I0J-237500D01*
G01*
X54175000Y-146987500D01*
G75*
G02*
X53937500Y-147225000I-237500J0D01*
G01*
X53337500Y-147225000D01*
G75*
G02*
X53100000Y-146987500I0J237500D01*
G01*
G37*
%TD*%
D14*
%TO.C,C3*%
X100000000Y-156250000D03*
D15*
X97500000Y-156250000D03*
%TD*%
D14*
%TO.C,C2*%
X89750000Y-168250000D03*
D15*
X87250000Y-168250000D03*
%TD*%
D14*
%TO.C,C1*%
X97500000Y-163500000D03*
D15*
X100000000Y-163500000D03*
%TD*%
%TO.C,C26*%
G36*
G01*
X112252500Y-152645000D02*
X111747500Y-152645000D01*
G75*
G02*
X111600000Y-152497500I0J147500D01*
G01*
X111600000Y-152202500D01*
G75*
G02*
X111747500Y-152055000I147500J0D01*
G01*
X112252500Y-152055000D01*
G75*
G02*
X112400000Y-152202500I0J-147500D01*
G01*
X112400000Y-152497500D01*
G75*
G02*
X112252500Y-152645000I-147500J0D01*
G01*
G37*
G36*
G01*
X112252500Y-151145000D02*
X111747500Y-151145000D01*
G75*
G02*
X111600000Y-150997500I0J147500D01*
G01*
X111600000Y-150702500D01*
G75*
G02*
X111747500Y-150555000I147500J0D01*
G01*
X112252500Y-150555000D01*
G75*
G02*
X112400000Y-150702500I0J-147500D01*
G01*
X112400000Y-150997500D01*
G75*
G02*
X112252500Y-151145000I-147500J0D01*
G01*
G37*
%TD*%
%TO.C,C25*%
G36*
G01*
X119252500Y-152645000D02*
X118747500Y-152645000D01*
G75*
G02*
X118600000Y-152497500I0J147500D01*
G01*
X118600000Y-152202500D01*
G75*
G02*
X118747500Y-152055000I147500J0D01*
G01*
X119252500Y-152055000D01*
G75*
G02*
X119400000Y-152202500I0J-147500D01*
G01*
X119400000Y-152497500D01*
G75*
G02*
X119252500Y-152645000I-147500J0D01*
G01*
G37*
G36*
G01*
X119252500Y-151145000D02*
X118747500Y-151145000D01*
G75*
G02*
X118600000Y-150997500I0J147500D01*
G01*
X118600000Y-150702500D01*
G75*
G02*
X118747500Y-150555000I147500J0D01*
G01*
X119252500Y-150555000D01*
G75*
G02*
X119400000Y-150702500I0J-147500D01*
G01*
X119400000Y-150997500D01*
G75*
G02*
X119252500Y-151145000I-147500J0D01*
G01*
G37*
%TD*%
%TO.C,R41*%
G36*
G01*
X109302500Y-144745000D02*
X108697500Y-144745000D01*
G75*
G02*
X108500000Y-144547500I0J197500D01*
G01*
X108500000Y-144152500D01*
G75*
G02*
X108697500Y-143955000I197500J0D01*
G01*
X109302500Y-143955000D01*
G75*
G02*
X109500000Y-144152500I0J-197500D01*
G01*
X109500000Y-144547500D01*
G75*
G02*
X109302500Y-144745000I-197500J0D01*
G01*
G37*
G36*
G01*
X109302500Y-146245000D02*
X108697500Y-146245000D01*
G75*
G02*
X108500000Y-146047500I0J197500D01*
G01*
X108500000Y-145652500D01*
G75*
G02*
X108697500Y-145455000I197500J0D01*
G01*
X109302500Y-145455000D01*
G75*
G02*
X109500000Y-145652500I0J-197500D01*
G01*
X109500000Y-146047500D01*
G75*
G02*
X109302500Y-146245000I-197500J0D01*
G01*
G37*
%TD*%
%TO.C,R42*%
G36*
G01*
X116602500Y-144745000D02*
X115997500Y-144745000D01*
G75*
G02*
X115800000Y-144547500I0J197500D01*
G01*
X115800000Y-144152500D01*
G75*
G02*
X115997500Y-143955000I197500J0D01*
G01*
X116602500Y-143955000D01*
G75*
G02*
X116800000Y-144152500I0J-197500D01*
G01*
X116800000Y-144547500D01*
G75*
G02*
X116602500Y-144745000I-197500J0D01*
G01*
G37*
G36*
G01*
X116602500Y-146245000D02*
X115997500Y-146245000D01*
G75*
G02*
X115800000Y-146047500I0J197500D01*
G01*
X115800000Y-145652500D01*
G75*
G02*
X115997500Y-145455000I197500J0D01*
G01*
X116602500Y-145455000D01*
G75*
G02*
X116800000Y-145652500I0J-197500D01*
G01*
X116800000Y-146047500D01*
G75*
G02*
X116602500Y-146245000I-197500J0D01*
G01*
G37*
%TD*%
%TO.C,U8*%
G36*
G01*
X117655000Y-147350000D02*
X117655000Y-148350000D01*
G75*
G02*
X117530000Y-148475000I-125000J0D01*
G01*
X117280000Y-148475000D01*
G75*
G02*
X117155000Y-148350000I0J125000D01*
G01*
X117155000Y-147350000D01*
G75*
G02*
X117280000Y-147225000I125000J0D01*
G01*
X117530000Y-147225000D01*
G75*
G02*
X117655000Y-147350000I0J-125000D01*
G01*
G37*
G36*
G01*
X116385000Y-147350000D02*
X116385000Y-148350000D01*
G75*
G02*
X116260000Y-148475000I-125000J0D01*
G01*
X116010000Y-148475000D01*
G75*
G02*
X115885000Y-148350000I0J125000D01*
G01*
X115885000Y-147350000D01*
G75*
G02*
X116010000Y-147225000I125000J0D01*
G01*
X116260000Y-147225000D01*
G75*
G02*
X116385000Y-147350000I0J-125000D01*
G01*
G37*
G36*
G01*
X115115000Y-147350000D02*
X115115000Y-148350000D01*
G75*
G02*
X114990000Y-148475000I-125000J0D01*
G01*
X114740000Y-148475000D01*
G75*
G02*
X114615000Y-148350000I0J125000D01*
G01*
X114615000Y-147350000D01*
G75*
G02*
X114740000Y-147225000I125000J0D01*
G01*
X114990000Y-147225000D01*
G75*
G02*
X115115000Y-147350000I0J-125000D01*
G01*
G37*
G36*
G01*
X113845000Y-147350000D02*
X113845000Y-148350000D01*
G75*
G02*
X113720000Y-148475000I-125000J0D01*
G01*
X113470000Y-148475000D01*
G75*
G02*
X113345000Y-148350000I0J125000D01*
G01*
X113345000Y-147350000D01*
G75*
G02*
X113470000Y-147225000I125000J0D01*
G01*
X113720000Y-147225000D01*
G75*
G02*
X113845000Y-147350000I0J-125000D01*
G01*
G37*
G36*
G01*
X113845000Y-152850000D02*
X113845000Y-153850000D01*
G75*
G02*
X113720000Y-153975000I-125000J0D01*
G01*
X113470000Y-153975000D01*
G75*
G02*
X113345000Y-153850000I0J125000D01*
G01*
X113345000Y-152850000D01*
G75*
G02*
X113470000Y-152725000I125000J0D01*
G01*
X113720000Y-152725000D01*
G75*
G02*
X113845000Y-152850000I0J-125000D01*
G01*
G37*
G36*
G01*
X115115000Y-152850000D02*
X115115000Y-153850000D01*
G75*
G02*
X114990000Y-153975000I-125000J0D01*
G01*
X114740000Y-153975000D01*
G75*
G02*
X114615000Y-153850000I0J125000D01*
G01*
X114615000Y-152850000D01*
G75*
G02*
X114740000Y-152725000I125000J0D01*
G01*
X114990000Y-152725000D01*
G75*
G02*
X115115000Y-152850000I0J-125000D01*
G01*
G37*
G36*
G01*
X116385000Y-152850000D02*
X116385000Y-153850000D01*
G75*
G02*
X116260000Y-153975000I-125000J0D01*
G01*
X116010000Y-153975000D01*
G75*
G02*
X115885000Y-153850000I0J125000D01*
G01*
X115885000Y-152850000D01*
G75*
G02*
X116010000Y-152725000I125000J0D01*
G01*
X116260000Y-152725000D01*
G75*
G02*
X116385000Y-152850000I0J-125000D01*
G01*
G37*
G36*
G01*
X117655000Y-152850000D02*
X117655000Y-153850000D01*
G75*
G02*
X117530000Y-153975000I-125000J0D01*
G01*
X117280000Y-153975000D01*
G75*
G02*
X117155000Y-153850000I0J125000D01*
G01*
X117155000Y-152850000D01*
G75*
G02*
X117280000Y-152725000I125000J0D01*
G01*
X117530000Y-152725000D01*
G75*
G02*
X117655000Y-152850000I0J-125000D01*
G01*
G37*
%TD*%
%TO.C,C8*%
G36*
G01*
X55075000Y-158487500D02*
X55075000Y-158012500D01*
G75*
G02*
X55312500Y-157775000I237500J0D01*
G01*
X55912500Y-157775000D01*
G75*
G02*
X56150000Y-158012500I0J-237500D01*
G01*
X56150000Y-158487500D01*
G75*
G02*
X55912500Y-158725000I-237500J0D01*
G01*
X55312500Y-158725000D01*
G75*
G02*
X55075000Y-158487500I0J237500D01*
G01*
G37*
G36*
G01*
X53350000Y-158487500D02*
X53350000Y-158012500D01*
G75*
G02*
X53587500Y-157775000I237500J0D01*
G01*
X54187500Y-157775000D01*
G75*
G02*
X54425000Y-158012500I0J-237500D01*
G01*
X54425000Y-158487500D01*
G75*
G02*
X54187500Y-158725000I-237500J0D01*
G01*
X53587500Y-158725000D01*
G75*
G02*
X53350000Y-158487500I0J237500D01*
G01*
G37*
%TD*%
%TO.C,C9*%
G36*
G01*
X53100000Y-145237500D02*
X53100000Y-144762500D01*
G75*
G02*
X53337500Y-144525000I237500J0D01*
G01*
X53937500Y-144525000D01*
G75*
G02*
X54175000Y-144762500I0J-237500D01*
G01*
X54175000Y-145237500D01*
G75*
G02*
X53937500Y-145475000I-237500J0D01*
G01*
X53337500Y-145475000D01*
G75*
G02*
X53100000Y-145237500I0J237500D01*
G01*
G37*
G36*
G01*
X54825000Y-145237500D02*
X54825000Y-144762500D01*
G75*
G02*
X55062500Y-144525000I237500J0D01*
G01*
X55662500Y-144525000D01*
G75*
G02*
X55900000Y-144762500I0J-237500D01*
G01*
X55900000Y-145237500D01*
G75*
G02*
X55662500Y-145475000I-237500J0D01*
G01*
X55062500Y-145475000D01*
G75*
G02*
X54825000Y-145237500I0J237500D01*
G01*
G37*
%TD*%
%TO.C,C10*%
G36*
G01*
X58262500Y-149350000D02*
X58737500Y-149350000D01*
G75*
G02*
X58975000Y-149587500I0J-237500D01*
G01*
X58975000Y-150187500D01*
G75*
G02*
X58737500Y-150425000I-237500J0D01*
G01*
X58262500Y-150425000D01*
G75*
G02*
X58025000Y-150187500I0J237500D01*
G01*
X58025000Y-149587500D01*
G75*
G02*
X58262500Y-149350000I237500J0D01*
G01*
G37*
G36*
G01*
X58262500Y-151075000D02*
X58737500Y-151075000D01*
G75*
G02*
X58975000Y-151312500I0J-237500D01*
G01*
X58975000Y-151912500D01*
G75*
G02*
X58737500Y-152150000I-237500J0D01*
G01*
X58262500Y-152150000D01*
G75*
G02*
X58025000Y-151912500I0J237500D01*
G01*
X58025000Y-151312500D01*
G75*
G02*
X58262500Y-151075000I237500J0D01*
G01*
G37*
%TD*%
%TO.C,C11*%
G36*
G01*
X55075000Y-160237500D02*
X55075000Y-159762500D01*
G75*
G02*
X55312500Y-159525000I237500J0D01*
G01*
X55912500Y-159525000D01*
G75*
G02*
X56150000Y-159762500I0J-237500D01*
G01*
X56150000Y-160237500D01*
G75*
G02*
X55912500Y-160475000I-237500J0D01*
G01*
X55312500Y-160475000D01*
G75*
G02*
X55075000Y-160237500I0J237500D01*
G01*
G37*
G36*
G01*
X53350000Y-160237500D02*
X53350000Y-159762500D01*
G75*
G02*
X53587500Y-159525000I237500J0D01*
G01*
X54187500Y-159525000D01*
G75*
G02*
X54425000Y-159762500I0J-237500D01*
G01*
X54425000Y-160237500D01*
G75*
G02*
X54187500Y-160475000I-237500J0D01*
G01*
X53587500Y-160475000D01*
G75*
G02*
X53350000Y-160237500I0J237500D01*
G01*
G37*
%TD*%
%TO.C,C12*%
G36*
G01*
X62100000Y-164487500D02*
X62100000Y-164012500D01*
G75*
G02*
X62337500Y-163775000I237500J0D01*
G01*
X62937500Y-163775000D01*
G75*
G02*
X63175000Y-164012500I0J-237500D01*
G01*
X63175000Y-164487500D01*
G75*
G02*
X62937500Y-164725000I-237500J0D01*
G01*
X62337500Y-164725000D01*
G75*
G02*
X62100000Y-164487500I0J237500D01*
G01*
G37*
G36*
G01*
X63825000Y-164487500D02*
X63825000Y-164012500D01*
G75*
G02*
X64062500Y-163775000I237500J0D01*
G01*
X64662500Y-163775000D01*
G75*
G02*
X64900000Y-164012500I0J-237500D01*
G01*
X64900000Y-164487500D01*
G75*
G02*
X64662500Y-164725000I-237500J0D01*
G01*
X64062500Y-164725000D01*
G75*
G02*
X63825000Y-164487500I0J237500D01*
G01*
G37*
%TD*%
%TO.C,C13*%
G36*
G01*
X76737500Y-165650000D02*
X76262500Y-165650000D01*
G75*
G02*
X76025000Y-165412500I0J237500D01*
G01*
X76025000Y-164812500D01*
G75*
G02*
X76262500Y-164575000I237500J0D01*
G01*
X76737500Y-164575000D01*
G75*
G02*
X76975000Y-164812500I0J-237500D01*
G01*
X76975000Y-165412500D01*
G75*
G02*
X76737500Y-165650000I-237500J0D01*
G01*
G37*
G36*
G01*
X76737500Y-163925000D02*
X76262500Y-163925000D01*
G75*
G02*
X76025000Y-163687500I0J237500D01*
G01*
X76025000Y-163087500D01*
G75*
G02*
X76262500Y-162850000I237500J0D01*
G01*
X76737500Y-162850000D01*
G75*
G02*
X76975000Y-163087500I0J-237500D01*
G01*
X76975000Y-163687500D01*
G75*
G02*
X76737500Y-163925000I-237500J0D01*
G01*
G37*
%TD*%
%TO.C,C14*%
G36*
G01*
X80562500Y-146262500D02*
X80562500Y-146737500D01*
G75*
G02*
X80325000Y-146975000I-237500J0D01*
G01*
X79725000Y-146975000D01*
G75*
G02*
X79487500Y-146737500I0J237500D01*
G01*
X79487500Y-146262500D01*
G75*
G02*
X79725000Y-146025000I237500J0D01*
G01*
X80325000Y-146025000D01*
G75*
G02*
X80562500Y-146262500I0J-237500D01*
G01*
G37*
G36*
G01*
X82287500Y-146262500D02*
X82287500Y-146737500D01*
G75*
G02*
X82050000Y-146975000I-237500J0D01*
G01*
X81450000Y-146975000D01*
G75*
G02*
X81212500Y-146737500I0J237500D01*
G01*
X81212500Y-146262500D01*
G75*
G02*
X81450000Y-146025000I237500J0D01*
G01*
X82050000Y-146025000D01*
G75*
G02*
X82287500Y-146262500I0J-237500D01*
G01*
G37*
%TD*%
%TO.C,C15*%
G36*
G01*
X62512500Y-142075000D02*
X62987500Y-142075000D01*
G75*
G02*
X63225000Y-142312500I0J-237500D01*
G01*
X63225000Y-142912500D01*
G75*
G02*
X62987500Y-143150000I-237500J0D01*
G01*
X62512500Y-143150000D01*
G75*
G02*
X62275000Y-142912500I0J237500D01*
G01*
X62275000Y-142312500D01*
G75*
G02*
X62512500Y-142075000I237500J0D01*
G01*
G37*
G36*
G01*
X62512500Y-140350000D02*
X62987500Y-140350000D01*
G75*
G02*
X63225000Y-140587500I0J-237500D01*
G01*
X63225000Y-141187500D01*
G75*
G02*
X62987500Y-141425000I-237500J0D01*
G01*
X62512500Y-141425000D01*
G75*
G02*
X62275000Y-141187500I0J237500D01*
G01*
X62275000Y-140587500D01*
G75*
G02*
X62512500Y-140350000I237500J0D01*
G01*
G37*
%TD*%
%TO.C,C16*%
G36*
G01*
X53350000Y-161987500D02*
X53350000Y-161512500D01*
G75*
G02*
X53587500Y-161275000I237500J0D01*
G01*
X54187500Y-161275000D01*
G75*
G02*
X54425000Y-161512500I0J-237500D01*
G01*
X54425000Y-161987500D01*
G75*
G02*
X54187500Y-162225000I-237500J0D01*
G01*
X53587500Y-162225000D01*
G75*
G02*
X53350000Y-161987500I0J237500D01*
G01*
G37*
G36*
G01*
X55075000Y-161987500D02*
X55075000Y-161512500D01*
G75*
G02*
X55312500Y-161275000I237500J0D01*
G01*
X55912500Y-161275000D01*
G75*
G02*
X56150000Y-161512500I0J-237500D01*
G01*
X56150000Y-161987500D01*
G75*
G02*
X55912500Y-162225000I-237500J0D01*
G01*
X55312500Y-162225000D01*
G75*
G02*
X55075000Y-161987500I0J237500D01*
G01*
G37*
%TD*%
%TO.C,C17*%
G36*
G01*
X138997500Y-134705000D02*
X139502500Y-134705000D01*
G75*
G02*
X139650000Y-134852500I0J-147500D01*
G01*
X139650000Y-135147500D01*
G75*
G02*
X139502500Y-135295000I-147500J0D01*
G01*
X138997500Y-135295000D01*
G75*
G02*
X138850000Y-135147500I0J147500D01*
G01*
X138850000Y-134852500D01*
G75*
G02*
X138997500Y-134705000I147500J0D01*
G01*
G37*
G36*
G01*
X138997500Y-133205000D02*
X139502500Y-133205000D01*
G75*
G02*
X139650000Y-133352500I0J-147500D01*
G01*
X139650000Y-133647500D01*
G75*
G02*
X139502500Y-133795000I-147500J0D01*
G01*
X138997500Y-133795000D01*
G75*
G02*
X138850000Y-133647500I0J147500D01*
G01*
X138850000Y-133352500D01*
G75*
G02*
X138997500Y-133205000I147500J0D01*
G01*
G37*
%TD*%
%TO.C,C18*%
G36*
G01*
X124545000Y-116497500D02*
X124545000Y-117002500D01*
G75*
G02*
X124397500Y-117150000I-147500J0D01*
G01*
X124102500Y-117150000D01*
G75*
G02*
X123955000Y-117002500I0J147500D01*
G01*
X123955000Y-116497500D01*
G75*
G02*
X124102500Y-116350000I147500J0D01*
G01*
X124397500Y-116350000D01*
G75*
G02*
X124545000Y-116497500I0J-147500D01*
G01*
G37*
G36*
G01*
X126045000Y-116497500D02*
X126045000Y-117002500D01*
G75*
G02*
X125897500Y-117150000I-147500J0D01*
G01*
X125602500Y-117150000D01*
G75*
G02*
X125455000Y-117002500I0J147500D01*
G01*
X125455000Y-116497500D01*
G75*
G02*
X125602500Y-116350000I147500J0D01*
G01*
X125897500Y-116350000D01*
G75*
G02*
X126045000Y-116497500I0J-147500D01*
G01*
G37*
%TD*%
%TO.C,C19*%
G36*
G01*
X125705000Y-124502500D02*
X125705000Y-123997500D01*
G75*
G02*
X125852500Y-123850000I147500J0D01*
G01*
X126147500Y-123850000D01*
G75*
G02*
X126295000Y-123997500I0J-147500D01*
G01*
X126295000Y-124502500D01*
G75*
G02*
X126147500Y-124650000I-147500J0D01*
G01*
X125852500Y-124650000D01*
G75*
G02*
X125705000Y-124502500I0J147500D01*
G01*
G37*
G36*
G01*
X124205000Y-124502500D02*
X124205000Y-123997500D01*
G75*
G02*
X124352500Y-123850000I147500J0D01*
G01*
X124647500Y-123850000D01*
G75*
G02*
X124795000Y-123997500I0J-147500D01*
G01*
X124795000Y-124502500D01*
G75*
G02*
X124647500Y-124650000I-147500J0D01*
G01*
X124352500Y-124650000D01*
G75*
G02*
X124205000Y-124502500I0J147500D01*
G01*
G37*
%TD*%
%TO.C,C20*%
G36*
G01*
X125455000Y-114002500D02*
X125455000Y-113497500D01*
G75*
G02*
X125602500Y-113350000I147500J0D01*
G01*
X125897500Y-113350000D01*
G75*
G02*
X126045000Y-113497500I0J-147500D01*
G01*
X126045000Y-114002500D01*
G75*
G02*
X125897500Y-114150000I-147500J0D01*
G01*
X125602500Y-114150000D01*
G75*
G02*
X125455000Y-114002500I0J147500D01*
G01*
G37*
G36*
G01*
X123955000Y-114002500D02*
X123955000Y-113497500D01*
G75*
G02*
X124102500Y-113350000I147500J0D01*
G01*
X124397500Y-113350000D01*
G75*
G02*
X124545000Y-113497500I0J-147500D01*
G01*
X124545000Y-114002500D01*
G75*
G02*
X124397500Y-114150000I-147500J0D01*
G01*
X124102500Y-114150000D01*
G75*
G02*
X123955000Y-114002500I0J147500D01*
G01*
G37*
%TD*%
%TO.C,C21*%
G36*
G01*
X132045000Y-114247500D02*
X132045000Y-114752500D01*
G75*
G02*
X131897500Y-114900000I-147500J0D01*
G01*
X131602500Y-114900000D01*
G75*
G02*
X131455000Y-114752500I0J147500D01*
G01*
X131455000Y-114247500D01*
G75*
G02*
X131602500Y-114100000I147500J0D01*
G01*
X131897500Y-114100000D01*
G75*
G02*
X132045000Y-114247500I0J-147500D01*
G01*
G37*
G36*
G01*
X133545000Y-114247500D02*
X133545000Y-114752500D01*
G75*
G02*
X133397500Y-114900000I-147500J0D01*
G01*
X133102500Y-114900000D01*
G75*
G02*
X132955000Y-114752500I0J147500D01*
G01*
X132955000Y-114247500D01*
G75*
G02*
X133102500Y-114100000I147500J0D01*
G01*
X133397500Y-114100000D01*
G75*
G02*
X133545000Y-114247500I0J-147500D01*
G01*
G37*
%TD*%
%TO.C,C22*%
G36*
G01*
X127295000Y-102997500D02*
X127295000Y-103502500D01*
G75*
G02*
X127147500Y-103650000I-147500J0D01*
G01*
X126852500Y-103650000D01*
G75*
G02*
X126705000Y-103502500I0J147500D01*
G01*
X126705000Y-102997500D01*
G75*
G02*
X126852500Y-102850000I147500J0D01*
G01*
X127147500Y-102850000D01*
G75*
G02*
X127295000Y-102997500I0J-147500D01*
G01*
G37*
G36*
G01*
X125795000Y-102997500D02*
X125795000Y-103502500D01*
G75*
G02*
X125647500Y-103650000I-147500J0D01*
G01*
X125352500Y-103650000D01*
G75*
G02*
X125205000Y-103502500I0J147500D01*
G01*
X125205000Y-102997500D01*
G75*
G02*
X125352500Y-102850000I147500J0D01*
G01*
X125647500Y-102850000D01*
G75*
G02*
X125795000Y-102997500I0J-147500D01*
G01*
G37*
%TD*%
%TO.C,C23*%
G36*
G01*
X126705000Y-100502500D02*
X126705000Y-99997500D01*
G75*
G02*
X126852500Y-99850000I147500J0D01*
G01*
X127147500Y-99850000D01*
G75*
G02*
X127295000Y-99997500I0J-147500D01*
G01*
X127295000Y-100502500D01*
G75*
G02*
X127147500Y-100650000I-147500J0D01*
G01*
X126852500Y-100650000D01*
G75*
G02*
X126705000Y-100502500I0J147500D01*
G01*
G37*
G36*
G01*
X125205000Y-100502500D02*
X125205000Y-99997500D01*
G75*
G02*
X125352500Y-99850000I147500J0D01*
G01*
X125647500Y-99850000D01*
G75*
G02*
X125795000Y-99997500I0J-147500D01*
G01*
X125795000Y-100502500D01*
G75*
G02*
X125647500Y-100650000I-147500J0D01*
G01*
X125352500Y-100650000D01*
G75*
G02*
X125205000Y-100502500I0J147500D01*
G01*
G37*
%TD*%
%TO.C,C27*%
G36*
G01*
X104997500Y-145555000D02*
X105502500Y-145555000D01*
G75*
G02*
X105650000Y-145702500I0J-147500D01*
G01*
X105650000Y-145997500D01*
G75*
G02*
X105502500Y-146145000I-147500J0D01*
G01*
X104997500Y-146145000D01*
G75*
G02*
X104850000Y-145997500I0J147500D01*
G01*
X104850000Y-145702500D01*
G75*
G02*
X104997500Y-145555000I147500J0D01*
G01*
G37*
G36*
G01*
X104997500Y-144055000D02*
X105502500Y-144055000D01*
G75*
G02*
X105650000Y-144202500I0J-147500D01*
G01*
X105650000Y-144497500D01*
G75*
G02*
X105502500Y-144645000I-147500J0D01*
G01*
X104997500Y-144645000D01*
G75*
G02*
X104850000Y-144497500I0J147500D01*
G01*
X104850000Y-144202500D01*
G75*
G02*
X104997500Y-144055000I147500J0D01*
G01*
G37*
%TD*%
%TO.C,C29*%
G36*
G01*
X133252500Y-152645000D02*
X132747500Y-152645000D01*
G75*
G02*
X132600000Y-152497500I0J147500D01*
G01*
X132600000Y-152202500D01*
G75*
G02*
X132747500Y-152055000I147500J0D01*
G01*
X133252500Y-152055000D01*
G75*
G02*
X133400000Y-152202500I0J-147500D01*
G01*
X133400000Y-152497500D01*
G75*
G02*
X133252500Y-152645000I-147500J0D01*
G01*
G37*
G36*
G01*
X133252500Y-151145000D02*
X132747500Y-151145000D01*
G75*
G02*
X132600000Y-150997500I0J147500D01*
G01*
X132600000Y-150702500D01*
G75*
G02*
X132747500Y-150555000I147500J0D01*
G01*
X133252500Y-150555000D01*
G75*
G02*
X133400000Y-150702500I0J-147500D01*
G01*
X133400000Y-150997500D01*
G75*
G02*
X133252500Y-151145000I-147500J0D01*
G01*
G37*
%TD*%
%TO.C,C30*%
G36*
G01*
X126252500Y-151145000D02*
X125747500Y-151145000D01*
G75*
G02*
X125600000Y-150997500I0J147500D01*
G01*
X125600000Y-150702500D01*
G75*
G02*
X125747500Y-150555000I147500J0D01*
G01*
X126252500Y-150555000D01*
G75*
G02*
X126400000Y-150702500I0J-147500D01*
G01*
X126400000Y-150997500D01*
G75*
G02*
X126252500Y-151145000I-147500J0D01*
G01*
G37*
G36*
G01*
X126252500Y-152645000D02*
X125747500Y-152645000D01*
G75*
G02*
X125600000Y-152497500I0J147500D01*
G01*
X125600000Y-152202500D01*
G75*
G02*
X125747500Y-152055000I147500J0D01*
G01*
X126252500Y-152055000D01*
G75*
G02*
X126400000Y-152202500I0J-147500D01*
G01*
X126400000Y-152497500D01*
G75*
G02*
X126252500Y-152645000I-147500J0D01*
G01*
G37*
%TD*%
%TO.C,C31*%
G36*
G01*
X118997500Y-144055000D02*
X119502500Y-144055000D01*
G75*
G02*
X119650000Y-144202500I0J-147500D01*
G01*
X119650000Y-144497500D01*
G75*
G02*
X119502500Y-144645000I-147500J0D01*
G01*
X118997500Y-144645000D01*
G75*
G02*
X118850000Y-144497500I0J147500D01*
G01*
X118850000Y-144202500D01*
G75*
G02*
X118997500Y-144055000I147500J0D01*
G01*
G37*
G36*
G01*
X118997500Y-145555000D02*
X119502500Y-145555000D01*
G75*
G02*
X119650000Y-145702500I0J-147500D01*
G01*
X119650000Y-145997500D01*
G75*
G02*
X119502500Y-146145000I-147500J0D01*
G01*
X118997500Y-146145000D01*
G75*
G02*
X118850000Y-145997500I0J147500D01*
G01*
X118850000Y-145702500D01*
G75*
G02*
X118997500Y-145555000I147500J0D01*
G01*
G37*
%TD*%
%TO.C,C33*%
G36*
G01*
X147252500Y-151145000D02*
X146747500Y-151145000D01*
G75*
G02*
X146600000Y-150997500I0J147500D01*
G01*
X146600000Y-150702500D01*
G75*
G02*
X146747500Y-150555000I147500J0D01*
G01*
X147252500Y-150555000D01*
G75*
G02*
X147400000Y-150702500I0J-147500D01*
G01*
X147400000Y-150997500D01*
G75*
G02*
X147252500Y-151145000I-147500J0D01*
G01*
G37*
G36*
G01*
X147252500Y-152645000D02*
X146747500Y-152645000D01*
G75*
G02*
X146600000Y-152497500I0J147500D01*
G01*
X146600000Y-152202500D01*
G75*
G02*
X146747500Y-152055000I147500J0D01*
G01*
X147252500Y-152055000D01*
G75*
G02*
X147400000Y-152202500I0J-147500D01*
G01*
X147400000Y-152497500D01*
G75*
G02*
X147252500Y-152645000I-147500J0D01*
G01*
G37*
%TD*%
%TO.C,C34*%
G36*
G01*
X140252500Y-152645000D02*
X139747500Y-152645000D01*
G75*
G02*
X139600000Y-152497500I0J147500D01*
G01*
X139600000Y-152202500D01*
G75*
G02*
X139747500Y-152055000I147500J0D01*
G01*
X140252500Y-152055000D01*
G75*
G02*
X140400000Y-152202500I0J-147500D01*
G01*
X140400000Y-152497500D01*
G75*
G02*
X140252500Y-152645000I-147500J0D01*
G01*
G37*
G36*
G01*
X140252500Y-151145000D02*
X139747500Y-151145000D01*
G75*
G02*
X139600000Y-150997500I0J147500D01*
G01*
X139600000Y-150702500D01*
G75*
G02*
X139747500Y-150555000I147500J0D01*
G01*
X140252500Y-150555000D01*
G75*
G02*
X140400000Y-150702500I0J-147500D01*
G01*
X140400000Y-150997500D01*
G75*
G02*
X140252500Y-151145000I-147500J0D01*
G01*
G37*
%TD*%
%TO.C,C35*%
G36*
G01*
X132997500Y-144055000D02*
X133502500Y-144055000D01*
G75*
G02*
X133650000Y-144202500I0J-147500D01*
G01*
X133650000Y-144497500D01*
G75*
G02*
X133502500Y-144645000I-147500J0D01*
G01*
X132997500Y-144645000D01*
G75*
G02*
X132850000Y-144497500I0J147500D01*
G01*
X132850000Y-144202500D01*
G75*
G02*
X132997500Y-144055000I147500J0D01*
G01*
G37*
G36*
G01*
X132997500Y-145555000D02*
X133502500Y-145555000D01*
G75*
G02*
X133650000Y-145702500I0J-147500D01*
G01*
X133650000Y-145997500D01*
G75*
G02*
X133502500Y-146145000I-147500J0D01*
G01*
X132997500Y-146145000D01*
G75*
G02*
X132850000Y-145997500I0J147500D01*
G01*
X132850000Y-145702500D01*
G75*
G02*
X132997500Y-145555000I147500J0D01*
G01*
G37*
%TD*%
%TO.C,C36*%
G36*
G01*
X65997500Y-127705000D02*
X66502500Y-127705000D01*
G75*
G02*
X66650000Y-127852500I0J-147500D01*
G01*
X66650000Y-128147500D01*
G75*
G02*
X66502500Y-128295000I-147500J0D01*
G01*
X65997500Y-128295000D01*
G75*
G02*
X65850000Y-128147500I0J147500D01*
G01*
X65850000Y-127852500D01*
G75*
G02*
X65997500Y-127705000I147500J0D01*
G01*
G37*
G36*
G01*
X65997500Y-129205000D02*
X66502500Y-129205000D01*
G75*
G02*
X66650000Y-129352500I0J-147500D01*
G01*
X66650000Y-129647500D01*
G75*
G02*
X66502500Y-129795000I-147500J0D01*
G01*
X65997500Y-129795000D01*
G75*
G02*
X65850000Y-129647500I0J147500D01*
G01*
X65850000Y-129352500D01*
G75*
G02*
X65997500Y-129205000I147500J0D01*
G01*
G37*
%TD*%
%TO.C,C37*%
G36*
G01*
X58997500Y-129205000D02*
X59502500Y-129205000D01*
G75*
G02*
X59650000Y-129352500I0J-147500D01*
G01*
X59650000Y-129647500D01*
G75*
G02*
X59502500Y-129795000I-147500J0D01*
G01*
X58997500Y-129795000D01*
G75*
G02*
X58850000Y-129647500I0J147500D01*
G01*
X58850000Y-129352500D01*
G75*
G02*
X58997500Y-129205000I147500J0D01*
G01*
G37*
G36*
G01*
X58997500Y-127705000D02*
X59502500Y-127705000D01*
G75*
G02*
X59650000Y-127852500I0J-147500D01*
G01*
X59650000Y-128147500D01*
G75*
G02*
X59502500Y-128295000I-147500J0D01*
G01*
X58997500Y-128295000D01*
G75*
G02*
X58850000Y-128147500I0J147500D01*
G01*
X58850000Y-127852500D01*
G75*
G02*
X58997500Y-127705000I147500J0D01*
G01*
G37*
%TD*%
%TO.C,C38*%
G36*
G01*
X75002500Y-132045000D02*
X74497500Y-132045000D01*
G75*
G02*
X74350000Y-131897500I0J147500D01*
G01*
X74350000Y-131602500D01*
G75*
G02*
X74497500Y-131455000I147500J0D01*
G01*
X75002500Y-131455000D01*
G75*
G02*
X75150000Y-131602500I0J-147500D01*
G01*
X75150000Y-131897500D01*
G75*
G02*
X75002500Y-132045000I-147500J0D01*
G01*
G37*
G36*
G01*
X75002500Y-130545000D02*
X74497500Y-130545000D01*
G75*
G02*
X74350000Y-130397500I0J147500D01*
G01*
X74350000Y-130102500D01*
G75*
G02*
X74497500Y-129955000I147500J0D01*
G01*
X75002500Y-129955000D01*
G75*
G02*
X75150000Y-130102500I0J-147500D01*
G01*
X75150000Y-130397500D01*
G75*
G02*
X75002500Y-130545000I-147500J0D01*
G01*
G37*
%TD*%
%TO.C,C39*%
G36*
G01*
X82747500Y-127705000D02*
X83252500Y-127705000D01*
G75*
G02*
X83400000Y-127852500I0J-147500D01*
G01*
X83400000Y-128147500D01*
G75*
G02*
X83252500Y-128295000I-147500J0D01*
G01*
X82747500Y-128295000D01*
G75*
G02*
X82600000Y-128147500I0J147500D01*
G01*
X82600000Y-127852500D01*
G75*
G02*
X82747500Y-127705000I147500J0D01*
G01*
G37*
G36*
G01*
X82747500Y-129205000D02*
X83252500Y-129205000D01*
G75*
G02*
X83400000Y-129352500I0J-147500D01*
G01*
X83400000Y-129647500D01*
G75*
G02*
X83252500Y-129795000I-147500J0D01*
G01*
X82747500Y-129795000D01*
G75*
G02*
X82600000Y-129647500I0J147500D01*
G01*
X82600000Y-129352500D01*
G75*
G02*
X82747500Y-129205000I147500J0D01*
G01*
G37*
%TD*%
%TO.C,C40*%
G36*
G01*
X76152500Y-128345000D02*
X75647500Y-128345000D01*
G75*
G02*
X75500000Y-128197500I0J147500D01*
G01*
X75500000Y-127902500D01*
G75*
G02*
X75647500Y-127755000I147500J0D01*
G01*
X76152500Y-127755000D01*
G75*
G02*
X76300000Y-127902500I0J-147500D01*
G01*
X76300000Y-128197500D01*
G75*
G02*
X76152500Y-128345000I-147500J0D01*
G01*
G37*
G36*
G01*
X76152500Y-126845000D02*
X75647500Y-126845000D01*
G75*
G02*
X75500000Y-126697500I0J147500D01*
G01*
X75500000Y-126402500D01*
G75*
G02*
X75647500Y-126255000I147500J0D01*
G01*
X76152500Y-126255000D01*
G75*
G02*
X76300000Y-126402500I0J-147500D01*
G01*
X76300000Y-126697500D01*
G75*
G02*
X76152500Y-126845000I-147500J0D01*
G01*
G37*
%TD*%
%TO.C,C41*%
G36*
G01*
X91752500Y-130545000D02*
X91247500Y-130545000D01*
G75*
G02*
X91100000Y-130397500I0J147500D01*
G01*
X91100000Y-130102500D01*
G75*
G02*
X91247500Y-129955000I147500J0D01*
G01*
X91752500Y-129955000D01*
G75*
G02*
X91900000Y-130102500I0J-147500D01*
G01*
X91900000Y-130397500D01*
G75*
G02*
X91752500Y-130545000I-147500J0D01*
G01*
G37*
G36*
G01*
X91752500Y-132045000D02*
X91247500Y-132045000D01*
G75*
G02*
X91100000Y-131897500I0J147500D01*
G01*
X91100000Y-131602500D01*
G75*
G02*
X91247500Y-131455000I147500J0D01*
G01*
X91752500Y-131455000D01*
G75*
G02*
X91900000Y-131602500I0J-147500D01*
G01*
X91900000Y-131897500D01*
G75*
G02*
X91752500Y-132045000I-147500J0D01*
G01*
G37*
%TD*%
%TO.C,C42*%
G36*
G01*
X99247500Y-129205000D02*
X99752500Y-129205000D01*
G75*
G02*
X99900000Y-129352500I0J-147500D01*
G01*
X99900000Y-129647500D01*
G75*
G02*
X99752500Y-129795000I-147500J0D01*
G01*
X99247500Y-129795000D01*
G75*
G02*
X99100000Y-129647500I0J147500D01*
G01*
X99100000Y-129352500D01*
G75*
G02*
X99247500Y-129205000I147500J0D01*
G01*
G37*
G36*
G01*
X99247500Y-127705000D02*
X99752500Y-127705000D01*
G75*
G02*
X99900000Y-127852500I0J-147500D01*
G01*
X99900000Y-128147500D01*
G75*
G02*
X99752500Y-128295000I-147500J0D01*
G01*
X99247500Y-128295000D01*
G75*
G02*
X99100000Y-128147500I0J147500D01*
G01*
X99100000Y-127852500D01*
G75*
G02*
X99247500Y-127705000I147500J0D01*
G01*
G37*
%TD*%
%TO.C,C43*%
G36*
G01*
X92652500Y-126845000D02*
X92147500Y-126845000D01*
G75*
G02*
X92000000Y-126697500I0J147500D01*
G01*
X92000000Y-126402500D01*
G75*
G02*
X92147500Y-126255000I147500J0D01*
G01*
X92652500Y-126255000D01*
G75*
G02*
X92800000Y-126402500I0J-147500D01*
G01*
X92800000Y-126697500D01*
G75*
G02*
X92652500Y-126845000I-147500J0D01*
G01*
G37*
G36*
G01*
X92652500Y-128345000D02*
X92147500Y-128345000D01*
G75*
G02*
X92000000Y-128197500I0J147500D01*
G01*
X92000000Y-127902500D01*
G75*
G02*
X92147500Y-127755000I147500J0D01*
G01*
X92652500Y-127755000D01*
G75*
G02*
X92800000Y-127902500I0J-147500D01*
G01*
X92800000Y-128197500D01*
G75*
G02*
X92652500Y-128345000I-147500J0D01*
G01*
G37*
%TD*%
%TO.C,C44*%
G36*
G01*
X108252500Y-132045000D02*
X107747500Y-132045000D01*
G75*
G02*
X107600000Y-131897500I0J147500D01*
G01*
X107600000Y-131602500D01*
G75*
G02*
X107747500Y-131455000I147500J0D01*
G01*
X108252500Y-131455000D01*
G75*
G02*
X108400000Y-131602500I0J-147500D01*
G01*
X108400000Y-131897500D01*
G75*
G02*
X108252500Y-132045000I-147500J0D01*
G01*
G37*
G36*
G01*
X108252500Y-130545000D02*
X107747500Y-130545000D01*
G75*
G02*
X107600000Y-130397500I0J147500D01*
G01*
X107600000Y-130102500D01*
G75*
G02*
X107747500Y-129955000I147500J0D01*
G01*
X108252500Y-129955000D01*
G75*
G02*
X108400000Y-130102500I0J-147500D01*
G01*
X108400000Y-130397500D01*
G75*
G02*
X108252500Y-130545000I-147500J0D01*
G01*
G37*
%TD*%
D13*
%TO.C,J1*%
X101450000Y-169900000D03*
X96370000Y-169900000D03*
%TD*%
D16*
%TO.C,J2*%
X135420000Y-116640000D03*
X135420000Y-118930000D03*
X135420000Y-128070000D03*
X135420000Y-130360000D03*
X140280000Y-127070000D03*
X142060000Y-126050000D03*
X140280000Y-125030000D03*
X142060000Y-124010000D03*
X140280000Y-122990000D03*
X142060000Y-121970000D03*
X140280000Y-120950000D03*
X142060000Y-119930000D03*
D17*
X141170000Y-115250000D03*
X141170000Y-131750000D03*
D18*
X144600000Y-117150000D03*
X144600000Y-129850000D03*
%TD*%
D16*
%TO.C,J3*%
X135420000Y-100140000D03*
X135420000Y-102430000D03*
X135420000Y-111570000D03*
X135420000Y-113860000D03*
X140280000Y-110570000D03*
X142060000Y-109550000D03*
X140280000Y-108530000D03*
X142060000Y-107510000D03*
X140280000Y-106490000D03*
X142060000Y-105470000D03*
X140280000Y-104450000D03*
X142060000Y-103430000D03*
D17*
X141170000Y-98750000D03*
X141170000Y-115250000D03*
D18*
X144600000Y-100650000D03*
X144600000Y-113350000D03*
%TD*%
D14*
%TO.C,J7*%
X67840000Y-111005000D03*
X67840000Y-108235000D03*
X67840000Y-105465000D03*
X67840000Y-102695000D03*
X67840000Y-99925000D03*
X67840000Y-97155000D03*
X67840000Y-94385000D03*
X65000000Y-112390000D03*
X65000000Y-109620000D03*
X65000000Y-106850000D03*
X65000000Y-104080000D03*
X65000000Y-101310000D03*
X65000000Y-98540000D03*
X65000000Y-95770000D03*
D15*
X65000000Y-93000000D03*
%TD*%
%TO.C,J8*%
X81750000Y-93000000D03*
D14*
X81750000Y-95770000D03*
X81750000Y-98540000D03*
X81750000Y-101310000D03*
X81750000Y-104080000D03*
X81750000Y-106850000D03*
X81750000Y-109620000D03*
X81750000Y-112390000D03*
X84590000Y-94385000D03*
X84590000Y-97155000D03*
X84590000Y-99925000D03*
X84590000Y-102695000D03*
X84590000Y-105465000D03*
X84590000Y-108235000D03*
X84590000Y-111005000D03*
%TD*%
D15*
%TO.C,J9*%
X98250000Y-93000000D03*
D14*
X98250000Y-95770000D03*
X98250000Y-98540000D03*
X98250000Y-101310000D03*
X98250000Y-104080000D03*
X98250000Y-106850000D03*
X98250000Y-109620000D03*
X98250000Y-112390000D03*
X101090000Y-94385000D03*
X101090000Y-97155000D03*
X101090000Y-99925000D03*
X101090000Y-102695000D03*
X101090000Y-105465000D03*
X101090000Y-108235000D03*
X101090000Y-111005000D03*
%TD*%
D19*
%TO.C,JP1*%
X66750000Y-141100000D03*
X66750000Y-142400000D03*
%TD*%
%TO.C,L1*%
G36*
G01*
X53350000Y-163737500D02*
X53350000Y-163262500D01*
G75*
G02*
X53587500Y-163025000I237500J0D01*
G01*
X54162500Y-163025000D01*
G75*
G02*
X54400000Y-163262500I0J-237500D01*
G01*
X54400000Y-163737500D01*
G75*
G02*
X54162500Y-163975000I-237500J0D01*
G01*
X53587500Y-163975000D01*
G75*
G02*
X53350000Y-163737500I0J237500D01*
G01*
G37*
G36*
G01*
X55100000Y-163737500D02*
X55100000Y-163262500D01*
G75*
G02*
X55337500Y-163025000I237500J0D01*
G01*
X55912500Y-163025000D01*
G75*
G02*
X56150000Y-163262500I0J-237500D01*
G01*
X56150000Y-163737500D01*
G75*
G02*
X55912500Y-163975000I-237500J0D01*
G01*
X55337500Y-163975000D01*
G75*
G02*
X55100000Y-163737500I0J237500D01*
G01*
G37*
%TD*%
%TO.C,L2*%
G36*
G01*
X124645000Y-114947500D02*
X124645000Y-115552500D01*
G75*
G02*
X124447500Y-115750000I-197500J0D01*
G01*
X124052500Y-115750000D01*
G75*
G02*
X123855000Y-115552500I0J197500D01*
G01*
X123855000Y-114947500D01*
G75*
G02*
X124052500Y-114750000I197500J0D01*
G01*
X124447500Y-114750000D01*
G75*
G02*
X124645000Y-114947500I0J-197500D01*
G01*
G37*
G36*
G01*
X126145000Y-114947500D02*
X126145000Y-115552500D01*
G75*
G02*
X125947500Y-115750000I-197500J0D01*
G01*
X125552500Y-115750000D01*
G75*
G02*
X125355000Y-115552500I0J197500D01*
G01*
X125355000Y-114947500D01*
G75*
G02*
X125552500Y-114750000I197500J0D01*
G01*
X125947500Y-114750000D01*
G75*
G02*
X126145000Y-114947500I0J-197500D01*
G01*
G37*
%TD*%
%TO.C,L3*%
G36*
G01*
X125895000Y-101447500D02*
X125895000Y-102052500D01*
G75*
G02*
X125697500Y-102250000I-197500J0D01*
G01*
X125302500Y-102250000D01*
G75*
G02*
X125105000Y-102052500I0J197500D01*
G01*
X125105000Y-101447500D01*
G75*
G02*
X125302500Y-101250000I197500J0D01*
G01*
X125697500Y-101250000D01*
G75*
G02*
X125895000Y-101447500I0J-197500D01*
G01*
G37*
G36*
G01*
X127395000Y-101447500D02*
X127395000Y-102052500D01*
G75*
G02*
X127197500Y-102250000I-197500J0D01*
G01*
X126802500Y-102250000D01*
G75*
G02*
X126605000Y-102052500I0J197500D01*
G01*
X126605000Y-101447500D01*
G75*
G02*
X126802500Y-101250000I197500J0D01*
G01*
X127197500Y-101250000D01*
G75*
G02*
X127395000Y-101447500I0J-197500D01*
G01*
G37*
%TD*%
%TO.C,L4*%
G36*
G01*
X107052500Y-146245000D02*
X106447500Y-146245000D01*
G75*
G02*
X106250000Y-146047500I0J197500D01*
G01*
X106250000Y-145652500D01*
G75*
G02*
X106447500Y-145455000I197500J0D01*
G01*
X107052500Y-145455000D01*
G75*
G02*
X107250000Y-145652500I0J-197500D01*
G01*
X107250000Y-146047500D01*
G75*
G02*
X107052500Y-146245000I-197500J0D01*
G01*
G37*
G36*
G01*
X107052500Y-144745000D02*
X106447500Y-144745000D01*
G75*
G02*
X106250000Y-144547500I0J197500D01*
G01*
X106250000Y-144152500D01*
G75*
G02*
X106447500Y-143955000I197500J0D01*
G01*
X107052500Y-143955000D01*
G75*
G02*
X107250000Y-144152500I0J-197500D01*
G01*
X107250000Y-144547500D01*
G75*
G02*
X107052500Y-144745000I-197500J0D01*
G01*
G37*
%TD*%
%TO.C,L5*%
G36*
G01*
X121052500Y-144745000D02*
X120447500Y-144745000D01*
G75*
G02*
X120250000Y-144547500I0J197500D01*
G01*
X120250000Y-144152500D01*
G75*
G02*
X120447500Y-143955000I197500J0D01*
G01*
X121052500Y-143955000D01*
G75*
G02*
X121250000Y-144152500I0J-197500D01*
G01*
X121250000Y-144547500D01*
G75*
G02*
X121052500Y-144745000I-197500J0D01*
G01*
G37*
G36*
G01*
X121052500Y-146245000D02*
X120447500Y-146245000D01*
G75*
G02*
X120250000Y-146047500I0J197500D01*
G01*
X120250000Y-145652500D01*
G75*
G02*
X120447500Y-145455000I197500J0D01*
G01*
X121052500Y-145455000D01*
G75*
G02*
X121250000Y-145652500I0J-197500D01*
G01*
X121250000Y-146047500D01*
G75*
G02*
X121052500Y-146245000I-197500J0D01*
G01*
G37*
%TD*%
%TO.C,L6*%
G36*
G01*
X135052500Y-144745000D02*
X134447500Y-144745000D01*
G75*
G02*
X134250000Y-144547500I0J197500D01*
G01*
X134250000Y-144152500D01*
G75*
G02*
X134447500Y-143955000I197500J0D01*
G01*
X135052500Y-143955000D01*
G75*
G02*
X135250000Y-144152500I0J-197500D01*
G01*
X135250000Y-144547500D01*
G75*
G02*
X135052500Y-144745000I-197500J0D01*
G01*
G37*
G36*
G01*
X135052500Y-146245000D02*
X134447500Y-146245000D01*
G75*
G02*
X134250000Y-146047500I0J197500D01*
G01*
X134250000Y-145652500D01*
G75*
G02*
X134447500Y-145455000I197500J0D01*
G01*
X135052500Y-145455000D01*
G75*
G02*
X135250000Y-145652500I0J-197500D01*
G01*
X135250000Y-146047500D01*
G75*
G02*
X135052500Y-146245000I-197500J0D01*
G01*
G37*
%TD*%
%TO.C,L7*%
G36*
G01*
X72947500Y-129855000D02*
X73552500Y-129855000D01*
G75*
G02*
X73750000Y-130052500I0J-197500D01*
G01*
X73750000Y-130447500D01*
G75*
G02*
X73552500Y-130645000I-197500J0D01*
G01*
X72947500Y-130645000D01*
G75*
G02*
X72750000Y-130447500I0J197500D01*
G01*
X72750000Y-130052500D01*
G75*
G02*
X72947500Y-129855000I197500J0D01*
G01*
G37*
G36*
G01*
X72947500Y-131355000D02*
X73552500Y-131355000D01*
G75*
G02*
X73750000Y-131552500I0J-197500D01*
G01*
X73750000Y-131947500D01*
G75*
G02*
X73552500Y-132145000I-197500J0D01*
G01*
X72947500Y-132145000D01*
G75*
G02*
X72750000Y-131947500I0J197500D01*
G01*
X72750000Y-131552500D01*
G75*
G02*
X72947500Y-131355000I197500J0D01*
G01*
G37*
%TD*%
%TO.C,L8*%
G36*
G01*
X89697500Y-131355000D02*
X90302500Y-131355000D01*
G75*
G02*
X90500000Y-131552500I0J-197500D01*
G01*
X90500000Y-131947500D01*
G75*
G02*
X90302500Y-132145000I-197500J0D01*
G01*
X89697500Y-132145000D01*
G75*
G02*
X89500000Y-131947500I0J197500D01*
G01*
X89500000Y-131552500D01*
G75*
G02*
X89697500Y-131355000I197500J0D01*
G01*
G37*
G36*
G01*
X89697500Y-129855000D02*
X90302500Y-129855000D01*
G75*
G02*
X90500000Y-130052500I0J-197500D01*
G01*
X90500000Y-130447500D01*
G75*
G02*
X90302500Y-130645000I-197500J0D01*
G01*
X89697500Y-130645000D01*
G75*
G02*
X89500000Y-130447500I0J197500D01*
G01*
X89500000Y-130052500D01*
G75*
G02*
X89697500Y-129855000I197500J0D01*
G01*
G37*
%TD*%
%TO.C,L9*%
G36*
G01*
X106197500Y-129855000D02*
X106802500Y-129855000D01*
G75*
G02*
X107000000Y-130052500I0J-197500D01*
G01*
X107000000Y-130447500D01*
G75*
G02*
X106802500Y-130645000I-197500J0D01*
G01*
X106197500Y-130645000D01*
G75*
G02*
X106000000Y-130447500I0J197500D01*
G01*
X106000000Y-130052500D01*
G75*
G02*
X106197500Y-129855000I197500J0D01*
G01*
G37*
G36*
G01*
X106197500Y-131355000D02*
X106802500Y-131355000D01*
G75*
G02*
X107000000Y-131552500I0J-197500D01*
G01*
X107000000Y-131947500D01*
G75*
G02*
X106802500Y-132145000I-197500J0D01*
G01*
X106197500Y-132145000D01*
G75*
G02*
X106000000Y-131947500I0J197500D01*
G01*
X106000000Y-131552500D01*
G75*
G02*
X106197500Y-131355000I197500J0D01*
G01*
G37*
%TD*%
%TO.C,R2*%
G36*
G01*
X54075000Y-148262500D02*
X54075000Y-148737500D01*
G75*
G02*
X53837500Y-148975000I-237500J0D01*
G01*
X53337500Y-148975000D01*
G75*
G02*
X53100000Y-148737500I0J237500D01*
G01*
X53100000Y-148262500D01*
G75*
G02*
X53337500Y-148025000I237500J0D01*
G01*
X53837500Y-148025000D01*
G75*
G02*
X54075000Y-148262500I0J-237500D01*
G01*
G37*
G36*
G01*
X55900000Y-148262500D02*
X55900000Y-148737500D01*
G75*
G02*
X55662500Y-148975000I-237500J0D01*
G01*
X55162500Y-148975000D01*
G75*
G02*
X54925000Y-148737500I0J237500D01*
G01*
X54925000Y-148262500D01*
G75*
G02*
X55162500Y-148025000I237500J0D01*
G01*
X55662500Y-148025000D01*
G75*
G02*
X55900000Y-148262500I0J-237500D01*
G01*
G37*
%TD*%
%TO.C,R3*%
G36*
G01*
X142197500Y-134605000D02*
X142802500Y-134605000D01*
G75*
G02*
X143000000Y-134802500I0J-197500D01*
G01*
X143000000Y-135197500D01*
G75*
G02*
X142802500Y-135395000I-197500J0D01*
G01*
X142197500Y-135395000D01*
G75*
G02*
X142000000Y-135197500I0J197500D01*
G01*
X142000000Y-134802500D01*
G75*
G02*
X142197500Y-134605000I197500J0D01*
G01*
G37*
G36*
G01*
X142197500Y-133105000D02*
X142802500Y-133105000D01*
G75*
G02*
X143000000Y-133302500I0J-197500D01*
G01*
X143000000Y-133697500D01*
G75*
G02*
X142802500Y-133895000I-197500J0D01*
G01*
X142197500Y-133895000D01*
G75*
G02*
X142000000Y-133697500I0J197500D01*
G01*
X142000000Y-133302500D01*
G75*
G02*
X142197500Y-133105000I197500J0D01*
G01*
G37*
%TD*%
%TO.C,R4*%
G36*
G01*
X129645000Y-122697500D02*
X129645000Y-123302500D01*
G75*
G02*
X129447500Y-123500000I-197500J0D01*
G01*
X129052500Y-123500000D01*
G75*
G02*
X128855000Y-123302500I0J197500D01*
G01*
X128855000Y-122697500D01*
G75*
G02*
X129052500Y-122500000I197500J0D01*
G01*
X129447500Y-122500000D01*
G75*
G02*
X129645000Y-122697500I0J-197500D01*
G01*
G37*
G36*
G01*
X128145000Y-122697500D02*
X128145000Y-123302500D01*
G75*
G02*
X127947500Y-123500000I-197500J0D01*
G01*
X127552500Y-123500000D01*
G75*
G02*
X127355000Y-123302500I0J197500D01*
G01*
X127355000Y-122697500D01*
G75*
G02*
X127552500Y-122500000I197500J0D01*
G01*
X127947500Y-122500000D01*
G75*
G02*
X128145000Y-122697500I0J-197500D01*
G01*
G37*
%TD*%
%TO.C,R5*%
G36*
G01*
X128052500Y-120395000D02*
X127447500Y-120395000D01*
G75*
G02*
X127250000Y-120197500I0J197500D01*
G01*
X127250000Y-119802500D01*
G75*
G02*
X127447500Y-119605000I197500J0D01*
G01*
X128052500Y-119605000D01*
G75*
G02*
X128250000Y-119802500I0J-197500D01*
G01*
X128250000Y-120197500D01*
G75*
G02*
X128052500Y-120395000I-197500J0D01*
G01*
G37*
G36*
G01*
X128052500Y-121895000D02*
X127447500Y-121895000D01*
G75*
G02*
X127250000Y-121697500I0J197500D01*
G01*
X127250000Y-121302500D01*
G75*
G02*
X127447500Y-121105000I197500J0D01*
G01*
X128052500Y-121105000D01*
G75*
G02*
X128250000Y-121302500I0J-197500D01*
G01*
X128250000Y-121697500D01*
G75*
G02*
X128052500Y-121895000I-197500J0D01*
G01*
G37*
%TD*%
%TO.C,R6*%
G36*
G01*
X128052500Y-117645000D02*
X127447500Y-117645000D01*
G75*
G02*
X127250000Y-117447500I0J197500D01*
G01*
X127250000Y-117052500D01*
G75*
G02*
X127447500Y-116855000I197500J0D01*
G01*
X128052500Y-116855000D01*
G75*
G02*
X128250000Y-117052500I0J-197500D01*
G01*
X128250000Y-117447500D01*
G75*
G02*
X128052500Y-117645000I-197500J0D01*
G01*
G37*
G36*
G01*
X128052500Y-119145000D02*
X127447500Y-119145000D01*
G75*
G02*
X127250000Y-118947500I0J197500D01*
G01*
X127250000Y-118552500D01*
G75*
G02*
X127447500Y-118355000I197500J0D01*
G01*
X128052500Y-118355000D01*
G75*
G02*
X128250000Y-118552500I0J-197500D01*
G01*
X128250000Y-118947500D01*
G75*
G02*
X128052500Y-119145000I-197500J0D01*
G01*
G37*
%TD*%
%TO.C,R7*%
G36*
G01*
X128052500Y-131645000D02*
X127447500Y-131645000D01*
G75*
G02*
X127250000Y-131447500I0J197500D01*
G01*
X127250000Y-131052500D01*
G75*
G02*
X127447500Y-130855000I197500J0D01*
G01*
X128052500Y-130855000D01*
G75*
G02*
X128250000Y-131052500I0J-197500D01*
G01*
X128250000Y-131447500D01*
G75*
G02*
X128052500Y-131645000I-197500J0D01*
G01*
G37*
G36*
G01*
X128052500Y-130145000D02*
X127447500Y-130145000D01*
G75*
G02*
X127250000Y-129947500I0J197500D01*
G01*
X127250000Y-129552500D01*
G75*
G02*
X127447500Y-129355000I197500J0D01*
G01*
X128052500Y-129355000D01*
G75*
G02*
X128250000Y-129552500I0J-197500D01*
G01*
X128250000Y-129947500D01*
G75*
G02*
X128052500Y-130145000I-197500J0D01*
G01*
G37*
%TD*%
%TO.C,R8*%
G36*
G01*
X128052500Y-128895000D02*
X127447500Y-128895000D01*
G75*
G02*
X127250000Y-128697500I0J197500D01*
G01*
X127250000Y-128302500D01*
G75*
G02*
X127447500Y-128105000I197500J0D01*
G01*
X128052500Y-128105000D01*
G75*
G02*
X128250000Y-128302500I0J-197500D01*
G01*
X128250000Y-128697500D01*
G75*
G02*
X128052500Y-128895000I-197500J0D01*
G01*
G37*
G36*
G01*
X128052500Y-127395000D02*
X127447500Y-127395000D01*
G75*
G02*
X127250000Y-127197500I0J197500D01*
G01*
X127250000Y-126802500D01*
G75*
G02*
X127447500Y-126605000I197500J0D01*
G01*
X128052500Y-126605000D01*
G75*
G02*
X128250000Y-126802500I0J-197500D01*
G01*
X128250000Y-127197500D01*
G75*
G02*
X128052500Y-127395000I-197500J0D01*
G01*
G37*
%TD*%
%TO.C,R9*%
G36*
G01*
X128855000Y-125802500D02*
X128855000Y-125197500D01*
G75*
G02*
X129052500Y-125000000I197500J0D01*
G01*
X129447500Y-125000000D01*
G75*
G02*
X129645000Y-125197500I0J-197500D01*
G01*
X129645000Y-125802500D01*
G75*
G02*
X129447500Y-126000000I-197500J0D01*
G01*
X129052500Y-126000000D01*
G75*
G02*
X128855000Y-125802500I0J197500D01*
G01*
G37*
G36*
G01*
X127355000Y-125802500D02*
X127355000Y-125197500D01*
G75*
G02*
X127552500Y-125000000I197500J0D01*
G01*
X127947500Y-125000000D01*
G75*
G02*
X128145000Y-125197500I0J-197500D01*
G01*
X128145000Y-125802500D01*
G75*
G02*
X127947500Y-126000000I-197500J0D01*
G01*
X127552500Y-126000000D01*
G75*
G02*
X127355000Y-125802500I0J197500D01*
G01*
G37*
%TD*%
%TO.C,R10*%
G36*
G01*
X118645000Y-119697500D02*
X118645000Y-120302500D01*
G75*
G02*
X118447500Y-120500000I-197500J0D01*
G01*
X118052500Y-120500000D01*
G75*
G02*
X117855000Y-120302500I0J197500D01*
G01*
X117855000Y-119697500D01*
G75*
G02*
X118052500Y-119500000I197500J0D01*
G01*
X118447500Y-119500000D01*
G75*
G02*
X118645000Y-119697500I0J-197500D01*
G01*
G37*
G36*
G01*
X117145000Y-119697500D02*
X117145000Y-120302500D01*
G75*
G02*
X116947500Y-120500000I-197500J0D01*
G01*
X116552500Y-120500000D01*
G75*
G02*
X116355000Y-120302500I0J197500D01*
G01*
X116355000Y-119697500D01*
G75*
G02*
X116552500Y-119500000I197500J0D01*
G01*
X116947500Y-119500000D01*
G75*
G02*
X117145000Y-119697500I0J-197500D01*
G01*
G37*
%TD*%
%TO.C,R11*%
G36*
G01*
X118645000Y-126697500D02*
X118645000Y-127302500D01*
G75*
G02*
X118447500Y-127500000I-197500J0D01*
G01*
X118052500Y-127500000D01*
G75*
G02*
X117855000Y-127302500I0J197500D01*
G01*
X117855000Y-126697500D01*
G75*
G02*
X118052500Y-126500000I197500J0D01*
G01*
X118447500Y-126500000D01*
G75*
G02*
X118645000Y-126697500I0J-197500D01*
G01*
G37*
G36*
G01*
X117145000Y-126697500D02*
X117145000Y-127302500D01*
G75*
G02*
X116947500Y-127500000I-197500J0D01*
G01*
X116552500Y-127500000D01*
G75*
G02*
X116355000Y-127302500I0J197500D01*
G01*
X116355000Y-126697500D01*
G75*
G02*
X116552500Y-126500000I197500J0D01*
G01*
X116947500Y-126500000D01*
G75*
G02*
X117145000Y-126697500I0J-197500D01*
G01*
G37*
%TD*%
%TO.C,R12*%
G36*
G01*
X133645000Y-115697500D02*
X133645000Y-116302500D01*
G75*
G02*
X133447500Y-116500000I-197500J0D01*
G01*
X133052500Y-116500000D01*
G75*
G02*
X132855000Y-116302500I0J197500D01*
G01*
X132855000Y-115697500D01*
G75*
G02*
X133052500Y-115500000I197500J0D01*
G01*
X133447500Y-115500000D01*
G75*
G02*
X133645000Y-115697500I0J-197500D01*
G01*
G37*
G36*
G01*
X132145000Y-115697500D02*
X132145000Y-116302500D01*
G75*
G02*
X131947500Y-116500000I-197500J0D01*
G01*
X131552500Y-116500000D01*
G75*
G02*
X131355000Y-116302500I0J197500D01*
G01*
X131355000Y-115697500D01*
G75*
G02*
X131552500Y-115500000I197500J0D01*
G01*
X131947500Y-115500000D01*
G75*
G02*
X132145000Y-115697500I0J-197500D01*
G01*
G37*
%TD*%
%TO.C,R16*%
G36*
G01*
X130802500Y-109145000D02*
X130197500Y-109145000D01*
G75*
G02*
X130000000Y-108947500I0J197500D01*
G01*
X130000000Y-108552500D01*
G75*
G02*
X130197500Y-108355000I197500J0D01*
G01*
X130802500Y-108355000D01*
G75*
G02*
X131000000Y-108552500I0J-197500D01*
G01*
X131000000Y-108947500D01*
G75*
G02*
X130802500Y-109145000I-197500J0D01*
G01*
G37*
G36*
G01*
X130802500Y-110645000D02*
X130197500Y-110645000D01*
G75*
G02*
X130000000Y-110447500I0J197500D01*
G01*
X130000000Y-110052500D01*
G75*
G02*
X130197500Y-109855000I197500J0D01*
G01*
X130802500Y-109855000D01*
G75*
G02*
X131000000Y-110052500I0J-197500D01*
G01*
X131000000Y-110447500D01*
G75*
G02*
X130802500Y-110645000I-197500J0D01*
G01*
G37*
%TD*%
%TO.C,R17*%
G36*
G01*
X130802500Y-107895000D02*
X130197500Y-107895000D01*
G75*
G02*
X130000000Y-107697500I0J197500D01*
G01*
X130000000Y-107302500D01*
G75*
G02*
X130197500Y-107105000I197500J0D01*
G01*
X130802500Y-107105000D01*
G75*
G02*
X131000000Y-107302500I0J-197500D01*
G01*
X131000000Y-107697500D01*
G75*
G02*
X130802500Y-107895000I-197500J0D01*
G01*
G37*
G36*
G01*
X130802500Y-106395000D02*
X130197500Y-106395000D01*
G75*
G02*
X130000000Y-106197500I0J197500D01*
G01*
X130000000Y-105802500D01*
G75*
G02*
X130197500Y-105605000I197500J0D01*
G01*
X130802500Y-105605000D01*
G75*
G02*
X131000000Y-105802500I0J-197500D01*
G01*
X131000000Y-106197500D01*
G75*
G02*
X130802500Y-106395000I-197500J0D01*
G01*
G37*
%TD*%
%TO.C,R18*%
G36*
G01*
X130802500Y-105145000D02*
X130197500Y-105145000D01*
G75*
G02*
X130000000Y-104947500I0J197500D01*
G01*
X130000000Y-104552500D01*
G75*
G02*
X130197500Y-104355000I197500J0D01*
G01*
X130802500Y-104355000D01*
G75*
G02*
X131000000Y-104552500I0J-197500D01*
G01*
X131000000Y-104947500D01*
G75*
G02*
X130802500Y-105145000I-197500J0D01*
G01*
G37*
G36*
G01*
X130802500Y-103645000D02*
X130197500Y-103645000D01*
G75*
G02*
X130000000Y-103447500I0J197500D01*
G01*
X130000000Y-103052500D01*
G75*
G02*
X130197500Y-102855000I197500J0D01*
G01*
X130802500Y-102855000D01*
G75*
G02*
X131000000Y-103052500I0J-197500D01*
G01*
X131000000Y-103447500D01*
G75*
G02*
X130802500Y-103645000I-197500J0D01*
G01*
G37*
%TD*%
%TO.C,R24*%
G36*
G01*
X120395000Y-105697500D02*
X120395000Y-106302500D01*
G75*
G02*
X120197500Y-106500000I-197500J0D01*
G01*
X119802500Y-106500000D01*
G75*
G02*
X119605000Y-106302500I0J197500D01*
G01*
X119605000Y-105697500D01*
G75*
G02*
X119802500Y-105500000I197500J0D01*
G01*
X120197500Y-105500000D01*
G75*
G02*
X120395000Y-105697500I0J-197500D01*
G01*
G37*
G36*
G01*
X118895000Y-105697500D02*
X118895000Y-106302500D01*
G75*
G02*
X118697500Y-106500000I-197500J0D01*
G01*
X118302500Y-106500000D01*
G75*
G02*
X118105000Y-106302500I0J197500D01*
G01*
X118105000Y-105697500D01*
G75*
G02*
X118302500Y-105500000I197500J0D01*
G01*
X118697500Y-105500000D01*
G75*
G02*
X118895000Y-105697500I0J-197500D01*
G01*
G37*
%TD*%
%TO.C,R35*%
G36*
G01*
X106947500Y-156955000D02*
X107552500Y-156955000D01*
G75*
G02*
X107750000Y-157152500I0J-197500D01*
G01*
X107750000Y-157547500D01*
G75*
G02*
X107552500Y-157745000I-197500J0D01*
G01*
X106947500Y-157745000D01*
G75*
G02*
X106750000Y-157547500I0J197500D01*
G01*
X106750000Y-157152500D01*
G75*
G02*
X106947500Y-156955000I197500J0D01*
G01*
G37*
G36*
G01*
X106947500Y-155455000D02*
X107552500Y-155455000D01*
G75*
G02*
X107750000Y-155652500I0J-197500D01*
G01*
X107750000Y-156047500D01*
G75*
G02*
X107552500Y-156245000I-197500J0D01*
G01*
X106947500Y-156245000D01*
G75*
G02*
X106750000Y-156047500I0J197500D01*
G01*
X106750000Y-155652500D01*
G75*
G02*
X106947500Y-155455000I197500J0D01*
G01*
G37*
%TD*%
%TO.C,R36*%
G36*
G01*
X109855000Y-156902500D02*
X109855000Y-156297500D01*
G75*
G02*
X110052500Y-156100000I197500J0D01*
G01*
X110447500Y-156100000D01*
G75*
G02*
X110645000Y-156297500I0J-197500D01*
G01*
X110645000Y-156902500D01*
G75*
G02*
X110447500Y-157100000I-197500J0D01*
G01*
X110052500Y-157100000D01*
G75*
G02*
X109855000Y-156902500I0J197500D01*
G01*
G37*
G36*
G01*
X108355000Y-156902500D02*
X108355000Y-156297500D01*
G75*
G02*
X108552500Y-156100000I197500J0D01*
G01*
X108947500Y-156100000D01*
G75*
G02*
X109145000Y-156297500I0J-197500D01*
G01*
X109145000Y-156902500D01*
G75*
G02*
X108947500Y-157100000I-197500J0D01*
G01*
X108552500Y-157100000D01*
G75*
G02*
X108355000Y-156902500I0J197500D01*
G01*
G37*
%TD*%
%TO.C,R37*%
G36*
G01*
X112052500Y-156245000D02*
X111447500Y-156245000D01*
G75*
G02*
X111250000Y-156047500I0J197500D01*
G01*
X111250000Y-155652500D01*
G75*
G02*
X111447500Y-155455000I197500J0D01*
G01*
X112052500Y-155455000D01*
G75*
G02*
X112250000Y-155652500I0J-197500D01*
G01*
X112250000Y-156047500D01*
G75*
G02*
X112052500Y-156245000I-197500J0D01*
G01*
G37*
G36*
G01*
X112052500Y-157745000D02*
X111447500Y-157745000D01*
G75*
G02*
X111250000Y-157547500I0J197500D01*
G01*
X111250000Y-157152500D01*
G75*
G02*
X111447500Y-156955000I197500J0D01*
G01*
X112052500Y-156955000D01*
G75*
G02*
X112250000Y-157152500I0J-197500D01*
G01*
X112250000Y-157547500D01*
G75*
G02*
X112052500Y-157745000I-197500J0D01*
G01*
G37*
%TD*%
%TO.C,R38*%
G36*
G01*
X113552500Y-156245000D02*
X112947500Y-156245000D01*
G75*
G02*
X112750000Y-156047500I0J197500D01*
G01*
X112750000Y-155652500D01*
G75*
G02*
X112947500Y-155455000I197500J0D01*
G01*
X113552500Y-155455000D01*
G75*
G02*
X113750000Y-155652500I0J-197500D01*
G01*
X113750000Y-156047500D01*
G75*
G02*
X113552500Y-156245000I-197500J0D01*
G01*
G37*
G36*
G01*
X113552500Y-157745000D02*
X112947500Y-157745000D01*
G75*
G02*
X112750000Y-157547500I0J197500D01*
G01*
X112750000Y-157152500D01*
G75*
G02*
X112947500Y-156955000I197500J0D01*
G01*
X113552500Y-156955000D01*
G75*
G02*
X113750000Y-157152500I0J-197500D01*
G01*
X113750000Y-157547500D01*
G75*
G02*
X113552500Y-157745000I-197500J0D01*
G01*
G37*
%TD*%
%TO.C,R39*%
G36*
G01*
X115855000Y-156902500D02*
X115855000Y-156297500D01*
G75*
G02*
X116052500Y-156100000I197500J0D01*
G01*
X116447500Y-156100000D01*
G75*
G02*
X116645000Y-156297500I0J-197500D01*
G01*
X116645000Y-156902500D01*
G75*
G02*
X116447500Y-157100000I-197500J0D01*
G01*
X116052500Y-157100000D01*
G75*
G02*
X115855000Y-156902500I0J197500D01*
G01*
G37*
G36*
G01*
X114355000Y-156902500D02*
X114355000Y-156297500D01*
G75*
G02*
X114552500Y-156100000I197500J0D01*
G01*
X114947500Y-156100000D01*
G75*
G02*
X115145000Y-156297500I0J-197500D01*
G01*
X115145000Y-156902500D01*
G75*
G02*
X114947500Y-157100000I-197500J0D01*
G01*
X114552500Y-157100000D01*
G75*
G02*
X114355000Y-156902500I0J197500D01*
G01*
G37*
%TD*%
%TO.C,R40*%
G36*
G01*
X118052500Y-157745000D02*
X117447500Y-157745000D01*
G75*
G02*
X117250000Y-157547500I0J197500D01*
G01*
X117250000Y-157152500D01*
G75*
G02*
X117447500Y-156955000I197500J0D01*
G01*
X118052500Y-156955000D01*
G75*
G02*
X118250000Y-157152500I0J-197500D01*
G01*
X118250000Y-157547500D01*
G75*
G02*
X118052500Y-157745000I-197500J0D01*
G01*
G37*
G36*
G01*
X118052500Y-156245000D02*
X117447500Y-156245000D01*
G75*
G02*
X117250000Y-156047500I0J197500D01*
G01*
X117250000Y-155652500D01*
G75*
G02*
X117447500Y-155455000I197500J0D01*
G01*
X118052500Y-155455000D01*
G75*
G02*
X118250000Y-155652500I0J-197500D01*
G01*
X118250000Y-156047500D01*
G75*
G02*
X118052500Y-156245000I-197500J0D01*
G01*
G37*
%TD*%
%TO.C,R46*%
G36*
G01*
X120947500Y-156955000D02*
X121552500Y-156955000D01*
G75*
G02*
X121750000Y-157152500I0J-197500D01*
G01*
X121750000Y-157547500D01*
G75*
G02*
X121552500Y-157745000I-197500J0D01*
G01*
X120947500Y-157745000D01*
G75*
G02*
X120750000Y-157547500I0J197500D01*
G01*
X120750000Y-157152500D01*
G75*
G02*
X120947500Y-156955000I197500J0D01*
G01*
G37*
G36*
G01*
X120947500Y-155455000D02*
X121552500Y-155455000D01*
G75*
G02*
X121750000Y-155652500I0J-197500D01*
G01*
X121750000Y-156047500D01*
G75*
G02*
X121552500Y-156245000I-197500J0D01*
G01*
X120947500Y-156245000D01*
G75*
G02*
X120750000Y-156047500I0J197500D01*
G01*
X120750000Y-155652500D01*
G75*
G02*
X120947500Y-155455000I197500J0D01*
G01*
G37*
%TD*%
%TO.C,R47*%
G36*
G01*
X122355000Y-156902500D02*
X122355000Y-156297500D01*
G75*
G02*
X122552500Y-156100000I197500J0D01*
G01*
X122947500Y-156100000D01*
G75*
G02*
X123145000Y-156297500I0J-197500D01*
G01*
X123145000Y-156902500D01*
G75*
G02*
X122947500Y-157100000I-197500J0D01*
G01*
X122552500Y-157100000D01*
G75*
G02*
X122355000Y-156902500I0J197500D01*
G01*
G37*
G36*
G01*
X123855000Y-156902500D02*
X123855000Y-156297500D01*
G75*
G02*
X124052500Y-156100000I197500J0D01*
G01*
X124447500Y-156100000D01*
G75*
G02*
X124645000Y-156297500I0J-197500D01*
G01*
X124645000Y-156902500D01*
G75*
G02*
X124447500Y-157100000I-197500J0D01*
G01*
X124052500Y-157100000D01*
G75*
G02*
X123855000Y-156902500I0J197500D01*
G01*
G37*
%TD*%
%TO.C,R48*%
G36*
G01*
X126052500Y-156245000D02*
X125447500Y-156245000D01*
G75*
G02*
X125250000Y-156047500I0J197500D01*
G01*
X125250000Y-155652500D01*
G75*
G02*
X125447500Y-155455000I197500J0D01*
G01*
X126052500Y-155455000D01*
G75*
G02*
X126250000Y-155652500I0J-197500D01*
G01*
X126250000Y-156047500D01*
G75*
G02*
X126052500Y-156245000I-197500J0D01*
G01*
G37*
G36*
G01*
X126052500Y-157745000D02*
X125447500Y-157745000D01*
G75*
G02*
X125250000Y-157547500I0J197500D01*
G01*
X125250000Y-157152500D01*
G75*
G02*
X125447500Y-156955000I197500J0D01*
G01*
X126052500Y-156955000D01*
G75*
G02*
X126250000Y-157152500I0J-197500D01*
G01*
X126250000Y-157547500D01*
G75*
G02*
X126052500Y-157745000I-197500J0D01*
G01*
G37*
%TD*%
%TO.C,R49*%
G36*
G01*
X127552500Y-157745000D02*
X126947500Y-157745000D01*
G75*
G02*
X126750000Y-157547500I0J197500D01*
G01*
X126750000Y-157152500D01*
G75*
G02*
X126947500Y-156955000I197500J0D01*
G01*
X127552500Y-156955000D01*
G75*
G02*
X127750000Y-157152500I0J-197500D01*
G01*
X127750000Y-157547500D01*
G75*
G02*
X127552500Y-157745000I-197500J0D01*
G01*
G37*
G36*
G01*
X127552500Y-156245000D02*
X126947500Y-156245000D01*
G75*
G02*
X126750000Y-156047500I0J197500D01*
G01*
X126750000Y-155652500D01*
G75*
G02*
X126947500Y-155455000I197500J0D01*
G01*
X127552500Y-155455000D01*
G75*
G02*
X127750000Y-155652500I0J-197500D01*
G01*
X127750000Y-156047500D01*
G75*
G02*
X127552500Y-156245000I-197500J0D01*
G01*
G37*
%TD*%
%TO.C,R50*%
G36*
G01*
X128355000Y-156902500D02*
X128355000Y-156297500D01*
G75*
G02*
X128552500Y-156100000I197500J0D01*
G01*
X128947500Y-156100000D01*
G75*
G02*
X129145000Y-156297500I0J-197500D01*
G01*
X129145000Y-156902500D01*
G75*
G02*
X128947500Y-157100000I-197500J0D01*
G01*
X128552500Y-157100000D01*
G75*
G02*
X128355000Y-156902500I0J197500D01*
G01*
G37*
G36*
G01*
X129855000Y-156902500D02*
X129855000Y-156297500D01*
G75*
G02*
X130052500Y-156100000I197500J0D01*
G01*
X130447500Y-156100000D01*
G75*
G02*
X130645000Y-156297500I0J-197500D01*
G01*
X130645000Y-156902500D01*
G75*
G02*
X130447500Y-157100000I-197500J0D01*
G01*
X130052500Y-157100000D01*
G75*
G02*
X129855000Y-156902500I0J197500D01*
G01*
G37*
%TD*%
%TO.C,R51*%
G36*
G01*
X132052500Y-157745000D02*
X131447500Y-157745000D01*
G75*
G02*
X131250000Y-157547500I0J197500D01*
G01*
X131250000Y-157152500D01*
G75*
G02*
X131447500Y-156955000I197500J0D01*
G01*
X132052500Y-156955000D01*
G75*
G02*
X132250000Y-157152500I0J-197500D01*
G01*
X132250000Y-157547500D01*
G75*
G02*
X132052500Y-157745000I-197500J0D01*
G01*
G37*
G36*
G01*
X132052500Y-156245000D02*
X131447500Y-156245000D01*
G75*
G02*
X131250000Y-156047500I0J197500D01*
G01*
X131250000Y-155652500D01*
G75*
G02*
X131447500Y-155455000I197500J0D01*
G01*
X132052500Y-155455000D01*
G75*
G02*
X132250000Y-155652500I0J-197500D01*
G01*
X132250000Y-156047500D01*
G75*
G02*
X132052500Y-156245000I-197500J0D01*
G01*
G37*
%TD*%
%TO.C,R52*%
G36*
G01*
X123302500Y-144745000D02*
X122697500Y-144745000D01*
G75*
G02*
X122500000Y-144547500I0J197500D01*
G01*
X122500000Y-144152500D01*
G75*
G02*
X122697500Y-143955000I197500J0D01*
G01*
X123302500Y-143955000D01*
G75*
G02*
X123500000Y-144152500I0J-197500D01*
G01*
X123500000Y-144547500D01*
G75*
G02*
X123302500Y-144745000I-197500J0D01*
G01*
G37*
G36*
G01*
X123302500Y-146245000D02*
X122697500Y-146245000D01*
G75*
G02*
X122500000Y-146047500I0J197500D01*
G01*
X122500000Y-145652500D01*
G75*
G02*
X122697500Y-145455000I197500J0D01*
G01*
X123302500Y-145455000D01*
G75*
G02*
X123500000Y-145652500I0J-197500D01*
G01*
X123500000Y-146047500D01*
G75*
G02*
X123302500Y-146245000I-197500J0D01*
G01*
G37*
%TD*%
%TO.C,R53*%
G36*
G01*
X130702500Y-146245000D02*
X130097500Y-146245000D01*
G75*
G02*
X129900000Y-146047500I0J197500D01*
G01*
X129900000Y-145652500D01*
G75*
G02*
X130097500Y-145455000I197500J0D01*
G01*
X130702500Y-145455000D01*
G75*
G02*
X130900000Y-145652500I0J-197500D01*
G01*
X130900000Y-146047500D01*
G75*
G02*
X130702500Y-146245000I-197500J0D01*
G01*
G37*
G36*
G01*
X130702500Y-144745000D02*
X130097500Y-144745000D01*
G75*
G02*
X129900000Y-144547500I0J197500D01*
G01*
X129900000Y-144152500D01*
G75*
G02*
X130097500Y-143955000I197500J0D01*
G01*
X130702500Y-143955000D01*
G75*
G02*
X130900000Y-144152500I0J-197500D01*
G01*
X130900000Y-144547500D01*
G75*
G02*
X130702500Y-144745000I-197500J0D01*
G01*
G37*
%TD*%
%TO.C,R57*%
G36*
G01*
X134947500Y-155455000D02*
X135552500Y-155455000D01*
G75*
G02*
X135750000Y-155652500I0J-197500D01*
G01*
X135750000Y-156047500D01*
G75*
G02*
X135552500Y-156245000I-197500J0D01*
G01*
X134947500Y-156245000D01*
G75*
G02*
X134750000Y-156047500I0J197500D01*
G01*
X134750000Y-155652500D01*
G75*
G02*
X134947500Y-155455000I197500J0D01*
G01*
G37*
G36*
G01*
X134947500Y-156955000D02*
X135552500Y-156955000D01*
G75*
G02*
X135750000Y-157152500I0J-197500D01*
G01*
X135750000Y-157547500D01*
G75*
G02*
X135552500Y-157745000I-197500J0D01*
G01*
X134947500Y-157745000D01*
G75*
G02*
X134750000Y-157547500I0J197500D01*
G01*
X134750000Y-157152500D01*
G75*
G02*
X134947500Y-156955000I197500J0D01*
G01*
G37*
%TD*%
%TO.C,R58*%
G36*
G01*
X136355000Y-156902500D02*
X136355000Y-156297500D01*
G75*
G02*
X136552500Y-156100000I197500J0D01*
G01*
X136947500Y-156100000D01*
G75*
G02*
X137145000Y-156297500I0J-197500D01*
G01*
X137145000Y-156902500D01*
G75*
G02*
X136947500Y-157100000I-197500J0D01*
G01*
X136552500Y-157100000D01*
G75*
G02*
X136355000Y-156902500I0J197500D01*
G01*
G37*
G36*
G01*
X137855000Y-156902500D02*
X137855000Y-156297500D01*
G75*
G02*
X138052500Y-156100000I197500J0D01*
G01*
X138447500Y-156100000D01*
G75*
G02*
X138645000Y-156297500I0J-197500D01*
G01*
X138645000Y-156902500D01*
G75*
G02*
X138447500Y-157100000I-197500J0D01*
G01*
X138052500Y-157100000D01*
G75*
G02*
X137855000Y-156902500I0J197500D01*
G01*
G37*
%TD*%
%TO.C,R59*%
G36*
G01*
X140052500Y-157745000D02*
X139447500Y-157745000D01*
G75*
G02*
X139250000Y-157547500I0J197500D01*
G01*
X139250000Y-157152500D01*
G75*
G02*
X139447500Y-156955000I197500J0D01*
G01*
X140052500Y-156955000D01*
G75*
G02*
X140250000Y-157152500I0J-197500D01*
G01*
X140250000Y-157547500D01*
G75*
G02*
X140052500Y-157745000I-197500J0D01*
G01*
G37*
G36*
G01*
X140052500Y-156245000D02*
X139447500Y-156245000D01*
G75*
G02*
X139250000Y-156047500I0J197500D01*
G01*
X139250000Y-155652500D01*
G75*
G02*
X139447500Y-155455000I197500J0D01*
G01*
X140052500Y-155455000D01*
G75*
G02*
X140250000Y-155652500I0J-197500D01*
G01*
X140250000Y-156047500D01*
G75*
G02*
X140052500Y-156245000I-197500J0D01*
G01*
G37*
%TD*%
%TO.C,R60*%
G36*
G01*
X141552500Y-156245000D02*
X140947500Y-156245000D01*
G75*
G02*
X140750000Y-156047500I0J197500D01*
G01*
X140750000Y-155652500D01*
G75*
G02*
X140947500Y-155455000I197500J0D01*
G01*
X141552500Y-155455000D01*
G75*
G02*
X141750000Y-155652500I0J-197500D01*
G01*
X141750000Y-156047500D01*
G75*
G02*
X141552500Y-156245000I-197500J0D01*
G01*
G37*
G36*
G01*
X141552500Y-157745000D02*
X140947500Y-157745000D01*
G75*
G02*
X140750000Y-157547500I0J197500D01*
G01*
X140750000Y-157152500D01*
G75*
G02*
X140947500Y-156955000I197500J0D01*
G01*
X141552500Y-156955000D01*
G75*
G02*
X141750000Y-157152500I0J-197500D01*
G01*
X141750000Y-157547500D01*
G75*
G02*
X141552500Y-157745000I-197500J0D01*
G01*
G37*
%TD*%
%TO.C,R61*%
G36*
G01*
X143855000Y-156902500D02*
X143855000Y-156297500D01*
G75*
G02*
X144052500Y-156100000I197500J0D01*
G01*
X144447500Y-156100000D01*
G75*
G02*
X144645000Y-156297500I0J-197500D01*
G01*
X144645000Y-156902500D01*
G75*
G02*
X144447500Y-157100000I-197500J0D01*
G01*
X144052500Y-157100000D01*
G75*
G02*
X143855000Y-156902500I0J197500D01*
G01*
G37*
G36*
G01*
X142355000Y-156902500D02*
X142355000Y-156297500D01*
G75*
G02*
X142552500Y-156100000I197500J0D01*
G01*
X142947500Y-156100000D01*
G75*
G02*
X143145000Y-156297500I0J-197500D01*
G01*
X143145000Y-156902500D01*
G75*
G02*
X142947500Y-157100000I-197500J0D01*
G01*
X142552500Y-157100000D01*
G75*
G02*
X142355000Y-156902500I0J197500D01*
G01*
G37*
%TD*%
%TO.C,R62*%
G36*
G01*
X146052500Y-157745000D02*
X145447500Y-157745000D01*
G75*
G02*
X145250000Y-157547500I0J197500D01*
G01*
X145250000Y-157152500D01*
G75*
G02*
X145447500Y-156955000I197500J0D01*
G01*
X146052500Y-156955000D01*
G75*
G02*
X146250000Y-157152500I0J-197500D01*
G01*
X146250000Y-157547500D01*
G75*
G02*
X146052500Y-157745000I-197500J0D01*
G01*
G37*
G36*
G01*
X146052500Y-156245000D02*
X145447500Y-156245000D01*
G75*
G02*
X145250000Y-156047500I0J197500D01*
G01*
X145250000Y-155652500D01*
G75*
G02*
X145447500Y-155455000I197500J0D01*
G01*
X146052500Y-155455000D01*
G75*
G02*
X146250000Y-155652500I0J-197500D01*
G01*
X146250000Y-156047500D01*
G75*
G02*
X146052500Y-156245000I-197500J0D01*
G01*
G37*
%TD*%
%TO.C,R63*%
G36*
G01*
X137302500Y-144745000D02*
X136697500Y-144745000D01*
G75*
G02*
X136500000Y-144547500I0J197500D01*
G01*
X136500000Y-144152500D01*
G75*
G02*
X136697500Y-143955000I197500J0D01*
G01*
X137302500Y-143955000D01*
G75*
G02*
X137500000Y-144152500I0J-197500D01*
G01*
X137500000Y-144547500D01*
G75*
G02*
X137302500Y-144745000I-197500J0D01*
G01*
G37*
G36*
G01*
X137302500Y-146245000D02*
X136697500Y-146245000D01*
G75*
G02*
X136500000Y-146047500I0J197500D01*
G01*
X136500000Y-145652500D01*
G75*
G02*
X136697500Y-145455000I197500J0D01*
G01*
X137302500Y-145455000D01*
G75*
G02*
X137500000Y-145652500I0J-197500D01*
G01*
X137500000Y-146047500D01*
G75*
G02*
X137302500Y-146245000I-197500J0D01*
G01*
G37*
%TD*%
%TO.C,R64*%
G36*
G01*
X144552500Y-146495000D02*
X143947500Y-146495000D01*
G75*
G02*
X143750000Y-146297500I0J197500D01*
G01*
X143750000Y-145902500D01*
G75*
G02*
X143947500Y-145705000I197500J0D01*
G01*
X144552500Y-145705000D01*
G75*
G02*
X144750000Y-145902500I0J-197500D01*
G01*
X144750000Y-146297500D01*
G75*
G02*
X144552500Y-146495000I-197500J0D01*
G01*
G37*
G36*
G01*
X144552500Y-144995000D02*
X143947500Y-144995000D01*
G75*
G02*
X143750000Y-144797500I0J197500D01*
G01*
X143750000Y-144402500D01*
G75*
G02*
X143947500Y-144205000I197500J0D01*
G01*
X144552500Y-144205000D01*
G75*
G02*
X144750000Y-144402500I0J-197500D01*
G01*
X144750000Y-144797500D01*
G75*
G02*
X144552500Y-144995000I-197500J0D01*
G01*
G37*
%TD*%
%TO.C,R65*%
G36*
G01*
X65302500Y-124395000D02*
X64697500Y-124395000D01*
G75*
G02*
X64500000Y-124197500I0J197500D01*
G01*
X64500000Y-123802500D01*
G75*
G02*
X64697500Y-123605000I197500J0D01*
G01*
X65302500Y-123605000D01*
G75*
G02*
X65500000Y-123802500I0J-197500D01*
G01*
X65500000Y-124197500D01*
G75*
G02*
X65302500Y-124395000I-197500J0D01*
G01*
G37*
G36*
G01*
X65302500Y-125895000D02*
X64697500Y-125895000D01*
G75*
G02*
X64500000Y-125697500I0J197500D01*
G01*
X64500000Y-125302500D01*
G75*
G02*
X64697500Y-125105000I197500J0D01*
G01*
X65302500Y-125105000D01*
G75*
G02*
X65500000Y-125302500I0J-197500D01*
G01*
X65500000Y-125697500D01*
G75*
G02*
X65302500Y-125895000I-197500J0D01*
G01*
G37*
%TD*%
%TO.C,R66*%
G36*
G01*
X63895000Y-125197500D02*
X63895000Y-125802500D01*
G75*
G02*
X63697500Y-126000000I-197500J0D01*
G01*
X63302500Y-126000000D01*
G75*
G02*
X63105000Y-125802500I0J197500D01*
G01*
X63105000Y-125197500D01*
G75*
G02*
X63302500Y-125000000I197500J0D01*
G01*
X63697500Y-125000000D01*
G75*
G02*
X63895000Y-125197500I0J-197500D01*
G01*
G37*
G36*
G01*
X62395000Y-125197500D02*
X62395000Y-125802500D01*
G75*
G02*
X62197500Y-126000000I-197500J0D01*
G01*
X61802500Y-126000000D01*
G75*
G02*
X61605000Y-125802500I0J197500D01*
G01*
X61605000Y-125197500D01*
G75*
G02*
X61802500Y-125000000I197500J0D01*
G01*
X62197500Y-125000000D01*
G75*
G02*
X62395000Y-125197500I0J-197500D01*
G01*
G37*
%TD*%
%TO.C,R67*%
G36*
G01*
X60802500Y-124395000D02*
X60197500Y-124395000D01*
G75*
G02*
X60000000Y-124197500I0J197500D01*
G01*
X60000000Y-123802500D01*
G75*
G02*
X60197500Y-123605000I197500J0D01*
G01*
X60802500Y-123605000D01*
G75*
G02*
X61000000Y-123802500I0J-197500D01*
G01*
X61000000Y-124197500D01*
G75*
G02*
X60802500Y-124395000I-197500J0D01*
G01*
G37*
G36*
G01*
X60802500Y-125895000D02*
X60197500Y-125895000D01*
G75*
G02*
X60000000Y-125697500I0J197500D01*
G01*
X60000000Y-125302500D01*
G75*
G02*
X60197500Y-125105000I197500J0D01*
G01*
X60802500Y-125105000D01*
G75*
G02*
X61000000Y-125302500I0J-197500D01*
G01*
X61000000Y-125697500D01*
G75*
G02*
X60802500Y-125895000I-197500J0D01*
G01*
G37*
%TD*%
%TO.C,R68*%
G36*
G01*
X72302500Y-125895000D02*
X71697500Y-125895000D01*
G75*
G02*
X71500000Y-125697500I0J197500D01*
G01*
X71500000Y-125302500D01*
G75*
G02*
X71697500Y-125105000I197500J0D01*
G01*
X72302500Y-125105000D01*
G75*
G02*
X72500000Y-125302500I0J-197500D01*
G01*
X72500000Y-125697500D01*
G75*
G02*
X72302500Y-125895000I-197500J0D01*
G01*
G37*
G36*
G01*
X72302500Y-124395000D02*
X71697500Y-124395000D01*
G75*
G02*
X71500000Y-124197500I0J197500D01*
G01*
X71500000Y-123802500D01*
G75*
G02*
X71697500Y-123605000I197500J0D01*
G01*
X72302500Y-123605000D01*
G75*
G02*
X72500000Y-123802500I0J-197500D01*
G01*
X72500000Y-124197500D01*
G75*
G02*
X72302500Y-124395000I-197500J0D01*
G01*
G37*
%TD*%
%TO.C,R69*%
G36*
G01*
X69395000Y-125197500D02*
X69395000Y-125802500D01*
G75*
G02*
X69197500Y-126000000I-197500J0D01*
G01*
X68802500Y-126000000D01*
G75*
G02*
X68605000Y-125802500I0J197500D01*
G01*
X68605000Y-125197500D01*
G75*
G02*
X68802500Y-125000000I197500J0D01*
G01*
X69197500Y-125000000D01*
G75*
G02*
X69395000Y-125197500I0J-197500D01*
G01*
G37*
G36*
G01*
X70895000Y-125197500D02*
X70895000Y-125802500D01*
G75*
G02*
X70697500Y-126000000I-197500J0D01*
G01*
X70302500Y-126000000D01*
G75*
G02*
X70105000Y-125802500I0J197500D01*
G01*
X70105000Y-125197500D01*
G75*
G02*
X70302500Y-125000000I197500J0D01*
G01*
X70697500Y-125000000D01*
G75*
G02*
X70895000Y-125197500I0J-197500D01*
G01*
G37*
%TD*%
%TO.C,R70*%
G36*
G01*
X67802500Y-124395000D02*
X67197500Y-124395000D01*
G75*
G02*
X67000000Y-124197500I0J197500D01*
G01*
X67000000Y-123802500D01*
G75*
G02*
X67197500Y-123605000I197500J0D01*
G01*
X67802500Y-123605000D01*
G75*
G02*
X68000000Y-123802500I0J-197500D01*
G01*
X68000000Y-124197500D01*
G75*
G02*
X67802500Y-124395000I-197500J0D01*
G01*
G37*
G36*
G01*
X67802500Y-125895000D02*
X67197500Y-125895000D01*
G75*
G02*
X67000000Y-125697500I0J197500D01*
G01*
X67000000Y-125302500D01*
G75*
G02*
X67197500Y-125105000I197500J0D01*
G01*
X67802500Y-125105000D01*
G75*
G02*
X68000000Y-125302500I0J-197500D01*
G01*
X68000000Y-125697500D01*
G75*
G02*
X67802500Y-125895000I-197500J0D01*
G01*
G37*
%TD*%
%TO.C,R71*%
G36*
G01*
X63802500Y-135645000D02*
X63197500Y-135645000D01*
G75*
G02*
X63000000Y-135447500I0J197500D01*
G01*
X63000000Y-135052500D01*
G75*
G02*
X63197500Y-134855000I197500J0D01*
G01*
X63802500Y-134855000D01*
G75*
G02*
X64000000Y-135052500I0J-197500D01*
G01*
X64000000Y-135447500D01*
G75*
G02*
X63802500Y-135645000I-197500J0D01*
G01*
G37*
G36*
G01*
X63802500Y-137145000D02*
X63197500Y-137145000D01*
G75*
G02*
X63000000Y-136947500I0J197500D01*
G01*
X63000000Y-136552500D01*
G75*
G02*
X63197500Y-136355000I197500J0D01*
G01*
X63802500Y-136355000D01*
G75*
G02*
X64000000Y-136552500I0J-197500D01*
G01*
X64000000Y-136947500D01*
G75*
G02*
X63802500Y-137145000I-197500J0D01*
G01*
G37*
%TD*%
%TO.C,R72*%
G36*
G01*
X70802500Y-137145000D02*
X70197500Y-137145000D01*
G75*
G02*
X70000000Y-136947500I0J197500D01*
G01*
X70000000Y-136552500D01*
G75*
G02*
X70197500Y-136355000I197500J0D01*
G01*
X70802500Y-136355000D01*
G75*
G02*
X71000000Y-136552500I0J-197500D01*
G01*
X71000000Y-136947500D01*
G75*
G02*
X70802500Y-137145000I-197500J0D01*
G01*
G37*
G36*
G01*
X70802500Y-135645000D02*
X70197500Y-135645000D01*
G75*
G02*
X70000000Y-135447500I0J197500D01*
G01*
X70000000Y-135052500D01*
G75*
G02*
X70197500Y-134855000I197500J0D01*
G01*
X70802500Y-134855000D01*
G75*
G02*
X71000000Y-135052500I0J-197500D01*
G01*
X71000000Y-135447500D01*
G75*
G02*
X70802500Y-135645000I-197500J0D01*
G01*
G37*
%TD*%
%TO.C,R73*%
G36*
G01*
X82052500Y-124395000D02*
X81447500Y-124395000D01*
G75*
G02*
X81250000Y-124197500I0J197500D01*
G01*
X81250000Y-123802500D01*
G75*
G02*
X81447500Y-123605000I197500J0D01*
G01*
X82052500Y-123605000D01*
G75*
G02*
X82250000Y-123802500I0J-197500D01*
G01*
X82250000Y-124197500D01*
G75*
G02*
X82052500Y-124395000I-197500J0D01*
G01*
G37*
G36*
G01*
X82052500Y-125895000D02*
X81447500Y-125895000D01*
G75*
G02*
X81250000Y-125697500I0J197500D01*
G01*
X81250000Y-125302500D01*
G75*
G02*
X81447500Y-125105000I197500J0D01*
G01*
X82052500Y-125105000D01*
G75*
G02*
X82250000Y-125302500I0J-197500D01*
G01*
X82250000Y-125697500D01*
G75*
G02*
X82052500Y-125895000I-197500J0D01*
G01*
G37*
%TD*%
%TO.C,R74*%
G36*
G01*
X79145000Y-125197500D02*
X79145000Y-125802500D01*
G75*
G02*
X78947500Y-126000000I-197500J0D01*
G01*
X78552500Y-126000000D01*
G75*
G02*
X78355000Y-125802500I0J197500D01*
G01*
X78355000Y-125197500D01*
G75*
G02*
X78552500Y-125000000I197500J0D01*
G01*
X78947500Y-125000000D01*
G75*
G02*
X79145000Y-125197500I0J-197500D01*
G01*
G37*
G36*
G01*
X80645000Y-125197500D02*
X80645000Y-125802500D01*
G75*
G02*
X80447500Y-126000000I-197500J0D01*
G01*
X80052500Y-126000000D01*
G75*
G02*
X79855000Y-125802500I0J197500D01*
G01*
X79855000Y-125197500D01*
G75*
G02*
X80052500Y-125000000I197500J0D01*
G01*
X80447500Y-125000000D01*
G75*
G02*
X80645000Y-125197500I0J-197500D01*
G01*
G37*
%TD*%
%TO.C,R75*%
G36*
G01*
X77552500Y-124395000D02*
X76947500Y-124395000D01*
G75*
G02*
X76750000Y-124197500I0J197500D01*
G01*
X76750000Y-123802500D01*
G75*
G02*
X76947500Y-123605000I197500J0D01*
G01*
X77552500Y-123605000D01*
G75*
G02*
X77750000Y-123802500I0J-197500D01*
G01*
X77750000Y-124197500D01*
G75*
G02*
X77552500Y-124395000I-197500J0D01*
G01*
G37*
G36*
G01*
X77552500Y-125895000D02*
X76947500Y-125895000D01*
G75*
G02*
X76750000Y-125697500I0J197500D01*
G01*
X76750000Y-125302500D01*
G75*
G02*
X76947500Y-125105000I197500J0D01*
G01*
X77552500Y-125105000D01*
G75*
G02*
X77750000Y-125302500I0J-197500D01*
G01*
X77750000Y-125697500D01*
G75*
G02*
X77552500Y-125895000I-197500J0D01*
G01*
G37*
%TD*%
%TO.C,R76*%
G36*
G01*
X89052500Y-124395000D02*
X88447500Y-124395000D01*
G75*
G02*
X88250000Y-124197500I0J197500D01*
G01*
X88250000Y-123802500D01*
G75*
G02*
X88447500Y-123605000I197500J0D01*
G01*
X89052500Y-123605000D01*
G75*
G02*
X89250000Y-123802500I0J-197500D01*
G01*
X89250000Y-124197500D01*
G75*
G02*
X89052500Y-124395000I-197500J0D01*
G01*
G37*
G36*
G01*
X89052500Y-125895000D02*
X88447500Y-125895000D01*
G75*
G02*
X88250000Y-125697500I0J197500D01*
G01*
X88250000Y-125302500D01*
G75*
G02*
X88447500Y-125105000I197500J0D01*
G01*
X89052500Y-125105000D01*
G75*
G02*
X89250000Y-125302500I0J-197500D01*
G01*
X89250000Y-125697500D01*
G75*
G02*
X89052500Y-125895000I-197500J0D01*
G01*
G37*
%TD*%
%TO.C,R77*%
G36*
G01*
X87645000Y-125197500D02*
X87645000Y-125802500D01*
G75*
G02*
X87447500Y-126000000I-197500J0D01*
G01*
X87052500Y-126000000D01*
G75*
G02*
X86855000Y-125802500I0J197500D01*
G01*
X86855000Y-125197500D01*
G75*
G02*
X87052500Y-125000000I197500J0D01*
G01*
X87447500Y-125000000D01*
G75*
G02*
X87645000Y-125197500I0J-197500D01*
G01*
G37*
G36*
G01*
X86145000Y-125197500D02*
X86145000Y-125802500D01*
G75*
G02*
X85947500Y-126000000I-197500J0D01*
G01*
X85552500Y-126000000D01*
G75*
G02*
X85355000Y-125802500I0J197500D01*
G01*
X85355000Y-125197500D01*
G75*
G02*
X85552500Y-125000000I197500J0D01*
G01*
X85947500Y-125000000D01*
G75*
G02*
X86145000Y-125197500I0J-197500D01*
G01*
G37*
%TD*%
%TO.C,R78*%
G36*
G01*
X84552500Y-125895000D02*
X83947500Y-125895000D01*
G75*
G02*
X83750000Y-125697500I0J197500D01*
G01*
X83750000Y-125302500D01*
G75*
G02*
X83947500Y-125105000I197500J0D01*
G01*
X84552500Y-125105000D01*
G75*
G02*
X84750000Y-125302500I0J-197500D01*
G01*
X84750000Y-125697500D01*
G75*
G02*
X84552500Y-125895000I-197500J0D01*
G01*
G37*
G36*
G01*
X84552500Y-124395000D02*
X83947500Y-124395000D01*
G75*
G02*
X83750000Y-124197500I0J197500D01*
G01*
X83750000Y-123802500D01*
G75*
G02*
X83947500Y-123605000I197500J0D01*
G01*
X84552500Y-123605000D01*
G75*
G02*
X84750000Y-123802500I0J-197500D01*
G01*
X84750000Y-124197500D01*
G75*
G02*
X84552500Y-124395000I-197500J0D01*
G01*
G37*
%TD*%
%TO.C,R79*%
G36*
G01*
X80552500Y-137145000D02*
X79947500Y-137145000D01*
G75*
G02*
X79750000Y-136947500I0J197500D01*
G01*
X79750000Y-136552500D01*
G75*
G02*
X79947500Y-136355000I197500J0D01*
G01*
X80552500Y-136355000D01*
G75*
G02*
X80750000Y-136552500I0J-197500D01*
G01*
X80750000Y-136947500D01*
G75*
G02*
X80552500Y-137145000I-197500J0D01*
G01*
G37*
G36*
G01*
X80552500Y-135645000D02*
X79947500Y-135645000D01*
G75*
G02*
X79750000Y-135447500I0J197500D01*
G01*
X79750000Y-135052500D01*
G75*
G02*
X79947500Y-134855000I197500J0D01*
G01*
X80552500Y-134855000D01*
G75*
G02*
X80750000Y-135052500I0J-197500D01*
G01*
X80750000Y-135447500D01*
G75*
G02*
X80552500Y-135645000I-197500J0D01*
G01*
G37*
%TD*%
%TO.C,R80*%
G36*
G01*
X87552500Y-135645000D02*
X86947500Y-135645000D01*
G75*
G02*
X86750000Y-135447500I0J197500D01*
G01*
X86750000Y-135052500D01*
G75*
G02*
X86947500Y-134855000I197500J0D01*
G01*
X87552500Y-134855000D01*
G75*
G02*
X87750000Y-135052500I0J-197500D01*
G01*
X87750000Y-135447500D01*
G75*
G02*
X87552500Y-135645000I-197500J0D01*
G01*
G37*
G36*
G01*
X87552500Y-137145000D02*
X86947500Y-137145000D01*
G75*
G02*
X86750000Y-136947500I0J197500D01*
G01*
X86750000Y-136552500D01*
G75*
G02*
X86947500Y-136355000I197500J0D01*
G01*
X87552500Y-136355000D01*
G75*
G02*
X87750000Y-136552500I0J-197500D01*
G01*
X87750000Y-136947500D01*
G75*
G02*
X87552500Y-137145000I-197500J0D01*
G01*
G37*
%TD*%
%TO.C,R81*%
G36*
G01*
X98552500Y-125895000D02*
X97947500Y-125895000D01*
G75*
G02*
X97750000Y-125697500I0J197500D01*
G01*
X97750000Y-125302500D01*
G75*
G02*
X97947500Y-125105000I197500J0D01*
G01*
X98552500Y-125105000D01*
G75*
G02*
X98750000Y-125302500I0J-197500D01*
G01*
X98750000Y-125697500D01*
G75*
G02*
X98552500Y-125895000I-197500J0D01*
G01*
G37*
G36*
G01*
X98552500Y-124395000D02*
X97947500Y-124395000D01*
G75*
G02*
X97750000Y-124197500I0J197500D01*
G01*
X97750000Y-123802500D01*
G75*
G02*
X97947500Y-123605000I197500J0D01*
G01*
X98552500Y-123605000D01*
G75*
G02*
X98750000Y-123802500I0J-197500D01*
G01*
X98750000Y-124197500D01*
G75*
G02*
X98552500Y-124395000I-197500J0D01*
G01*
G37*
%TD*%
%TO.C,R82*%
G36*
G01*
X97145000Y-125197500D02*
X97145000Y-125802500D01*
G75*
G02*
X96947500Y-126000000I-197500J0D01*
G01*
X96552500Y-126000000D01*
G75*
G02*
X96355000Y-125802500I0J197500D01*
G01*
X96355000Y-125197500D01*
G75*
G02*
X96552500Y-125000000I197500J0D01*
G01*
X96947500Y-125000000D01*
G75*
G02*
X97145000Y-125197500I0J-197500D01*
G01*
G37*
G36*
G01*
X95645000Y-125197500D02*
X95645000Y-125802500D01*
G75*
G02*
X95447500Y-126000000I-197500J0D01*
G01*
X95052500Y-126000000D01*
G75*
G02*
X94855000Y-125802500I0J197500D01*
G01*
X94855000Y-125197500D01*
G75*
G02*
X95052500Y-125000000I197500J0D01*
G01*
X95447500Y-125000000D01*
G75*
G02*
X95645000Y-125197500I0J-197500D01*
G01*
G37*
%TD*%
%TO.C,R83*%
G36*
G01*
X94052500Y-125895000D02*
X93447500Y-125895000D01*
G75*
G02*
X93250000Y-125697500I0J197500D01*
G01*
X93250000Y-125302500D01*
G75*
G02*
X93447500Y-125105000I197500J0D01*
G01*
X94052500Y-125105000D01*
G75*
G02*
X94250000Y-125302500I0J-197500D01*
G01*
X94250000Y-125697500D01*
G75*
G02*
X94052500Y-125895000I-197500J0D01*
G01*
G37*
G36*
G01*
X94052500Y-124395000D02*
X93447500Y-124395000D01*
G75*
G02*
X93250000Y-124197500I0J197500D01*
G01*
X93250000Y-123802500D01*
G75*
G02*
X93447500Y-123605000I197500J0D01*
G01*
X94052500Y-123605000D01*
G75*
G02*
X94250000Y-123802500I0J-197500D01*
G01*
X94250000Y-124197500D01*
G75*
G02*
X94052500Y-124395000I-197500J0D01*
G01*
G37*
%TD*%
%TO.C,R84*%
G36*
G01*
X105552500Y-125895000D02*
X104947500Y-125895000D01*
G75*
G02*
X104750000Y-125697500I0J197500D01*
G01*
X104750000Y-125302500D01*
G75*
G02*
X104947500Y-125105000I197500J0D01*
G01*
X105552500Y-125105000D01*
G75*
G02*
X105750000Y-125302500I0J-197500D01*
G01*
X105750000Y-125697500D01*
G75*
G02*
X105552500Y-125895000I-197500J0D01*
G01*
G37*
G36*
G01*
X105552500Y-124395000D02*
X104947500Y-124395000D01*
G75*
G02*
X104750000Y-124197500I0J197500D01*
G01*
X104750000Y-123802500D01*
G75*
G02*
X104947500Y-123605000I197500J0D01*
G01*
X105552500Y-123605000D01*
G75*
G02*
X105750000Y-123802500I0J-197500D01*
G01*
X105750000Y-124197500D01*
G75*
G02*
X105552500Y-124395000I-197500J0D01*
G01*
G37*
%TD*%
%TO.C,R85*%
G36*
G01*
X102645000Y-125197500D02*
X102645000Y-125802500D01*
G75*
G02*
X102447500Y-126000000I-197500J0D01*
G01*
X102052500Y-126000000D01*
G75*
G02*
X101855000Y-125802500I0J197500D01*
G01*
X101855000Y-125197500D01*
G75*
G02*
X102052500Y-125000000I197500J0D01*
G01*
X102447500Y-125000000D01*
G75*
G02*
X102645000Y-125197500I0J-197500D01*
G01*
G37*
G36*
G01*
X104145000Y-125197500D02*
X104145000Y-125802500D01*
G75*
G02*
X103947500Y-126000000I-197500J0D01*
G01*
X103552500Y-126000000D01*
G75*
G02*
X103355000Y-125802500I0J197500D01*
G01*
X103355000Y-125197500D01*
G75*
G02*
X103552500Y-125000000I197500J0D01*
G01*
X103947500Y-125000000D01*
G75*
G02*
X104145000Y-125197500I0J-197500D01*
G01*
G37*
%TD*%
%TO.C,R86*%
G36*
G01*
X101052500Y-124395000D02*
X100447500Y-124395000D01*
G75*
G02*
X100250000Y-124197500I0J197500D01*
G01*
X100250000Y-123802500D01*
G75*
G02*
X100447500Y-123605000I197500J0D01*
G01*
X101052500Y-123605000D01*
G75*
G02*
X101250000Y-123802500I0J-197500D01*
G01*
X101250000Y-124197500D01*
G75*
G02*
X101052500Y-124395000I-197500J0D01*
G01*
G37*
G36*
G01*
X101052500Y-125895000D02*
X100447500Y-125895000D01*
G75*
G02*
X100250000Y-125697500I0J197500D01*
G01*
X100250000Y-125302500D01*
G75*
G02*
X100447500Y-125105000I197500J0D01*
G01*
X101052500Y-125105000D01*
G75*
G02*
X101250000Y-125302500I0J-197500D01*
G01*
X101250000Y-125697500D01*
G75*
G02*
X101052500Y-125895000I-197500J0D01*
G01*
G37*
%TD*%
%TO.C,R87*%
G36*
G01*
X97052500Y-135645000D02*
X96447500Y-135645000D01*
G75*
G02*
X96250000Y-135447500I0J197500D01*
G01*
X96250000Y-135052500D01*
G75*
G02*
X96447500Y-134855000I197500J0D01*
G01*
X97052500Y-134855000D01*
G75*
G02*
X97250000Y-135052500I0J-197500D01*
G01*
X97250000Y-135447500D01*
G75*
G02*
X97052500Y-135645000I-197500J0D01*
G01*
G37*
G36*
G01*
X97052500Y-137145000D02*
X96447500Y-137145000D01*
G75*
G02*
X96250000Y-136947500I0J197500D01*
G01*
X96250000Y-136552500D01*
G75*
G02*
X96447500Y-136355000I197500J0D01*
G01*
X97052500Y-136355000D01*
G75*
G02*
X97250000Y-136552500I0J-197500D01*
G01*
X97250000Y-136947500D01*
G75*
G02*
X97052500Y-137145000I-197500J0D01*
G01*
G37*
%TD*%
%TO.C,R88*%
G36*
G01*
X104052500Y-137145000D02*
X103447500Y-137145000D01*
G75*
G02*
X103250000Y-136947500I0J197500D01*
G01*
X103250000Y-136552500D01*
G75*
G02*
X103447500Y-136355000I197500J0D01*
G01*
X104052500Y-136355000D01*
G75*
G02*
X104250000Y-136552500I0J-197500D01*
G01*
X104250000Y-136947500D01*
G75*
G02*
X104052500Y-137145000I-197500J0D01*
G01*
G37*
G36*
G01*
X104052500Y-135645000D02*
X103447500Y-135645000D01*
G75*
G02*
X103250000Y-135447500I0J197500D01*
G01*
X103250000Y-135052500D01*
G75*
G02*
X103447500Y-134855000I197500J0D01*
G01*
X104052500Y-134855000D01*
G75*
G02*
X104250000Y-135052500I0J-197500D01*
G01*
X104250000Y-135447500D01*
G75*
G02*
X104052500Y-135645000I-197500J0D01*
G01*
G37*
%TD*%
D20*
%TO.C,U1*%
X87750000Y-175250000D03*
D21*
X85210000Y-175250000D03*
X82670000Y-175250000D03*
%TD*%
D22*
%TO.C,U2*%
X89250000Y-155850000D03*
D23*
X89250000Y-162150000D03*
X91550000Y-162150000D03*
X86950000Y-162150000D03*
%TD*%
%TO.C,U4*%
G36*
G01*
X125250000Y-118595000D02*
X126250000Y-118595000D01*
G75*
G02*
X126375000Y-118720000I0J-125000D01*
G01*
X126375000Y-118970000D01*
G75*
G02*
X126250000Y-119095000I-125000J0D01*
G01*
X125250000Y-119095000D01*
G75*
G02*
X125125000Y-118970000I0J125000D01*
G01*
X125125000Y-118720000D01*
G75*
G02*
X125250000Y-118595000I125000J0D01*
G01*
G37*
G36*
G01*
X125250000Y-119865000D02*
X126250000Y-119865000D01*
G75*
G02*
X126375000Y-119990000I0J-125000D01*
G01*
X126375000Y-120240000D01*
G75*
G02*
X126250000Y-120365000I-125000J0D01*
G01*
X125250000Y-120365000D01*
G75*
G02*
X125125000Y-120240000I0J125000D01*
G01*
X125125000Y-119990000D01*
G75*
G02*
X125250000Y-119865000I125000J0D01*
G01*
G37*
G36*
G01*
X125250000Y-121135000D02*
X126250000Y-121135000D01*
G75*
G02*
X126375000Y-121260000I0J-125000D01*
G01*
X126375000Y-121510000D01*
G75*
G02*
X126250000Y-121635000I-125000J0D01*
G01*
X125250000Y-121635000D01*
G75*
G02*
X125125000Y-121510000I0J125000D01*
G01*
X125125000Y-121260000D01*
G75*
G02*
X125250000Y-121135000I125000J0D01*
G01*
G37*
G36*
G01*
X125250000Y-122405000D02*
X126250000Y-122405000D01*
G75*
G02*
X126375000Y-122530000I0J-125000D01*
G01*
X126375000Y-122780000D01*
G75*
G02*
X126250000Y-122905000I-125000J0D01*
G01*
X125250000Y-122905000D01*
G75*
G02*
X125125000Y-122780000I0J125000D01*
G01*
X125125000Y-122530000D01*
G75*
G02*
X125250000Y-122405000I125000J0D01*
G01*
G37*
G36*
G01*
X119750000Y-122405000D02*
X120750000Y-122405000D01*
G75*
G02*
X120875000Y-122530000I0J-125000D01*
G01*
X120875000Y-122780000D01*
G75*
G02*
X120750000Y-122905000I-125000J0D01*
G01*
X119750000Y-122905000D01*
G75*
G02*
X119625000Y-122780000I0J125000D01*
G01*
X119625000Y-122530000D01*
G75*
G02*
X119750000Y-122405000I125000J0D01*
G01*
G37*
G36*
G01*
X119750000Y-121135000D02*
X120750000Y-121135000D01*
G75*
G02*
X120875000Y-121260000I0J-125000D01*
G01*
X120875000Y-121510000D01*
G75*
G02*
X120750000Y-121635000I-125000J0D01*
G01*
X119750000Y-121635000D01*
G75*
G02*
X119625000Y-121510000I0J125000D01*
G01*
X119625000Y-121260000D01*
G75*
G02*
X119750000Y-121135000I125000J0D01*
G01*
G37*
G36*
G01*
X119750000Y-119865000D02*
X120750000Y-119865000D01*
G75*
G02*
X120875000Y-119990000I0J-125000D01*
G01*
X120875000Y-120240000D01*
G75*
G02*
X120750000Y-120365000I-125000J0D01*
G01*
X119750000Y-120365000D01*
G75*
G02*
X119625000Y-120240000I0J125000D01*
G01*
X119625000Y-119990000D01*
G75*
G02*
X119750000Y-119865000I125000J0D01*
G01*
G37*
G36*
G01*
X119750000Y-118595000D02*
X120750000Y-118595000D01*
G75*
G02*
X120875000Y-118720000I0J-125000D01*
G01*
X120875000Y-118970000D01*
G75*
G02*
X120750000Y-119095000I-125000J0D01*
G01*
X119750000Y-119095000D01*
G75*
G02*
X119625000Y-118970000I0J125000D01*
G01*
X119625000Y-118720000D01*
G75*
G02*
X119750000Y-118595000I125000J0D01*
G01*
G37*
%TD*%
%TO.C,U5*%
G36*
G01*
X125250000Y-125595000D02*
X126250000Y-125595000D01*
G75*
G02*
X126375000Y-125720000I0J-125000D01*
G01*
X126375000Y-125970000D01*
G75*
G02*
X126250000Y-126095000I-125000J0D01*
G01*
X125250000Y-126095000D01*
G75*
G02*
X125125000Y-125970000I0J125000D01*
G01*
X125125000Y-125720000D01*
G75*
G02*
X125250000Y-125595000I125000J0D01*
G01*
G37*
G36*
G01*
X125250000Y-126865000D02*
X126250000Y-126865000D01*
G75*
G02*
X126375000Y-126990000I0J-125000D01*
G01*
X126375000Y-127240000D01*
G75*
G02*
X126250000Y-127365000I-125000J0D01*
G01*
X125250000Y-127365000D01*
G75*
G02*
X125125000Y-127240000I0J125000D01*
G01*
X125125000Y-126990000D01*
G75*
G02*
X125250000Y-126865000I125000J0D01*
G01*
G37*
G36*
G01*
X125250000Y-128135000D02*
X126250000Y-128135000D01*
G75*
G02*
X126375000Y-128260000I0J-125000D01*
G01*
X126375000Y-128510000D01*
G75*
G02*
X126250000Y-128635000I-125000J0D01*
G01*
X125250000Y-128635000D01*
G75*
G02*
X125125000Y-128510000I0J125000D01*
G01*
X125125000Y-128260000D01*
G75*
G02*
X125250000Y-128135000I125000J0D01*
G01*
G37*
G36*
G01*
X125250000Y-129405000D02*
X126250000Y-129405000D01*
G75*
G02*
X126375000Y-129530000I0J-125000D01*
G01*
X126375000Y-129780000D01*
G75*
G02*
X126250000Y-129905000I-125000J0D01*
G01*
X125250000Y-129905000D01*
G75*
G02*
X125125000Y-129780000I0J125000D01*
G01*
X125125000Y-129530000D01*
G75*
G02*
X125250000Y-129405000I125000J0D01*
G01*
G37*
G36*
G01*
X119750000Y-129405000D02*
X120750000Y-129405000D01*
G75*
G02*
X120875000Y-129530000I0J-125000D01*
G01*
X120875000Y-129780000D01*
G75*
G02*
X120750000Y-129905000I-125000J0D01*
G01*
X119750000Y-129905000D01*
G75*
G02*
X119625000Y-129780000I0J125000D01*
G01*
X119625000Y-129530000D01*
G75*
G02*
X119750000Y-129405000I125000J0D01*
G01*
G37*
G36*
G01*
X119750000Y-128135000D02*
X120750000Y-128135000D01*
G75*
G02*
X120875000Y-128260000I0J-125000D01*
G01*
X120875000Y-128510000D01*
G75*
G02*
X120750000Y-128635000I-125000J0D01*
G01*
X119750000Y-128635000D01*
G75*
G02*
X119625000Y-128510000I0J125000D01*
G01*
X119625000Y-128260000D01*
G75*
G02*
X119750000Y-128135000I125000J0D01*
G01*
G37*
G36*
G01*
X119750000Y-126865000D02*
X120750000Y-126865000D01*
G75*
G02*
X120875000Y-126990000I0J-125000D01*
G01*
X120875000Y-127240000D01*
G75*
G02*
X120750000Y-127365000I-125000J0D01*
G01*
X119750000Y-127365000D01*
G75*
G02*
X119625000Y-127240000I0J125000D01*
G01*
X119625000Y-126990000D01*
G75*
G02*
X119750000Y-126865000I125000J0D01*
G01*
G37*
G36*
G01*
X119750000Y-125595000D02*
X120750000Y-125595000D01*
G75*
G02*
X120875000Y-125720000I0J-125000D01*
G01*
X120875000Y-125970000D01*
G75*
G02*
X120750000Y-126095000I-125000J0D01*
G01*
X119750000Y-126095000D01*
G75*
G02*
X119625000Y-125970000I0J125000D01*
G01*
X119625000Y-125720000D01*
G75*
G02*
X119750000Y-125595000I125000J0D01*
G01*
G37*
%TD*%
%TO.C,U6*%
G36*
G01*
X127500000Y-104595000D02*
X128500000Y-104595000D01*
G75*
G02*
X128625000Y-104720000I0J-125000D01*
G01*
X128625000Y-104970000D01*
G75*
G02*
X128500000Y-105095000I-125000J0D01*
G01*
X127500000Y-105095000D01*
G75*
G02*
X127375000Y-104970000I0J125000D01*
G01*
X127375000Y-104720000D01*
G75*
G02*
X127500000Y-104595000I125000J0D01*
G01*
G37*
G36*
G01*
X127500000Y-105865000D02*
X128500000Y-105865000D01*
G75*
G02*
X128625000Y-105990000I0J-125000D01*
G01*
X128625000Y-106240000D01*
G75*
G02*
X128500000Y-106365000I-125000J0D01*
G01*
X127500000Y-106365000D01*
G75*
G02*
X127375000Y-106240000I0J125000D01*
G01*
X127375000Y-105990000D01*
G75*
G02*
X127500000Y-105865000I125000J0D01*
G01*
G37*
G36*
G01*
X127500000Y-107135000D02*
X128500000Y-107135000D01*
G75*
G02*
X128625000Y-107260000I0J-125000D01*
G01*
X128625000Y-107510000D01*
G75*
G02*
X128500000Y-107635000I-125000J0D01*
G01*
X127500000Y-107635000D01*
G75*
G02*
X127375000Y-107510000I0J125000D01*
G01*
X127375000Y-107260000D01*
G75*
G02*
X127500000Y-107135000I125000J0D01*
G01*
G37*
G36*
G01*
X127500000Y-108405000D02*
X128500000Y-108405000D01*
G75*
G02*
X128625000Y-108530000I0J-125000D01*
G01*
X128625000Y-108780000D01*
G75*
G02*
X128500000Y-108905000I-125000J0D01*
G01*
X127500000Y-108905000D01*
G75*
G02*
X127375000Y-108780000I0J125000D01*
G01*
X127375000Y-108530000D01*
G75*
G02*
X127500000Y-108405000I125000J0D01*
G01*
G37*
G36*
G01*
X122000000Y-108405000D02*
X123000000Y-108405000D01*
G75*
G02*
X123125000Y-108530000I0J-125000D01*
G01*
X123125000Y-108780000D01*
G75*
G02*
X123000000Y-108905000I-125000J0D01*
G01*
X122000000Y-108905000D01*
G75*
G02*
X121875000Y-108780000I0J125000D01*
G01*
X121875000Y-108530000D01*
G75*
G02*
X122000000Y-108405000I125000J0D01*
G01*
G37*
G36*
G01*
X122000000Y-107135000D02*
X123000000Y-107135000D01*
G75*
G02*
X123125000Y-107260000I0J-125000D01*
G01*
X123125000Y-107510000D01*
G75*
G02*
X123000000Y-107635000I-125000J0D01*
G01*
X122000000Y-107635000D01*
G75*
G02*
X121875000Y-107510000I0J125000D01*
G01*
X121875000Y-107260000D01*
G75*
G02*
X122000000Y-107135000I125000J0D01*
G01*
G37*
G36*
G01*
X122000000Y-105865000D02*
X123000000Y-105865000D01*
G75*
G02*
X123125000Y-105990000I0J-125000D01*
G01*
X123125000Y-106240000D01*
G75*
G02*
X123000000Y-106365000I-125000J0D01*
G01*
X122000000Y-106365000D01*
G75*
G02*
X121875000Y-106240000I0J125000D01*
G01*
X121875000Y-105990000D01*
G75*
G02*
X122000000Y-105865000I125000J0D01*
G01*
G37*
G36*
G01*
X122000000Y-104595000D02*
X123000000Y-104595000D01*
G75*
G02*
X123125000Y-104720000I0J-125000D01*
G01*
X123125000Y-104970000D01*
G75*
G02*
X123000000Y-105095000I-125000J0D01*
G01*
X122000000Y-105095000D01*
G75*
G02*
X121875000Y-104970000I0J125000D01*
G01*
X121875000Y-104720000D01*
G75*
G02*
X122000000Y-104595000I125000J0D01*
G01*
G37*
%TD*%
%TO.C,U9*%
G36*
G01*
X124405000Y-152850000D02*
X124405000Y-153850000D01*
G75*
G02*
X124280000Y-153975000I-125000J0D01*
G01*
X124030000Y-153975000D01*
G75*
G02*
X123905000Y-153850000I0J125000D01*
G01*
X123905000Y-152850000D01*
G75*
G02*
X124030000Y-152725000I125000J0D01*
G01*
X124280000Y-152725000D01*
G75*
G02*
X124405000Y-152850000I0J-125000D01*
G01*
G37*
G36*
G01*
X123135000Y-152850000D02*
X123135000Y-153850000D01*
G75*
G02*
X123010000Y-153975000I-125000J0D01*
G01*
X122760000Y-153975000D01*
G75*
G02*
X122635000Y-153850000I0J125000D01*
G01*
X122635000Y-152850000D01*
G75*
G02*
X122760000Y-152725000I125000J0D01*
G01*
X123010000Y-152725000D01*
G75*
G02*
X123135000Y-152850000I0J-125000D01*
G01*
G37*
G36*
G01*
X121865000Y-152850000D02*
X121865000Y-153850000D01*
G75*
G02*
X121740000Y-153975000I-125000J0D01*
G01*
X121490000Y-153975000D01*
G75*
G02*
X121365000Y-153850000I0J125000D01*
G01*
X121365000Y-152850000D01*
G75*
G02*
X121490000Y-152725000I125000J0D01*
G01*
X121740000Y-152725000D01*
G75*
G02*
X121865000Y-152850000I0J-125000D01*
G01*
G37*
G36*
G01*
X120595000Y-152850000D02*
X120595000Y-153850000D01*
G75*
G02*
X120470000Y-153975000I-125000J0D01*
G01*
X120220000Y-153975000D01*
G75*
G02*
X120095000Y-153850000I0J125000D01*
G01*
X120095000Y-152850000D01*
G75*
G02*
X120220000Y-152725000I125000J0D01*
G01*
X120470000Y-152725000D01*
G75*
G02*
X120595000Y-152850000I0J-125000D01*
G01*
G37*
G36*
G01*
X120595000Y-147350000D02*
X120595000Y-148350000D01*
G75*
G02*
X120470000Y-148475000I-125000J0D01*
G01*
X120220000Y-148475000D01*
G75*
G02*
X120095000Y-148350000I0J125000D01*
G01*
X120095000Y-147350000D01*
G75*
G02*
X120220000Y-147225000I125000J0D01*
G01*
X120470000Y-147225000D01*
G75*
G02*
X120595000Y-147350000I0J-125000D01*
G01*
G37*
G36*
G01*
X121865000Y-147350000D02*
X121865000Y-148350000D01*
G75*
G02*
X121740000Y-148475000I-125000J0D01*
G01*
X121490000Y-148475000D01*
G75*
G02*
X121365000Y-148350000I0J125000D01*
G01*
X121365000Y-147350000D01*
G75*
G02*
X121490000Y-147225000I125000J0D01*
G01*
X121740000Y-147225000D01*
G75*
G02*
X121865000Y-147350000I0J-125000D01*
G01*
G37*
G36*
G01*
X123135000Y-147350000D02*
X123135000Y-148350000D01*
G75*
G02*
X123010000Y-148475000I-125000J0D01*
G01*
X122760000Y-148475000D01*
G75*
G02*
X122635000Y-148350000I0J125000D01*
G01*
X122635000Y-147350000D01*
G75*
G02*
X122760000Y-147225000I125000J0D01*
G01*
X123010000Y-147225000D01*
G75*
G02*
X123135000Y-147350000I0J-125000D01*
G01*
G37*
G36*
G01*
X124405000Y-147350000D02*
X124405000Y-148350000D01*
G75*
G02*
X124280000Y-148475000I-125000J0D01*
G01*
X124030000Y-148475000D01*
G75*
G02*
X123905000Y-148350000I0J125000D01*
G01*
X123905000Y-147350000D01*
G75*
G02*
X124030000Y-147225000I125000J0D01*
G01*
X124280000Y-147225000D01*
G75*
G02*
X124405000Y-147350000I0J-125000D01*
G01*
G37*
%TD*%
%TO.C,U10*%
G36*
G01*
X131655000Y-152850000D02*
X131655000Y-153850000D01*
G75*
G02*
X131530000Y-153975000I-125000J0D01*
G01*
X131280000Y-153975000D01*
G75*
G02*
X131155000Y-153850000I0J125000D01*
G01*
X131155000Y-152850000D01*
G75*
G02*
X131280000Y-152725000I125000J0D01*
G01*
X131530000Y-152725000D01*
G75*
G02*
X131655000Y-152850000I0J-125000D01*
G01*
G37*
G36*
G01*
X130385000Y-152850000D02*
X130385000Y-153850000D01*
G75*
G02*
X130260000Y-153975000I-125000J0D01*
G01*
X130010000Y-153975000D01*
G75*
G02*
X129885000Y-153850000I0J125000D01*
G01*
X129885000Y-152850000D01*
G75*
G02*
X130010000Y-152725000I125000J0D01*
G01*
X130260000Y-152725000D01*
G75*
G02*
X130385000Y-152850000I0J-125000D01*
G01*
G37*
G36*
G01*
X129115000Y-152850000D02*
X129115000Y-153850000D01*
G75*
G02*
X128990000Y-153975000I-125000J0D01*
G01*
X128740000Y-153975000D01*
G75*
G02*
X128615000Y-153850000I0J125000D01*
G01*
X128615000Y-152850000D01*
G75*
G02*
X128740000Y-152725000I125000J0D01*
G01*
X128990000Y-152725000D01*
G75*
G02*
X129115000Y-152850000I0J-125000D01*
G01*
G37*
G36*
G01*
X127845000Y-152850000D02*
X127845000Y-153850000D01*
G75*
G02*
X127720000Y-153975000I-125000J0D01*
G01*
X127470000Y-153975000D01*
G75*
G02*
X127345000Y-153850000I0J125000D01*
G01*
X127345000Y-152850000D01*
G75*
G02*
X127470000Y-152725000I125000J0D01*
G01*
X127720000Y-152725000D01*
G75*
G02*
X127845000Y-152850000I0J-125000D01*
G01*
G37*
G36*
G01*
X127845000Y-147350000D02*
X127845000Y-148350000D01*
G75*
G02*
X127720000Y-148475000I-125000J0D01*
G01*
X127470000Y-148475000D01*
G75*
G02*
X127345000Y-148350000I0J125000D01*
G01*
X127345000Y-147350000D01*
G75*
G02*
X127470000Y-147225000I125000J0D01*
G01*
X127720000Y-147225000D01*
G75*
G02*
X127845000Y-147350000I0J-125000D01*
G01*
G37*
G36*
G01*
X129115000Y-147350000D02*
X129115000Y-148350000D01*
G75*
G02*
X128990000Y-148475000I-125000J0D01*
G01*
X128740000Y-148475000D01*
G75*
G02*
X128615000Y-148350000I0J125000D01*
G01*
X128615000Y-147350000D01*
G75*
G02*
X128740000Y-147225000I125000J0D01*
G01*
X128990000Y-147225000D01*
G75*
G02*
X129115000Y-147350000I0J-125000D01*
G01*
G37*
G36*
G01*
X130385000Y-147350000D02*
X130385000Y-148350000D01*
G75*
G02*
X130260000Y-148475000I-125000J0D01*
G01*
X130010000Y-148475000D01*
G75*
G02*
X129885000Y-148350000I0J125000D01*
G01*
X129885000Y-147350000D01*
G75*
G02*
X130010000Y-147225000I125000J0D01*
G01*
X130260000Y-147225000D01*
G75*
G02*
X130385000Y-147350000I0J-125000D01*
G01*
G37*
G36*
G01*
X131655000Y-147350000D02*
X131655000Y-148350000D01*
G75*
G02*
X131530000Y-148475000I-125000J0D01*
G01*
X131280000Y-148475000D01*
G75*
G02*
X131155000Y-148350000I0J125000D01*
G01*
X131155000Y-147350000D01*
G75*
G02*
X131280000Y-147225000I125000J0D01*
G01*
X131530000Y-147225000D01*
G75*
G02*
X131655000Y-147350000I0J-125000D01*
G01*
G37*
%TD*%
%TO.C,U11*%
G36*
G01*
X138405000Y-147350000D02*
X138405000Y-148350000D01*
G75*
G02*
X138280000Y-148475000I-125000J0D01*
G01*
X138030000Y-148475000D01*
G75*
G02*
X137905000Y-148350000I0J125000D01*
G01*
X137905000Y-147350000D01*
G75*
G02*
X138030000Y-147225000I125000J0D01*
G01*
X138280000Y-147225000D01*
G75*
G02*
X138405000Y-147350000I0J-125000D01*
G01*
G37*
G36*
G01*
X137135000Y-147350000D02*
X137135000Y-148350000D01*
G75*
G02*
X137010000Y-148475000I-125000J0D01*
G01*
X136760000Y-148475000D01*
G75*
G02*
X136635000Y-148350000I0J125000D01*
G01*
X136635000Y-147350000D01*
G75*
G02*
X136760000Y-147225000I125000J0D01*
G01*
X137010000Y-147225000D01*
G75*
G02*
X137135000Y-147350000I0J-125000D01*
G01*
G37*
G36*
G01*
X135865000Y-147350000D02*
X135865000Y-148350000D01*
G75*
G02*
X135740000Y-148475000I-125000J0D01*
G01*
X135490000Y-148475000D01*
G75*
G02*
X135365000Y-148350000I0J125000D01*
G01*
X135365000Y-147350000D01*
G75*
G02*
X135490000Y-147225000I125000J0D01*
G01*
X135740000Y-147225000D01*
G75*
G02*
X135865000Y-147350000I0J-125000D01*
G01*
G37*
G36*
G01*
X134595000Y-147350000D02*
X134595000Y-148350000D01*
G75*
G02*
X134470000Y-148475000I-125000J0D01*
G01*
X134220000Y-148475000D01*
G75*
G02*
X134095000Y-148350000I0J125000D01*
G01*
X134095000Y-147350000D01*
G75*
G02*
X134220000Y-147225000I125000J0D01*
G01*
X134470000Y-147225000D01*
G75*
G02*
X134595000Y-147350000I0J-125000D01*
G01*
G37*
G36*
G01*
X134595000Y-152850000D02*
X134595000Y-153850000D01*
G75*
G02*
X134470000Y-153975000I-125000J0D01*
G01*
X134220000Y-153975000D01*
G75*
G02*
X134095000Y-153850000I0J125000D01*
G01*
X134095000Y-152850000D01*
G75*
G02*
X134220000Y-152725000I125000J0D01*
G01*
X134470000Y-152725000D01*
G75*
G02*
X134595000Y-152850000I0J-125000D01*
G01*
G37*
G36*
G01*
X135865000Y-152850000D02*
X135865000Y-153850000D01*
G75*
G02*
X135740000Y-153975000I-125000J0D01*
G01*
X135490000Y-153975000D01*
G75*
G02*
X135365000Y-153850000I0J125000D01*
G01*
X135365000Y-152850000D01*
G75*
G02*
X135490000Y-152725000I125000J0D01*
G01*
X135740000Y-152725000D01*
G75*
G02*
X135865000Y-152850000I0J-125000D01*
G01*
G37*
G36*
G01*
X137135000Y-152850000D02*
X137135000Y-153850000D01*
G75*
G02*
X137010000Y-153975000I-125000J0D01*
G01*
X136760000Y-153975000D01*
G75*
G02*
X136635000Y-153850000I0J125000D01*
G01*
X136635000Y-152850000D01*
G75*
G02*
X136760000Y-152725000I125000J0D01*
G01*
X137010000Y-152725000D01*
G75*
G02*
X137135000Y-152850000I0J-125000D01*
G01*
G37*
G36*
G01*
X138405000Y-152850000D02*
X138405000Y-153850000D01*
G75*
G02*
X138280000Y-153975000I-125000J0D01*
G01*
X138030000Y-153975000D01*
G75*
G02*
X137905000Y-153850000I0J125000D01*
G01*
X137905000Y-152850000D01*
G75*
G02*
X138030000Y-152725000I125000J0D01*
G01*
X138280000Y-152725000D01*
G75*
G02*
X138405000Y-152850000I0J-125000D01*
G01*
G37*
%TD*%
%TO.C,U12*%
G36*
G01*
X145655000Y-147350000D02*
X145655000Y-148350000D01*
G75*
G02*
X145530000Y-148475000I-125000J0D01*
G01*
X145280000Y-148475000D01*
G75*
G02*
X145155000Y-148350000I0J125000D01*
G01*
X145155000Y-147350000D01*
G75*
G02*
X145280000Y-147225000I125000J0D01*
G01*
X145530000Y-147225000D01*
G75*
G02*
X145655000Y-147350000I0J-125000D01*
G01*
G37*
G36*
G01*
X144385000Y-147350000D02*
X144385000Y-148350000D01*
G75*
G02*
X144260000Y-148475000I-125000J0D01*
G01*
X144010000Y-148475000D01*
G75*
G02*
X143885000Y-148350000I0J125000D01*
G01*
X143885000Y-147350000D01*
G75*
G02*
X144010000Y-147225000I125000J0D01*
G01*
X144260000Y-147225000D01*
G75*
G02*
X144385000Y-147350000I0J-125000D01*
G01*
G37*
G36*
G01*
X143115000Y-147350000D02*
X143115000Y-148350000D01*
G75*
G02*
X142990000Y-148475000I-125000J0D01*
G01*
X142740000Y-148475000D01*
G75*
G02*
X142615000Y-148350000I0J125000D01*
G01*
X142615000Y-147350000D01*
G75*
G02*
X142740000Y-147225000I125000J0D01*
G01*
X142990000Y-147225000D01*
G75*
G02*
X143115000Y-147350000I0J-125000D01*
G01*
G37*
G36*
G01*
X141845000Y-147350000D02*
X141845000Y-148350000D01*
G75*
G02*
X141720000Y-148475000I-125000J0D01*
G01*
X141470000Y-148475000D01*
G75*
G02*
X141345000Y-148350000I0J125000D01*
G01*
X141345000Y-147350000D01*
G75*
G02*
X141470000Y-147225000I125000J0D01*
G01*
X141720000Y-147225000D01*
G75*
G02*
X141845000Y-147350000I0J-125000D01*
G01*
G37*
G36*
G01*
X141845000Y-152850000D02*
X141845000Y-153850000D01*
G75*
G02*
X141720000Y-153975000I-125000J0D01*
G01*
X141470000Y-153975000D01*
G75*
G02*
X141345000Y-153850000I0J125000D01*
G01*
X141345000Y-152850000D01*
G75*
G02*
X141470000Y-152725000I125000J0D01*
G01*
X141720000Y-152725000D01*
G75*
G02*
X141845000Y-152850000I0J-125000D01*
G01*
G37*
G36*
G01*
X143115000Y-152850000D02*
X143115000Y-153850000D01*
G75*
G02*
X142990000Y-153975000I-125000J0D01*
G01*
X142740000Y-153975000D01*
G75*
G02*
X142615000Y-153850000I0J125000D01*
G01*
X142615000Y-152850000D01*
G75*
G02*
X142740000Y-152725000I125000J0D01*
G01*
X142990000Y-152725000D01*
G75*
G02*
X143115000Y-152850000I0J-125000D01*
G01*
G37*
G36*
G01*
X144385000Y-152850000D02*
X144385000Y-153850000D01*
G75*
G02*
X144260000Y-153975000I-125000J0D01*
G01*
X144010000Y-153975000D01*
G75*
G02*
X143885000Y-153850000I0J125000D01*
G01*
X143885000Y-152850000D01*
G75*
G02*
X144010000Y-152725000I125000J0D01*
G01*
X144260000Y-152725000D01*
G75*
G02*
X144385000Y-152850000I0J-125000D01*
G01*
G37*
G36*
G01*
X145655000Y-152850000D02*
X145655000Y-153850000D01*
G75*
G02*
X145530000Y-153975000I-125000J0D01*
G01*
X145280000Y-153975000D01*
G75*
G02*
X145155000Y-153850000I0J125000D01*
G01*
X145155000Y-152850000D01*
G75*
G02*
X145280000Y-152725000I125000J0D01*
G01*
X145530000Y-152725000D01*
G75*
G02*
X145655000Y-152850000I0J-125000D01*
G01*
G37*
%TD*%
%TO.C,U13*%
G36*
G01*
X60595000Y-127750000D02*
X60595000Y-126750000D01*
G75*
G02*
X60720000Y-126625000I125000J0D01*
G01*
X60970000Y-126625000D01*
G75*
G02*
X61095000Y-126750000I0J-125000D01*
G01*
X61095000Y-127750000D01*
G75*
G02*
X60970000Y-127875000I-125000J0D01*
G01*
X60720000Y-127875000D01*
G75*
G02*
X60595000Y-127750000I0J125000D01*
G01*
G37*
G36*
G01*
X61865000Y-127750000D02*
X61865000Y-126750000D01*
G75*
G02*
X61990000Y-126625000I125000J0D01*
G01*
X62240000Y-126625000D01*
G75*
G02*
X62365000Y-126750000I0J-125000D01*
G01*
X62365000Y-127750000D01*
G75*
G02*
X62240000Y-127875000I-125000J0D01*
G01*
X61990000Y-127875000D01*
G75*
G02*
X61865000Y-127750000I0J125000D01*
G01*
G37*
G36*
G01*
X63135000Y-127750000D02*
X63135000Y-126750000D01*
G75*
G02*
X63260000Y-126625000I125000J0D01*
G01*
X63510000Y-126625000D01*
G75*
G02*
X63635000Y-126750000I0J-125000D01*
G01*
X63635000Y-127750000D01*
G75*
G02*
X63510000Y-127875000I-125000J0D01*
G01*
X63260000Y-127875000D01*
G75*
G02*
X63135000Y-127750000I0J125000D01*
G01*
G37*
G36*
G01*
X64405000Y-127750000D02*
X64405000Y-126750000D01*
G75*
G02*
X64530000Y-126625000I125000J0D01*
G01*
X64780000Y-126625000D01*
G75*
G02*
X64905000Y-126750000I0J-125000D01*
G01*
X64905000Y-127750000D01*
G75*
G02*
X64780000Y-127875000I-125000J0D01*
G01*
X64530000Y-127875000D01*
G75*
G02*
X64405000Y-127750000I0J125000D01*
G01*
G37*
G36*
G01*
X64405000Y-133250000D02*
X64405000Y-132250000D01*
G75*
G02*
X64530000Y-132125000I125000J0D01*
G01*
X64780000Y-132125000D01*
G75*
G02*
X64905000Y-132250000I0J-125000D01*
G01*
X64905000Y-133250000D01*
G75*
G02*
X64780000Y-133375000I-125000J0D01*
G01*
X64530000Y-133375000D01*
G75*
G02*
X64405000Y-133250000I0J125000D01*
G01*
G37*
G36*
G01*
X63135000Y-133250000D02*
X63135000Y-132250000D01*
G75*
G02*
X63260000Y-132125000I125000J0D01*
G01*
X63510000Y-132125000D01*
G75*
G02*
X63635000Y-132250000I0J-125000D01*
G01*
X63635000Y-133250000D01*
G75*
G02*
X63510000Y-133375000I-125000J0D01*
G01*
X63260000Y-133375000D01*
G75*
G02*
X63135000Y-133250000I0J125000D01*
G01*
G37*
G36*
G01*
X61865000Y-133250000D02*
X61865000Y-132250000D01*
G75*
G02*
X61990000Y-132125000I125000J0D01*
G01*
X62240000Y-132125000D01*
G75*
G02*
X62365000Y-132250000I0J-125000D01*
G01*
X62365000Y-133250000D01*
G75*
G02*
X62240000Y-133375000I-125000J0D01*
G01*
X61990000Y-133375000D01*
G75*
G02*
X61865000Y-133250000I0J125000D01*
G01*
G37*
G36*
G01*
X60595000Y-133250000D02*
X60595000Y-132250000D01*
G75*
G02*
X60720000Y-132125000I125000J0D01*
G01*
X60970000Y-132125000D01*
G75*
G02*
X61095000Y-132250000I0J-125000D01*
G01*
X61095000Y-133250000D01*
G75*
G02*
X60970000Y-133375000I-125000J0D01*
G01*
X60720000Y-133375000D01*
G75*
G02*
X60595000Y-133250000I0J125000D01*
G01*
G37*
%TD*%
%TO.C,U14*%
G36*
G01*
X67595000Y-133250000D02*
X67595000Y-132250000D01*
G75*
G02*
X67720000Y-132125000I125000J0D01*
G01*
X67970000Y-132125000D01*
G75*
G02*
X68095000Y-132250000I0J-125000D01*
G01*
X68095000Y-133250000D01*
G75*
G02*
X67970000Y-133375000I-125000J0D01*
G01*
X67720000Y-133375000D01*
G75*
G02*
X67595000Y-133250000I0J125000D01*
G01*
G37*
G36*
G01*
X68865000Y-133250000D02*
X68865000Y-132250000D01*
G75*
G02*
X68990000Y-132125000I125000J0D01*
G01*
X69240000Y-132125000D01*
G75*
G02*
X69365000Y-132250000I0J-125000D01*
G01*
X69365000Y-133250000D01*
G75*
G02*
X69240000Y-133375000I-125000J0D01*
G01*
X68990000Y-133375000D01*
G75*
G02*
X68865000Y-133250000I0J125000D01*
G01*
G37*
G36*
G01*
X70135000Y-133250000D02*
X70135000Y-132250000D01*
G75*
G02*
X70260000Y-132125000I125000J0D01*
G01*
X70510000Y-132125000D01*
G75*
G02*
X70635000Y-132250000I0J-125000D01*
G01*
X70635000Y-133250000D01*
G75*
G02*
X70510000Y-133375000I-125000J0D01*
G01*
X70260000Y-133375000D01*
G75*
G02*
X70135000Y-133250000I0J125000D01*
G01*
G37*
G36*
G01*
X71405000Y-133250000D02*
X71405000Y-132250000D01*
G75*
G02*
X71530000Y-132125000I125000J0D01*
G01*
X71780000Y-132125000D01*
G75*
G02*
X71905000Y-132250000I0J-125000D01*
G01*
X71905000Y-133250000D01*
G75*
G02*
X71780000Y-133375000I-125000J0D01*
G01*
X71530000Y-133375000D01*
G75*
G02*
X71405000Y-133250000I0J125000D01*
G01*
G37*
G36*
G01*
X71405000Y-127750000D02*
X71405000Y-126750000D01*
G75*
G02*
X71530000Y-126625000I125000J0D01*
G01*
X71780000Y-126625000D01*
G75*
G02*
X71905000Y-126750000I0J-125000D01*
G01*
X71905000Y-127750000D01*
G75*
G02*
X71780000Y-127875000I-125000J0D01*
G01*
X71530000Y-127875000D01*
G75*
G02*
X71405000Y-127750000I0J125000D01*
G01*
G37*
G36*
G01*
X70135000Y-127750000D02*
X70135000Y-126750000D01*
G75*
G02*
X70260000Y-126625000I125000J0D01*
G01*
X70510000Y-126625000D01*
G75*
G02*
X70635000Y-126750000I0J-125000D01*
G01*
X70635000Y-127750000D01*
G75*
G02*
X70510000Y-127875000I-125000J0D01*
G01*
X70260000Y-127875000D01*
G75*
G02*
X70135000Y-127750000I0J125000D01*
G01*
G37*
G36*
G01*
X68865000Y-127750000D02*
X68865000Y-126750000D01*
G75*
G02*
X68990000Y-126625000I125000J0D01*
G01*
X69240000Y-126625000D01*
G75*
G02*
X69365000Y-126750000I0J-125000D01*
G01*
X69365000Y-127750000D01*
G75*
G02*
X69240000Y-127875000I-125000J0D01*
G01*
X68990000Y-127875000D01*
G75*
G02*
X68865000Y-127750000I0J125000D01*
G01*
G37*
G36*
G01*
X67595000Y-127750000D02*
X67595000Y-126750000D01*
G75*
G02*
X67720000Y-126625000I125000J0D01*
G01*
X67970000Y-126625000D01*
G75*
G02*
X68095000Y-126750000I0J-125000D01*
G01*
X68095000Y-127750000D01*
G75*
G02*
X67970000Y-127875000I-125000J0D01*
G01*
X67720000Y-127875000D01*
G75*
G02*
X67595000Y-127750000I0J125000D01*
G01*
G37*
%TD*%
%TO.C,U15*%
G36*
G01*
X77345000Y-133250000D02*
X77345000Y-132250000D01*
G75*
G02*
X77470000Y-132125000I125000J0D01*
G01*
X77720000Y-132125000D01*
G75*
G02*
X77845000Y-132250000I0J-125000D01*
G01*
X77845000Y-133250000D01*
G75*
G02*
X77720000Y-133375000I-125000J0D01*
G01*
X77470000Y-133375000D01*
G75*
G02*
X77345000Y-133250000I0J125000D01*
G01*
G37*
G36*
G01*
X78615000Y-133250000D02*
X78615000Y-132250000D01*
G75*
G02*
X78740000Y-132125000I125000J0D01*
G01*
X78990000Y-132125000D01*
G75*
G02*
X79115000Y-132250000I0J-125000D01*
G01*
X79115000Y-133250000D01*
G75*
G02*
X78990000Y-133375000I-125000J0D01*
G01*
X78740000Y-133375000D01*
G75*
G02*
X78615000Y-133250000I0J125000D01*
G01*
G37*
G36*
G01*
X79885000Y-133250000D02*
X79885000Y-132250000D01*
G75*
G02*
X80010000Y-132125000I125000J0D01*
G01*
X80260000Y-132125000D01*
G75*
G02*
X80385000Y-132250000I0J-125000D01*
G01*
X80385000Y-133250000D01*
G75*
G02*
X80260000Y-133375000I-125000J0D01*
G01*
X80010000Y-133375000D01*
G75*
G02*
X79885000Y-133250000I0J125000D01*
G01*
G37*
G36*
G01*
X81155000Y-133250000D02*
X81155000Y-132250000D01*
G75*
G02*
X81280000Y-132125000I125000J0D01*
G01*
X81530000Y-132125000D01*
G75*
G02*
X81655000Y-132250000I0J-125000D01*
G01*
X81655000Y-133250000D01*
G75*
G02*
X81530000Y-133375000I-125000J0D01*
G01*
X81280000Y-133375000D01*
G75*
G02*
X81155000Y-133250000I0J125000D01*
G01*
G37*
G36*
G01*
X81155000Y-127750000D02*
X81155000Y-126750000D01*
G75*
G02*
X81280000Y-126625000I125000J0D01*
G01*
X81530000Y-126625000D01*
G75*
G02*
X81655000Y-126750000I0J-125000D01*
G01*
X81655000Y-127750000D01*
G75*
G02*
X81530000Y-127875000I-125000J0D01*
G01*
X81280000Y-127875000D01*
G75*
G02*
X81155000Y-127750000I0J125000D01*
G01*
G37*
G36*
G01*
X79885000Y-127750000D02*
X79885000Y-126750000D01*
G75*
G02*
X80010000Y-126625000I125000J0D01*
G01*
X80260000Y-126625000D01*
G75*
G02*
X80385000Y-126750000I0J-125000D01*
G01*
X80385000Y-127750000D01*
G75*
G02*
X80260000Y-127875000I-125000J0D01*
G01*
X80010000Y-127875000D01*
G75*
G02*
X79885000Y-127750000I0J125000D01*
G01*
G37*
G36*
G01*
X78615000Y-127750000D02*
X78615000Y-126750000D01*
G75*
G02*
X78740000Y-126625000I125000J0D01*
G01*
X78990000Y-126625000D01*
G75*
G02*
X79115000Y-126750000I0J-125000D01*
G01*
X79115000Y-127750000D01*
G75*
G02*
X78990000Y-127875000I-125000J0D01*
G01*
X78740000Y-127875000D01*
G75*
G02*
X78615000Y-127750000I0J125000D01*
G01*
G37*
G36*
G01*
X77345000Y-127750000D02*
X77345000Y-126750000D01*
G75*
G02*
X77470000Y-126625000I125000J0D01*
G01*
X77720000Y-126625000D01*
G75*
G02*
X77845000Y-126750000I0J-125000D01*
G01*
X77845000Y-127750000D01*
G75*
G02*
X77720000Y-127875000I-125000J0D01*
G01*
X77470000Y-127875000D01*
G75*
G02*
X77345000Y-127750000I0J125000D01*
G01*
G37*
%TD*%
%TO.C,U16*%
G36*
G01*
X84345000Y-133250000D02*
X84345000Y-132250000D01*
G75*
G02*
X84470000Y-132125000I125000J0D01*
G01*
X84720000Y-132125000D01*
G75*
G02*
X84845000Y-132250000I0J-125000D01*
G01*
X84845000Y-133250000D01*
G75*
G02*
X84720000Y-133375000I-125000J0D01*
G01*
X84470000Y-133375000D01*
G75*
G02*
X84345000Y-133250000I0J125000D01*
G01*
G37*
G36*
G01*
X85615000Y-133250000D02*
X85615000Y-132250000D01*
G75*
G02*
X85740000Y-132125000I125000J0D01*
G01*
X85990000Y-132125000D01*
G75*
G02*
X86115000Y-132250000I0J-125000D01*
G01*
X86115000Y-133250000D01*
G75*
G02*
X85990000Y-133375000I-125000J0D01*
G01*
X85740000Y-133375000D01*
G75*
G02*
X85615000Y-133250000I0J125000D01*
G01*
G37*
G36*
G01*
X86885000Y-133250000D02*
X86885000Y-132250000D01*
G75*
G02*
X87010000Y-132125000I125000J0D01*
G01*
X87260000Y-132125000D01*
G75*
G02*
X87385000Y-132250000I0J-125000D01*
G01*
X87385000Y-133250000D01*
G75*
G02*
X87260000Y-133375000I-125000J0D01*
G01*
X87010000Y-133375000D01*
G75*
G02*
X86885000Y-133250000I0J125000D01*
G01*
G37*
G36*
G01*
X88155000Y-133250000D02*
X88155000Y-132250000D01*
G75*
G02*
X88280000Y-132125000I125000J0D01*
G01*
X88530000Y-132125000D01*
G75*
G02*
X88655000Y-132250000I0J-125000D01*
G01*
X88655000Y-133250000D01*
G75*
G02*
X88530000Y-133375000I-125000J0D01*
G01*
X88280000Y-133375000D01*
G75*
G02*
X88155000Y-133250000I0J125000D01*
G01*
G37*
G36*
G01*
X88155000Y-127750000D02*
X88155000Y-126750000D01*
G75*
G02*
X88280000Y-126625000I125000J0D01*
G01*
X88530000Y-126625000D01*
G75*
G02*
X88655000Y-126750000I0J-125000D01*
G01*
X88655000Y-127750000D01*
G75*
G02*
X88530000Y-127875000I-125000J0D01*
G01*
X88280000Y-127875000D01*
G75*
G02*
X88155000Y-127750000I0J125000D01*
G01*
G37*
G36*
G01*
X86885000Y-127750000D02*
X86885000Y-126750000D01*
G75*
G02*
X87010000Y-126625000I125000J0D01*
G01*
X87260000Y-126625000D01*
G75*
G02*
X87385000Y-126750000I0J-125000D01*
G01*
X87385000Y-127750000D01*
G75*
G02*
X87260000Y-127875000I-125000J0D01*
G01*
X87010000Y-127875000D01*
G75*
G02*
X86885000Y-127750000I0J125000D01*
G01*
G37*
G36*
G01*
X85615000Y-127750000D02*
X85615000Y-126750000D01*
G75*
G02*
X85740000Y-126625000I125000J0D01*
G01*
X85990000Y-126625000D01*
G75*
G02*
X86115000Y-126750000I0J-125000D01*
G01*
X86115000Y-127750000D01*
G75*
G02*
X85990000Y-127875000I-125000J0D01*
G01*
X85740000Y-127875000D01*
G75*
G02*
X85615000Y-127750000I0J125000D01*
G01*
G37*
G36*
G01*
X84345000Y-127750000D02*
X84345000Y-126750000D01*
G75*
G02*
X84470000Y-126625000I125000J0D01*
G01*
X84720000Y-126625000D01*
G75*
G02*
X84845000Y-126750000I0J-125000D01*
G01*
X84845000Y-127750000D01*
G75*
G02*
X84720000Y-127875000I-125000J0D01*
G01*
X84470000Y-127875000D01*
G75*
G02*
X84345000Y-127750000I0J125000D01*
G01*
G37*
%TD*%
%TO.C,U17*%
G36*
G01*
X93845000Y-133250000D02*
X93845000Y-132250000D01*
G75*
G02*
X93970000Y-132125000I125000J0D01*
G01*
X94220000Y-132125000D01*
G75*
G02*
X94345000Y-132250000I0J-125000D01*
G01*
X94345000Y-133250000D01*
G75*
G02*
X94220000Y-133375000I-125000J0D01*
G01*
X93970000Y-133375000D01*
G75*
G02*
X93845000Y-133250000I0J125000D01*
G01*
G37*
G36*
G01*
X95115000Y-133250000D02*
X95115000Y-132250000D01*
G75*
G02*
X95240000Y-132125000I125000J0D01*
G01*
X95490000Y-132125000D01*
G75*
G02*
X95615000Y-132250000I0J-125000D01*
G01*
X95615000Y-133250000D01*
G75*
G02*
X95490000Y-133375000I-125000J0D01*
G01*
X95240000Y-133375000D01*
G75*
G02*
X95115000Y-133250000I0J125000D01*
G01*
G37*
G36*
G01*
X96385000Y-133250000D02*
X96385000Y-132250000D01*
G75*
G02*
X96510000Y-132125000I125000J0D01*
G01*
X96760000Y-132125000D01*
G75*
G02*
X96885000Y-132250000I0J-125000D01*
G01*
X96885000Y-133250000D01*
G75*
G02*
X96760000Y-133375000I-125000J0D01*
G01*
X96510000Y-133375000D01*
G75*
G02*
X96385000Y-133250000I0J125000D01*
G01*
G37*
G36*
G01*
X97655000Y-133250000D02*
X97655000Y-132250000D01*
G75*
G02*
X97780000Y-132125000I125000J0D01*
G01*
X98030000Y-132125000D01*
G75*
G02*
X98155000Y-132250000I0J-125000D01*
G01*
X98155000Y-133250000D01*
G75*
G02*
X98030000Y-133375000I-125000J0D01*
G01*
X97780000Y-133375000D01*
G75*
G02*
X97655000Y-133250000I0J125000D01*
G01*
G37*
G36*
G01*
X97655000Y-127750000D02*
X97655000Y-126750000D01*
G75*
G02*
X97780000Y-126625000I125000J0D01*
G01*
X98030000Y-126625000D01*
G75*
G02*
X98155000Y-126750000I0J-125000D01*
G01*
X98155000Y-127750000D01*
G75*
G02*
X98030000Y-127875000I-125000J0D01*
G01*
X97780000Y-127875000D01*
G75*
G02*
X97655000Y-127750000I0J125000D01*
G01*
G37*
G36*
G01*
X96385000Y-127750000D02*
X96385000Y-126750000D01*
G75*
G02*
X96510000Y-126625000I125000J0D01*
G01*
X96760000Y-126625000D01*
G75*
G02*
X96885000Y-126750000I0J-125000D01*
G01*
X96885000Y-127750000D01*
G75*
G02*
X96760000Y-127875000I-125000J0D01*
G01*
X96510000Y-127875000D01*
G75*
G02*
X96385000Y-127750000I0J125000D01*
G01*
G37*
G36*
G01*
X95115000Y-127750000D02*
X95115000Y-126750000D01*
G75*
G02*
X95240000Y-126625000I125000J0D01*
G01*
X95490000Y-126625000D01*
G75*
G02*
X95615000Y-126750000I0J-125000D01*
G01*
X95615000Y-127750000D01*
G75*
G02*
X95490000Y-127875000I-125000J0D01*
G01*
X95240000Y-127875000D01*
G75*
G02*
X95115000Y-127750000I0J125000D01*
G01*
G37*
G36*
G01*
X93845000Y-127750000D02*
X93845000Y-126750000D01*
G75*
G02*
X93970000Y-126625000I125000J0D01*
G01*
X94220000Y-126625000D01*
G75*
G02*
X94345000Y-126750000I0J-125000D01*
G01*
X94345000Y-127750000D01*
G75*
G02*
X94220000Y-127875000I-125000J0D01*
G01*
X93970000Y-127875000D01*
G75*
G02*
X93845000Y-127750000I0J125000D01*
G01*
G37*
%TD*%
%TO.C,U18*%
G36*
G01*
X100845000Y-133250000D02*
X100845000Y-132250000D01*
G75*
G02*
X100970000Y-132125000I125000J0D01*
G01*
X101220000Y-132125000D01*
G75*
G02*
X101345000Y-132250000I0J-125000D01*
G01*
X101345000Y-133250000D01*
G75*
G02*
X101220000Y-133375000I-125000J0D01*
G01*
X100970000Y-133375000D01*
G75*
G02*
X100845000Y-133250000I0J125000D01*
G01*
G37*
G36*
G01*
X102115000Y-133250000D02*
X102115000Y-132250000D01*
G75*
G02*
X102240000Y-132125000I125000J0D01*
G01*
X102490000Y-132125000D01*
G75*
G02*
X102615000Y-132250000I0J-125000D01*
G01*
X102615000Y-133250000D01*
G75*
G02*
X102490000Y-133375000I-125000J0D01*
G01*
X102240000Y-133375000D01*
G75*
G02*
X102115000Y-133250000I0J125000D01*
G01*
G37*
G36*
G01*
X103385000Y-133250000D02*
X103385000Y-132250000D01*
G75*
G02*
X103510000Y-132125000I125000J0D01*
G01*
X103760000Y-132125000D01*
G75*
G02*
X103885000Y-132250000I0J-125000D01*
G01*
X103885000Y-133250000D01*
G75*
G02*
X103760000Y-133375000I-125000J0D01*
G01*
X103510000Y-133375000D01*
G75*
G02*
X103385000Y-133250000I0J125000D01*
G01*
G37*
G36*
G01*
X104655000Y-133250000D02*
X104655000Y-132250000D01*
G75*
G02*
X104780000Y-132125000I125000J0D01*
G01*
X105030000Y-132125000D01*
G75*
G02*
X105155000Y-132250000I0J-125000D01*
G01*
X105155000Y-133250000D01*
G75*
G02*
X105030000Y-133375000I-125000J0D01*
G01*
X104780000Y-133375000D01*
G75*
G02*
X104655000Y-133250000I0J125000D01*
G01*
G37*
G36*
G01*
X104655000Y-127750000D02*
X104655000Y-126750000D01*
G75*
G02*
X104780000Y-126625000I125000J0D01*
G01*
X105030000Y-126625000D01*
G75*
G02*
X105155000Y-126750000I0J-125000D01*
G01*
X105155000Y-127750000D01*
G75*
G02*
X105030000Y-127875000I-125000J0D01*
G01*
X104780000Y-127875000D01*
G75*
G02*
X104655000Y-127750000I0J125000D01*
G01*
G37*
G36*
G01*
X103385000Y-127750000D02*
X103385000Y-126750000D01*
G75*
G02*
X103510000Y-126625000I125000J0D01*
G01*
X103760000Y-126625000D01*
G75*
G02*
X103885000Y-126750000I0J-125000D01*
G01*
X103885000Y-127750000D01*
G75*
G02*
X103760000Y-127875000I-125000J0D01*
G01*
X103510000Y-127875000D01*
G75*
G02*
X103385000Y-127750000I0J125000D01*
G01*
G37*
G36*
G01*
X102115000Y-127750000D02*
X102115000Y-126750000D01*
G75*
G02*
X102240000Y-126625000I125000J0D01*
G01*
X102490000Y-126625000D01*
G75*
G02*
X102615000Y-126750000I0J-125000D01*
G01*
X102615000Y-127750000D01*
G75*
G02*
X102490000Y-127875000I-125000J0D01*
G01*
X102240000Y-127875000D01*
G75*
G02*
X102115000Y-127750000I0J125000D01*
G01*
G37*
G36*
G01*
X100845000Y-127750000D02*
X100845000Y-126750000D01*
G75*
G02*
X100970000Y-126625000I125000J0D01*
G01*
X101220000Y-126625000D01*
G75*
G02*
X101345000Y-126750000I0J-125000D01*
G01*
X101345000Y-127750000D01*
G75*
G02*
X101220000Y-127875000I-125000J0D01*
G01*
X100970000Y-127875000D01*
G75*
G02*
X100845000Y-127750000I0J125000D01*
G01*
G37*
%TD*%
%TO.C,Y1*%
G36*
G01*
X55750000Y-149750000D02*
X56250000Y-149750000D01*
G75*
G02*
X56500000Y-150000000I0J-250000D01*
G01*
X56500000Y-151000000D01*
G75*
G02*
X56250000Y-151250000I-250000J0D01*
G01*
X55750000Y-151250000D01*
G75*
G02*
X55500000Y-151000000I0J250000D01*
G01*
X55500000Y-150000000D01*
G75*
G02*
X55750000Y-149750000I250000J0D01*
G01*
G37*
G36*
G01*
X55750000Y-153750000D02*
X56250000Y-153750000D01*
G75*
G02*
X56500000Y-154000000I0J-250000D01*
G01*
X56500000Y-155000000D01*
G75*
G02*
X56250000Y-155250000I-250000J0D01*
G01*
X55750000Y-155250000D01*
G75*
G02*
X55500000Y-155000000I0J250000D01*
G01*
X55500000Y-154000000D01*
G75*
G02*
X55750000Y-153750000I250000J0D01*
G01*
G37*
G36*
G01*
X53250000Y-153750000D02*
X53750000Y-153750000D01*
G75*
G02*
X54000000Y-154000000I0J-250000D01*
G01*
X54000000Y-155000000D01*
G75*
G02*
X53750000Y-155250000I-250000J0D01*
G01*
X53250000Y-155250000D01*
G75*
G02*
X53000000Y-155000000I0J250000D01*
G01*
X53000000Y-154000000D01*
G75*
G02*
X53250000Y-153750000I250000J0D01*
G01*
G37*
G36*
G01*
X53250000Y-149750000D02*
X53750000Y-149750000D01*
G75*
G02*
X54000000Y-150000000I0J-250000D01*
G01*
X54000000Y-151000000D01*
G75*
G02*
X53750000Y-151250000I-250000J0D01*
G01*
X53250000Y-151250000D01*
G75*
G02*
X53000000Y-151000000I0J250000D01*
G01*
X53000000Y-150000000D01*
G75*
G02*
X53250000Y-149750000I250000J0D01*
G01*
G37*
%TD*%
M02*
