%TF.GenerationSoftware,KiCad,Pcbnew,(5.1.9)-1*%
%TF.CreationDate,2021-06-23T22:51:48+02:00*%
%TF.ProjectId,EndatDecoder,456e6461-7444-4656-936f-6465722e6b69,rev?*%
%TF.SameCoordinates,Original*%
%TF.FileFunction,Legend,Top*%
%TF.FilePolarity,Positive*%
%FSLAX46Y46*%
G04 Gerber Fmt 4.6, Leading zero omitted, Abs format (unit mm)*
G04 Created by KiCad (PCBNEW (5.1.9)-1) date 2021-06-23 22:51:48*
%MOMM*%
%LPD*%
G01*
G04 APERTURE LIST*
%ADD10C,0.187500*%
%ADD11C,0.150000*%
%ADD12C,0.120000*%
%ADD13C,0.127000*%
%ADD14C,0.200000*%
%ADD15C,0.015000*%
%ADD16C,0.300000*%
G04 APERTURE END LIST*
D10*
X83500000Y-81676190D02*
X83500000Y-82152380D01*
X83166666Y-81152380D02*
X83500000Y-81676190D01*
X83833333Y-81152380D01*
X66466666Y-80852380D02*
X67133333Y-81852380D01*
X67133333Y-80852380D02*
X66466666Y-81852380D01*
X99666666Y-81252380D02*
X100333333Y-81252380D01*
X99666666Y-82252380D01*
X100333333Y-82252380D01*
X142566666Y-178352380D02*
X143233333Y-178352380D01*
X142566666Y-179352380D01*
X143233333Y-179352380D01*
X129200000Y-178876190D02*
X129200000Y-179352380D01*
X128866666Y-178352380D02*
X129200000Y-178876190D01*
X129533333Y-178352380D01*
X114466666Y-178352380D02*
X115133333Y-179352380D01*
X115133333Y-178352380D02*
X114466666Y-179352380D01*
D11*
X133503571Y-111175000D02*
X133539285Y-111067857D01*
X133539285Y-110889285D01*
X133503571Y-110817857D01*
X133467857Y-110782142D01*
X133396428Y-110746428D01*
X133325000Y-110746428D01*
X133253571Y-110782142D01*
X133217857Y-110817857D01*
X133182142Y-110889285D01*
X133146428Y-111032142D01*
X133110714Y-111103571D01*
X133075000Y-111139285D01*
X133003571Y-111175000D01*
X132932142Y-111175000D01*
X132860714Y-111139285D01*
X132825000Y-111103571D01*
X132789285Y-111032142D01*
X132789285Y-110853571D01*
X132825000Y-110746428D01*
X133539285Y-110425000D02*
X133039285Y-110425000D01*
X132789285Y-110425000D02*
X132825000Y-110460714D01*
X132860714Y-110425000D01*
X132825000Y-110389285D01*
X132789285Y-110425000D01*
X132860714Y-110425000D01*
X133539285Y-110067857D02*
X133039285Y-110067857D01*
X133110714Y-110067857D02*
X133075000Y-110032142D01*
X133039285Y-109960714D01*
X133039285Y-109853571D01*
X133075000Y-109782142D01*
X133146428Y-109746428D01*
X133539285Y-109746428D01*
X133146428Y-109746428D02*
X133075000Y-109710714D01*
X133039285Y-109639285D01*
X133039285Y-109532142D01*
X133075000Y-109460714D01*
X133146428Y-109425000D01*
X133539285Y-109425000D01*
X133039285Y-109067857D02*
X133789285Y-109067857D01*
X133075000Y-109067857D02*
X133039285Y-108996428D01*
X133039285Y-108853571D01*
X133075000Y-108782142D01*
X133110714Y-108746428D01*
X133182142Y-108710714D01*
X133396428Y-108710714D01*
X133467857Y-108746428D01*
X133503571Y-108782142D01*
X133539285Y-108853571D01*
X133539285Y-108996428D01*
X133503571Y-109067857D01*
X133539285Y-108282142D02*
X133503571Y-108353571D01*
X133432142Y-108389285D01*
X132789285Y-108389285D01*
X133503571Y-107710714D02*
X133539285Y-107782142D01*
X133539285Y-107925000D01*
X133503571Y-107996428D01*
X133432142Y-108032142D01*
X133146428Y-108032142D01*
X133075000Y-107996428D01*
X133039285Y-107925000D01*
X133039285Y-107782142D01*
X133075000Y-107710714D01*
X133146428Y-107675000D01*
X133217857Y-107675000D01*
X133289285Y-108032142D01*
X133539285Y-106782142D02*
X132789285Y-106782142D01*
X133325000Y-106532142D01*
X132789285Y-106282142D01*
X133539285Y-106282142D01*
X133539285Y-105817857D02*
X133503571Y-105889285D01*
X133467857Y-105925000D01*
X133396428Y-105960714D01*
X133182142Y-105960714D01*
X133110714Y-105925000D01*
X133075000Y-105889285D01*
X133039285Y-105817857D01*
X133039285Y-105710714D01*
X133075000Y-105639285D01*
X133110714Y-105603571D01*
X133182142Y-105567857D01*
X133396428Y-105567857D01*
X133467857Y-105603571D01*
X133503571Y-105639285D01*
X133539285Y-105710714D01*
X133539285Y-105817857D01*
X133039285Y-105353571D02*
X133039285Y-105067857D01*
X132789285Y-105246428D02*
X133432142Y-105246428D01*
X133503571Y-105210714D01*
X133539285Y-105139285D01*
X133539285Y-105067857D01*
X133539285Y-104817857D02*
X133039285Y-104817857D01*
X132789285Y-104817857D02*
X132825000Y-104853571D01*
X132860714Y-104817857D01*
X132825000Y-104782142D01*
X132789285Y-104817857D01*
X132860714Y-104817857D01*
X133539285Y-104353571D02*
X133503571Y-104425000D01*
X133467857Y-104460714D01*
X133396428Y-104496428D01*
X133182142Y-104496428D01*
X133110714Y-104460714D01*
X133075000Y-104425000D01*
X133039285Y-104353571D01*
X133039285Y-104246428D01*
X133075000Y-104175000D01*
X133110714Y-104139285D01*
X133182142Y-104103571D01*
X133396428Y-104103571D01*
X133467857Y-104139285D01*
X133503571Y-104175000D01*
X133539285Y-104246428D01*
X133539285Y-104353571D01*
X133039285Y-103782142D02*
X133539285Y-103782142D01*
X133110714Y-103782142D02*
X133075000Y-103746428D01*
X133039285Y-103675000D01*
X133039285Y-103567857D01*
X133075000Y-103496428D01*
X133146428Y-103460714D01*
X133539285Y-103460714D01*
X133603571Y-127710714D02*
X133639285Y-127603571D01*
X133639285Y-127425000D01*
X133603571Y-127353571D01*
X133567857Y-127317857D01*
X133496428Y-127282142D01*
X133425000Y-127282142D01*
X133353571Y-127317857D01*
X133317857Y-127353571D01*
X133282142Y-127425000D01*
X133246428Y-127567857D01*
X133210714Y-127639285D01*
X133175000Y-127675000D01*
X133103571Y-127710714D01*
X133032142Y-127710714D01*
X132960714Y-127675000D01*
X132925000Y-127639285D01*
X132889285Y-127567857D01*
X132889285Y-127389285D01*
X132925000Y-127282142D01*
X133639285Y-126960714D02*
X133139285Y-126960714D01*
X133210714Y-126960714D02*
X133175000Y-126925000D01*
X133139285Y-126853571D01*
X133139285Y-126746428D01*
X133175000Y-126675000D01*
X133246428Y-126639285D01*
X133639285Y-126639285D01*
X133246428Y-126639285D02*
X133175000Y-126603571D01*
X133139285Y-126532142D01*
X133139285Y-126425000D01*
X133175000Y-126353571D01*
X133246428Y-126317857D01*
X133639285Y-126317857D01*
X133639285Y-125639285D02*
X133246428Y-125639285D01*
X133175000Y-125675000D01*
X133139285Y-125746428D01*
X133139285Y-125889285D01*
X133175000Y-125960714D01*
X133603571Y-125639285D02*
X133639285Y-125710714D01*
X133639285Y-125889285D01*
X133603571Y-125960714D01*
X133532142Y-125996428D01*
X133460714Y-125996428D01*
X133389285Y-125960714D01*
X133353571Y-125889285D01*
X133353571Y-125710714D01*
X133317857Y-125639285D01*
X133639285Y-125282142D02*
X133139285Y-125282142D01*
X133282142Y-125282142D02*
X133210714Y-125246428D01*
X133175000Y-125210714D01*
X133139285Y-125139285D01*
X133139285Y-125067857D01*
X133139285Y-124925000D02*
X133139285Y-124639285D01*
X132889285Y-124817857D02*
X133532142Y-124817857D01*
X133603571Y-124782142D01*
X133639285Y-124710714D01*
X133639285Y-124639285D01*
X133603571Y-123853571D02*
X133639285Y-123746428D01*
X133639285Y-123567857D01*
X133603571Y-123496428D01*
X133567857Y-123460714D01*
X133496428Y-123425000D01*
X133425000Y-123425000D01*
X133353571Y-123460714D01*
X133317857Y-123496428D01*
X133282142Y-123567857D01*
X133246428Y-123710714D01*
X133210714Y-123782142D01*
X133175000Y-123817857D01*
X133103571Y-123853571D01*
X133032142Y-123853571D01*
X132960714Y-123817857D01*
X132925000Y-123782142D01*
X132889285Y-123710714D01*
X132889285Y-123532142D01*
X132925000Y-123425000D01*
X133603571Y-122817857D02*
X133639285Y-122889285D01*
X133639285Y-123032142D01*
X133603571Y-123103571D01*
X133532142Y-123139285D01*
X133246428Y-123139285D01*
X133175000Y-123103571D01*
X133139285Y-123032142D01*
X133139285Y-122889285D01*
X133175000Y-122817857D01*
X133246428Y-122782142D01*
X133317857Y-122782142D01*
X133389285Y-123139285D01*
X133639285Y-122460714D02*
X133139285Y-122460714D01*
X133282142Y-122460714D02*
X133210714Y-122425000D01*
X133175000Y-122389285D01*
X133139285Y-122317857D01*
X133139285Y-122246428D01*
X133639285Y-121996428D02*
X133139285Y-121996428D01*
X132889285Y-121996428D02*
X132925000Y-122032142D01*
X132960714Y-121996428D01*
X132925000Y-121960714D01*
X132889285Y-121996428D01*
X132960714Y-121996428D01*
X133639285Y-121317857D02*
X133246428Y-121317857D01*
X133175000Y-121353571D01*
X133139285Y-121425000D01*
X133139285Y-121567857D01*
X133175000Y-121639285D01*
X133603571Y-121317857D02*
X133639285Y-121389285D01*
X133639285Y-121567857D01*
X133603571Y-121639285D01*
X133532142Y-121675000D01*
X133460714Y-121675000D01*
X133389285Y-121639285D01*
X133353571Y-121567857D01*
X133353571Y-121389285D01*
X133317857Y-121317857D01*
X133639285Y-120853571D02*
X133603571Y-120925000D01*
X133532142Y-120960714D01*
X132889285Y-120960714D01*
X93428571Y-166325000D02*
X93357142Y-166289285D01*
X93250000Y-166289285D01*
X93142857Y-166325000D01*
X93071428Y-166396428D01*
X93035714Y-166467857D01*
X93000000Y-166610714D01*
X93000000Y-166717857D01*
X93035714Y-166860714D01*
X93071428Y-166932142D01*
X93142857Y-167003571D01*
X93250000Y-167039285D01*
X93321428Y-167039285D01*
X93428571Y-167003571D01*
X93464285Y-166967857D01*
X93464285Y-166717857D01*
X93321428Y-166717857D01*
X93785714Y-167039285D02*
X93785714Y-166289285D01*
X94214285Y-167039285D01*
X94214285Y-166289285D01*
X94571428Y-167039285D02*
X94571428Y-166289285D01*
X94750000Y-166289285D01*
X94857142Y-166325000D01*
X94928571Y-166396428D01*
X94964285Y-166467857D01*
X95000000Y-166610714D01*
X95000000Y-166717857D01*
X94964285Y-166860714D01*
X94928571Y-166932142D01*
X94857142Y-167003571D01*
X94750000Y-167039285D01*
X94571428Y-167039285D01*
X102507142Y-166460714D02*
X102542857Y-166425000D01*
X102614285Y-166389285D01*
X102792857Y-166389285D01*
X102864285Y-166425000D01*
X102900000Y-166460714D01*
X102935714Y-166532142D01*
X102935714Y-166603571D01*
X102900000Y-166710714D01*
X102471428Y-167139285D01*
X102935714Y-167139285D01*
X103578571Y-166639285D02*
X103578571Y-167139285D01*
X103400000Y-166353571D02*
X103221428Y-166889285D01*
X103685714Y-166889285D01*
X103864285Y-166389285D02*
X104114285Y-167139285D01*
X104364285Y-166389285D01*
X144557142Y-176901785D02*
X144557142Y-176151785D01*
X144985714Y-176901785D01*
X144985714Y-176151785D01*
X145771428Y-176830357D02*
X145735714Y-176866071D01*
X145628571Y-176901785D01*
X145557142Y-176901785D01*
X145450000Y-176866071D01*
X145378571Y-176794642D01*
X145342857Y-176723214D01*
X145307142Y-176580357D01*
X145307142Y-176473214D01*
X145342857Y-176330357D01*
X145378571Y-176258928D01*
X145450000Y-176187500D01*
X145557142Y-176151785D01*
X145628571Y-176151785D01*
X145735714Y-176187500D01*
X145771428Y-176223214D01*
X146664285Y-176901785D02*
X146664285Y-176151785D01*
X147092857Y-176901785D01*
X147092857Y-176151785D01*
X147878571Y-176830357D02*
X147842857Y-176866071D01*
X147735714Y-176901785D01*
X147664285Y-176901785D01*
X147557142Y-176866071D01*
X147485714Y-176794642D01*
X147450000Y-176723214D01*
X147414285Y-176580357D01*
X147414285Y-176473214D01*
X147450000Y-176330357D01*
X147485714Y-176258928D01*
X147557142Y-176187500D01*
X147664285Y-176151785D01*
X147735714Y-176151785D01*
X147842857Y-176187500D01*
X147878571Y-176223214D01*
X144664285Y-177462500D02*
X144592857Y-177426785D01*
X144485714Y-177426785D01*
X144378571Y-177462500D01*
X144307142Y-177533928D01*
X144271428Y-177605357D01*
X144235714Y-177748214D01*
X144235714Y-177855357D01*
X144271428Y-177998214D01*
X144307142Y-178069642D01*
X144378571Y-178141071D01*
X144485714Y-178176785D01*
X144557142Y-178176785D01*
X144664285Y-178141071D01*
X144700000Y-178105357D01*
X144700000Y-177855357D01*
X144557142Y-177855357D01*
X145021428Y-178176785D02*
X145021428Y-177426785D01*
X145450000Y-178176785D01*
X145450000Y-177426785D01*
X145807142Y-178176785D02*
X145807142Y-177426785D01*
X145985714Y-177426785D01*
X146092857Y-177462500D01*
X146164285Y-177533928D01*
X146200000Y-177605357D01*
X146235714Y-177748214D01*
X146235714Y-177855357D01*
X146200000Y-177998214D01*
X146164285Y-178069642D01*
X146092857Y-178141071D01*
X145985714Y-178176785D01*
X145807142Y-178176785D01*
X147485714Y-177426785D02*
X147128571Y-177426785D01*
X147092857Y-177783928D01*
X147128571Y-177748214D01*
X147200000Y-177712500D01*
X147378571Y-177712500D01*
X147450000Y-177748214D01*
X147485714Y-177783928D01*
X147521428Y-177855357D01*
X147521428Y-178033928D01*
X147485714Y-178105357D01*
X147450000Y-178141071D01*
X147378571Y-178176785D01*
X147200000Y-178176785D01*
X147128571Y-178141071D01*
X147092857Y-178105357D01*
X147735714Y-177426785D02*
X147985714Y-178176785D01*
X148235714Y-177426785D01*
X130857142Y-176801785D02*
X130857142Y-176051785D01*
X131285714Y-176801785D01*
X131285714Y-176051785D01*
X132071428Y-176730357D02*
X132035714Y-176766071D01*
X131928571Y-176801785D01*
X131857142Y-176801785D01*
X131750000Y-176766071D01*
X131678571Y-176694642D01*
X131642857Y-176623214D01*
X131607142Y-176480357D01*
X131607142Y-176373214D01*
X131642857Y-176230357D01*
X131678571Y-176158928D01*
X131750000Y-176087500D01*
X131857142Y-176051785D01*
X131928571Y-176051785D01*
X132035714Y-176087500D01*
X132071428Y-176123214D01*
X132964285Y-176801785D02*
X132964285Y-176051785D01*
X133392857Y-176801785D01*
X133392857Y-176051785D01*
X134178571Y-176730357D02*
X134142857Y-176766071D01*
X134035714Y-176801785D01*
X133964285Y-176801785D01*
X133857142Y-176766071D01*
X133785714Y-176694642D01*
X133750000Y-176623214D01*
X133714285Y-176480357D01*
X133714285Y-176373214D01*
X133750000Y-176230357D01*
X133785714Y-176158928D01*
X133857142Y-176087500D01*
X133964285Y-176051785D01*
X134035714Y-176051785D01*
X134142857Y-176087500D01*
X134178571Y-176123214D01*
X130964285Y-177362500D02*
X130892857Y-177326785D01*
X130785714Y-177326785D01*
X130678571Y-177362500D01*
X130607142Y-177433928D01*
X130571428Y-177505357D01*
X130535714Y-177648214D01*
X130535714Y-177755357D01*
X130571428Y-177898214D01*
X130607142Y-177969642D01*
X130678571Y-178041071D01*
X130785714Y-178076785D01*
X130857142Y-178076785D01*
X130964285Y-178041071D01*
X131000000Y-178005357D01*
X131000000Y-177755357D01*
X130857142Y-177755357D01*
X131321428Y-178076785D02*
X131321428Y-177326785D01*
X131750000Y-178076785D01*
X131750000Y-177326785D01*
X132107142Y-178076785D02*
X132107142Y-177326785D01*
X132285714Y-177326785D01*
X132392857Y-177362500D01*
X132464285Y-177433928D01*
X132500000Y-177505357D01*
X132535714Y-177648214D01*
X132535714Y-177755357D01*
X132500000Y-177898214D01*
X132464285Y-177969642D01*
X132392857Y-178041071D01*
X132285714Y-178076785D01*
X132107142Y-178076785D01*
X133785714Y-177326785D02*
X133428571Y-177326785D01*
X133392857Y-177683928D01*
X133428571Y-177648214D01*
X133500000Y-177612500D01*
X133678571Y-177612500D01*
X133750000Y-177648214D01*
X133785714Y-177683928D01*
X133821428Y-177755357D01*
X133821428Y-177933928D01*
X133785714Y-178005357D01*
X133750000Y-178041071D01*
X133678571Y-178076785D01*
X133500000Y-178076785D01*
X133428571Y-178041071D01*
X133392857Y-178005357D01*
X134035714Y-177326785D02*
X134285714Y-178076785D01*
X134535714Y-177326785D01*
X116557142Y-176801785D02*
X116557142Y-176051785D01*
X116985714Y-176801785D01*
X116985714Y-176051785D01*
X117771428Y-176730357D02*
X117735714Y-176766071D01*
X117628571Y-176801785D01*
X117557142Y-176801785D01*
X117450000Y-176766071D01*
X117378571Y-176694642D01*
X117342857Y-176623214D01*
X117307142Y-176480357D01*
X117307142Y-176373214D01*
X117342857Y-176230357D01*
X117378571Y-176158928D01*
X117450000Y-176087500D01*
X117557142Y-176051785D01*
X117628571Y-176051785D01*
X117735714Y-176087500D01*
X117771428Y-176123214D01*
X118664285Y-176801785D02*
X118664285Y-176051785D01*
X119092857Y-176801785D01*
X119092857Y-176051785D01*
X119878571Y-176730357D02*
X119842857Y-176766071D01*
X119735714Y-176801785D01*
X119664285Y-176801785D01*
X119557142Y-176766071D01*
X119485714Y-176694642D01*
X119450000Y-176623214D01*
X119414285Y-176480357D01*
X119414285Y-176373214D01*
X119450000Y-176230357D01*
X119485714Y-176158928D01*
X119557142Y-176087500D01*
X119664285Y-176051785D01*
X119735714Y-176051785D01*
X119842857Y-176087500D01*
X119878571Y-176123214D01*
X116664285Y-177362500D02*
X116592857Y-177326785D01*
X116485714Y-177326785D01*
X116378571Y-177362500D01*
X116307142Y-177433928D01*
X116271428Y-177505357D01*
X116235714Y-177648214D01*
X116235714Y-177755357D01*
X116271428Y-177898214D01*
X116307142Y-177969642D01*
X116378571Y-178041071D01*
X116485714Y-178076785D01*
X116557142Y-178076785D01*
X116664285Y-178041071D01*
X116700000Y-178005357D01*
X116700000Y-177755357D01*
X116557142Y-177755357D01*
X117021428Y-178076785D02*
X117021428Y-177326785D01*
X117450000Y-178076785D01*
X117450000Y-177326785D01*
X117807142Y-178076785D02*
X117807142Y-177326785D01*
X117985714Y-177326785D01*
X118092857Y-177362500D01*
X118164285Y-177433928D01*
X118200000Y-177505357D01*
X118235714Y-177648214D01*
X118235714Y-177755357D01*
X118200000Y-177898214D01*
X118164285Y-177969642D01*
X118092857Y-178041071D01*
X117985714Y-178076785D01*
X117807142Y-178076785D01*
X119485714Y-177326785D02*
X119128571Y-177326785D01*
X119092857Y-177683928D01*
X119128571Y-177648214D01*
X119200000Y-177612500D01*
X119378571Y-177612500D01*
X119450000Y-177648214D01*
X119485714Y-177683928D01*
X119521428Y-177755357D01*
X119521428Y-177933928D01*
X119485714Y-178005357D01*
X119450000Y-178041071D01*
X119378571Y-178076785D01*
X119200000Y-178076785D01*
X119128571Y-178041071D01*
X119092857Y-178005357D01*
X119735714Y-177326785D02*
X119985714Y-178076785D01*
X120235714Y-177326785D01*
X136685714Y-176830357D02*
X136650000Y-176866071D01*
X136542857Y-176901785D01*
X136471428Y-176901785D01*
X136364285Y-176866071D01*
X136292857Y-176794642D01*
X136257142Y-176723214D01*
X136221428Y-176580357D01*
X136221428Y-176473214D01*
X136257142Y-176330357D01*
X136292857Y-176258928D01*
X136364285Y-176187500D01*
X136471428Y-176151785D01*
X136542857Y-176151785D01*
X136650000Y-176187500D01*
X136685714Y-176223214D01*
X137364285Y-176901785D02*
X137007142Y-176901785D01*
X137007142Y-176151785D01*
X137614285Y-176901785D02*
X137614285Y-176151785D01*
X138042857Y-176901785D02*
X137721428Y-176473214D01*
X138042857Y-176151785D02*
X137614285Y-176580357D01*
X138364285Y-176616071D02*
X138935714Y-176616071D01*
X138650000Y-176901785D02*
X138650000Y-176330357D01*
X140292857Y-176830357D02*
X140257142Y-176866071D01*
X140150000Y-176901785D01*
X140078571Y-176901785D01*
X139971428Y-176866071D01*
X139900000Y-176794642D01*
X139864285Y-176723214D01*
X139828571Y-176580357D01*
X139828571Y-176473214D01*
X139864285Y-176330357D01*
X139900000Y-176258928D01*
X139971428Y-176187500D01*
X140078571Y-176151785D01*
X140150000Y-176151785D01*
X140257142Y-176187500D01*
X140292857Y-176223214D01*
X140971428Y-176901785D02*
X140614285Y-176901785D01*
X140614285Y-176151785D01*
X141221428Y-176901785D02*
X141221428Y-176151785D01*
X141650000Y-176901785D02*
X141328571Y-176473214D01*
X141650000Y-176151785D02*
X141221428Y-176580357D01*
X141971428Y-176616071D02*
X142542857Y-176616071D01*
X136400000Y-178176785D02*
X136400000Y-177426785D01*
X136578571Y-177426785D01*
X136685714Y-177462500D01*
X136757142Y-177533928D01*
X136792857Y-177605357D01*
X136828571Y-177748214D01*
X136828571Y-177855357D01*
X136792857Y-177998214D01*
X136757142Y-178069642D01*
X136685714Y-178141071D01*
X136578571Y-178176785D01*
X136400000Y-178176785D01*
X137114285Y-177962500D02*
X137471428Y-177962500D01*
X137042857Y-178176785D02*
X137292857Y-177426785D01*
X137542857Y-178176785D01*
X137685714Y-177426785D02*
X138114285Y-177426785D01*
X137900000Y-178176785D02*
X137900000Y-177426785D01*
X138364285Y-177891071D02*
X138935714Y-177891071D01*
X138650000Y-178176785D02*
X138650000Y-177605357D01*
X139864285Y-178176785D02*
X139864285Y-177426785D01*
X140042857Y-177426785D01*
X140150000Y-177462500D01*
X140221428Y-177533928D01*
X140257142Y-177605357D01*
X140292857Y-177748214D01*
X140292857Y-177855357D01*
X140257142Y-177998214D01*
X140221428Y-178069642D01*
X140150000Y-178141071D01*
X140042857Y-178176785D01*
X139864285Y-178176785D01*
X140578571Y-177962500D02*
X140935714Y-177962500D01*
X140507142Y-178176785D02*
X140757142Y-177426785D01*
X141007142Y-178176785D01*
X141150000Y-177426785D02*
X141578571Y-177426785D01*
X141364285Y-178176785D02*
X141364285Y-177426785D01*
X141828571Y-177891071D02*
X142400000Y-177891071D01*
X122985714Y-176730357D02*
X122950000Y-176766071D01*
X122842857Y-176801785D01*
X122771428Y-176801785D01*
X122664285Y-176766071D01*
X122592857Y-176694642D01*
X122557142Y-176623214D01*
X122521428Y-176480357D01*
X122521428Y-176373214D01*
X122557142Y-176230357D01*
X122592857Y-176158928D01*
X122664285Y-176087500D01*
X122771428Y-176051785D01*
X122842857Y-176051785D01*
X122950000Y-176087500D01*
X122985714Y-176123214D01*
X123664285Y-176801785D02*
X123307142Y-176801785D01*
X123307142Y-176051785D01*
X123914285Y-176801785D02*
X123914285Y-176051785D01*
X124342857Y-176801785D02*
X124021428Y-176373214D01*
X124342857Y-176051785D02*
X123914285Y-176480357D01*
X124664285Y-176516071D02*
X125235714Y-176516071D01*
X124950000Y-176801785D02*
X124950000Y-176230357D01*
X126592857Y-176730357D02*
X126557142Y-176766071D01*
X126450000Y-176801785D01*
X126378571Y-176801785D01*
X126271428Y-176766071D01*
X126200000Y-176694642D01*
X126164285Y-176623214D01*
X126128571Y-176480357D01*
X126128571Y-176373214D01*
X126164285Y-176230357D01*
X126200000Y-176158928D01*
X126271428Y-176087500D01*
X126378571Y-176051785D01*
X126450000Y-176051785D01*
X126557142Y-176087500D01*
X126592857Y-176123214D01*
X127271428Y-176801785D02*
X126914285Y-176801785D01*
X126914285Y-176051785D01*
X127521428Y-176801785D02*
X127521428Y-176051785D01*
X127950000Y-176801785D02*
X127628571Y-176373214D01*
X127950000Y-176051785D02*
X127521428Y-176480357D01*
X128271428Y-176516071D02*
X128842857Y-176516071D01*
X122700000Y-178076785D02*
X122700000Y-177326785D01*
X122878571Y-177326785D01*
X122985714Y-177362500D01*
X123057142Y-177433928D01*
X123092857Y-177505357D01*
X123128571Y-177648214D01*
X123128571Y-177755357D01*
X123092857Y-177898214D01*
X123057142Y-177969642D01*
X122985714Y-178041071D01*
X122878571Y-178076785D01*
X122700000Y-178076785D01*
X123414285Y-177862500D02*
X123771428Y-177862500D01*
X123342857Y-178076785D02*
X123592857Y-177326785D01*
X123842857Y-178076785D01*
X123985714Y-177326785D02*
X124414285Y-177326785D01*
X124200000Y-178076785D02*
X124200000Y-177326785D01*
X124664285Y-177791071D02*
X125235714Y-177791071D01*
X124950000Y-178076785D02*
X124950000Y-177505357D01*
X126164285Y-178076785D02*
X126164285Y-177326785D01*
X126342857Y-177326785D01*
X126450000Y-177362500D01*
X126521428Y-177433928D01*
X126557142Y-177505357D01*
X126592857Y-177648214D01*
X126592857Y-177755357D01*
X126557142Y-177898214D01*
X126521428Y-177969642D01*
X126450000Y-178041071D01*
X126342857Y-178076785D01*
X126164285Y-178076785D01*
X126878571Y-177862500D02*
X127235714Y-177862500D01*
X126807142Y-178076785D02*
X127057142Y-177326785D01*
X127307142Y-178076785D01*
X127450000Y-177326785D02*
X127878571Y-177326785D01*
X127664285Y-178076785D02*
X127664285Y-177326785D01*
X128128571Y-177791071D02*
X128700000Y-177791071D01*
X108485714Y-176630357D02*
X108450000Y-176666071D01*
X108342857Y-176701785D01*
X108271428Y-176701785D01*
X108164285Y-176666071D01*
X108092857Y-176594642D01*
X108057142Y-176523214D01*
X108021428Y-176380357D01*
X108021428Y-176273214D01*
X108057142Y-176130357D01*
X108092857Y-176058928D01*
X108164285Y-175987500D01*
X108271428Y-175951785D01*
X108342857Y-175951785D01*
X108450000Y-175987500D01*
X108485714Y-176023214D01*
X109164285Y-176701785D02*
X108807142Y-176701785D01*
X108807142Y-175951785D01*
X109414285Y-176701785D02*
X109414285Y-175951785D01*
X109842857Y-176701785D02*
X109521428Y-176273214D01*
X109842857Y-175951785D02*
X109414285Y-176380357D01*
X110164285Y-176416071D02*
X110735714Y-176416071D01*
X110450000Y-176701785D02*
X110450000Y-176130357D01*
X112092857Y-176630357D02*
X112057142Y-176666071D01*
X111950000Y-176701785D01*
X111878571Y-176701785D01*
X111771428Y-176666071D01*
X111700000Y-176594642D01*
X111664285Y-176523214D01*
X111628571Y-176380357D01*
X111628571Y-176273214D01*
X111664285Y-176130357D01*
X111700000Y-176058928D01*
X111771428Y-175987500D01*
X111878571Y-175951785D01*
X111950000Y-175951785D01*
X112057142Y-175987500D01*
X112092857Y-176023214D01*
X112771428Y-176701785D02*
X112414285Y-176701785D01*
X112414285Y-175951785D01*
X113021428Y-176701785D02*
X113021428Y-175951785D01*
X113450000Y-176701785D02*
X113128571Y-176273214D01*
X113450000Y-175951785D02*
X113021428Y-176380357D01*
X113771428Y-176416071D02*
X114342857Y-176416071D01*
X108200000Y-177976785D02*
X108200000Y-177226785D01*
X108378571Y-177226785D01*
X108485714Y-177262500D01*
X108557142Y-177333928D01*
X108592857Y-177405357D01*
X108628571Y-177548214D01*
X108628571Y-177655357D01*
X108592857Y-177798214D01*
X108557142Y-177869642D01*
X108485714Y-177941071D01*
X108378571Y-177976785D01*
X108200000Y-177976785D01*
X108914285Y-177762500D02*
X109271428Y-177762500D01*
X108842857Y-177976785D02*
X109092857Y-177226785D01*
X109342857Y-177976785D01*
X109485714Y-177226785D02*
X109914285Y-177226785D01*
X109700000Y-177976785D02*
X109700000Y-177226785D01*
X110164285Y-177691071D02*
X110735714Y-177691071D01*
X110450000Y-177976785D02*
X110450000Y-177405357D01*
X111664285Y-177976785D02*
X111664285Y-177226785D01*
X111842857Y-177226785D01*
X111950000Y-177262500D01*
X112021428Y-177333928D01*
X112057142Y-177405357D01*
X112092857Y-177548214D01*
X112092857Y-177655357D01*
X112057142Y-177798214D01*
X112021428Y-177869642D01*
X111950000Y-177941071D01*
X111842857Y-177976785D01*
X111664285Y-177976785D01*
X112378571Y-177762500D02*
X112735714Y-177762500D01*
X112307142Y-177976785D02*
X112557142Y-177226785D01*
X112807142Y-177976785D01*
X112950000Y-177226785D02*
X113378571Y-177226785D01*
X113164285Y-177976785D02*
X113164285Y-177226785D01*
X113628571Y-177691071D02*
X114200000Y-177691071D01*
D12*
%TO.C,U3*%
X75160000Y-160610000D02*
X75860000Y-160610000D01*
X75860000Y-160610000D02*
X75860000Y-159910000D01*
X62340000Y-160610000D02*
X61640000Y-160610000D01*
X61640000Y-160610000D02*
X61640000Y-159910000D01*
X75160000Y-146390000D02*
X75860000Y-146390000D01*
X75860000Y-146390000D02*
X75860000Y-147090000D01*
X62340000Y-146390000D02*
X61640000Y-146390000D01*
X61640000Y-146390000D02*
X61640000Y-147090000D01*
X61640000Y-147090000D02*
X60275000Y-147090000D01*
D11*
%TO.C,U7*%
X110282000Y-150092000D02*
X110790000Y-150092000D01*
X110282000Y-151362000D02*
X110282000Y-150092000D01*
X110790000Y-151362000D02*
X110282000Y-151362000D01*
X110790000Y-148314000D02*
X110790000Y-152886000D01*
X105710000Y-148314000D02*
X110790000Y-148314000D01*
X105710000Y-152886000D02*
X105710000Y-148314000D01*
X110790000Y-152886000D02*
X105710000Y-152886000D01*
X110750000Y-146850000D02*
X110750000Y-148100000D01*
X109500000Y-148100000D02*
X109500000Y-146850000D01*
X109500000Y-146850000D02*
X110750000Y-146850000D01*
D12*
%TO.C,R1*%
X65022500Y-141495276D02*
X65022500Y-142004724D01*
X63977500Y-141495276D02*
X63977500Y-142004724D01*
%TO.C,C7*%
X80741233Y-148240000D02*
X81033767Y-148240000D01*
X80741233Y-149260000D02*
X81033767Y-149260000D01*
%TO.C,C6*%
X75260000Y-164103733D02*
X75260000Y-164396267D01*
X74240000Y-164103733D02*
X74240000Y-164396267D01*
%TO.C,J13*%
X52040000Y-178290000D02*
X52040000Y-169170000D01*
X52040000Y-169170000D02*
X67540000Y-169170000D01*
X67540000Y-169170000D02*
X67540000Y-178290000D01*
X67540000Y-178290000D02*
X52040000Y-178290000D01*
X57740000Y-178290000D02*
X57740000Y-176980000D01*
X57740000Y-176980000D02*
X53340000Y-176980000D01*
X53340000Y-176980000D02*
X53340000Y-170480000D01*
X53340000Y-170480000D02*
X66240000Y-170480000D01*
X66240000Y-170480000D02*
X66240000Y-176980000D01*
X66240000Y-176980000D02*
X61840000Y-176980000D01*
X61840000Y-176980000D02*
X61840000Y-176980000D01*
X61840000Y-176980000D02*
X61840000Y-178290000D01*
X57250000Y-178680000D02*
X56750000Y-179680000D01*
X56750000Y-179680000D02*
X57750000Y-179680000D01*
X57750000Y-179680000D02*
X57250000Y-178680000D01*
D11*
%TO.C,U22*%
X123000000Y-113000000D02*
G75*
G03*
X123000000Y-113000000I-3000000J0D01*
G01*
%TO.C,U21*%
X58000000Y-88000000D02*
G75*
G03*
X58000000Y-88000000I-3000000J0D01*
G01*
%TO.C,U20*%
X123000000Y-88000000D02*
G75*
G03*
X123000000Y-88000000I-3000000J0D01*
G01*
%TO.C,U19*%
X58000000Y-113000000D02*
G75*
G03*
X58000000Y-113000000I-3000000J0D01*
G01*
%TO.C,R43*%
X132000000Y-113400000D02*
X132000000Y-112600000D01*
X133000000Y-113400000D02*
X133000000Y-112600000D01*
X131700000Y-113400000D02*
X133300000Y-113400000D01*
X131700000Y-112600000D02*
X131700000Y-113400000D01*
X133300000Y-112600000D02*
X131700000Y-112600000D01*
X133300000Y-113400000D02*
X133300000Y-112600000D01*
%TO.C,R34*%
X132250000Y-101900000D02*
X132250000Y-101100000D01*
X133250000Y-101900000D02*
X133250000Y-101100000D01*
X131950000Y-101900000D02*
X133550000Y-101900000D01*
X131950000Y-101100000D02*
X131950000Y-101900000D01*
X133550000Y-101100000D02*
X131950000Y-101100000D01*
X133550000Y-101900000D02*
X133550000Y-101100000D01*
%TO.C,R33*%
X132250000Y-130650000D02*
X132250000Y-129850000D01*
X133250000Y-130650000D02*
X133250000Y-129850000D01*
X131950000Y-130650000D02*
X133550000Y-130650000D01*
X131950000Y-129850000D02*
X131950000Y-130650000D01*
X133550000Y-129850000D02*
X131950000Y-129850000D01*
X133550000Y-130650000D02*
X133550000Y-129850000D01*
%TO.C,R32*%
X131750000Y-119400000D02*
X131750000Y-118600000D01*
X132750000Y-119400000D02*
X132750000Y-118600000D01*
X131450000Y-119400000D02*
X133050000Y-119400000D01*
X131450000Y-118600000D02*
X131450000Y-119400000D01*
X133050000Y-118600000D02*
X131450000Y-118600000D01*
X133050000Y-119400000D02*
X133050000Y-118600000D01*
%TO.C,R31*%
X148484999Y-94341500D02*
X148484999Y-95141500D01*
X147484999Y-94341500D02*
X147484999Y-95141500D01*
X148784999Y-94341500D02*
X147184999Y-94341500D01*
X148784999Y-95141500D02*
X148784999Y-94341500D01*
X147184999Y-95141500D02*
X148784999Y-95141500D01*
X147184999Y-94341500D02*
X147184999Y-95141500D01*
%TO.C,R30*%
X141084999Y-91241500D02*
X141884999Y-91241500D01*
X141084999Y-92241500D02*
X141884999Y-92241500D01*
X141084999Y-90941500D02*
X141084999Y-92541500D01*
X141884999Y-90941500D02*
X141084999Y-90941500D01*
X141884999Y-92541500D02*
X141884999Y-90941500D01*
X141084999Y-92541500D02*
X141884999Y-92541500D01*
%TO.C,R29*%
X142584999Y-91241500D02*
X143384999Y-91241500D01*
X142584999Y-92241500D02*
X143384999Y-92241500D01*
X142584999Y-90941500D02*
X142584999Y-92541500D01*
X143384999Y-90941500D02*
X142584999Y-90941500D01*
X143384999Y-92541500D02*
X143384999Y-90941500D01*
X142584999Y-92541500D02*
X143384999Y-92541500D01*
%TO.C,R28*%
X142584999Y-88491500D02*
X143384999Y-88491500D01*
X142584999Y-89491500D02*
X143384999Y-89491500D01*
X142584999Y-88191500D02*
X142584999Y-89791500D01*
X143384999Y-88191500D02*
X142584999Y-88191500D01*
X143384999Y-89791500D02*
X143384999Y-88191500D01*
X142584999Y-89791500D02*
X143384999Y-89791500D01*
%TO.C,R27*%
X141084999Y-88491500D02*
X141884999Y-88491500D01*
X141084999Y-89491500D02*
X141884999Y-89491500D01*
X141084999Y-88191500D02*
X141084999Y-89791500D01*
X141884999Y-88191500D02*
X141084999Y-88191500D01*
X141884999Y-89791500D02*
X141884999Y-88191500D01*
X141084999Y-89791500D02*
X141884999Y-89791500D01*
%TO.C,R26*%
X141624999Y-94291500D02*
X141624999Y-95091500D01*
X140624999Y-94291500D02*
X140624999Y-95091500D01*
X141924999Y-94291500D02*
X140324999Y-94291500D01*
X141924999Y-95091500D02*
X141924999Y-94291500D01*
X140324999Y-95091500D02*
X141924999Y-95091500D01*
X140324999Y-94291500D02*
X140324999Y-95091500D01*
%TO.C,R25*%
X134224999Y-91191500D02*
X135024999Y-91191500D01*
X134224999Y-92191500D02*
X135024999Y-92191500D01*
X134224999Y-90891500D02*
X134224999Y-92491500D01*
X135024999Y-90891500D02*
X134224999Y-90891500D01*
X135024999Y-92491500D02*
X135024999Y-90891500D01*
X134224999Y-92491500D02*
X135024999Y-92491500D01*
%TO.C,R23*%
X135724999Y-91191500D02*
X136524999Y-91191500D01*
X135724999Y-92191500D02*
X136524999Y-92191500D01*
X135724999Y-90891500D02*
X135724999Y-92491500D01*
X136524999Y-90891500D02*
X135724999Y-90891500D01*
X136524999Y-92491500D02*
X136524999Y-90891500D01*
X135724999Y-92491500D02*
X136524999Y-92491500D01*
%TO.C,R22*%
X135724999Y-88441500D02*
X136524999Y-88441500D01*
X135724999Y-89441500D02*
X136524999Y-89441500D01*
X135724999Y-88141500D02*
X135724999Y-89741500D01*
X136524999Y-88141500D02*
X135724999Y-88141500D01*
X136524999Y-89741500D02*
X136524999Y-88141500D01*
X135724999Y-89741500D02*
X136524999Y-89741500D01*
%TO.C,R21*%
X134224999Y-88441500D02*
X135024999Y-88441500D01*
X134224999Y-89441500D02*
X135024999Y-89441500D01*
X134224999Y-88141500D02*
X134224999Y-89741500D01*
X135024999Y-88141500D02*
X134224999Y-88141500D01*
X135024999Y-89741500D02*
X135024999Y-88141500D01*
X134224999Y-89741500D02*
X135024999Y-89741500D01*
%TO.C,R20*%
X134750000Y-94350000D02*
X134750000Y-95150000D01*
X133750000Y-94350000D02*
X133750000Y-95150000D01*
X135050000Y-94350000D02*
X133450000Y-94350000D01*
X135050000Y-95150000D02*
X135050000Y-94350000D01*
X133450000Y-95150000D02*
X135050000Y-95150000D01*
X133450000Y-94350000D02*
X133450000Y-95150000D01*
%TO.C,R19*%
X127350000Y-91250000D02*
X128150000Y-91250000D01*
X127350000Y-92250000D02*
X128150000Y-92250000D01*
X127350000Y-90950000D02*
X127350000Y-92550000D01*
X128150000Y-90950000D02*
X127350000Y-90950000D01*
X128150000Y-92550000D02*
X128150000Y-90950000D01*
X127350000Y-92550000D02*
X128150000Y-92550000D01*
%TO.C,R15*%
X128850000Y-91250000D02*
X129650000Y-91250000D01*
X128850000Y-92250000D02*
X129650000Y-92250000D01*
X128850000Y-90950000D02*
X128850000Y-92550000D01*
X129650000Y-90950000D02*
X128850000Y-90950000D01*
X129650000Y-92550000D02*
X129650000Y-90950000D01*
X128850000Y-92550000D02*
X129650000Y-92550000D01*
%TO.C,R14*%
X128850000Y-88500000D02*
X129650000Y-88500000D01*
X128850000Y-89500000D02*
X129650000Y-89500000D01*
X128850000Y-88200000D02*
X128850000Y-89800000D01*
X129650000Y-88200000D02*
X128850000Y-88200000D01*
X129650000Y-89800000D02*
X129650000Y-88200000D01*
X128850000Y-89800000D02*
X129650000Y-89800000D01*
%TO.C,R13*%
X127350000Y-88500000D02*
X128150000Y-88500000D01*
X127350000Y-89500000D02*
X128150000Y-89500000D01*
X127350000Y-88200000D02*
X127350000Y-89800000D01*
X128150000Y-88200000D02*
X127350000Y-88200000D01*
X128150000Y-89800000D02*
X128150000Y-88200000D01*
X127350000Y-89800000D02*
X128150000Y-89800000D01*
D12*
%TO.C,Q6*%
X144154999Y-94501500D02*
X144154999Y-93041500D01*
X147314999Y-94501500D02*
X147314999Y-92341500D01*
X147314999Y-94501500D02*
X146384999Y-94501500D01*
X144154999Y-94501500D02*
X145084999Y-94501500D01*
%TO.C,Q5*%
X144154999Y-90501500D02*
X144154999Y-89041500D01*
X147314999Y-90501500D02*
X147314999Y-88341500D01*
X147314999Y-90501500D02*
X146384999Y-90501500D01*
X144154999Y-90501500D02*
X145084999Y-90501500D01*
%TO.C,Q4*%
X137294999Y-94451500D02*
X137294999Y-92991500D01*
X140454999Y-94451500D02*
X140454999Y-92291500D01*
X140454999Y-94451500D02*
X139524999Y-94451500D01*
X137294999Y-94451500D02*
X138224999Y-94451500D01*
%TO.C,Q3*%
X137294999Y-90451500D02*
X137294999Y-88991500D01*
X140454999Y-90451500D02*
X140454999Y-88291500D01*
X140454999Y-90451500D02*
X139524999Y-90451500D01*
X137294999Y-90451500D02*
X138224999Y-90451500D01*
%TO.C,Q2*%
X130420000Y-94510000D02*
X130420000Y-93050000D01*
X133580000Y-94510000D02*
X133580000Y-92350000D01*
X133580000Y-94510000D02*
X132650000Y-94510000D01*
X130420000Y-94510000D02*
X131350000Y-94510000D01*
%TO.C,Q1*%
X130420000Y-90510000D02*
X130420000Y-89050000D01*
X133580000Y-90510000D02*
X133580000Y-88350000D01*
X133580000Y-90510000D02*
X132650000Y-90510000D01*
X130420000Y-90510000D02*
X131350000Y-90510000D01*
D13*
%TO.C,J12*%
X148000000Y-159100000D02*
X141000000Y-159100000D01*
X148000000Y-166937500D02*
X148000000Y-159100000D01*
X149750000Y-166937500D02*
X148000000Y-166937500D01*
X149750000Y-175450000D02*
X149750000Y-166937500D01*
X142750000Y-175450000D02*
X149750000Y-175450000D01*
X142750000Y-166937500D02*
X142750000Y-175450000D01*
X141000000Y-166937500D02*
X142750000Y-166937500D01*
X141000000Y-159100000D02*
X141000000Y-166937500D01*
%TO.C,J11*%
X141000000Y-159100000D02*
X134000000Y-159100000D01*
X141000000Y-166937500D02*
X141000000Y-159100000D01*
X142750000Y-166937500D02*
X141000000Y-166937500D01*
X142750000Y-175450000D02*
X142750000Y-166937500D01*
X135750000Y-175450000D02*
X142750000Y-175450000D01*
X135750000Y-166937500D02*
X135750000Y-175450000D01*
X134000000Y-166937500D02*
X135750000Y-166937500D01*
X134000000Y-159100000D02*
X134000000Y-166937500D01*
%TO.C,J10*%
X134000000Y-159100000D02*
X127000000Y-159100000D01*
X134000000Y-166937500D02*
X134000000Y-159100000D01*
X135750000Y-166937500D02*
X134000000Y-166937500D01*
X135750000Y-175450000D02*
X135750000Y-166937500D01*
X128750000Y-175450000D02*
X135750000Y-175450000D01*
X128750000Y-166937500D02*
X128750000Y-175450000D01*
X127000000Y-166937500D02*
X128750000Y-166937500D01*
X127000000Y-159100000D02*
X127000000Y-166937500D01*
%TO.C,J6*%
X127000000Y-159100000D02*
X120000000Y-159100000D01*
X127000000Y-166937500D02*
X127000000Y-159100000D01*
X128750000Y-166937500D02*
X127000000Y-166937500D01*
X128750000Y-175450000D02*
X128750000Y-166937500D01*
X121750000Y-175450000D02*
X128750000Y-175450000D01*
X121750000Y-166937500D02*
X121750000Y-175450000D01*
X120000000Y-166937500D02*
X121750000Y-166937500D01*
X120000000Y-159100000D02*
X120000000Y-166937500D01*
%TO.C,J5*%
X120000000Y-159100000D02*
X113000000Y-159100000D01*
X120000000Y-166937500D02*
X120000000Y-159100000D01*
X121750000Y-166937500D02*
X120000000Y-166937500D01*
X121750000Y-175450000D02*
X121750000Y-166937500D01*
X114750000Y-175450000D02*
X121750000Y-175450000D01*
X114750000Y-166937500D02*
X114750000Y-175450000D01*
X113000000Y-166937500D02*
X114750000Y-166937500D01*
X113000000Y-159100000D02*
X113000000Y-166937500D01*
%TO.C,J4*%
X113000000Y-159100000D02*
X106000000Y-159100000D01*
X113000000Y-166937500D02*
X113000000Y-159100000D01*
X114750000Y-166937500D02*
X113000000Y-166937500D01*
X114750000Y-175450000D02*
X114750000Y-166937500D01*
X107750000Y-175450000D02*
X114750000Y-175450000D01*
X107750000Y-166937500D02*
X107750000Y-175450000D01*
X106000000Y-166937500D02*
X107750000Y-166937500D01*
X106000000Y-159100000D02*
X106000000Y-166937500D01*
D12*
%TO.C,C5*%
X54896267Y-155990000D02*
X54603733Y-155990000D01*
X54896267Y-157010000D02*
X54603733Y-157010000D01*
%TO.C,C4*%
X54353733Y-147260000D02*
X54646267Y-147260000D01*
X54353733Y-146240000D02*
X54646267Y-146240000D01*
%TO.C,C3*%
X95564759Y-154096000D02*
X95564759Y-154726000D01*
X95249759Y-154411000D02*
X95879759Y-154411000D01*
X101991000Y-155848000D02*
X101991000Y-156652000D01*
X101951000Y-155617000D02*
X101951000Y-156883000D01*
X101911000Y-155448000D02*
X101911000Y-157052000D01*
X101871000Y-155310000D02*
X101871000Y-157190000D01*
X101831000Y-155191000D02*
X101831000Y-157309000D01*
X101791000Y-155085000D02*
X101791000Y-157415000D01*
X101751000Y-154988000D02*
X101751000Y-157512000D01*
X101711000Y-154900000D02*
X101711000Y-157600000D01*
X101671000Y-154818000D02*
X101671000Y-157682000D01*
X101631000Y-154741000D02*
X101631000Y-157759000D01*
X101591000Y-154669000D02*
X101591000Y-157831000D01*
X101551000Y-154600000D02*
X101551000Y-157900000D01*
X101511000Y-154536000D02*
X101511000Y-157964000D01*
X101471000Y-154474000D02*
X101471000Y-158026000D01*
X101431000Y-154416000D02*
X101431000Y-158084000D01*
X101391000Y-154360000D02*
X101391000Y-158140000D01*
X101351000Y-154306000D02*
X101351000Y-158194000D01*
X101311000Y-154255000D02*
X101311000Y-158245000D01*
X101271000Y-154206000D02*
X101271000Y-158294000D01*
X101231000Y-154158000D02*
X101231000Y-158342000D01*
X101191000Y-154113000D02*
X101191000Y-158387000D01*
X101151000Y-154068000D02*
X101151000Y-158432000D01*
X101111000Y-154026000D02*
X101111000Y-158474000D01*
X101071000Y-153985000D02*
X101071000Y-158515000D01*
X101031000Y-157290000D02*
X101031000Y-158555000D01*
X101031000Y-153945000D02*
X101031000Y-155210000D01*
X100991000Y-157290000D02*
X100991000Y-158593000D01*
X100991000Y-153907000D02*
X100991000Y-155210000D01*
X100951000Y-157290000D02*
X100951000Y-158630000D01*
X100951000Y-153870000D02*
X100951000Y-155210000D01*
X100911000Y-157290000D02*
X100911000Y-158666000D01*
X100911000Y-153834000D02*
X100911000Y-155210000D01*
X100871000Y-157290000D02*
X100871000Y-158700000D01*
X100871000Y-153800000D02*
X100871000Y-155210000D01*
X100831000Y-157290000D02*
X100831000Y-158734000D01*
X100831000Y-153766000D02*
X100831000Y-155210000D01*
X100791000Y-157290000D02*
X100791000Y-158766000D01*
X100791000Y-153734000D02*
X100791000Y-155210000D01*
X100751000Y-157290000D02*
X100751000Y-158798000D01*
X100751000Y-153702000D02*
X100751000Y-155210000D01*
X100711000Y-157290000D02*
X100711000Y-158828000D01*
X100711000Y-153672000D02*
X100711000Y-155210000D01*
X100671000Y-157290000D02*
X100671000Y-158857000D01*
X100671000Y-153643000D02*
X100671000Y-155210000D01*
X100631000Y-157290000D02*
X100631000Y-158886000D01*
X100631000Y-153614000D02*
X100631000Y-155210000D01*
X100591000Y-157290000D02*
X100591000Y-158914000D01*
X100591000Y-153586000D02*
X100591000Y-155210000D01*
X100551000Y-157290000D02*
X100551000Y-158940000D01*
X100551000Y-153560000D02*
X100551000Y-155210000D01*
X100511000Y-157290000D02*
X100511000Y-158966000D01*
X100511000Y-153534000D02*
X100511000Y-155210000D01*
X100471000Y-157290000D02*
X100471000Y-158992000D01*
X100471000Y-153508000D02*
X100471000Y-155210000D01*
X100431000Y-157290000D02*
X100431000Y-159016000D01*
X100431000Y-153484000D02*
X100431000Y-155210000D01*
X100391000Y-157290000D02*
X100391000Y-159040000D01*
X100391000Y-153460000D02*
X100391000Y-155210000D01*
X100351000Y-157290000D02*
X100351000Y-159062000D01*
X100351000Y-153438000D02*
X100351000Y-155210000D01*
X100311000Y-157290000D02*
X100311000Y-159084000D01*
X100311000Y-153416000D02*
X100311000Y-155210000D01*
X100271000Y-157290000D02*
X100271000Y-159106000D01*
X100271000Y-153394000D02*
X100271000Y-155210000D01*
X100231000Y-157290000D02*
X100231000Y-159126000D01*
X100231000Y-153374000D02*
X100231000Y-155210000D01*
X100191000Y-157290000D02*
X100191000Y-159146000D01*
X100191000Y-153354000D02*
X100191000Y-155210000D01*
X100151000Y-157290000D02*
X100151000Y-159166000D01*
X100151000Y-153334000D02*
X100151000Y-155210000D01*
X100111000Y-157290000D02*
X100111000Y-159184000D01*
X100111000Y-153316000D02*
X100111000Y-155210000D01*
X100071000Y-157290000D02*
X100071000Y-159202000D01*
X100071000Y-153298000D02*
X100071000Y-155210000D01*
X100031000Y-157290000D02*
X100031000Y-159220000D01*
X100031000Y-153280000D02*
X100031000Y-155210000D01*
X99991000Y-157290000D02*
X99991000Y-159236000D01*
X99991000Y-153264000D02*
X99991000Y-155210000D01*
X99951000Y-157290000D02*
X99951000Y-159252000D01*
X99951000Y-153248000D02*
X99951000Y-155210000D01*
X99911000Y-157290000D02*
X99911000Y-159268000D01*
X99911000Y-153232000D02*
X99911000Y-155210000D01*
X99871000Y-157290000D02*
X99871000Y-159283000D01*
X99871000Y-153217000D02*
X99871000Y-155210000D01*
X99831000Y-157290000D02*
X99831000Y-159297000D01*
X99831000Y-153203000D02*
X99831000Y-155210000D01*
X99791000Y-157290000D02*
X99791000Y-159311000D01*
X99791000Y-153189000D02*
X99791000Y-155210000D01*
X99751000Y-157290000D02*
X99751000Y-159324000D01*
X99751000Y-153176000D02*
X99751000Y-155210000D01*
X99711000Y-157290000D02*
X99711000Y-159336000D01*
X99711000Y-153164000D02*
X99711000Y-155210000D01*
X99671000Y-157290000D02*
X99671000Y-159348000D01*
X99671000Y-153152000D02*
X99671000Y-155210000D01*
X99631000Y-157290000D02*
X99631000Y-159360000D01*
X99631000Y-153140000D02*
X99631000Y-155210000D01*
X99591000Y-157290000D02*
X99591000Y-159371000D01*
X99591000Y-153129000D02*
X99591000Y-155210000D01*
X99551000Y-157290000D02*
X99551000Y-159381000D01*
X99551000Y-153119000D02*
X99551000Y-155210000D01*
X99511000Y-157290000D02*
X99511000Y-159391000D01*
X99511000Y-153109000D02*
X99511000Y-155210000D01*
X99471000Y-157290000D02*
X99471000Y-159400000D01*
X99471000Y-153100000D02*
X99471000Y-155210000D01*
X99430000Y-157290000D02*
X99430000Y-159409000D01*
X99430000Y-153091000D02*
X99430000Y-155210000D01*
X99390000Y-157290000D02*
X99390000Y-159417000D01*
X99390000Y-153083000D02*
X99390000Y-155210000D01*
X99350000Y-157290000D02*
X99350000Y-159425000D01*
X99350000Y-153075000D02*
X99350000Y-155210000D01*
X99310000Y-157290000D02*
X99310000Y-159432000D01*
X99310000Y-153068000D02*
X99310000Y-155210000D01*
X99270000Y-157290000D02*
X99270000Y-159439000D01*
X99270000Y-153061000D02*
X99270000Y-155210000D01*
X99230000Y-157290000D02*
X99230000Y-159445000D01*
X99230000Y-153055000D02*
X99230000Y-155210000D01*
X99190000Y-157290000D02*
X99190000Y-159451000D01*
X99190000Y-153049000D02*
X99190000Y-155210000D01*
X99150000Y-157290000D02*
X99150000Y-159456000D01*
X99150000Y-153044000D02*
X99150000Y-155210000D01*
X99110000Y-157290000D02*
X99110000Y-159461000D01*
X99110000Y-153039000D02*
X99110000Y-155210000D01*
X99070000Y-157290000D02*
X99070000Y-159465000D01*
X99070000Y-153035000D02*
X99070000Y-155210000D01*
X99030000Y-157290000D02*
X99030000Y-159468000D01*
X99030000Y-153032000D02*
X99030000Y-155210000D01*
X98990000Y-157290000D02*
X98990000Y-159472000D01*
X98990000Y-153028000D02*
X98990000Y-155210000D01*
X98950000Y-153026000D02*
X98950000Y-159474000D01*
X98910000Y-153023000D02*
X98910000Y-159477000D01*
X98870000Y-153022000D02*
X98870000Y-159478000D01*
X98830000Y-153020000D02*
X98830000Y-159480000D01*
X98790000Y-153020000D02*
X98790000Y-159480000D01*
X98750000Y-153020000D02*
X98750000Y-159480000D01*
X102020000Y-156250000D02*
G75*
G03*
X102020000Y-156250000I-3270000J0D01*
G01*
%TO.C,C2*%
X85314759Y-166096000D02*
X85314759Y-166726000D01*
X84999759Y-166411000D02*
X85629759Y-166411000D01*
X91741000Y-167848000D02*
X91741000Y-168652000D01*
X91701000Y-167617000D02*
X91701000Y-168883000D01*
X91661000Y-167448000D02*
X91661000Y-169052000D01*
X91621000Y-167310000D02*
X91621000Y-169190000D01*
X91581000Y-167191000D02*
X91581000Y-169309000D01*
X91541000Y-167085000D02*
X91541000Y-169415000D01*
X91501000Y-166988000D02*
X91501000Y-169512000D01*
X91461000Y-166900000D02*
X91461000Y-169600000D01*
X91421000Y-166818000D02*
X91421000Y-169682000D01*
X91381000Y-166741000D02*
X91381000Y-169759000D01*
X91341000Y-166669000D02*
X91341000Y-169831000D01*
X91301000Y-166600000D02*
X91301000Y-169900000D01*
X91261000Y-166536000D02*
X91261000Y-169964000D01*
X91221000Y-166474000D02*
X91221000Y-170026000D01*
X91181000Y-166416000D02*
X91181000Y-170084000D01*
X91141000Y-166360000D02*
X91141000Y-170140000D01*
X91101000Y-166306000D02*
X91101000Y-170194000D01*
X91061000Y-166255000D02*
X91061000Y-170245000D01*
X91021000Y-166206000D02*
X91021000Y-170294000D01*
X90981000Y-166158000D02*
X90981000Y-170342000D01*
X90941000Y-166113000D02*
X90941000Y-170387000D01*
X90901000Y-166068000D02*
X90901000Y-170432000D01*
X90861000Y-166026000D02*
X90861000Y-170474000D01*
X90821000Y-165985000D02*
X90821000Y-170515000D01*
X90781000Y-169290000D02*
X90781000Y-170555000D01*
X90781000Y-165945000D02*
X90781000Y-167210000D01*
X90741000Y-169290000D02*
X90741000Y-170593000D01*
X90741000Y-165907000D02*
X90741000Y-167210000D01*
X90701000Y-169290000D02*
X90701000Y-170630000D01*
X90701000Y-165870000D02*
X90701000Y-167210000D01*
X90661000Y-169290000D02*
X90661000Y-170666000D01*
X90661000Y-165834000D02*
X90661000Y-167210000D01*
X90621000Y-169290000D02*
X90621000Y-170700000D01*
X90621000Y-165800000D02*
X90621000Y-167210000D01*
X90581000Y-169290000D02*
X90581000Y-170734000D01*
X90581000Y-165766000D02*
X90581000Y-167210000D01*
X90541000Y-169290000D02*
X90541000Y-170766000D01*
X90541000Y-165734000D02*
X90541000Y-167210000D01*
X90501000Y-169290000D02*
X90501000Y-170798000D01*
X90501000Y-165702000D02*
X90501000Y-167210000D01*
X90461000Y-169290000D02*
X90461000Y-170828000D01*
X90461000Y-165672000D02*
X90461000Y-167210000D01*
X90421000Y-169290000D02*
X90421000Y-170857000D01*
X90421000Y-165643000D02*
X90421000Y-167210000D01*
X90381000Y-169290000D02*
X90381000Y-170886000D01*
X90381000Y-165614000D02*
X90381000Y-167210000D01*
X90341000Y-169290000D02*
X90341000Y-170914000D01*
X90341000Y-165586000D02*
X90341000Y-167210000D01*
X90301000Y-169290000D02*
X90301000Y-170940000D01*
X90301000Y-165560000D02*
X90301000Y-167210000D01*
X90261000Y-169290000D02*
X90261000Y-170966000D01*
X90261000Y-165534000D02*
X90261000Y-167210000D01*
X90221000Y-169290000D02*
X90221000Y-170992000D01*
X90221000Y-165508000D02*
X90221000Y-167210000D01*
X90181000Y-169290000D02*
X90181000Y-171016000D01*
X90181000Y-165484000D02*
X90181000Y-167210000D01*
X90141000Y-169290000D02*
X90141000Y-171040000D01*
X90141000Y-165460000D02*
X90141000Y-167210000D01*
X90101000Y-169290000D02*
X90101000Y-171062000D01*
X90101000Y-165438000D02*
X90101000Y-167210000D01*
X90061000Y-169290000D02*
X90061000Y-171084000D01*
X90061000Y-165416000D02*
X90061000Y-167210000D01*
X90021000Y-169290000D02*
X90021000Y-171106000D01*
X90021000Y-165394000D02*
X90021000Y-167210000D01*
X89981000Y-169290000D02*
X89981000Y-171126000D01*
X89981000Y-165374000D02*
X89981000Y-167210000D01*
X89941000Y-169290000D02*
X89941000Y-171146000D01*
X89941000Y-165354000D02*
X89941000Y-167210000D01*
X89901000Y-169290000D02*
X89901000Y-171166000D01*
X89901000Y-165334000D02*
X89901000Y-167210000D01*
X89861000Y-169290000D02*
X89861000Y-171184000D01*
X89861000Y-165316000D02*
X89861000Y-167210000D01*
X89821000Y-169290000D02*
X89821000Y-171202000D01*
X89821000Y-165298000D02*
X89821000Y-167210000D01*
X89781000Y-169290000D02*
X89781000Y-171220000D01*
X89781000Y-165280000D02*
X89781000Y-167210000D01*
X89741000Y-169290000D02*
X89741000Y-171236000D01*
X89741000Y-165264000D02*
X89741000Y-167210000D01*
X89701000Y-169290000D02*
X89701000Y-171252000D01*
X89701000Y-165248000D02*
X89701000Y-167210000D01*
X89661000Y-169290000D02*
X89661000Y-171268000D01*
X89661000Y-165232000D02*
X89661000Y-167210000D01*
X89621000Y-169290000D02*
X89621000Y-171283000D01*
X89621000Y-165217000D02*
X89621000Y-167210000D01*
X89581000Y-169290000D02*
X89581000Y-171297000D01*
X89581000Y-165203000D02*
X89581000Y-167210000D01*
X89541000Y-169290000D02*
X89541000Y-171311000D01*
X89541000Y-165189000D02*
X89541000Y-167210000D01*
X89501000Y-169290000D02*
X89501000Y-171324000D01*
X89501000Y-165176000D02*
X89501000Y-167210000D01*
X89461000Y-169290000D02*
X89461000Y-171336000D01*
X89461000Y-165164000D02*
X89461000Y-167210000D01*
X89421000Y-169290000D02*
X89421000Y-171348000D01*
X89421000Y-165152000D02*
X89421000Y-167210000D01*
X89381000Y-169290000D02*
X89381000Y-171360000D01*
X89381000Y-165140000D02*
X89381000Y-167210000D01*
X89341000Y-169290000D02*
X89341000Y-171371000D01*
X89341000Y-165129000D02*
X89341000Y-167210000D01*
X89301000Y-169290000D02*
X89301000Y-171381000D01*
X89301000Y-165119000D02*
X89301000Y-167210000D01*
X89261000Y-169290000D02*
X89261000Y-171391000D01*
X89261000Y-165109000D02*
X89261000Y-167210000D01*
X89221000Y-169290000D02*
X89221000Y-171400000D01*
X89221000Y-165100000D02*
X89221000Y-167210000D01*
X89180000Y-169290000D02*
X89180000Y-171409000D01*
X89180000Y-165091000D02*
X89180000Y-167210000D01*
X89140000Y-169290000D02*
X89140000Y-171417000D01*
X89140000Y-165083000D02*
X89140000Y-167210000D01*
X89100000Y-169290000D02*
X89100000Y-171425000D01*
X89100000Y-165075000D02*
X89100000Y-167210000D01*
X89060000Y-169290000D02*
X89060000Y-171432000D01*
X89060000Y-165068000D02*
X89060000Y-167210000D01*
X89020000Y-169290000D02*
X89020000Y-171439000D01*
X89020000Y-165061000D02*
X89020000Y-167210000D01*
X88980000Y-169290000D02*
X88980000Y-171445000D01*
X88980000Y-165055000D02*
X88980000Y-167210000D01*
X88940000Y-169290000D02*
X88940000Y-171451000D01*
X88940000Y-165049000D02*
X88940000Y-167210000D01*
X88900000Y-169290000D02*
X88900000Y-171456000D01*
X88900000Y-165044000D02*
X88900000Y-167210000D01*
X88860000Y-169290000D02*
X88860000Y-171461000D01*
X88860000Y-165039000D02*
X88860000Y-167210000D01*
X88820000Y-169290000D02*
X88820000Y-171465000D01*
X88820000Y-165035000D02*
X88820000Y-167210000D01*
X88780000Y-169290000D02*
X88780000Y-171468000D01*
X88780000Y-165032000D02*
X88780000Y-167210000D01*
X88740000Y-169290000D02*
X88740000Y-171472000D01*
X88740000Y-165028000D02*
X88740000Y-167210000D01*
X88700000Y-165026000D02*
X88700000Y-171474000D01*
X88660000Y-165023000D02*
X88660000Y-171477000D01*
X88620000Y-165022000D02*
X88620000Y-171478000D01*
X88580000Y-165020000D02*
X88580000Y-171480000D01*
X88540000Y-165020000D02*
X88540000Y-171480000D01*
X88500000Y-165020000D02*
X88500000Y-171480000D01*
X91770000Y-168250000D02*
G75*
G03*
X91770000Y-168250000I-3270000J0D01*
G01*
%TO.C,C1*%
X101935241Y-165654000D02*
X101935241Y-165024000D01*
X102250241Y-165339000D02*
X101620241Y-165339000D01*
X95509000Y-163902000D02*
X95509000Y-163098000D01*
X95549000Y-164133000D02*
X95549000Y-162867000D01*
X95589000Y-164302000D02*
X95589000Y-162698000D01*
X95629000Y-164440000D02*
X95629000Y-162560000D01*
X95669000Y-164559000D02*
X95669000Y-162441000D01*
X95709000Y-164665000D02*
X95709000Y-162335000D01*
X95749000Y-164762000D02*
X95749000Y-162238000D01*
X95789000Y-164850000D02*
X95789000Y-162150000D01*
X95829000Y-164932000D02*
X95829000Y-162068000D01*
X95869000Y-165009000D02*
X95869000Y-161991000D01*
X95909000Y-165081000D02*
X95909000Y-161919000D01*
X95949000Y-165150000D02*
X95949000Y-161850000D01*
X95989000Y-165214000D02*
X95989000Y-161786000D01*
X96029000Y-165276000D02*
X96029000Y-161724000D01*
X96069000Y-165334000D02*
X96069000Y-161666000D01*
X96109000Y-165390000D02*
X96109000Y-161610000D01*
X96149000Y-165444000D02*
X96149000Y-161556000D01*
X96189000Y-165495000D02*
X96189000Y-161505000D01*
X96229000Y-165544000D02*
X96229000Y-161456000D01*
X96269000Y-165592000D02*
X96269000Y-161408000D01*
X96309000Y-165637000D02*
X96309000Y-161363000D01*
X96349000Y-165682000D02*
X96349000Y-161318000D01*
X96389000Y-165724000D02*
X96389000Y-161276000D01*
X96429000Y-165765000D02*
X96429000Y-161235000D01*
X96469000Y-162460000D02*
X96469000Y-161195000D01*
X96469000Y-165805000D02*
X96469000Y-164540000D01*
X96509000Y-162460000D02*
X96509000Y-161157000D01*
X96509000Y-165843000D02*
X96509000Y-164540000D01*
X96549000Y-162460000D02*
X96549000Y-161120000D01*
X96549000Y-165880000D02*
X96549000Y-164540000D01*
X96589000Y-162460000D02*
X96589000Y-161084000D01*
X96589000Y-165916000D02*
X96589000Y-164540000D01*
X96629000Y-162460000D02*
X96629000Y-161050000D01*
X96629000Y-165950000D02*
X96629000Y-164540000D01*
X96669000Y-162460000D02*
X96669000Y-161016000D01*
X96669000Y-165984000D02*
X96669000Y-164540000D01*
X96709000Y-162460000D02*
X96709000Y-160984000D01*
X96709000Y-166016000D02*
X96709000Y-164540000D01*
X96749000Y-162460000D02*
X96749000Y-160952000D01*
X96749000Y-166048000D02*
X96749000Y-164540000D01*
X96789000Y-162460000D02*
X96789000Y-160922000D01*
X96789000Y-166078000D02*
X96789000Y-164540000D01*
X96829000Y-162460000D02*
X96829000Y-160893000D01*
X96829000Y-166107000D02*
X96829000Y-164540000D01*
X96869000Y-162460000D02*
X96869000Y-160864000D01*
X96869000Y-166136000D02*
X96869000Y-164540000D01*
X96909000Y-162460000D02*
X96909000Y-160836000D01*
X96909000Y-166164000D02*
X96909000Y-164540000D01*
X96949000Y-162460000D02*
X96949000Y-160810000D01*
X96949000Y-166190000D02*
X96949000Y-164540000D01*
X96989000Y-162460000D02*
X96989000Y-160784000D01*
X96989000Y-166216000D02*
X96989000Y-164540000D01*
X97029000Y-162460000D02*
X97029000Y-160758000D01*
X97029000Y-166242000D02*
X97029000Y-164540000D01*
X97069000Y-162460000D02*
X97069000Y-160734000D01*
X97069000Y-166266000D02*
X97069000Y-164540000D01*
X97109000Y-162460000D02*
X97109000Y-160710000D01*
X97109000Y-166290000D02*
X97109000Y-164540000D01*
X97149000Y-162460000D02*
X97149000Y-160688000D01*
X97149000Y-166312000D02*
X97149000Y-164540000D01*
X97189000Y-162460000D02*
X97189000Y-160666000D01*
X97189000Y-166334000D02*
X97189000Y-164540000D01*
X97229000Y-162460000D02*
X97229000Y-160644000D01*
X97229000Y-166356000D02*
X97229000Y-164540000D01*
X97269000Y-162460000D02*
X97269000Y-160624000D01*
X97269000Y-166376000D02*
X97269000Y-164540000D01*
X97309000Y-162460000D02*
X97309000Y-160604000D01*
X97309000Y-166396000D02*
X97309000Y-164540000D01*
X97349000Y-162460000D02*
X97349000Y-160584000D01*
X97349000Y-166416000D02*
X97349000Y-164540000D01*
X97389000Y-162460000D02*
X97389000Y-160566000D01*
X97389000Y-166434000D02*
X97389000Y-164540000D01*
X97429000Y-162460000D02*
X97429000Y-160548000D01*
X97429000Y-166452000D02*
X97429000Y-164540000D01*
X97469000Y-162460000D02*
X97469000Y-160530000D01*
X97469000Y-166470000D02*
X97469000Y-164540000D01*
X97509000Y-162460000D02*
X97509000Y-160514000D01*
X97509000Y-166486000D02*
X97509000Y-164540000D01*
X97549000Y-162460000D02*
X97549000Y-160498000D01*
X97549000Y-166502000D02*
X97549000Y-164540000D01*
X97589000Y-162460000D02*
X97589000Y-160482000D01*
X97589000Y-166518000D02*
X97589000Y-164540000D01*
X97629000Y-162460000D02*
X97629000Y-160467000D01*
X97629000Y-166533000D02*
X97629000Y-164540000D01*
X97669000Y-162460000D02*
X97669000Y-160453000D01*
X97669000Y-166547000D02*
X97669000Y-164540000D01*
X97709000Y-162460000D02*
X97709000Y-160439000D01*
X97709000Y-166561000D02*
X97709000Y-164540000D01*
X97749000Y-162460000D02*
X97749000Y-160426000D01*
X97749000Y-166574000D02*
X97749000Y-164540000D01*
X97789000Y-162460000D02*
X97789000Y-160414000D01*
X97789000Y-166586000D02*
X97789000Y-164540000D01*
X97829000Y-162460000D02*
X97829000Y-160402000D01*
X97829000Y-166598000D02*
X97829000Y-164540000D01*
X97869000Y-162460000D02*
X97869000Y-160390000D01*
X97869000Y-166610000D02*
X97869000Y-164540000D01*
X97909000Y-162460000D02*
X97909000Y-160379000D01*
X97909000Y-166621000D02*
X97909000Y-164540000D01*
X97949000Y-162460000D02*
X97949000Y-160369000D01*
X97949000Y-166631000D02*
X97949000Y-164540000D01*
X97989000Y-162460000D02*
X97989000Y-160359000D01*
X97989000Y-166641000D02*
X97989000Y-164540000D01*
X98029000Y-162460000D02*
X98029000Y-160350000D01*
X98029000Y-166650000D02*
X98029000Y-164540000D01*
X98070000Y-162460000D02*
X98070000Y-160341000D01*
X98070000Y-166659000D02*
X98070000Y-164540000D01*
X98110000Y-162460000D02*
X98110000Y-160333000D01*
X98110000Y-166667000D02*
X98110000Y-164540000D01*
X98150000Y-162460000D02*
X98150000Y-160325000D01*
X98150000Y-166675000D02*
X98150000Y-164540000D01*
X98190000Y-162460000D02*
X98190000Y-160318000D01*
X98190000Y-166682000D02*
X98190000Y-164540000D01*
X98230000Y-162460000D02*
X98230000Y-160311000D01*
X98230000Y-166689000D02*
X98230000Y-164540000D01*
X98270000Y-162460000D02*
X98270000Y-160305000D01*
X98270000Y-166695000D02*
X98270000Y-164540000D01*
X98310000Y-162460000D02*
X98310000Y-160299000D01*
X98310000Y-166701000D02*
X98310000Y-164540000D01*
X98350000Y-162460000D02*
X98350000Y-160294000D01*
X98350000Y-166706000D02*
X98350000Y-164540000D01*
X98390000Y-162460000D02*
X98390000Y-160289000D01*
X98390000Y-166711000D02*
X98390000Y-164540000D01*
X98430000Y-162460000D02*
X98430000Y-160285000D01*
X98430000Y-166715000D02*
X98430000Y-164540000D01*
X98470000Y-162460000D02*
X98470000Y-160282000D01*
X98470000Y-166718000D02*
X98470000Y-164540000D01*
X98510000Y-162460000D02*
X98510000Y-160278000D01*
X98510000Y-166722000D02*
X98510000Y-164540000D01*
X98550000Y-166724000D02*
X98550000Y-160276000D01*
X98590000Y-166727000D02*
X98590000Y-160273000D01*
X98630000Y-166728000D02*
X98630000Y-160272000D01*
X98670000Y-166730000D02*
X98670000Y-160270000D01*
X98710000Y-166730000D02*
X98710000Y-160270000D01*
X98750000Y-166730000D02*
X98750000Y-160270000D01*
X102020000Y-163500000D02*
G75*
G03*
X102020000Y-163500000I-3270000J0D01*
G01*
D11*
%TO.C,C26*%
X111600000Y-152400000D02*
X112400000Y-152400000D01*
X112400000Y-152400000D02*
X112400000Y-150800000D01*
X112400000Y-150800000D02*
X111600000Y-150800000D01*
X111600000Y-150800000D02*
X111600000Y-152400000D01*
X111600000Y-152100000D02*
X112400000Y-152100000D01*
X111600000Y-151100000D02*
X112400000Y-151100000D01*
%TO.C,C25*%
X118600000Y-152400000D02*
X119400000Y-152400000D01*
X119400000Y-152400000D02*
X119400000Y-150800000D01*
X119400000Y-150800000D02*
X118600000Y-150800000D01*
X118600000Y-150800000D02*
X118600000Y-152400000D01*
X118600000Y-152100000D02*
X119400000Y-152100000D01*
X118600000Y-151100000D02*
X119400000Y-151100000D01*
%TO.C,R41*%
X108600000Y-144600000D02*
X109400000Y-144600000D01*
X108600000Y-145600000D02*
X109400000Y-145600000D01*
X108600000Y-144300000D02*
X108600000Y-145900000D01*
X109400000Y-144300000D02*
X108600000Y-144300000D01*
X109400000Y-145900000D02*
X109400000Y-144300000D01*
X108600000Y-145900000D02*
X109400000Y-145900000D01*
%TO.C,R42*%
X115900000Y-144600000D02*
X116700000Y-144600000D01*
X115900000Y-145600000D02*
X116700000Y-145600000D01*
X115900000Y-144300000D02*
X115900000Y-145900000D01*
X116700000Y-144300000D02*
X115900000Y-144300000D01*
X116700000Y-145900000D02*
X116700000Y-144300000D01*
X115900000Y-145900000D02*
X116700000Y-145900000D01*
%TO.C,U8*%
X116750000Y-146850000D02*
X118000000Y-146850000D01*
X116750000Y-148100000D02*
X116750000Y-146850000D01*
X118000000Y-146850000D02*
X118000000Y-148100000D01*
X118040000Y-152886000D02*
X112960000Y-152886000D01*
X112960000Y-152886000D02*
X112960000Y-148314000D01*
X112960000Y-148314000D02*
X118040000Y-148314000D01*
X118040000Y-148314000D02*
X118040000Y-152886000D01*
X118040000Y-151362000D02*
X117532000Y-151362000D01*
X117532000Y-151362000D02*
X117532000Y-150092000D01*
X117532000Y-150092000D02*
X118040000Y-150092000D01*
D12*
%TO.C,C8*%
X54603733Y-158760000D02*
X54896267Y-158760000D01*
X54603733Y-157740000D02*
X54896267Y-157740000D01*
%TO.C,C9*%
X54353733Y-144490000D02*
X54646267Y-144490000D01*
X54353733Y-145510000D02*
X54646267Y-145510000D01*
%TO.C,C10*%
X59010000Y-150603733D02*
X59010000Y-150896267D01*
X57990000Y-150603733D02*
X57990000Y-150896267D01*
%TO.C,C11*%
X54603733Y-160510000D02*
X54896267Y-160510000D01*
X54603733Y-159490000D02*
X54896267Y-159490000D01*
%TO.C,C12*%
X63353733Y-163740000D02*
X63646267Y-163740000D01*
X63353733Y-164760000D02*
X63646267Y-164760000D01*
%TO.C,C13*%
X75990000Y-164396267D02*
X75990000Y-164103733D01*
X77010000Y-164396267D02*
X77010000Y-164103733D01*
%TO.C,C14*%
X81033767Y-145990000D02*
X80741233Y-145990000D01*
X81033767Y-147010000D02*
X80741233Y-147010000D01*
%TO.C,C15*%
X62240000Y-141603733D02*
X62240000Y-141896267D01*
X63260000Y-141603733D02*
X63260000Y-141896267D01*
%TO.C,C16*%
X54603733Y-161240000D02*
X54896267Y-161240000D01*
X54603733Y-162260000D02*
X54896267Y-162260000D01*
D11*
%TO.C,C17*%
X139650000Y-134750000D02*
X138850000Y-134750000D01*
X139650000Y-133750000D02*
X138850000Y-133750000D01*
X139650000Y-135050000D02*
X139650000Y-133450000D01*
X138850000Y-135050000D02*
X139650000Y-135050000D01*
X138850000Y-133450000D02*
X138850000Y-135050000D01*
X139650000Y-133450000D02*
X138850000Y-133450000D01*
%TO.C,C18*%
X124500000Y-117150000D02*
X124500000Y-116350000D01*
X125500000Y-117150000D02*
X125500000Y-116350000D01*
X124200000Y-117150000D02*
X125800000Y-117150000D01*
X124200000Y-116350000D02*
X124200000Y-117150000D01*
X125800000Y-116350000D02*
X124200000Y-116350000D01*
X125800000Y-117150000D02*
X125800000Y-116350000D01*
%TO.C,C19*%
X125750000Y-123850000D02*
X125750000Y-124650000D01*
X124750000Y-123850000D02*
X124750000Y-124650000D01*
X126050000Y-123850000D02*
X124450000Y-123850000D01*
X126050000Y-124650000D02*
X126050000Y-123850000D01*
X124450000Y-124650000D02*
X126050000Y-124650000D01*
X124450000Y-123850000D02*
X124450000Y-124650000D01*
%TO.C,C20*%
X125500000Y-113350000D02*
X125500000Y-114150000D01*
X124500000Y-113350000D02*
X124500000Y-114150000D01*
X125800000Y-113350000D02*
X124200000Y-113350000D01*
X125800000Y-114150000D02*
X125800000Y-113350000D01*
X124200000Y-114150000D02*
X125800000Y-114150000D01*
X124200000Y-113350000D02*
X124200000Y-114150000D01*
%TO.C,C21*%
X132000000Y-114900000D02*
X132000000Y-114100000D01*
X133000000Y-114900000D02*
X133000000Y-114100000D01*
X131700000Y-114900000D02*
X133300000Y-114900000D01*
X131700000Y-114100000D02*
X131700000Y-114900000D01*
X133300000Y-114100000D02*
X131700000Y-114100000D01*
X133300000Y-114900000D02*
X133300000Y-114100000D01*
%TO.C,C22*%
X127050000Y-103650000D02*
X127050000Y-102850000D01*
X127050000Y-102850000D02*
X125450000Y-102850000D01*
X125450000Y-102850000D02*
X125450000Y-103650000D01*
X125450000Y-103650000D02*
X127050000Y-103650000D01*
X126750000Y-103650000D02*
X126750000Y-102850000D01*
X125750000Y-103650000D02*
X125750000Y-102850000D01*
%TO.C,C23*%
X126750000Y-99850000D02*
X126750000Y-100650000D01*
X125750000Y-99850000D02*
X125750000Y-100650000D01*
X127050000Y-99850000D02*
X125450000Y-99850000D01*
X127050000Y-100650000D02*
X127050000Y-99850000D01*
X125450000Y-100650000D02*
X127050000Y-100650000D01*
X125450000Y-99850000D02*
X125450000Y-100650000D01*
%TO.C,C27*%
X105650000Y-145600000D02*
X104850000Y-145600000D01*
X105650000Y-144600000D02*
X104850000Y-144600000D01*
X105650000Y-145900000D02*
X105650000Y-144300000D01*
X104850000Y-145900000D02*
X105650000Y-145900000D01*
X104850000Y-144300000D02*
X104850000Y-145900000D01*
X105650000Y-144300000D02*
X104850000Y-144300000D01*
%TO.C,C29*%
X132600000Y-152400000D02*
X133400000Y-152400000D01*
X133400000Y-152400000D02*
X133400000Y-150800000D01*
X133400000Y-150800000D02*
X132600000Y-150800000D01*
X132600000Y-150800000D02*
X132600000Y-152400000D01*
X132600000Y-152100000D02*
X133400000Y-152100000D01*
X132600000Y-151100000D02*
X133400000Y-151100000D01*
%TO.C,C30*%
X125600000Y-151100000D02*
X126400000Y-151100000D01*
X125600000Y-152100000D02*
X126400000Y-152100000D01*
X125600000Y-150800000D02*
X125600000Y-152400000D01*
X126400000Y-150800000D02*
X125600000Y-150800000D01*
X126400000Y-152400000D02*
X126400000Y-150800000D01*
X125600000Y-152400000D02*
X126400000Y-152400000D01*
%TO.C,C31*%
X119650000Y-144300000D02*
X118850000Y-144300000D01*
X118850000Y-144300000D02*
X118850000Y-145900000D01*
X118850000Y-145900000D02*
X119650000Y-145900000D01*
X119650000Y-145900000D02*
X119650000Y-144300000D01*
X119650000Y-144600000D02*
X118850000Y-144600000D01*
X119650000Y-145600000D02*
X118850000Y-145600000D01*
%TO.C,C33*%
X146600000Y-151100000D02*
X147400000Y-151100000D01*
X146600000Y-152100000D02*
X147400000Y-152100000D01*
X146600000Y-150800000D02*
X146600000Y-152400000D01*
X147400000Y-150800000D02*
X146600000Y-150800000D01*
X147400000Y-152400000D02*
X147400000Y-150800000D01*
X146600000Y-152400000D02*
X147400000Y-152400000D01*
%TO.C,C34*%
X139600000Y-152400000D02*
X140400000Y-152400000D01*
X140400000Y-152400000D02*
X140400000Y-150800000D01*
X140400000Y-150800000D02*
X139600000Y-150800000D01*
X139600000Y-150800000D02*
X139600000Y-152400000D01*
X139600000Y-152100000D02*
X140400000Y-152100000D01*
X139600000Y-151100000D02*
X140400000Y-151100000D01*
%TO.C,C35*%
X133650000Y-144300000D02*
X132850000Y-144300000D01*
X132850000Y-144300000D02*
X132850000Y-145900000D01*
X132850000Y-145900000D02*
X133650000Y-145900000D01*
X133650000Y-145900000D02*
X133650000Y-144300000D01*
X133650000Y-144600000D02*
X132850000Y-144600000D01*
X133650000Y-145600000D02*
X132850000Y-145600000D01*
%TO.C,C36*%
X66650000Y-127950000D02*
X65850000Y-127950000D01*
X65850000Y-127950000D02*
X65850000Y-129550000D01*
X65850000Y-129550000D02*
X66650000Y-129550000D01*
X66650000Y-129550000D02*
X66650000Y-127950000D01*
X66650000Y-128250000D02*
X65850000Y-128250000D01*
X66650000Y-129250000D02*
X65850000Y-129250000D01*
%TO.C,C37*%
X59650000Y-129250000D02*
X58850000Y-129250000D01*
X59650000Y-128250000D02*
X58850000Y-128250000D01*
X59650000Y-129550000D02*
X59650000Y-127950000D01*
X58850000Y-129550000D02*
X59650000Y-129550000D01*
X58850000Y-127950000D02*
X58850000Y-129550000D01*
X59650000Y-127950000D02*
X58850000Y-127950000D01*
%TO.C,C38*%
X74350000Y-131800000D02*
X75150000Y-131800000D01*
X75150000Y-131800000D02*
X75150000Y-130200000D01*
X75150000Y-130200000D02*
X74350000Y-130200000D01*
X74350000Y-130200000D02*
X74350000Y-131800000D01*
X74350000Y-131500000D02*
X75150000Y-131500000D01*
X74350000Y-130500000D02*
X75150000Y-130500000D01*
%TO.C,C39*%
X83400000Y-127950000D02*
X82600000Y-127950000D01*
X82600000Y-127950000D02*
X82600000Y-129550000D01*
X82600000Y-129550000D02*
X83400000Y-129550000D01*
X83400000Y-129550000D02*
X83400000Y-127950000D01*
X83400000Y-128250000D02*
X82600000Y-128250000D01*
X83400000Y-129250000D02*
X82600000Y-129250000D01*
%TO.C,C40*%
X75500000Y-128100000D02*
X76300000Y-128100000D01*
X76300000Y-128100000D02*
X76300000Y-126500000D01*
X76300000Y-126500000D02*
X75500000Y-126500000D01*
X75500000Y-126500000D02*
X75500000Y-128100000D01*
X75500000Y-127800000D02*
X76300000Y-127800000D01*
X75500000Y-126800000D02*
X76300000Y-126800000D01*
%TO.C,C41*%
X91100000Y-130500000D02*
X91900000Y-130500000D01*
X91100000Y-131500000D02*
X91900000Y-131500000D01*
X91100000Y-130200000D02*
X91100000Y-131800000D01*
X91900000Y-130200000D02*
X91100000Y-130200000D01*
X91900000Y-131800000D02*
X91900000Y-130200000D01*
X91100000Y-131800000D02*
X91900000Y-131800000D01*
%TO.C,C42*%
X99900000Y-129250000D02*
X99100000Y-129250000D01*
X99900000Y-128250000D02*
X99100000Y-128250000D01*
X99900000Y-129550000D02*
X99900000Y-127950000D01*
X99100000Y-129550000D02*
X99900000Y-129550000D01*
X99100000Y-127950000D02*
X99100000Y-129550000D01*
X99900000Y-127950000D02*
X99100000Y-127950000D01*
%TO.C,C43*%
X92000000Y-126800000D02*
X92800000Y-126800000D01*
X92000000Y-127800000D02*
X92800000Y-127800000D01*
X92000000Y-126500000D02*
X92000000Y-128100000D01*
X92800000Y-126500000D02*
X92000000Y-126500000D01*
X92800000Y-128100000D02*
X92800000Y-126500000D01*
X92000000Y-128100000D02*
X92800000Y-128100000D01*
%TO.C,C44*%
X107600000Y-131800000D02*
X108400000Y-131800000D01*
X108400000Y-131800000D02*
X108400000Y-130200000D01*
X108400000Y-130200000D02*
X107600000Y-130200000D01*
X107600000Y-130200000D02*
X107600000Y-131800000D01*
X107600000Y-131500000D02*
X108400000Y-131500000D01*
X107600000Y-130500000D02*
X108400000Y-130500000D01*
%TO.C,J1*%
X104590000Y-179900000D02*
X104590000Y-167900000D01*
X93230000Y-179900000D02*
X104590000Y-179900000D01*
X93230000Y-167900000D02*
X93230000Y-179900000D01*
X104590000Y-167900000D02*
X93230000Y-167900000D01*
%TO.C,J2*%
X134500000Y-131750000D02*
X150000000Y-131750000D01*
X134500000Y-115250000D02*
X134500000Y-131750000D01*
X150000000Y-115250000D02*
X134500000Y-115250000D01*
X150000000Y-131750000D02*
X150000000Y-115250000D01*
%TO.C,J3*%
X134500000Y-115250000D02*
X150000000Y-115250000D01*
X134500000Y-98750000D02*
X134500000Y-115250000D01*
X150000000Y-98750000D02*
X134500000Y-98750000D01*
X150000000Y-115250000D02*
X150000000Y-98750000D01*
D12*
%TO.C,J7*%
X64358256Y-114711470D02*
X69058256Y-113882733D01*
X64358256Y-90678530D02*
X69058256Y-91507267D01*
X70430000Y-112247952D02*
X70430000Y-93142048D01*
X62410000Y-113076689D02*
X62410000Y-92313311D01*
X59648675Y-93000000D02*
X59215662Y-93250000D01*
X59215662Y-92750000D02*
X59648675Y-93000000D01*
X59215662Y-93250000D02*
X59215662Y-92750000D01*
X71670000Y-122355000D02*
X61170000Y-122355000D01*
X72730000Y-84095000D02*
X72730000Y-121295000D01*
X61170000Y-83035000D02*
X71670000Y-83035000D01*
X60110000Y-121295000D02*
X60110000Y-84095000D01*
X69058256Y-91507267D02*
G75*
G02*
X70430000Y-93142048I-288256J-1634781D01*
G01*
X69058256Y-113882733D02*
G75*
G03*
X70430000Y-112247952I-288256J1634781D01*
G01*
X64358256Y-90678530D02*
G75*
G03*
X62410000Y-92313311I-288256J-1634781D01*
G01*
X64358256Y-114711470D02*
G75*
G02*
X62410000Y-113076689I-288256J1634781D01*
G01*
X72730000Y-84095000D02*
G75*
G03*
X71670000Y-83035000I-1060000J0D01*
G01*
X72730000Y-121295000D02*
G75*
G02*
X71670000Y-122355000I-1060000J0D01*
G01*
X61170000Y-83035000D02*
G75*
G03*
X60110000Y-84095000I0J-1060000D01*
G01*
X60110000Y-121295000D02*
G75*
G03*
X61170000Y-122355000I1060000J0D01*
G01*
%TO.C,J8*%
X76860000Y-121295000D02*
X76860000Y-84095000D01*
X77920000Y-83035000D02*
X88420000Y-83035000D01*
X89480000Y-84095000D02*
X89480000Y-121295000D01*
X88420000Y-122355000D02*
X77920000Y-122355000D01*
X75965662Y-93250000D02*
X75965662Y-92750000D01*
X75965662Y-92750000D02*
X76398675Y-93000000D01*
X76398675Y-93000000D02*
X75965662Y-93250000D01*
X79160000Y-113076689D02*
X79160000Y-92313311D01*
X87180000Y-112247952D02*
X87180000Y-93142048D01*
X81108256Y-90678530D02*
X85808256Y-91507267D01*
X81108256Y-114711470D02*
X85808256Y-113882733D01*
X76860000Y-121295000D02*
G75*
G03*
X77920000Y-122355000I1060000J0D01*
G01*
X77920000Y-83035000D02*
G75*
G03*
X76860000Y-84095000I0J-1060000D01*
G01*
X89480000Y-121295000D02*
G75*
G02*
X88420000Y-122355000I-1060000J0D01*
G01*
X89480000Y-84095000D02*
G75*
G03*
X88420000Y-83035000I-1060000J0D01*
G01*
X81108256Y-114711470D02*
G75*
G02*
X79160000Y-113076689I-288256J1634781D01*
G01*
X81108256Y-90678530D02*
G75*
G03*
X79160000Y-92313311I-288256J-1634781D01*
G01*
X85808256Y-113882733D02*
G75*
G03*
X87180000Y-112247952I-288256J1634781D01*
G01*
X85808256Y-91507267D02*
G75*
G02*
X87180000Y-93142048I-288256J-1634781D01*
G01*
%TO.C,J9*%
X93360000Y-121295000D02*
X93360000Y-84095000D01*
X94420000Y-83035000D02*
X104920000Y-83035000D01*
X105980000Y-84095000D02*
X105980000Y-121295000D01*
X104920000Y-122355000D02*
X94420000Y-122355000D01*
X92465662Y-93250000D02*
X92465662Y-92750000D01*
X92465662Y-92750000D02*
X92898675Y-93000000D01*
X92898675Y-93000000D02*
X92465662Y-93250000D01*
X95660000Y-113076689D02*
X95660000Y-92313311D01*
X103680000Y-112247952D02*
X103680000Y-93142048D01*
X97608256Y-90678530D02*
X102308256Y-91507267D01*
X97608256Y-114711470D02*
X102308256Y-113882733D01*
X93360000Y-121295000D02*
G75*
G03*
X94420000Y-122355000I1060000J0D01*
G01*
X94420000Y-83035000D02*
G75*
G03*
X93360000Y-84095000I0J-1060000D01*
G01*
X105980000Y-121295000D02*
G75*
G02*
X104920000Y-122355000I-1060000J0D01*
G01*
X105980000Y-84095000D02*
G75*
G03*
X104920000Y-83035000I-1060000J0D01*
G01*
X97608256Y-114711470D02*
G75*
G02*
X95660000Y-113076689I-288256J1634781D01*
G01*
X97608256Y-90678530D02*
G75*
G03*
X95660000Y-92313311I-288256J-1634781D01*
G01*
X102308256Y-113882733D02*
G75*
G03*
X103680000Y-112247952I-288256J1634781D01*
G01*
X102308256Y-91507267D02*
G75*
G02*
X103680000Y-93142048I-288256J-1634781D01*
G01*
%TO.C,JP1*%
X67750000Y-143150000D02*
X65750000Y-143150000D01*
X67750000Y-140350000D02*
X67750000Y-143150000D01*
X65750000Y-140350000D02*
X67750000Y-140350000D01*
X65750000Y-143150000D02*
X65750000Y-140350000D01*
%TO.C,L1*%
X54578733Y-162990000D02*
X54921267Y-162990000D01*
X54578733Y-164010000D02*
X54921267Y-164010000D01*
D11*
%TO.C,L2*%
X124500000Y-115650000D02*
X124500000Y-114850000D01*
X125500000Y-115650000D02*
X125500000Y-114850000D01*
X124200000Y-115650000D02*
X125800000Y-115650000D01*
X124200000Y-114850000D02*
X124200000Y-115650000D01*
X125800000Y-114850000D02*
X124200000Y-114850000D01*
X125800000Y-115650000D02*
X125800000Y-114850000D01*
%TO.C,L3*%
X125750000Y-102150000D02*
X125750000Y-101350000D01*
X126750000Y-102150000D02*
X126750000Y-101350000D01*
X125450000Y-102150000D02*
X127050000Y-102150000D01*
X125450000Y-101350000D02*
X125450000Y-102150000D01*
X127050000Y-101350000D02*
X125450000Y-101350000D01*
X127050000Y-102150000D02*
X127050000Y-101350000D01*
%TO.C,L4*%
X106350000Y-145900000D02*
X107150000Y-145900000D01*
X107150000Y-145900000D02*
X107150000Y-144300000D01*
X107150000Y-144300000D02*
X106350000Y-144300000D01*
X106350000Y-144300000D02*
X106350000Y-145900000D01*
X106350000Y-145600000D02*
X107150000Y-145600000D01*
X106350000Y-144600000D02*
X107150000Y-144600000D01*
%TO.C,L5*%
X120350000Y-144600000D02*
X121150000Y-144600000D01*
X120350000Y-145600000D02*
X121150000Y-145600000D01*
X120350000Y-144300000D02*
X120350000Y-145900000D01*
X121150000Y-144300000D02*
X120350000Y-144300000D01*
X121150000Y-145900000D02*
X121150000Y-144300000D01*
X120350000Y-145900000D02*
X121150000Y-145900000D01*
%TO.C,L6*%
X134350000Y-144600000D02*
X135150000Y-144600000D01*
X134350000Y-145600000D02*
X135150000Y-145600000D01*
X134350000Y-144300000D02*
X134350000Y-145900000D01*
X135150000Y-144300000D02*
X134350000Y-144300000D01*
X135150000Y-145900000D02*
X135150000Y-144300000D01*
X134350000Y-145900000D02*
X135150000Y-145900000D01*
%TO.C,L7*%
X73650000Y-130200000D02*
X72850000Y-130200000D01*
X72850000Y-130200000D02*
X72850000Y-131800000D01*
X72850000Y-131800000D02*
X73650000Y-131800000D01*
X73650000Y-131800000D02*
X73650000Y-130200000D01*
X73650000Y-130500000D02*
X72850000Y-130500000D01*
X73650000Y-131500000D02*
X72850000Y-131500000D01*
%TO.C,L8*%
X90400000Y-131500000D02*
X89600000Y-131500000D01*
X90400000Y-130500000D02*
X89600000Y-130500000D01*
X90400000Y-131800000D02*
X90400000Y-130200000D01*
X89600000Y-131800000D02*
X90400000Y-131800000D01*
X89600000Y-130200000D02*
X89600000Y-131800000D01*
X90400000Y-130200000D02*
X89600000Y-130200000D01*
%TO.C,L9*%
X106900000Y-130200000D02*
X106100000Y-130200000D01*
X106100000Y-130200000D02*
X106100000Y-131800000D01*
X106100000Y-131800000D02*
X106900000Y-131800000D01*
X106900000Y-131800000D02*
X106900000Y-130200000D01*
X106900000Y-130500000D02*
X106100000Y-130500000D01*
X106900000Y-131500000D02*
X106100000Y-131500000D01*
D12*
%TO.C,R2*%
X54754724Y-147977500D02*
X54245276Y-147977500D01*
X54754724Y-149022500D02*
X54245276Y-149022500D01*
D11*
%TO.C,R3*%
X142900000Y-134750000D02*
X142100000Y-134750000D01*
X142900000Y-133750000D02*
X142100000Y-133750000D01*
X142900000Y-135050000D02*
X142900000Y-133450000D01*
X142100000Y-135050000D02*
X142900000Y-135050000D01*
X142100000Y-133450000D02*
X142100000Y-135050000D01*
X142900000Y-133450000D02*
X142100000Y-133450000D01*
%TO.C,R4*%
X129300000Y-123400000D02*
X129300000Y-122600000D01*
X129300000Y-122600000D02*
X127700000Y-122600000D01*
X127700000Y-122600000D02*
X127700000Y-123400000D01*
X127700000Y-123400000D02*
X129300000Y-123400000D01*
X129000000Y-123400000D02*
X129000000Y-122600000D01*
X128000000Y-123400000D02*
X128000000Y-122600000D01*
%TO.C,R5*%
X127350000Y-120250000D02*
X128150000Y-120250000D01*
X127350000Y-121250000D02*
X128150000Y-121250000D01*
X127350000Y-119950000D02*
X127350000Y-121550000D01*
X128150000Y-119950000D02*
X127350000Y-119950000D01*
X128150000Y-121550000D02*
X128150000Y-119950000D01*
X127350000Y-121550000D02*
X128150000Y-121550000D01*
%TO.C,R6*%
X127350000Y-117500000D02*
X128150000Y-117500000D01*
X127350000Y-118500000D02*
X128150000Y-118500000D01*
X127350000Y-117200000D02*
X127350000Y-118800000D01*
X128150000Y-117200000D02*
X127350000Y-117200000D01*
X128150000Y-118800000D02*
X128150000Y-117200000D01*
X127350000Y-118800000D02*
X128150000Y-118800000D01*
%TO.C,R7*%
X127350000Y-131300000D02*
X128150000Y-131300000D01*
X128150000Y-131300000D02*
X128150000Y-129700000D01*
X128150000Y-129700000D02*
X127350000Y-129700000D01*
X127350000Y-129700000D02*
X127350000Y-131300000D01*
X127350000Y-131000000D02*
X128150000Y-131000000D01*
X127350000Y-130000000D02*
X128150000Y-130000000D01*
%TO.C,R8*%
X127350000Y-128550000D02*
X128150000Y-128550000D01*
X128150000Y-128550000D02*
X128150000Y-126950000D01*
X128150000Y-126950000D02*
X127350000Y-126950000D01*
X127350000Y-126950000D02*
X127350000Y-128550000D01*
X127350000Y-128250000D02*
X128150000Y-128250000D01*
X127350000Y-127250000D02*
X128150000Y-127250000D01*
%TO.C,R9*%
X129000000Y-125100000D02*
X129000000Y-125900000D01*
X128000000Y-125100000D02*
X128000000Y-125900000D01*
X129300000Y-125100000D02*
X127700000Y-125100000D01*
X129300000Y-125900000D02*
X129300000Y-125100000D01*
X127700000Y-125900000D02*
X129300000Y-125900000D01*
X127700000Y-125100000D02*
X127700000Y-125900000D01*
%TO.C,R10*%
X118300000Y-120400000D02*
X118300000Y-119600000D01*
X118300000Y-119600000D02*
X116700000Y-119600000D01*
X116700000Y-119600000D02*
X116700000Y-120400000D01*
X116700000Y-120400000D02*
X118300000Y-120400000D01*
X118000000Y-120400000D02*
X118000000Y-119600000D01*
X117000000Y-120400000D02*
X117000000Y-119600000D01*
%TO.C,R11*%
X118300000Y-127400000D02*
X118300000Y-126600000D01*
X118300000Y-126600000D02*
X116700000Y-126600000D01*
X116700000Y-126600000D02*
X116700000Y-127400000D01*
X116700000Y-127400000D02*
X118300000Y-127400000D01*
X118000000Y-127400000D02*
X118000000Y-126600000D01*
X117000000Y-127400000D02*
X117000000Y-126600000D01*
%TO.C,R12*%
X133300000Y-116400000D02*
X133300000Y-115600000D01*
X133300000Y-115600000D02*
X131700000Y-115600000D01*
X131700000Y-115600000D02*
X131700000Y-116400000D01*
X131700000Y-116400000D02*
X133300000Y-116400000D01*
X133000000Y-116400000D02*
X133000000Y-115600000D01*
X132000000Y-116400000D02*
X132000000Y-115600000D01*
%TO.C,R16*%
X130100000Y-109000000D02*
X130900000Y-109000000D01*
X130100000Y-110000000D02*
X130900000Y-110000000D01*
X130100000Y-108700000D02*
X130100000Y-110300000D01*
X130900000Y-108700000D02*
X130100000Y-108700000D01*
X130900000Y-110300000D02*
X130900000Y-108700000D01*
X130100000Y-110300000D02*
X130900000Y-110300000D01*
%TO.C,R17*%
X130100000Y-107550000D02*
X130900000Y-107550000D01*
X130900000Y-107550000D02*
X130900000Y-105950000D01*
X130900000Y-105950000D02*
X130100000Y-105950000D01*
X130100000Y-105950000D02*
X130100000Y-107550000D01*
X130100000Y-107250000D02*
X130900000Y-107250000D01*
X130100000Y-106250000D02*
X130900000Y-106250000D01*
%TO.C,R18*%
X130100000Y-104800000D02*
X130900000Y-104800000D01*
X130900000Y-104800000D02*
X130900000Y-103200000D01*
X130900000Y-103200000D02*
X130100000Y-103200000D01*
X130100000Y-103200000D02*
X130100000Y-104800000D01*
X130100000Y-104500000D02*
X130900000Y-104500000D01*
X130100000Y-103500000D02*
X130900000Y-103500000D01*
%TO.C,R24*%
X120050000Y-106400000D02*
X120050000Y-105600000D01*
X120050000Y-105600000D02*
X118450000Y-105600000D01*
X118450000Y-105600000D02*
X118450000Y-106400000D01*
X118450000Y-106400000D02*
X120050000Y-106400000D01*
X119750000Y-106400000D02*
X119750000Y-105600000D01*
X118750000Y-106400000D02*
X118750000Y-105600000D01*
%TO.C,R35*%
X107650000Y-157100000D02*
X106850000Y-157100000D01*
X107650000Y-156100000D02*
X106850000Y-156100000D01*
X107650000Y-157400000D02*
X107650000Y-155800000D01*
X106850000Y-157400000D02*
X107650000Y-157400000D01*
X106850000Y-155800000D02*
X106850000Y-157400000D01*
X107650000Y-155800000D02*
X106850000Y-155800000D01*
%TO.C,R36*%
X110000000Y-156200000D02*
X110000000Y-157000000D01*
X109000000Y-156200000D02*
X109000000Y-157000000D01*
X110300000Y-156200000D02*
X108700000Y-156200000D01*
X110300000Y-157000000D02*
X110300000Y-156200000D01*
X108700000Y-157000000D02*
X110300000Y-157000000D01*
X108700000Y-156200000D02*
X108700000Y-157000000D01*
%TO.C,R37*%
X111350000Y-156100000D02*
X112150000Y-156100000D01*
X111350000Y-157100000D02*
X112150000Y-157100000D01*
X111350000Y-155800000D02*
X111350000Y-157400000D01*
X112150000Y-155800000D02*
X111350000Y-155800000D01*
X112150000Y-157400000D02*
X112150000Y-155800000D01*
X111350000Y-157400000D02*
X112150000Y-157400000D01*
%TO.C,R38*%
X112850000Y-156100000D02*
X113650000Y-156100000D01*
X112850000Y-157100000D02*
X113650000Y-157100000D01*
X112850000Y-155800000D02*
X112850000Y-157400000D01*
X113650000Y-155800000D02*
X112850000Y-155800000D01*
X113650000Y-157400000D02*
X113650000Y-155800000D01*
X112850000Y-157400000D02*
X113650000Y-157400000D01*
%TO.C,R39*%
X116000000Y-156200000D02*
X116000000Y-157000000D01*
X115000000Y-156200000D02*
X115000000Y-157000000D01*
X116300000Y-156200000D02*
X114700000Y-156200000D01*
X116300000Y-157000000D02*
X116300000Y-156200000D01*
X114700000Y-157000000D02*
X116300000Y-157000000D01*
X114700000Y-156200000D02*
X114700000Y-157000000D01*
%TO.C,R40*%
X117350000Y-157400000D02*
X118150000Y-157400000D01*
X118150000Y-157400000D02*
X118150000Y-155800000D01*
X118150000Y-155800000D02*
X117350000Y-155800000D01*
X117350000Y-155800000D02*
X117350000Y-157400000D01*
X117350000Y-157100000D02*
X118150000Y-157100000D01*
X117350000Y-156100000D02*
X118150000Y-156100000D01*
%TO.C,R46*%
X121650000Y-157100000D02*
X120850000Y-157100000D01*
X121650000Y-156100000D02*
X120850000Y-156100000D01*
X121650000Y-157400000D02*
X121650000Y-155800000D01*
X120850000Y-157400000D02*
X121650000Y-157400000D01*
X120850000Y-155800000D02*
X120850000Y-157400000D01*
X121650000Y-155800000D02*
X120850000Y-155800000D01*
%TO.C,R47*%
X122700000Y-156200000D02*
X122700000Y-157000000D01*
X122700000Y-157000000D02*
X124300000Y-157000000D01*
X124300000Y-157000000D02*
X124300000Y-156200000D01*
X124300000Y-156200000D02*
X122700000Y-156200000D01*
X123000000Y-156200000D02*
X123000000Y-157000000D01*
X124000000Y-156200000D02*
X124000000Y-157000000D01*
%TO.C,R48*%
X125350000Y-156100000D02*
X126150000Y-156100000D01*
X125350000Y-157100000D02*
X126150000Y-157100000D01*
X125350000Y-155800000D02*
X125350000Y-157400000D01*
X126150000Y-155800000D02*
X125350000Y-155800000D01*
X126150000Y-157400000D02*
X126150000Y-155800000D01*
X125350000Y-157400000D02*
X126150000Y-157400000D01*
%TO.C,R49*%
X126850000Y-157400000D02*
X127650000Y-157400000D01*
X127650000Y-157400000D02*
X127650000Y-155800000D01*
X127650000Y-155800000D02*
X126850000Y-155800000D01*
X126850000Y-155800000D02*
X126850000Y-157400000D01*
X126850000Y-157100000D02*
X127650000Y-157100000D01*
X126850000Y-156100000D02*
X127650000Y-156100000D01*
%TO.C,R50*%
X128700000Y-156200000D02*
X128700000Y-157000000D01*
X128700000Y-157000000D02*
X130300000Y-157000000D01*
X130300000Y-157000000D02*
X130300000Y-156200000D01*
X130300000Y-156200000D02*
X128700000Y-156200000D01*
X129000000Y-156200000D02*
X129000000Y-157000000D01*
X130000000Y-156200000D02*
X130000000Y-157000000D01*
%TO.C,R51*%
X131350000Y-157400000D02*
X132150000Y-157400000D01*
X132150000Y-157400000D02*
X132150000Y-155800000D01*
X132150000Y-155800000D02*
X131350000Y-155800000D01*
X131350000Y-155800000D02*
X131350000Y-157400000D01*
X131350000Y-157100000D02*
X132150000Y-157100000D01*
X131350000Y-156100000D02*
X132150000Y-156100000D01*
%TO.C,R52*%
X122600000Y-144600000D02*
X123400000Y-144600000D01*
X122600000Y-145600000D02*
X123400000Y-145600000D01*
X122600000Y-144300000D02*
X122600000Y-145900000D01*
X123400000Y-144300000D02*
X122600000Y-144300000D01*
X123400000Y-145900000D02*
X123400000Y-144300000D01*
X122600000Y-145900000D02*
X123400000Y-145900000D01*
%TO.C,R53*%
X130000000Y-145900000D02*
X130800000Y-145900000D01*
X130800000Y-145900000D02*
X130800000Y-144300000D01*
X130800000Y-144300000D02*
X130000000Y-144300000D01*
X130000000Y-144300000D02*
X130000000Y-145900000D01*
X130000000Y-145600000D02*
X130800000Y-145600000D01*
X130000000Y-144600000D02*
X130800000Y-144600000D01*
%TO.C,R57*%
X135650000Y-155800000D02*
X134850000Y-155800000D01*
X134850000Y-155800000D02*
X134850000Y-157400000D01*
X134850000Y-157400000D02*
X135650000Y-157400000D01*
X135650000Y-157400000D02*
X135650000Y-155800000D01*
X135650000Y-156100000D02*
X134850000Y-156100000D01*
X135650000Y-157100000D02*
X134850000Y-157100000D01*
%TO.C,R58*%
X136700000Y-156200000D02*
X136700000Y-157000000D01*
X136700000Y-157000000D02*
X138300000Y-157000000D01*
X138300000Y-157000000D02*
X138300000Y-156200000D01*
X138300000Y-156200000D02*
X136700000Y-156200000D01*
X137000000Y-156200000D02*
X137000000Y-157000000D01*
X138000000Y-156200000D02*
X138000000Y-157000000D01*
%TO.C,R59*%
X139350000Y-157400000D02*
X140150000Y-157400000D01*
X140150000Y-157400000D02*
X140150000Y-155800000D01*
X140150000Y-155800000D02*
X139350000Y-155800000D01*
X139350000Y-155800000D02*
X139350000Y-157400000D01*
X139350000Y-157100000D02*
X140150000Y-157100000D01*
X139350000Y-156100000D02*
X140150000Y-156100000D01*
%TO.C,R60*%
X140850000Y-156100000D02*
X141650000Y-156100000D01*
X140850000Y-157100000D02*
X141650000Y-157100000D01*
X140850000Y-155800000D02*
X140850000Y-157400000D01*
X141650000Y-155800000D02*
X140850000Y-155800000D01*
X141650000Y-157400000D02*
X141650000Y-155800000D01*
X140850000Y-157400000D02*
X141650000Y-157400000D01*
%TO.C,R61*%
X144000000Y-156200000D02*
X144000000Y-157000000D01*
X143000000Y-156200000D02*
X143000000Y-157000000D01*
X144300000Y-156200000D02*
X142700000Y-156200000D01*
X144300000Y-157000000D02*
X144300000Y-156200000D01*
X142700000Y-157000000D02*
X144300000Y-157000000D01*
X142700000Y-156200000D02*
X142700000Y-157000000D01*
%TO.C,R62*%
X145350000Y-157400000D02*
X146150000Y-157400000D01*
X146150000Y-157400000D02*
X146150000Y-155800000D01*
X146150000Y-155800000D02*
X145350000Y-155800000D01*
X145350000Y-155800000D02*
X145350000Y-157400000D01*
X145350000Y-157100000D02*
X146150000Y-157100000D01*
X145350000Y-156100000D02*
X146150000Y-156100000D01*
%TO.C,R63*%
X136600000Y-144600000D02*
X137400000Y-144600000D01*
X136600000Y-145600000D02*
X137400000Y-145600000D01*
X136600000Y-144300000D02*
X136600000Y-145900000D01*
X137400000Y-144300000D02*
X136600000Y-144300000D01*
X137400000Y-145900000D02*
X137400000Y-144300000D01*
X136600000Y-145900000D02*
X137400000Y-145900000D01*
%TO.C,R64*%
X143850000Y-146150000D02*
X144650000Y-146150000D01*
X144650000Y-146150000D02*
X144650000Y-144550000D01*
X144650000Y-144550000D02*
X143850000Y-144550000D01*
X143850000Y-144550000D02*
X143850000Y-146150000D01*
X143850000Y-145850000D02*
X144650000Y-145850000D01*
X143850000Y-144850000D02*
X144650000Y-144850000D01*
%TO.C,R65*%
X64600000Y-124250000D02*
X65400000Y-124250000D01*
X64600000Y-125250000D02*
X65400000Y-125250000D01*
X64600000Y-123950000D02*
X64600000Y-125550000D01*
X65400000Y-123950000D02*
X64600000Y-123950000D01*
X65400000Y-125550000D02*
X65400000Y-123950000D01*
X64600000Y-125550000D02*
X65400000Y-125550000D01*
%TO.C,R66*%
X63550000Y-125900000D02*
X63550000Y-125100000D01*
X63550000Y-125100000D02*
X61950000Y-125100000D01*
X61950000Y-125100000D02*
X61950000Y-125900000D01*
X61950000Y-125900000D02*
X63550000Y-125900000D01*
X63250000Y-125900000D02*
X63250000Y-125100000D01*
X62250000Y-125900000D02*
X62250000Y-125100000D01*
%TO.C,R67*%
X60100000Y-124250000D02*
X60900000Y-124250000D01*
X60100000Y-125250000D02*
X60900000Y-125250000D01*
X60100000Y-123950000D02*
X60100000Y-125550000D01*
X60900000Y-123950000D02*
X60100000Y-123950000D01*
X60900000Y-125550000D02*
X60900000Y-123950000D01*
X60100000Y-125550000D02*
X60900000Y-125550000D01*
%TO.C,R68*%
X71600000Y-125550000D02*
X72400000Y-125550000D01*
X72400000Y-125550000D02*
X72400000Y-123950000D01*
X72400000Y-123950000D02*
X71600000Y-123950000D01*
X71600000Y-123950000D02*
X71600000Y-125550000D01*
X71600000Y-125250000D02*
X72400000Y-125250000D01*
X71600000Y-124250000D02*
X72400000Y-124250000D01*
%TO.C,R69*%
X69250000Y-125900000D02*
X69250000Y-125100000D01*
X70250000Y-125900000D02*
X70250000Y-125100000D01*
X68950000Y-125900000D02*
X70550000Y-125900000D01*
X68950000Y-125100000D02*
X68950000Y-125900000D01*
X70550000Y-125100000D02*
X68950000Y-125100000D01*
X70550000Y-125900000D02*
X70550000Y-125100000D01*
%TO.C,R70*%
X67100000Y-124250000D02*
X67900000Y-124250000D01*
X67100000Y-125250000D02*
X67900000Y-125250000D01*
X67100000Y-123950000D02*
X67100000Y-125550000D01*
X67900000Y-123950000D02*
X67100000Y-123950000D01*
X67900000Y-125550000D02*
X67900000Y-123950000D01*
X67100000Y-125550000D02*
X67900000Y-125550000D01*
%TO.C,R71*%
X63100000Y-135500000D02*
X63900000Y-135500000D01*
X63100000Y-136500000D02*
X63900000Y-136500000D01*
X63100000Y-135200000D02*
X63100000Y-136800000D01*
X63900000Y-135200000D02*
X63100000Y-135200000D01*
X63900000Y-136800000D02*
X63900000Y-135200000D01*
X63100000Y-136800000D02*
X63900000Y-136800000D01*
%TO.C,R72*%
X70100000Y-136800000D02*
X70900000Y-136800000D01*
X70900000Y-136800000D02*
X70900000Y-135200000D01*
X70900000Y-135200000D02*
X70100000Y-135200000D01*
X70100000Y-135200000D02*
X70100000Y-136800000D01*
X70100000Y-136500000D02*
X70900000Y-136500000D01*
X70100000Y-135500000D02*
X70900000Y-135500000D01*
%TO.C,R73*%
X81350000Y-124250000D02*
X82150000Y-124250000D01*
X81350000Y-125250000D02*
X82150000Y-125250000D01*
X81350000Y-123950000D02*
X81350000Y-125550000D01*
X82150000Y-123950000D02*
X81350000Y-123950000D01*
X82150000Y-125550000D02*
X82150000Y-123950000D01*
X81350000Y-125550000D02*
X82150000Y-125550000D01*
%TO.C,R74*%
X79000000Y-125900000D02*
X79000000Y-125100000D01*
X80000000Y-125900000D02*
X80000000Y-125100000D01*
X78700000Y-125900000D02*
X80300000Y-125900000D01*
X78700000Y-125100000D02*
X78700000Y-125900000D01*
X80300000Y-125100000D02*
X78700000Y-125100000D01*
X80300000Y-125900000D02*
X80300000Y-125100000D01*
%TO.C,R75*%
X76850000Y-124250000D02*
X77650000Y-124250000D01*
X76850000Y-125250000D02*
X77650000Y-125250000D01*
X76850000Y-123950000D02*
X76850000Y-125550000D01*
X77650000Y-123950000D02*
X76850000Y-123950000D01*
X77650000Y-125550000D02*
X77650000Y-123950000D01*
X76850000Y-125550000D02*
X77650000Y-125550000D01*
%TO.C,R76*%
X88350000Y-124250000D02*
X89150000Y-124250000D01*
X88350000Y-125250000D02*
X89150000Y-125250000D01*
X88350000Y-123950000D02*
X88350000Y-125550000D01*
X89150000Y-123950000D02*
X88350000Y-123950000D01*
X89150000Y-125550000D02*
X89150000Y-123950000D01*
X88350000Y-125550000D02*
X89150000Y-125550000D01*
%TO.C,R77*%
X87300000Y-125900000D02*
X87300000Y-125100000D01*
X87300000Y-125100000D02*
X85700000Y-125100000D01*
X85700000Y-125100000D02*
X85700000Y-125900000D01*
X85700000Y-125900000D02*
X87300000Y-125900000D01*
X87000000Y-125900000D02*
X87000000Y-125100000D01*
X86000000Y-125900000D02*
X86000000Y-125100000D01*
%TO.C,R78*%
X83850000Y-125550000D02*
X84650000Y-125550000D01*
X84650000Y-125550000D02*
X84650000Y-123950000D01*
X84650000Y-123950000D02*
X83850000Y-123950000D01*
X83850000Y-123950000D02*
X83850000Y-125550000D01*
X83850000Y-125250000D02*
X84650000Y-125250000D01*
X83850000Y-124250000D02*
X84650000Y-124250000D01*
%TO.C,R79*%
X79850000Y-136800000D02*
X80650000Y-136800000D01*
X80650000Y-136800000D02*
X80650000Y-135200000D01*
X80650000Y-135200000D02*
X79850000Y-135200000D01*
X79850000Y-135200000D02*
X79850000Y-136800000D01*
X79850000Y-136500000D02*
X80650000Y-136500000D01*
X79850000Y-135500000D02*
X80650000Y-135500000D01*
%TO.C,R80*%
X86850000Y-135500000D02*
X87650000Y-135500000D01*
X86850000Y-136500000D02*
X87650000Y-136500000D01*
X86850000Y-135200000D02*
X86850000Y-136800000D01*
X87650000Y-135200000D02*
X86850000Y-135200000D01*
X87650000Y-136800000D02*
X87650000Y-135200000D01*
X86850000Y-136800000D02*
X87650000Y-136800000D01*
%TO.C,R81*%
X97850000Y-125550000D02*
X98650000Y-125550000D01*
X98650000Y-125550000D02*
X98650000Y-123950000D01*
X98650000Y-123950000D02*
X97850000Y-123950000D01*
X97850000Y-123950000D02*
X97850000Y-125550000D01*
X97850000Y-125250000D02*
X98650000Y-125250000D01*
X97850000Y-124250000D02*
X98650000Y-124250000D01*
%TO.C,R82*%
X96800000Y-125900000D02*
X96800000Y-125100000D01*
X96800000Y-125100000D02*
X95200000Y-125100000D01*
X95200000Y-125100000D02*
X95200000Y-125900000D01*
X95200000Y-125900000D02*
X96800000Y-125900000D01*
X96500000Y-125900000D02*
X96500000Y-125100000D01*
X95500000Y-125900000D02*
X95500000Y-125100000D01*
%TO.C,R83*%
X93350000Y-125550000D02*
X94150000Y-125550000D01*
X94150000Y-125550000D02*
X94150000Y-123950000D01*
X94150000Y-123950000D02*
X93350000Y-123950000D01*
X93350000Y-123950000D02*
X93350000Y-125550000D01*
X93350000Y-125250000D02*
X94150000Y-125250000D01*
X93350000Y-124250000D02*
X94150000Y-124250000D01*
%TO.C,R84*%
X104850000Y-125550000D02*
X105650000Y-125550000D01*
X105650000Y-125550000D02*
X105650000Y-123950000D01*
X105650000Y-123950000D02*
X104850000Y-123950000D01*
X104850000Y-123950000D02*
X104850000Y-125550000D01*
X104850000Y-125250000D02*
X105650000Y-125250000D01*
X104850000Y-124250000D02*
X105650000Y-124250000D01*
%TO.C,R85*%
X102500000Y-125900000D02*
X102500000Y-125100000D01*
X103500000Y-125900000D02*
X103500000Y-125100000D01*
X102200000Y-125900000D02*
X103800000Y-125900000D01*
X102200000Y-125100000D02*
X102200000Y-125900000D01*
X103800000Y-125100000D02*
X102200000Y-125100000D01*
X103800000Y-125900000D02*
X103800000Y-125100000D01*
%TO.C,R86*%
X100350000Y-124250000D02*
X101150000Y-124250000D01*
X100350000Y-125250000D02*
X101150000Y-125250000D01*
X100350000Y-123950000D02*
X100350000Y-125550000D01*
X101150000Y-123950000D02*
X100350000Y-123950000D01*
X101150000Y-125550000D02*
X101150000Y-123950000D01*
X100350000Y-125550000D02*
X101150000Y-125550000D01*
%TO.C,R87*%
X96350000Y-135500000D02*
X97150000Y-135500000D01*
X96350000Y-136500000D02*
X97150000Y-136500000D01*
X96350000Y-135200000D02*
X96350000Y-136800000D01*
X97150000Y-135200000D02*
X96350000Y-135200000D01*
X97150000Y-136800000D02*
X97150000Y-135200000D01*
X96350000Y-136800000D02*
X97150000Y-136800000D01*
%TO.C,R88*%
X103350000Y-136800000D02*
X104150000Y-136800000D01*
X104150000Y-136800000D02*
X104150000Y-135200000D01*
X104150000Y-135200000D02*
X103350000Y-135200000D01*
X103350000Y-135200000D02*
X103350000Y-136800000D01*
X103350000Y-136500000D02*
X104150000Y-136500000D01*
X103350000Y-135500000D02*
X104150000Y-135500000D01*
D12*
%TO.C,U1*%
X90330000Y-178520000D02*
X80090000Y-178520000D01*
X90330000Y-173879000D02*
X80090000Y-173879000D01*
X90330000Y-178520000D02*
X90330000Y-173879000D01*
X80090000Y-178520000D02*
X80090000Y-173879000D01*
X90330000Y-177010000D02*
X80090000Y-177010000D01*
X87060000Y-178520000D02*
X87060000Y-177010000D01*
X83359000Y-178520000D02*
X83359000Y-177010000D01*
%TO.C,U2*%
X92660000Y-157090000D02*
X91400000Y-157090000D01*
X85840000Y-157090000D02*
X87100000Y-157090000D01*
X92660000Y-160850000D02*
X92660000Y-157090000D01*
X85840000Y-163100000D02*
X85840000Y-157090000D01*
D11*
%TO.C,U4*%
X122492000Y-118718000D02*
X122492000Y-118210000D01*
X123762000Y-118718000D02*
X122492000Y-118718000D01*
X123762000Y-118210000D02*
X123762000Y-118718000D01*
X120714000Y-118210000D02*
X125286000Y-118210000D01*
X120714000Y-123290000D02*
X120714000Y-118210000D01*
X125286000Y-123290000D02*
X120714000Y-123290000D01*
X125286000Y-118210000D02*
X125286000Y-123290000D01*
X119250000Y-118250000D02*
X120500000Y-118250000D01*
X120500000Y-119500000D02*
X119250000Y-119500000D01*
X119250000Y-119500000D02*
X119250000Y-118250000D01*
%TO.C,U5*%
X122492000Y-125718000D02*
X122492000Y-125210000D01*
X123762000Y-125718000D02*
X122492000Y-125718000D01*
X123762000Y-125210000D02*
X123762000Y-125718000D01*
X120714000Y-125210000D02*
X125286000Y-125210000D01*
X120714000Y-130290000D02*
X120714000Y-125210000D01*
X125286000Y-130290000D02*
X120714000Y-130290000D01*
X125286000Y-125210000D02*
X125286000Y-130290000D01*
X119250000Y-125250000D02*
X120500000Y-125250000D01*
X120500000Y-126500000D02*
X119250000Y-126500000D01*
X119250000Y-126500000D02*
X119250000Y-125250000D01*
%TO.C,U6*%
X124742000Y-104718000D02*
X124742000Y-104210000D01*
X126012000Y-104718000D02*
X124742000Y-104718000D01*
X126012000Y-104210000D02*
X126012000Y-104718000D01*
X122964000Y-104210000D02*
X127536000Y-104210000D01*
X122964000Y-109290000D02*
X122964000Y-104210000D01*
X127536000Y-109290000D02*
X122964000Y-109290000D01*
X127536000Y-104210000D02*
X127536000Y-109290000D01*
X121500000Y-104250000D02*
X122750000Y-104250000D01*
X122750000Y-105500000D02*
X121500000Y-105500000D01*
X121500000Y-105500000D02*
X121500000Y-104250000D01*
%TO.C,U9*%
X124282000Y-150092000D02*
X124790000Y-150092000D01*
X124282000Y-151362000D02*
X124282000Y-150092000D01*
X124790000Y-151362000D02*
X124282000Y-151362000D01*
X124790000Y-148314000D02*
X124790000Y-152886000D01*
X119710000Y-148314000D02*
X124790000Y-148314000D01*
X119710000Y-152886000D02*
X119710000Y-148314000D01*
X124790000Y-152886000D02*
X119710000Y-152886000D01*
X124750000Y-146850000D02*
X124750000Y-148100000D01*
X123500000Y-148100000D02*
X123500000Y-146850000D01*
X123500000Y-146850000D02*
X124750000Y-146850000D01*
%TO.C,U10*%
X131532000Y-150092000D02*
X132040000Y-150092000D01*
X131532000Y-151362000D02*
X131532000Y-150092000D01*
X132040000Y-151362000D02*
X131532000Y-151362000D01*
X132040000Y-148314000D02*
X132040000Y-152886000D01*
X126960000Y-148314000D02*
X132040000Y-148314000D01*
X126960000Y-152886000D02*
X126960000Y-148314000D01*
X132040000Y-152886000D02*
X126960000Y-152886000D01*
X132000000Y-146850000D02*
X132000000Y-148100000D01*
X130750000Y-148100000D02*
X130750000Y-146850000D01*
X130750000Y-146850000D02*
X132000000Y-146850000D01*
%TO.C,U11*%
X137500000Y-146850000D02*
X138750000Y-146850000D01*
X137500000Y-148100000D02*
X137500000Y-146850000D01*
X138750000Y-146850000D02*
X138750000Y-148100000D01*
X138790000Y-152886000D02*
X133710000Y-152886000D01*
X133710000Y-152886000D02*
X133710000Y-148314000D01*
X133710000Y-148314000D02*
X138790000Y-148314000D01*
X138790000Y-148314000D02*
X138790000Y-152886000D01*
X138790000Y-151362000D02*
X138282000Y-151362000D01*
X138282000Y-151362000D02*
X138282000Y-150092000D01*
X138282000Y-150092000D02*
X138790000Y-150092000D01*
%TO.C,U12*%
X144750000Y-146850000D02*
X146000000Y-146850000D01*
X144750000Y-148100000D02*
X144750000Y-146850000D01*
X146000000Y-146850000D02*
X146000000Y-148100000D01*
X146040000Y-152886000D02*
X140960000Y-152886000D01*
X140960000Y-152886000D02*
X140960000Y-148314000D01*
X140960000Y-148314000D02*
X146040000Y-148314000D01*
X146040000Y-148314000D02*
X146040000Y-152886000D01*
X146040000Y-151362000D02*
X145532000Y-151362000D01*
X145532000Y-151362000D02*
X145532000Y-150092000D01*
X145532000Y-150092000D02*
X146040000Y-150092000D01*
%TO.C,U13*%
X60718000Y-130508000D02*
X60210000Y-130508000D01*
X60718000Y-129238000D02*
X60718000Y-130508000D01*
X60210000Y-129238000D02*
X60718000Y-129238000D01*
X60210000Y-132286000D02*
X60210000Y-127714000D01*
X65290000Y-132286000D02*
X60210000Y-132286000D01*
X65290000Y-127714000D02*
X65290000Y-132286000D01*
X60210000Y-127714000D02*
X65290000Y-127714000D01*
X60250000Y-133750000D02*
X60250000Y-132500000D01*
X61500000Y-132500000D02*
X61500000Y-133750000D01*
X61500000Y-133750000D02*
X60250000Y-133750000D01*
%TO.C,U14*%
X68500000Y-133750000D02*
X67250000Y-133750000D01*
X68500000Y-132500000D02*
X68500000Y-133750000D01*
X67250000Y-133750000D02*
X67250000Y-132500000D01*
X67210000Y-127714000D02*
X72290000Y-127714000D01*
X72290000Y-127714000D02*
X72290000Y-132286000D01*
X72290000Y-132286000D02*
X67210000Y-132286000D01*
X67210000Y-132286000D02*
X67210000Y-127714000D01*
X67210000Y-129238000D02*
X67718000Y-129238000D01*
X67718000Y-129238000D02*
X67718000Y-130508000D01*
X67718000Y-130508000D02*
X67210000Y-130508000D01*
%TO.C,U15*%
X78250000Y-133750000D02*
X77000000Y-133750000D01*
X78250000Y-132500000D02*
X78250000Y-133750000D01*
X77000000Y-133750000D02*
X77000000Y-132500000D01*
X76960000Y-127714000D02*
X82040000Y-127714000D01*
X82040000Y-127714000D02*
X82040000Y-132286000D01*
X82040000Y-132286000D02*
X76960000Y-132286000D01*
X76960000Y-132286000D02*
X76960000Y-127714000D01*
X76960000Y-129238000D02*
X77468000Y-129238000D01*
X77468000Y-129238000D02*
X77468000Y-130508000D01*
X77468000Y-130508000D02*
X76960000Y-130508000D01*
%TO.C,U16*%
X85250000Y-133750000D02*
X84000000Y-133750000D01*
X85250000Y-132500000D02*
X85250000Y-133750000D01*
X84000000Y-133750000D02*
X84000000Y-132500000D01*
X83960000Y-127714000D02*
X89040000Y-127714000D01*
X89040000Y-127714000D02*
X89040000Y-132286000D01*
X89040000Y-132286000D02*
X83960000Y-132286000D01*
X83960000Y-132286000D02*
X83960000Y-127714000D01*
X83960000Y-129238000D02*
X84468000Y-129238000D01*
X84468000Y-129238000D02*
X84468000Y-130508000D01*
X84468000Y-130508000D02*
X83960000Y-130508000D01*
%TO.C,U17*%
X94750000Y-133750000D02*
X93500000Y-133750000D01*
X94750000Y-132500000D02*
X94750000Y-133750000D01*
X93500000Y-133750000D02*
X93500000Y-132500000D01*
X93460000Y-127714000D02*
X98540000Y-127714000D01*
X98540000Y-127714000D02*
X98540000Y-132286000D01*
X98540000Y-132286000D02*
X93460000Y-132286000D01*
X93460000Y-132286000D02*
X93460000Y-127714000D01*
X93460000Y-129238000D02*
X93968000Y-129238000D01*
X93968000Y-129238000D02*
X93968000Y-130508000D01*
X93968000Y-130508000D02*
X93460000Y-130508000D01*
%TO.C,U18*%
X101750000Y-133750000D02*
X100500000Y-133750000D01*
X101750000Y-132500000D02*
X101750000Y-133750000D01*
X100500000Y-133750000D02*
X100500000Y-132500000D01*
X100460000Y-127714000D02*
X105540000Y-127714000D01*
X105540000Y-127714000D02*
X105540000Y-132286000D01*
X105540000Y-132286000D02*
X100460000Y-132286000D01*
X100460000Y-132286000D02*
X100460000Y-127714000D01*
X100460000Y-129238000D02*
X100968000Y-129238000D01*
X100968000Y-129238000D02*
X100968000Y-130508000D01*
X100968000Y-130508000D02*
X100460000Y-130508000D01*
%TO.C,Y1*%
X52750000Y-149500000D02*
X52750000Y-151250000D01*
X54000000Y-149500000D02*
X52750000Y-149500000D01*
X53250000Y-155000000D02*
X53250000Y-150000000D01*
X56250000Y-155000000D02*
X53250000Y-155000000D01*
X56250000Y-150000000D02*
X56250000Y-155000000D01*
X53250000Y-150000000D02*
X56250000Y-150000000D01*
%TO.C,U3*%
X67988095Y-143532380D02*
X67988095Y-144341904D01*
X68035714Y-144437142D01*
X68083333Y-144484761D01*
X68178571Y-144532380D01*
X68369047Y-144532380D01*
X68464285Y-144484761D01*
X68511904Y-144437142D01*
X68559523Y-144341904D01*
X68559523Y-143532380D01*
X68940476Y-143532380D02*
X69559523Y-143532380D01*
X69226190Y-143913333D01*
X69369047Y-143913333D01*
X69464285Y-143960952D01*
X69511904Y-144008571D01*
X69559523Y-144103809D01*
X69559523Y-144341904D01*
X69511904Y-144437142D01*
X69464285Y-144484761D01*
X69369047Y-144532380D01*
X69083333Y-144532380D01*
X68988095Y-144484761D01*
X68940476Y-144437142D01*
%TO.C,U7*%
D14*
X110326380Y-155723904D02*
X111135904Y-155723904D01*
X111231142Y-155676285D01*
X111278761Y-155628666D01*
X111326380Y-155533428D01*
X111326380Y-155342952D01*
X111278761Y-155247714D01*
X111231142Y-155200095D01*
X111135904Y-155152476D01*
X110326380Y-155152476D01*
X110326380Y-154771523D02*
X110326380Y-154104857D01*
X111326380Y-154533428D01*
%TO.C,R1*%
D11*
X66382380Y-141916666D02*
X65906190Y-142250000D01*
X66382380Y-142488095D02*
X65382380Y-142488095D01*
X65382380Y-142107142D01*
X65430000Y-142011904D01*
X65477619Y-141964285D01*
X65572857Y-141916666D01*
X65715714Y-141916666D01*
X65810952Y-141964285D01*
X65858571Y-142011904D01*
X65906190Y-142107142D01*
X65906190Y-142488095D01*
X66382380Y-140964285D02*
X66382380Y-141535714D01*
X66382380Y-141250000D02*
X65382380Y-141250000D01*
X65525238Y-141345238D01*
X65620476Y-141440476D01*
X65668095Y-141535714D01*
%TO.C,C7*%
X80720833Y-147677142D02*
X80673214Y-147724761D01*
X80530357Y-147772380D01*
X80435119Y-147772380D01*
X80292261Y-147724761D01*
X80197023Y-147629523D01*
X80149404Y-147534285D01*
X80101785Y-147343809D01*
X80101785Y-147200952D01*
X80149404Y-147010476D01*
X80197023Y-146915238D01*
X80292261Y-146820000D01*
X80435119Y-146772380D01*
X80530357Y-146772380D01*
X80673214Y-146820000D01*
X80720833Y-146867619D01*
X81054166Y-146772380D02*
X81720833Y-146772380D01*
X81292261Y-147772380D01*
%TO.C,C6*%
X76537142Y-164416666D02*
X76584761Y-164464285D01*
X76632380Y-164607142D01*
X76632380Y-164702380D01*
X76584761Y-164845238D01*
X76489523Y-164940476D01*
X76394285Y-164988095D01*
X76203809Y-165035714D01*
X76060952Y-165035714D01*
X75870476Y-164988095D01*
X75775238Y-164940476D01*
X75680000Y-164845238D01*
X75632380Y-164702380D01*
X75632380Y-164607142D01*
X75680000Y-164464285D01*
X75727619Y-164416666D01*
X75632380Y-163559523D02*
X75632380Y-163750000D01*
X75680000Y-163845238D01*
X75727619Y-163892857D01*
X75870476Y-163988095D01*
X76060952Y-164035714D01*
X76441904Y-164035714D01*
X76537142Y-163988095D01*
X76584761Y-163940476D01*
X76632380Y-163845238D01*
X76632380Y-163654761D01*
X76584761Y-163559523D01*
X76537142Y-163511904D01*
X76441904Y-163464285D01*
X76203809Y-163464285D01*
X76108571Y-163511904D01*
X76060952Y-163559523D01*
X76013333Y-163654761D01*
X76013333Y-163845238D01*
X76060952Y-163940476D01*
X76108571Y-163988095D01*
X76203809Y-164035714D01*
%TO.C,J13*%
X50602380Y-174539523D02*
X51316666Y-174539523D01*
X51459523Y-174587142D01*
X51554761Y-174682380D01*
X51602380Y-174825238D01*
X51602380Y-174920476D01*
X51602380Y-173539523D02*
X51602380Y-174110952D01*
X51602380Y-173825238D02*
X50602380Y-173825238D01*
X50745238Y-173920476D01*
X50840476Y-174015714D01*
X50888095Y-174110952D01*
X50602380Y-173206190D02*
X50602380Y-172587142D01*
X50983333Y-172920476D01*
X50983333Y-172777619D01*
X51030952Y-172682380D01*
X51078571Y-172634761D01*
X51173809Y-172587142D01*
X51411904Y-172587142D01*
X51507142Y-172634761D01*
X51554761Y-172682380D01*
X51602380Y-172777619D01*
X51602380Y-173063333D01*
X51554761Y-173158571D01*
X51507142Y-173206190D01*
%TO.C,Q6*%
X148782618Y-93836738D02*
X148734999Y-93931976D01*
X148639760Y-94027214D01*
X148496903Y-94170071D01*
X148449284Y-94265309D01*
X148449284Y-94360547D01*
X148687379Y-94312928D02*
X148639760Y-94408166D01*
X148544522Y-94503404D01*
X148354046Y-94551023D01*
X148020713Y-94551023D01*
X147830237Y-94503404D01*
X147734999Y-94408166D01*
X147687379Y-94312928D01*
X147687379Y-94122452D01*
X147734999Y-94027214D01*
X147830237Y-93931976D01*
X148020713Y-93884357D01*
X148354046Y-93884357D01*
X148544522Y-93931976D01*
X148639760Y-94027214D01*
X148687379Y-94122452D01*
X148687379Y-94312928D01*
X147687379Y-93027214D02*
X147687379Y-93217690D01*
X147734999Y-93312928D01*
X147782618Y-93360547D01*
X147925475Y-93455785D01*
X148115951Y-93503404D01*
X148496903Y-93503404D01*
X148592141Y-93455785D01*
X148639760Y-93408166D01*
X148687379Y-93312928D01*
X148687379Y-93122452D01*
X148639760Y-93027214D01*
X148592141Y-92979595D01*
X148496903Y-92931976D01*
X148258808Y-92931976D01*
X148163570Y-92979595D01*
X148115951Y-93027214D01*
X148068332Y-93122452D01*
X148068332Y-93312928D01*
X148115951Y-93408166D01*
X148163570Y-93455785D01*
X148258808Y-93503404D01*
%TO.C,Q5*%
X148782618Y-89836738D02*
X148734999Y-89931976D01*
X148639760Y-90027214D01*
X148496903Y-90170071D01*
X148449284Y-90265309D01*
X148449284Y-90360547D01*
X148687379Y-90312928D02*
X148639760Y-90408166D01*
X148544522Y-90503404D01*
X148354046Y-90551023D01*
X148020713Y-90551023D01*
X147830237Y-90503404D01*
X147734999Y-90408166D01*
X147687379Y-90312928D01*
X147687379Y-90122452D01*
X147734999Y-90027214D01*
X147830237Y-89931976D01*
X148020713Y-89884357D01*
X148354046Y-89884357D01*
X148544522Y-89931976D01*
X148639760Y-90027214D01*
X148687379Y-90122452D01*
X148687379Y-90312928D01*
X147687379Y-88979595D02*
X147687379Y-89455785D01*
X148163570Y-89503404D01*
X148115951Y-89455785D01*
X148068332Y-89360547D01*
X148068332Y-89122452D01*
X148115951Y-89027214D01*
X148163570Y-88979595D01*
X148258808Y-88931976D01*
X148496903Y-88931976D01*
X148592141Y-88979595D01*
X148639760Y-89027214D01*
X148687379Y-89122452D01*
X148687379Y-89360547D01*
X148639760Y-89455785D01*
X148592141Y-89503404D01*
%TO.C,Q4*%
X141922618Y-93786738D02*
X141874999Y-93881976D01*
X141779760Y-93977214D01*
X141636903Y-94120071D01*
X141589284Y-94215309D01*
X141589284Y-94310547D01*
X141827379Y-94262928D02*
X141779760Y-94358166D01*
X141684522Y-94453404D01*
X141494046Y-94501023D01*
X141160713Y-94501023D01*
X140970237Y-94453404D01*
X140874999Y-94358166D01*
X140827379Y-94262928D01*
X140827379Y-94072452D01*
X140874999Y-93977214D01*
X140970237Y-93881976D01*
X141160713Y-93834357D01*
X141494046Y-93834357D01*
X141684522Y-93881976D01*
X141779760Y-93977214D01*
X141827379Y-94072452D01*
X141827379Y-94262928D01*
X141160713Y-92977214D02*
X141827379Y-92977214D01*
X140779760Y-93215309D02*
X141494046Y-93453404D01*
X141494046Y-92834357D01*
%TO.C,Q3*%
X141922618Y-89786738D02*
X141874999Y-89881976D01*
X141779760Y-89977214D01*
X141636903Y-90120071D01*
X141589284Y-90215309D01*
X141589284Y-90310547D01*
X141827379Y-90262928D02*
X141779760Y-90358166D01*
X141684522Y-90453404D01*
X141494046Y-90501023D01*
X141160713Y-90501023D01*
X140970237Y-90453404D01*
X140874999Y-90358166D01*
X140827379Y-90262928D01*
X140827379Y-90072452D01*
X140874999Y-89977214D01*
X140970237Y-89881976D01*
X141160713Y-89834357D01*
X141494046Y-89834357D01*
X141684522Y-89881976D01*
X141779760Y-89977214D01*
X141827379Y-90072452D01*
X141827379Y-90262928D01*
X140827379Y-89501023D02*
X140827379Y-88881976D01*
X141208332Y-89215309D01*
X141208332Y-89072452D01*
X141255951Y-88977214D01*
X141303570Y-88929595D01*
X141398808Y-88881976D01*
X141636903Y-88881976D01*
X141732141Y-88929595D01*
X141779760Y-88977214D01*
X141827379Y-89072452D01*
X141827379Y-89358166D01*
X141779760Y-89453404D01*
X141732141Y-89501023D01*
%TO.C,Q2*%
X135047619Y-93845238D02*
X135000000Y-93940476D01*
X134904761Y-94035714D01*
X134761904Y-94178571D01*
X134714285Y-94273809D01*
X134714285Y-94369047D01*
X134952380Y-94321428D02*
X134904761Y-94416666D01*
X134809523Y-94511904D01*
X134619047Y-94559523D01*
X134285714Y-94559523D01*
X134095238Y-94511904D01*
X134000000Y-94416666D01*
X133952380Y-94321428D01*
X133952380Y-94130952D01*
X134000000Y-94035714D01*
X134095238Y-93940476D01*
X134285714Y-93892857D01*
X134619047Y-93892857D01*
X134809523Y-93940476D01*
X134904761Y-94035714D01*
X134952380Y-94130952D01*
X134952380Y-94321428D01*
X134047619Y-93511904D02*
X134000000Y-93464285D01*
X133952380Y-93369047D01*
X133952380Y-93130952D01*
X134000000Y-93035714D01*
X134047619Y-92988095D01*
X134142857Y-92940476D01*
X134238095Y-92940476D01*
X134380952Y-92988095D01*
X134952380Y-93559523D01*
X134952380Y-92940476D01*
%TO.C,Q1*%
X135047619Y-89845238D02*
X135000000Y-89940476D01*
X134904761Y-90035714D01*
X134761904Y-90178571D01*
X134714285Y-90273809D01*
X134714285Y-90369047D01*
X134952380Y-90321428D02*
X134904761Y-90416666D01*
X134809523Y-90511904D01*
X134619047Y-90559523D01*
X134285714Y-90559523D01*
X134095238Y-90511904D01*
X134000000Y-90416666D01*
X133952380Y-90321428D01*
X133952380Y-90130952D01*
X134000000Y-90035714D01*
X134095238Y-89940476D01*
X134285714Y-89892857D01*
X134619047Y-89892857D01*
X134809523Y-89940476D01*
X134904761Y-90035714D01*
X134952380Y-90130952D01*
X134952380Y-90321428D01*
X134952380Y-88940476D02*
X134952380Y-89511904D01*
X134952380Y-89226190D02*
X133952380Y-89226190D01*
X134095238Y-89321428D01*
X134190476Y-89416666D01*
X134238095Y-89511904D01*
%TO.C,J12*%
D15*
X143862579Y-171268803D02*
X143862579Y-171831233D01*
X143825084Y-171943719D01*
X143750093Y-172018710D01*
X143637607Y-172056205D01*
X143562616Y-172056205D01*
X144649981Y-172056205D02*
X144200037Y-172056205D01*
X144425009Y-172056205D02*
X144425009Y-171268803D01*
X144350018Y-171381289D01*
X144275028Y-171456280D01*
X144200037Y-171493775D01*
X144949944Y-171343794D02*
X144987439Y-171306299D01*
X145062430Y-171268803D01*
X145249906Y-171268803D01*
X145324897Y-171306299D01*
X145362392Y-171343794D01*
X145399888Y-171418785D01*
X145399888Y-171493775D01*
X145362392Y-171606261D01*
X144912448Y-172056205D01*
X145399888Y-172056205D01*
%TO.C,J11*%
X136862579Y-171268803D02*
X136862579Y-171831233D01*
X136825084Y-171943719D01*
X136750093Y-172018710D01*
X136637607Y-172056205D01*
X136562616Y-172056205D01*
X137649981Y-172056205D02*
X137200037Y-172056205D01*
X137425009Y-172056205D02*
X137425009Y-171268803D01*
X137350018Y-171381289D01*
X137275028Y-171456280D01*
X137200037Y-171493775D01*
X138399888Y-172056205D02*
X137949944Y-172056205D01*
X138174916Y-172056205D02*
X138174916Y-171268803D01*
X138099925Y-171381289D01*
X138024934Y-171456280D01*
X137949944Y-171493775D01*
%TO.C,J10*%
X129862579Y-171268803D02*
X129862579Y-171831233D01*
X129825084Y-171943719D01*
X129750093Y-172018710D01*
X129637607Y-172056205D01*
X129562616Y-172056205D01*
X130649981Y-172056205D02*
X130200037Y-172056205D01*
X130425009Y-172056205D02*
X130425009Y-171268803D01*
X130350018Y-171381289D01*
X130275028Y-171456280D01*
X130200037Y-171493775D01*
X131137420Y-171268803D02*
X131212411Y-171268803D01*
X131287402Y-171306299D01*
X131324897Y-171343794D01*
X131362392Y-171418785D01*
X131399888Y-171568766D01*
X131399888Y-171756243D01*
X131362392Y-171906224D01*
X131324897Y-171981215D01*
X131287402Y-172018710D01*
X131212411Y-172056205D01*
X131137420Y-172056205D01*
X131062430Y-172018710D01*
X131024934Y-171981215D01*
X130987439Y-171906224D01*
X130949944Y-171756243D01*
X130949944Y-171568766D01*
X130987439Y-171418785D01*
X131024934Y-171343794D01*
X131062430Y-171306299D01*
X131137420Y-171268803D01*
%TO.C,J6*%
X123237532Y-171268803D02*
X123237532Y-171831233D01*
X123200037Y-171943719D01*
X123125046Y-172018710D01*
X123012560Y-172056205D01*
X122937570Y-172056205D01*
X123949944Y-171268803D02*
X123799962Y-171268803D01*
X123724972Y-171306299D01*
X123687476Y-171343794D01*
X123612486Y-171456280D01*
X123574990Y-171606261D01*
X123574990Y-171906224D01*
X123612486Y-171981215D01*
X123649981Y-172018710D01*
X123724972Y-172056205D01*
X123874953Y-172056205D01*
X123949944Y-172018710D01*
X123987439Y-171981215D01*
X124024934Y-171906224D01*
X124024934Y-171718747D01*
X123987439Y-171643757D01*
X123949944Y-171606261D01*
X123874953Y-171568766D01*
X123724972Y-171568766D01*
X123649981Y-171606261D01*
X123612486Y-171643757D01*
X123574990Y-171718747D01*
%TO.C,J5*%
X116237532Y-171268803D02*
X116237532Y-171831233D01*
X116200037Y-171943719D01*
X116125046Y-172018710D01*
X116012560Y-172056205D01*
X115937570Y-172056205D01*
X116987439Y-171268803D02*
X116612486Y-171268803D01*
X116574990Y-171643757D01*
X116612486Y-171606261D01*
X116687476Y-171568766D01*
X116874953Y-171568766D01*
X116949944Y-171606261D01*
X116987439Y-171643757D01*
X117024934Y-171718747D01*
X117024934Y-171906224D01*
X116987439Y-171981215D01*
X116949944Y-172018710D01*
X116874953Y-172056205D01*
X116687476Y-172056205D01*
X116612486Y-172018710D01*
X116574990Y-171981215D01*
%TO.C,J4*%
X109237532Y-171268803D02*
X109237532Y-171831233D01*
X109200037Y-171943719D01*
X109125046Y-172018710D01*
X109012560Y-172056205D01*
X108937570Y-172056205D01*
X109949944Y-171531271D02*
X109949944Y-172056205D01*
X109762467Y-171231308D02*
X109574990Y-171793738D01*
X110062430Y-171793738D01*
%TO.C,C5*%
D11*
X54583333Y-158287142D02*
X54535714Y-158334761D01*
X54392857Y-158382380D01*
X54297619Y-158382380D01*
X54154761Y-158334761D01*
X54059523Y-158239523D01*
X54011904Y-158144285D01*
X53964285Y-157953809D01*
X53964285Y-157810952D01*
X54011904Y-157620476D01*
X54059523Y-157525238D01*
X54154761Y-157430000D01*
X54297619Y-157382380D01*
X54392857Y-157382380D01*
X54535714Y-157430000D01*
X54583333Y-157477619D01*
X55488095Y-157382380D02*
X55011904Y-157382380D01*
X54964285Y-157858571D01*
X55011904Y-157810952D01*
X55107142Y-157763333D01*
X55345238Y-157763333D01*
X55440476Y-157810952D01*
X55488095Y-157858571D01*
X55535714Y-157953809D01*
X55535714Y-158191904D01*
X55488095Y-158287142D01*
X55440476Y-158334761D01*
X55345238Y-158382380D01*
X55107142Y-158382380D01*
X55011904Y-158334761D01*
X54964285Y-158287142D01*
%TO.C,C4*%
X54333333Y-145677142D02*
X54285714Y-145724761D01*
X54142857Y-145772380D01*
X54047619Y-145772380D01*
X53904761Y-145724761D01*
X53809523Y-145629523D01*
X53761904Y-145534285D01*
X53714285Y-145343809D01*
X53714285Y-145200952D01*
X53761904Y-145010476D01*
X53809523Y-144915238D01*
X53904761Y-144820000D01*
X54047619Y-144772380D01*
X54142857Y-144772380D01*
X54285714Y-144820000D01*
X54333333Y-144867619D01*
X55190476Y-145105714D02*
X55190476Y-145772380D01*
X54952380Y-144724761D02*
X54714285Y-145439047D01*
X55333333Y-145439047D01*
%TO.C,C3*%
X98583333Y-152207142D02*
X98535714Y-152254761D01*
X98392857Y-152302380D01*
X98297619Y-152302380D01*
X98154761Y-152254761D01*
X98059523Y-152159523D01*
X98011904Y-152064285D01*
X97964285Y-151873809D01*
X97964285Y-151730952D01*
X98011904Y-151540476D01*
X98059523Y-151445238D01*
X98154761Y-151350000D01*
X98297619Y-151302380D01*
X98392857Y-151302380D01*
X98535714Y-151350000D01*
X98583333Y-151397619D01*
X98916666Y-151302380D02*
X99535714Y-151302380D01*
X99202380Y-151683333D01*
X99345238Y-151683333D01*
X99440476Y-151730952D01*
X99488095Y-151778571D01*
X99535714Y-151873809D01*
X99535714Y-152111904D01*
X99488095Y-152207142D01*
X99440476Y-152254761D01*
X99345238Y-152302380D01*
X99059523Y-152302380D01*
X98964285Y-152254761D01*
X98916666Y-152207142D01*
%TO.C,C2*%
X88333333Y-164207142D02*
X88285714Y-164254761D01*
X88142857Y-164302380D01*
X88047619Y-164302380D01*
X87904761Y-164254761D01*
X87809523Y-164159523D01*
X87761904Y-164064285D01*
X87714285Y-163873809D01*
X87714285Y-163730952D01*
X87761904Y-163540476D01*
X87809523Y-163445238D01*
X87904761Y-163350000D01*
X88047619Y-163302380D01*
X88142857Y-163302380D01*
X88285714Y-163350000D01*
X88333333Y-163397619D01*
X88714285Y-163397619D02*
X88761904Y-163350000D01*
X88857142Y-163302380D01*
X89095238Y-163302380D01*
X89190476Y-163350000D01*
X89238095Y-163397619D01*
X89285714Y-163492857D01*
X89285714Y-163588095D01*
X89238095Y-163730952D01*
X88666666Y-164302380D01*
X89285714Y-164302380D01*
%TO.C,C1*%
X98583333Y-168257142D02*
X98535714Y-168304761D01*
X98392857Y-168352380D01*
X98297619Y-168352380D01*
X98154761Y-168304761D01*
X98059523Y-168209523D01*
X98011904Y-168114285D01*
X97964285Y-167923809D01*
X97964285Y-167780952D01*
X98011904Y-167590476D01*
X98059523Y-167495238D01*
X98154761Y-167400000D01*
X98297619Y-167352380D01*
X98392857Y-167352380D01*
X98535714Y-167400000D01*
X98583333Y-167447619D01*
X99535714Y-168352380D02*
X98964285Y-168352380D01*
X99250000Y-168352380D02*
X99250000Y-167352380D01*
X99154761Y-167495238D01*
X99059523Y-167590476D01*
X98964285Y-167638095D01*
%TO.C,C26*%
D14*
X113701714Y-152948285D02*
X113739809Y-152986380D01*
X113777904Y-153100666D01*
X113777904Y-153176857D01*
X113739809Y-153291142D01*
X113663619Y-153367333D01*
X113587428Y-153405428D01*
X113435047Y-153443523D01*
X113320761Y-153443523D01*
X113168380Y-153405428D01*
X113092190Y-153367333D01*
X113016000Y-153291142D01*
X112977904Y-153176857D01*
X112977904Y-153100666D01*
X113016000Y-152986380D01*
X113054095Y-152948285D01*
X113054095Y-152643523D02*
X113016000Y-152605428D01*
X112977904Y-152529238D01*
X112977904Y-152338761D01*
X113016000Y-152262571D01*
X113054095Y-152224476D01*
X113130285Y-152186380D01*
X113206476Y-152186380D01*
X113320761Y-152224476D01*
X113777904Y-152681619D01*
X113777904Y-152186380D01*
X112977904Y-151500666D02*
X112977904Y-151653047D01*
X113016000Y-151729238D01*
X113054095Y-151767333D01*
X113168380Y-151843523D01*
X113320761Y-151881619D01*
X113625523Y-151881619D01*
X113701714Y-151843523D01*
X113739809Y-151805428D01*
X113777904Y-151729238D01*
X113777904Y-151576857D01*
X113739809Y-151500666D01*
X113701714Y-151462571D01*
X113625523Y-151424476D01*
X113435047Y-151424476D01*
X113358857Y-151462571D01*
X113320761Y-151500666D01*
X113282666Y-151576857D01*
X113282666Y-151729238D01*
X113320761Y-151805428D01*
X113358857Y-151843523D01*
X113435047Y-151881619D01*
%TO.C,C25*%
X120701714Y-152948285D02*
X120739809Y-152986380D01*
X120777904Y-153100666D01*
X120777904Y-153176857D01*
X120739809Y-153291142D01*
X120663619Y-153367333D01*
X120587428Y-153405428D01*
X120435047Y-153443523D01*
X120320761Y-153443523D01*
X120168380Y-153405428D01*
X120092190Y-153367333D01*
X120016000Y-153291142D01*
X119977904Y-153176857D01*
X119977904Y-153100666D01*
X120016000Y-152986380D01*
X120054095Y-152948285D01*
X120054095Y-152643523D02*
X120016000Y-152605428D01*
X119977904Y-152529238D01*
X119977904Y-152338761D01*
X120016000Y-152262571D01*
X120054095Y-152224476D01*
X120130285Y-152186380D01*
X120206476Y-152186380D01*
X120320761Y-152224476D01*
X120777904Y-152681619D01*
X120777904Y-152186380D01*
X119977904Y-151462571D02*
X119977904Y-151843523D01*
X120358857Y-151881619D01*
X120320761Y-151843523D01*
X120282666Y-151767333D01*
X120282666Y-151576857D01*
X120320761Y-151500666D01*
X120358857Y-151462571D01*
X120435047Y-151424476D01*
X120625523Y-151424476D01*
X120701714Y-151462571D01*
X120739809Y-151500666D01*
X120777904Y-151576857D01*
X120777904Y-151767333D01*
X120739809Y-151843523D01*
X120701714Y-151881619D01*
%TO.C,U8*%
X117576380Y-155723904D02*
X118385904Y-155723904D01*
X118481142Y-155676285D01*
X118528761Y-155628666D01*
X118576380Y-155533428D01*
X118576380Y-155342952D01*
X118528761Y-155247714D01*
X118481142Y-155200095D01*
X118385904Y-155152476D01*
X117576380Y-155152476D01*
X118004952Y-154533428D02*
X117957333Y-154628666D01*
X117909714Y-154676285D01*
X117814476Y-154723904D01*
X117766857Y-154723904D01*
X117671619Y-154676285D01*
X117624000Y-154628666D01*
X117576380Y-154533428D01*
X117576380Y-154342952D01*
X117624000Y-154247714D01*
X117671619Y-154200095D01*
X117766857Y-154152476D01*
X117814476Y-154152476D01*
X117909714Y-154200095D01*
X117957333Y-154247714D01*
X118004952Y-154342952D01*
X118004952Y-154533428D01*
X118052571Y-154628666D01*
X118100190Y-154676285D01*
X118195428Y-154723904D01*
X118385904Y-154723904D01*
X118481142Y-154676285D01*
X118528761Y-154628666D01*
X118576380Y-154533428D01*
X118576380Y-154342952D01*
X118528761Y-154247714D01*
X118481142Y-154200095D01*
X118385904Y-154152476D01*
X118195428Y-154152476D01*
X118100190Y-154200095D01*
X118052571Y-154247714D01*
X118004952Y-154342952D01*
%TO.C,C8*%
D11*
X54583333Y-157177142D02*
X54535714Y-157224761D01*
X54392857Y-157272380D01*
X54297619Y-157272380D01*
X54154761Y-157224761D01*
X54059523Y-157129523D01*
X54011904Y-157034285D01*
X53964285Y-156843809D01*
X53964285Y-156700952D01*
X54011904Y-156510476D01*
X54059523Y-156415238D01*
X54154761Y-156320000D01*
X54297619Y-156272380D01*
X54392857Y-156272380D01*
X54535714Y-156320000D01*
X54583333Y-156367619D01*
X55154761Y-156700952D02*
X55059523Y-156653333D01*
X55011904Y-156605714D01*
X54964285Y-156510476D01*
X54964285Y-156462857D01*
X55011904Y-156367619D01*
X55059523Y-156320000D01*
X55154761Y-156272380D01*
X55345238Y-156272380D01*
X55440476Y-156320000D01*
X55488095Y-156367619D01*
X55535714Y-156462857D01*
X55535714Y-156510476D01*
X55488095Y-156605714D01*
X55440476Y-156653333D01*
X55345238Y-156700952D01*
X55154761Y-156700952D01*
X55059523Y-156748571D01*
X55011904Y-156796190D01*
X54964285Y-156891428D01*
X54964285Y-157081904D01*
X55011904Y-157177142D01*
X55059523Y-157224761D01*
X55154761Y-157272380D01*
X55345238Y-157272380D01*
X55440476Y-157224761D01*
X55488095Y-157177142D01*
X55535714Y-157081904D01*
X55535714Y-156891428D01*
X55488095Y-156796190D01*
X55440476Y-156748571D01*
X55345238Y-156700952D01*
%TO.C,C9*%
X54333333Y-143927142D02*
X54285714Y-143974761D01*
X54142857Y-144022380D01*
X54047619Y-144022380D01*
X53904761Y-143974761D01*
X53809523Y-143879523D01*
X53761904Y-143784285D01*
X53714285Y-143593809D01*
X53714285Y-143450952D01*
X53761904Y-143260476D01*
X53809523Y-143165238D01*
X53904761Y-143070000D01*
X54047619Y-143022380D01*
X54142857Y-143022380D01*
X54285714Y-143070000D01*
X54333333Y-143117619D01*
X54809523Y-144022380D02*
X55000000Y-144022380D01*
X55095238Y-143974761D01*
X55142857Y-143927142D01*
X55238095Y-143784285D01*
X55285714Y-143593809D01*
X55285714Y-143212857D01*
X55238095Y-143117619D01*
X55190476Y-143070000D01*
X55095238Y-143022380D01*
X54904761Y-143022380D01*
X54809523Y-143070000D01*
X54761904Y-143117619D01*
X54714285Y-143212857D01*
X54714285Y-143450952D01*
X54761904Y-143546190D01*
X54809523Y-143593809D01*
X54904761Y-143641428D01*
X55095238Y-143641428D01*
X55190476Y-143593809D01*
X55238095Y-143546190D01*
X55285714Y-143450952D01*
%TO.C,C10*%
X60287142Y-151392857D02*
X60334761Y-151440476D01*
X60382380Y-151583333D01*
X60382380Y-151678571D01*
X60334761Y-151821428D01*
X60239523Y-151916666D01*
X60144285Y-151964285D01*
X59953809Y-152011904D01*
X59810952Y-152011904D01*
X59620476Y-151964285D01*
X59525238Y-151916666D01*
X59430000Y-151821428D01*
X59382380Y-151678571D01*
X59382380Y-151583333D01*
X59430000Y-151440476D01*
X59477619Y-151392857D01*
X60382380Y-150440476D02*
X60382380Y-151011904D01*
X60382380Y-150726190D02*
X59382380Y-150726190D01*
X59525238Y-150821428D01*
X59620476Y-150916666D01*
X59668095Y-151011904D01*
X59382380Y-149821428D02*
X59382380Y-149726190D01*
X59430000Y-149630952D01*
X59477619Y-149583333D01*
X59572857Y-149535714D01*
X59763333Y-149488095D01*
X60001428Y-149488095D01*
X60191904Y-149535714D01*
X60287142Y-149583333D01*
X60334761Y-149630952D01*
X60382380Y-149726190D01*
X60382380Y-149821428D01*
X60334761Y-149916666D01*
X60287142Y-149964285D01*
X60191904Y-150011904D01*
X60001428Y-150059523D01*
X59763333Y-150059523D01*
X59572857Y-150011904D01*
X59477619Y-149964285D01*
X59430000Y-149916666D01*
X59382380Y-149821428D01*
%TO.C,C11*%
X54107142Y-158927142D02*
X54059523Y-158974761D01*
X53916666Y-159022380D01*
X53821428Y-159022380D01*
X53678571Y-158974761D01*
X53583333Y-158879523D01*
X53535714Y-158784285D01*
X53488095Y-158593809D01*
X53488095Y-158450952D01*
X53535714Y-158260476D01*
X53583333Y-158165238D01*
X53678571Y-158070000D01*
X53821428Y-158022380D01*
X53916666Y-158022380D01*
X54059523Y-158070000D01*
X54107142Y-158117619D01*
X55059523Y-159022380D02*
X54488095Y-159022380D01*
X54773809Y-159022380D02*
X54773809Y-158022380D01*
X54678571Y-158165238D01*
X54583333Y-158260476D01*
X54488095Y-158308095D01*
X56011904Y-159022380D02*
X55440476Y-159022380D01*
X55726190Y-159022380D02*
X55726190Y-158022380D01*
X55630952Y-158165238D01*
X55535714Y-158260476D01*
X55440476Y-158308095D01*
%TO.C,C12*%
X62857142Y-163177142D02*
X62809523Y-163224761D01*
X62666666Y-163272380D01*
X62571428Y-163272380D01*
X62428571Y-163224761D01*
X62333333Y-163129523D01*
X62285714Y-163034285D01*
X62238095Y-162843809D01*
X62238095Y-162700952D01*
X62285714Y-162510476D01*
X62333333Y-162415238D01*
X62428571Y-162320000D01*
X62571428Y-162272380D01*
X62666666Y-162272380D01*
X62809523Y-162320000D01*
X62857142Y-162367619D01*
X63809523Y-163272380D02*
X63238095Y-163272380D01*
X63523809Y-163272380D02*
X63523809Y-162272380D01*
X63428571Y-162415238D01*
X63333333Y-162510476D01*
X63238095Y-162558095D01*
X64190476Y-162367619D02*
X64238095Y-162320000D01*
X64333333Y-162272380D01*
X64571428Y-162272380D01*
X64666666Y-162320000D01*
X64714285Y-162367619D01*
X64761904Y-162462857D01*
X64761904Y-162558095D01*
X64714285Y-162700952D01*
X64142857Y-163272380D01*
X64761904Y-163272380D01*
%TO.C,C13*%
X75427142Y-164892857D02*
X75474761Y-164940476D01*
X75522380Y-165083333D01*
X75522380Y-165178571D01*
X75474761Y-165321428D01*
X75379523Y-165416666D01*
X75284285Y-165464285D01*
X75093809Y-165511904D01*
X74950952Y-165511904D01*
X74760476Y-165464285D01*
X74665238Y-165416666D01*
X74570000Y-165321428D01*
X74522380Y-165178571D01*
X74522380Y-165083333D01*
X74570000Y-164940476D01*
X74617619Y-164892857D01*
X75522380Y-163940476D02*
X75522380Y-164511904D01*
X75522380Y-164226190D02*
X74522380Y-164226190D01*
X74665238Y-164321428D01*
X74760476Y-164416666D01*
X74808095Y-164511904D01*
X74522380Y-163607142D02*
X74522380Y-162988095D01*
X74903333Y-163321428D01*
X74903333Y-163178571D01*
X74950952Y-163083333D01*
X74998571Y-163035714D01*
X75093809Y-162988095D01*
X75331904Y-162988095D01*
X75427142Y-163035714D01*
X75474761Y-163083333D01*
X75522380Y-163178571D01*
X75522380Y-163464285D01*
X75474761Y-163559523D01*
X75427142Y-163607142D01*
%TO.C,C14*%
X80759643Y-148287142D02*
X80712024Y-148334761D01*
X80569167Y-148382380D01*
X80473929Y-148382380D01*
X80331072Y-148334761D01*
X80235834Y-148239523D01*
X80188215Y-148144285D01*
X80140596Y-147953809D01*
X80140596Y-147810952D01*
X80188215Y-147620476D01*
X80235834Y-147525238D01*
X80331072Y-147430000D01*
X80473929Y-147382380D01*
X80569167Y-147382380D01*
X80712024Y-147430000D01*
X80759643Y-147477619D01*
X81712024Y-148382380D02*
X81140596Y-148382380D01*
X81426310Y-148382380D02*
X81426310Y-147382380D01*
X81331072Y-147525238D01*
X81235834Y-147620476D01*
X81140596Y-147668095D01*
X82569167Y-147715714D02*
X82569167Y-148382380D01*
X82331072Y-147334761D02*
X82092977Y-148049047D01*
X82712024Y-148049047D01*
%TO.C,C15*%
X64537142Y-142392857D02*
X64584761Y-142440476D01*
X64632380Y-142583333D01*
X64632380Y-142678571D01*
X64584761Y-142821428D01*
X64489523Y-142916666D01*
X64394285Y-142964285D01*
X64203809Y-143011904D01*
X64060952Y-143011904D01*
X63870476Y-142964285D01*
X63775238Y-142916666D01*
X63680000Y-142821428D01*
X63632380Y-142678571D01*
X63632380Y-142583333D01*
X63680000Y-142440476D01*
X63727619Y-142392857D01*
X64632380Y-141440476D02*
X64632380Y-142011904D01*
X64632380Y-141726190D02*
X63632380Y-141726190D01*
X63775238Y-141821428D01*
X63870476Y-141916666D01*
X63918095Y-142011904D01*
X63632380Y-140535714D02*
X63632380Y-141011904D01*
X64108571Y-141059523D01*
X64060952Y-141011904D01*
X64013333Y-140916666D01*
X64013333Y-140678571D01*
X64060952Y-140583333D01*
X64108571Y-140535714D01*
X64203809Y-140488095D01*
X64441904Y-140488095D01*
X64537142Y-140535714D01*
X64584761Y-140583333D01*
X64632380Y-140678571D01*
X64632380Y-140916666D01*
X64584761Y-141011904D01*
X64537142Y-141059523D01*
%TO.C,C16*%
X54107142Y-160677142D02*
X54059523Y-160724761D01*
X53916666Y-160772380D01*
X53821428Y-160772380D01*
X53678571Y-160724761D01*
X53583333Y-160629523D01*
X53535714Y-160534285D01*
X53488095Y-160343809D01*
X53488095Y-160200952D01*
X53535714Y-160010476D01*
X53583333Y-159915238D01*
X53678571Y-159820000D01*
X53821428Y-159772380D01*
X53916666Y-159772380D01*
X54059523Y-159820000D01*
X54107142Y-159867619D01*
X55059523Y-160772380D02*
X54488095Y-160772380D01*
X54773809Y-160772380D02*
X54773809Y-159772380D01*
X54678571Y-159915238D01*
X54583333Y-160010476D01*
X54488095Y-160058095D01*
X55916666Y-159772380D02*
X55726190Y-159772380D01*
X55630952Y-159820000D01*
X55583333Y-159867619D01*
X55488095Y-160010476D01*
X55440476Y-160200952D01*
X55440476Y-160581904D01*
X55488095Y-160677142D01*
X55535714Y-160724761D01*
X55630952Y-160772380D01*
X55821428Y-160772380D01*
X55916666Y-160724761D01*
X55964285Y-160677142D01*
X56011904Y-160581904D01*
X56011904Y-160343809D01*
X55964285Y-160248571D01*
X55916666Y-160200952D01*
X55821428Y-160153333D01*
X55630952Y-160153333D01*
X55535714Y-160200952D01*
X55488095Y-160248571D01*
X55440476Y-160343809D01*
%TO.C,C17*%
D14*
X138119714Y-133930285D02*
X138157809Y-133968380D01*
X138195904Y-134082666D01*
X138195904Y-134158857D01*
X138157809Y-134273142D01*
X138081619Y-134349333D01*
X138005428Y-134387428D01*
X137853047Y-134425523D01*
X137738761Y-134425523D01*
X137586380Y-134387428D01*
X137510190Y-134349333D01*
X137434000Y-134273142D01*
X137395904Y-134158857D01*
X137395904Y-134082666D01*
X137434000Y-133968380D01*
X137472095Y-133930285D01*
X138195904Y-133168380D02*
X138195904Y-133625523D01*
X138195904Y-133396952D02*
X137395904Y-133396952D01*
X137510190Y-133473142D01*
X137586380Y-133549333D01*
X137624476Y-133625523D01*
X137395904Y-132901714D02*
X137395904Y-132368380D01*
X138195904Y-132711238D01*
%TO.C,C18*%
X125319714Y-115619714D02*
X125281619Y-115657809D01*
X125167333Y-115695904D01*
X125091142Y-115695904D01*
X124976857Y-115657809D01*
X124900666Y-115581619D01*
X124862571Y-115505428D01*
X124824476Y-115353047D01*
X124824476Y-115238761D01*
X124862571Y-115086380D01*
X124900666Y-115010190D01*
X124976857Y-114934000D01*
X125091142Y-114895904D01*
X125167333Y-114895904D01*
X125281619Y-114934000D01*
X125319714Y-114972095D01*
X126081619Y-115695904D02*
X125624476Y-115695904D01*
X125853047Y-115695904D02*
X125853047Y-114895904D01*
X125776857Y-115010190D01*
X125700666Y-115086380D01*
X125624476Y-115124476D01*
X126538761Y-115238761D02*
X126462571Y-115200666D01*
X126424476Y-115162571D01*
X126386380Y-115086380D01*
X126386380Y-115048285D01*
X126424476Y-114972095D01*
X126462571Y-114934000D01*
X126538761Y-114895904D01*
X126691142Y-114895904D01*
X126767333Y-114934000D01*
X126805428Y-114972095D01*
X126843523Y-115048285D01*
X126843523Y-115086380D01*
X126805428Y-115162571D01*
X126767333Y-115200666D01*
X126691142Y-115238761D01*
X126538761Y-115238761D01*
X126462571Y-115276857D01*
X126424476Y-115314952D01*
X126386380Y-115391142D01*
X126386380Y-115543523D01*
X126424476Y-115619714D01*
X126462571Y-115657809D01*
X126538761Y-115695904D01*
X126691142Y-115695904D01*
X126767333Y-115657809D01*
X126805428Y-115619714D01*
X126843523Y-115543523D01*
X126843523Y-115391142D01*
X126805428Y-115314952D01*
X126767333Y-115276857D01*
X126691142Y-115238761D01*
%TO.C,C19*%
X123901714Y-125951714D02*
X123863619Y-125989809D01*
X123749333Y-126027904D01*
X123673142Y-126027904D01*
X123558857Y-125989809D01*
X123482666Y-125913619D01*
X123444571Y-125837428D01*
X123406476Y-125685047D01*
X123406476Y-125570761D01*
X123444571Y-125418380D01*
X123482666Y-125342190D01*
X123558857Y-125266000D01*
X123673142Y-125227904D01*
X123749333Y-125227904D01*
X123863619Y-125266000D01*
X123901714Y-125304095D01*
X124663619Y-126027904D02*
X124206476Y-126027904D01*
X124435047Y-126027904D02*
X124435047Y-125227904D01*
X124358857Y-125342190D01*
X124282666Y-125418380D01*
X124206476Y-125456476D01*
X125044571Y-126027904D02*
X125196952Y-126027904D01*
X125273142Y-125989809D01*
X125311238Y-125951714D01*
X125387428Y-125837428D01*
X125425523Y-125685047D01*
X125425523Y-125380285D01*
X125387428Y-125304095D01*
X125349333Y-125266000D01*
X125273142Y-125227904D01*
X125120761Y-125227904D01*
X125044571Y-125266000D01*
X125006476Y-125304095D01*
X124968380Y-125380285D01*
X124968380Y-125570761D01*
X125006476Y-125646952D01*
X125044571Y-125685047D01*
X125120761Y-125723142D01*
X125273142Y-125723142D01*
X125349333Y-125685047D01*
X125387428Y-125646952D01*
X125425523Y-125570761D01*
%TO.C,C20*%
X123651714Y-115451714D02*
X123613619Y-115489809D01*
X123499333Y-115527904D01*
X123423142Y-115527904D01*
X123308857Y-115489809D01*
X123232666Y-115413619D01*
X123194571Y-115337428D01*
X123156476Y-115185047D01*
X123156476Y-115070761D01*
X123194571Y-114918380D01*
X123232666Y-114842190D01*
X123308857Y-114766000D01*
X123423142Y-114727904D01*
X123499333Y-114727904D01*
X123613619Y-114766000D01*
X123651714Y-114804095D01*
X123956476Y-114804095D02*
X123994571Y-114766000D01*
X124070761Y-114727904D01*
X124261238Y-114727904D01*
X124337428Y-114766000D01*
X124375523Y-114804095D01*
X124413619Y-114880285D01*
X124413619Y-114956476D01*
X124375523Y-115070761D01*
X123918380Y-115527904D01*
X124413619Y-115527904D01*
X124908857Y-114727904D02*
X124985047Y-114727904D01*
X125061238Y-114766000D01*
X125099333Y-114804095D01*
X125137428Y-114880285D01*
X125175523Y-115032666D01*
X125175523Y-115223142D01*
X125137428Y-115375523D01*
X125099333Y-115451714D01*
X125061238Y-115489809D01*
X124985047Y-115527904D01*
X124908857Y-115527904D01*
X124832666Y-115489809D01*
X124794571Y-115451714D01*
X124756476Y-115375523D01*
X124718380Y-115223142D01*
X124718380Y-115032666D01*
X124756476Y-114880285D01*
X124794571Y-114804095D01*
X124832666Y-114766000D01*
X124908857Y-114727904D01*
%TO.C,C21*%
X132819714Y-113369714D02*
X132781619Y-113407809D01*
X132667333Y-113445904D01*
X132591142Y-113445904D01*
X132476857Y-113407809D01*
X132400666Y-113331619D01*
X132362571Y-113255428D01*
X132324476Y-113103047D01*
X132324476Y-112988761D01*
X132362571Y-112836380D01*
X132400666Y-112760190D01*
X132476857Y-112684000D01*
X132591142Y-112645904D01*
X132667333Y-112645904D01*
X132781619Y-112684000D01*
X132819714Y-112722095D01*
X133124476Y-112722095D02*
X133162571Y-112684000D01*
X133238761Y-112645904D01*
X133429238Y-112645904D01*
X133505428Y-112684000D01*
X133543523Y-112722095D01*
X133581619Y-112798285D01*
X133581619Y-112874476D01*
X133543523Y-112988761D01*
X133086380Y-113445904D01*
X133581619Y-113445904D01*
X134343523Y-113445904D02*
X133886380Y-113445904D01*
X134114952Y-113445904D02*
X134114952Y-112645904D01*
X134038761Y-112760190D01*
X133962571Y-112836380D01*
X133886380Y-112874476D01*
%TO.C,C22*%
X126569714Y-102119714D02*
X126531619Y-102157809D01*
X126417333Y-102195904D01*
X126341142Y-102195904D01*
X126226857Y-102157809D01*
X126150666Y-102081619D01*
X126112571Y-102005428D01*
X126074476Y-101853047D01*
X126074476Y-101738761D01*
X126112571Y-101586380D01*
X126150666Y-101510190D01*
X126226857Y-101434000D01*
X126341142Y-101395904D01*
X126417333Y-101395904D01*
X126531619Y-101434000D01*
X126569714Y-101472095D01*
X126874476Y-101472095D02*
X126912571Y-101434000D01*
X126988761Y-101395904D01*
X127179238Y-101395904D01*
X127255428Y-101434000D01*
X127293523Y-101472095D01*
X127331619Y-101548285D01*
X127331619Y-101624476D01*
X127293523Y-101738761D01*
X126836380Y-102195904D01*
X127331619Y-102195904D01*
X127636380Y-101472095D02*
X127674476Y-101434000D01*
X127750666Y-101395904D01*
X127941142Y-101395904D01*
X128017333Y-101434000D01*
X128055428Y-101472095D01*
X128093523Y-101548285D01*
X128093523Y-101624476D01*
X128055428Y-101738761D01*
X127598285Y-102195904D01*
X128093523Y-102195904D01*
%TO.C,C23*%
X124901714Y-101951714D02*
X124863619Y-101989809D01*
X124749333Y-102027904D01*
X124673142Y-102027904D01*
X124558857Y-101989809D01*
X124482666Y-101913619D01*
X124444571Y-101837428D01*
X124406476Y-101685047D01*
X124406476Y-101570761D01*
X124444571Y-101418380D01*
X124482666Y-101342190D01*
X124558857Y-101266000D01*
X124673142Y-101227904D01*
X124749333Y-101227904D01*
X124863619Y-101266000D01*
X124901714Y-101304095D01*
X125206476Y-101304095D02*
X125244571Y-101266000D01*
X125320761Y-101227904D01*
X125511238Y-101227904D01*
X125587428Y-101266000D01*
X125625523Y-101304095D01*
X125663619Y-101380285D01*
X125663619Y-101456476D01*
X125625523Y-101570761D01*
X125168380Y-102027904D01*
X125663619Y-102027904D01*
X125930285Y-101227904D02*
X126425523Y-101227904D01*
X126158857Y-101532666D01*
X126273142Y-101532666D01*
X126349333Y-101570761D01*
X126387428Y-101608857D01*
X126425523Y-101685047D01*
X126425523Y-101875523D01*
X126387428Y-101951714D01*
X126349333Y-101989809D01*
X126273142Y-102027904D01*
X126044571Y-102027904D01*
X125968380Y-101989809D01*
X125930285Y-101951714D01*
%TO.C,C27*%
X104119714Y-144780285D02*
X104157809Y-144818380D01*
X104195904Y-144932666D01*
X104195904Y-145008857D01*
X104157809Y-145123142D01*
X104081619Y-145199333D01*
X104005428Y-145237428D01*
X103853047Y-145275523D01*
X103738761Y-145275523D01*
X103586380Y-145237428D01*
X103510190Y-145199333D01*
X103434000Y-145123142D01*
X103395904Y-145008857D01*
X103395904Y-144932666D01*
X103434000Y-144818380D01*
X103472095Y-144780285D01*
X103472095Y-144475523D02*
X103434000Y-144437428D01*
X103395904Y-144361238D01*
X103395904Y-144170761D01*
X103434000Y-144094571D01*
X103472095Y-144056476D01*
X103548285Y-144018380D01*
X103624476Y-144018380D01*
X103738761Y-144056476D01*
X104195904Y-144513619D01*
X104195904Y-144018380D01*
X103395904Y-143751714D02*
X103395904Y-143218380D01*
X104195904Y-143561238D01*
%TO.C,C29*%
X134701714Y-152948285D02*
X134739809Y-152986380D01*
X134777904Y-153100666D01*
X134777904Y-153176857D01*
X134739809Y-153291142D01*
X134663619Y-153367333D01*
X134587428Y-153405428D01*
X134435047Y-153443523D01*
X134320761Y-153443523D01*
X134168380Y-153405428D01*
X134092190Y-153367333D01*
X134016000Y-153291142D01*
X133977904Y-153176857D01*
X133977904Y-153100666D01*
X134016000Y-152986380D01*
X134054095Y-152948285D01*
X134054095Y-152643523D02*
X134016000Y-152605428D01*
X133977904Y-152529238D01*
X133977904Y-152338761D01*
X134016000Y-152262571D01*
X134054095Y-152224476D01*
X134130285Y-152186380D01*
X134206476Y-152186380D01*
X134320761Y-152224476D01*
X134777904Y-152681619D01*
X134777904Y-152186380D01*
X134777904Y-151805428D02*
X134777904Y-151653047D01*
X134739809Y-151576857D01*
X134701714Y-151538761D01*
X134587428Y-151462571D01*
X134435047Y-151424476D01*
X134130285Y-151424476D01*
X134054095Y-151462571D01*
X134016000Y-151500666D01*
X133977904Y-151576857D01*
X133977904Y-151729238D01*
X134016000Y-151805428D01*
X134054095Y-151843523D01*
X134130285Y-151881619D01*
X134320761Y-151881619D01*
X134396952Y-151843523D01*
X134435047Y-151805428D01*
X134473142Y-151729238D01*
X134473142Y-151576857D01*
X134435047Y-151500666D01*
X134396952Y-151462571D01*
X134320761Y-151424476D01*
%TO.C,C30*%
X127701714Y-152948285D02*
X127739809Y-152986380D01*
X127777904Y-153100666D01*
X127777904Y-153176857D01*
X127739809Y-153291142D01*
X127663619Y-153367333D01*
X127587428Y-153405428D01*
X127435047Y-153443523D01*
X127320761Y-153443523D01*
X127168380Y-153405428D01*
X127092190Y-153367333D01*
X127016000Y-153291142D01*
X126977904Y-153176857D01*
X126977904Y-153100666D01*
X127016000Y-152986380D01*
X127054095Y-152948285D01*
X126977904Y-152681619D02*
X126977904Y-152186380D01*
X127282666Y-152453047D01*
X127282666Y-152338761D01*
X127320761Y-152262571D01*
X127358857Y-152224476D01*
X127435047Y-152186380D01*
X127625523Y-152186380D01*
X127701714Y-152224476D01*
X127739809Y-152262571D01*
X127777904Y-152338761D01*
X127777904Y-152567333D01*
X127739809Y-152643523D01*
X127701714Y-152681619D01*
X126977904Y-151691142D02*
X126977904Y-151614952D01*
X127016000Y-151538761D01*
X127054095Y-151500666D01*
X127130285Y-151462571D01*
X127282666Y-151424476D01*
X127473142Y-151424476D01*
X127625523Y-151462571D01*
X127701714Y-151500666D01*
X127739809Y-151538761D01*
X127777904Y-151614952D01*
X127777904Y-151691142D01*
X127739809Y-151767333D01*
X127701714Y-151805428D01*
X127625523Y-151843523D01*
X127473142Y-151881619D01*
X127282666Y-151881619D01*
X127130285Y-151843523D01*
X127054095Y-151805428D01*
X127016000Y-151767333D01*
X126977904Y-151691142D01*
%TO.C,C31*%
X118119714Y-144780285D02*
X118157809Y-144818380D01*
X118195904Y-144932666D01*
X118195904Y-145008857D01*
X118157809Y-145123142D01*
X118081619Y-145199333D01*
X118005428Y-145237428D01*
X117853047Y-145275523D01*
X117738761Y-145275523D01*
X117586380Y-145237428D01*
X117510190Y-145199333D01*
X117434000Y-145123142D01*
X117395904Y-145008857D01*
X117395904Y-144932666D01*
X117434000Y-144818380D01*
X117472095Y-144780285D01*
X117395904Y-144513619D02*
X117395904Y-144018380D01*
X117700666Y-144285047D01*
X117700666Y-144170761D01*
X117738761Y-144094571D01*
X117776857Y-144056476D01*
X117853047Y-144018380D01*
X118043523Y-144018380D01*
X118119714Y-144056476D01*
X118157809Y-144094571D01*
X118195904Y-144170761D01*
X118195904Y-144399333D01*
X118157809Y-144475523D01*
X118119714Y-144513619D01*
X118195904Y-143256476D02*
X118195904Y-143713619D01*
X118195904Y-143485047D02*
X117395904Y-143485047D01*
X117510190Y-143561238D01*
X117586380Y-143637428D01*
X117624476Y-143713619D01*
%TO.C,C33*%
X148701714Y-152948285D02*
X148739809Y-152986380D01*
X148777904Y-153100666D01*
X148777904Y-153176857D01*
X148739809Y-153291142D01*
X148663619Y-153367333D01*
X148587428Y-153405428D01*
X148435047Y-153443523D01*
X148320761Y-153443523D01*
X148168380Y-153405428D01*
X148092190Y-153367333D01*
X148016000Y-153291142D01*
X147977904Y-153176857D01*
X147977904Y-153100666D01*
X148016000Y-152986380D01*
X148054095Y-152948285D01*
X147977904Y-152681619D02*
X147977904Y-152186380D01*
X148282666Y-152453047D01*
X148282666Y-152338761D01*
X148320761Y-152262571D01*
X148358857Y-152224476D01*
X148435047Y-152186380D01*
X148625523Y-152186380D01*
X148701714Y-152224476D01*
X148739809Y-152262571D01*
X148777904Y-152338761D01*
X148777904Y-152567333D01*
X148739809Y-152643523D01*
X148701714Y-152681619D01*
X147977904Y-151919714D02*
X147977904Y-151424476D01*
X148282666Y-151691142D01*
X148282666Y-151576857D01*
X148320761Y-151500666D01*
X148358857Y-151462571D01*
X148435047Y-151424476D01*
X148625523Y-151424476D01*
X148701714Y-151462571D01*
X148739809Y-151500666D01*
X148777904Y-151576857D01*
X148777904Y-151805428D01*
X148739809Y-151881619D01*
X148701714Y-151919714D01*
%TO.C,C34*%
X141701714Y-152948285D02*
X141739809Y-152986380D01*
X141777904Y-153100666D01*
X141777904Y-153176857D01*
X141739809Y-153291142D01*
X141663619Y-153367333D01*
X141587428Y-153405428D01*
X141435047Y-153443523D01*
X141320761Y-153443523D01*
X141168380Y-153405428D01*
X141092190Y-153367333D01*
X141016000Y-153291142D01*
X140977904Y-153176857D01*
X140977904Y-153100666D01*
X141016000Y-152986380D01*
X141054095Y-152948285D01*
X140977904Y-152681619D02*
X140977904Y-152186380D01*
X141282666Y-152453047D01*
X141282666Y-152338761D01*
X141320761Y-152262571D01*
X141358857Y-152224476D01*
X141435047Y-152186380D01*
X141625523Y-152186380D01*
X141701714Y-152224476D01*
X141739809Y-152262571D01*
X141777904Y-152338761D01*
X141777904Y-152567333D01*
X141739809Y-152643523D01*
X141701714Y-152681619D01*
X141244571Y-151500666D02*
X141777904Y-151500666D01*
X140939809Y-151691142D02*
X141511238Y-151881619D01*
X141511238Y-151386380D01*
%TO.C,C35*%
X132119714Y-144780285D02*
X132157809Y-144818380D01*
X132195904Y-144932666D01*
X132195904Y-145008857D01*
X132157809Y-145123142D01*
X132081619Y-145199333D01*
X132005428Y-145237428D01*
X131853047Y-145275523D01*
X131738761Y-145275523D01*
X131586380Y-145237428D01*
X131510190Y-145199333D01*
X131434000Y-145123142D01*
X131395904Y-145008857D01*
X131395904Y-144932666D01*
X131434000Y-144818380D01*
X131472095Y-144780285D01*
X131395904Y-144513619D02*
X131395904Y-144018380D01*
X131700666Y-144285047D01*
X131700666Y-144170761D01*
X131738761Y-144094571D01*
X131776857Y-144056476D01*
X131853047Y-144018380D01*
X132043523Y-144018380D01*
X132119714Y-144056476D01*
X132157809Y-144094571D01*
X132195904Y-144170761D01*
X132195904Y-144399333D01*
X132157809Y-144475523D01*
X132119714Y-144513619D01*
X131395904Y-143294571D02*
X131395904Y-143675523D01*
X131776857Y-143713619D01*
X131738761Y-143675523D01*
X131700666Y-143599333D01*
X131700666Y-143408857D01*
X131738761Y-143332666D01*
X131776857Y-143294571D01*
X131853047Y-143256476D01*
X132043523Y-143256476D01*
X132119714Y-143294571D01*
X132157809Y-143332666D01*
X132195904Y-143408857D01*
X132195904Y-143599333D01*
X132157809Y-143675523D01*
X132119714Y-143713619D01*
%TO.C,C36*%
X65119714Y-128430285D02*
X65157809Y-128468380D01*
X65195904Y-128582666D01*
X65195904Y-128658857D01*
X65157809Y-128773142D01*
X65081619Y-128849333D01*
X65005428Y-128887428D01*
X64853047Y-128925523D01*
X64738761Y-128925523D01*
X64586380Y-128887428D01*
X64510190Y-128849333D01*
X64434000Y-128773142D01*
X64395904Y-128658857D01*
X64395904Y-128582666D01*
X64434000Y-128468380D01*
X64472095Y-128430285D01*
X64395904Y-128163619D02*
X64395904Y-127668380D01*
X64700666Y-127935047D01*
X64700666Y-127820761D01*
X64738761Y-127744571D01*
X64776857Y-127706476D01*
X64853047Y-127668380D01*
X65043523Y-127668380D01*
X65119714Y-127706476D01*
X65157809Y-127744571D01*
X65195904Y-127820761D01*
X65195904Y-128049333D01*
X65157809Y-128125523D01*
X65119714Y-128163619D01*
X64395904Y-126982666D02*
X64395904Y-127135047D01*
X64434000Y-127211238D01*
X64472095Y-127249333D01*
X64586380Y-127325523D01*
X64738761Y-127363619D01*
X65043523Y-127363619D01*
X65119714Y-127325523D01*
X65157809Y-127287428D01*
X65195904Y-127211238D01*
X65195904Y-127058857D01*
X65157809Y-126982666D01*
X65119714Y-126944571D01*
X65043523Y-126906476D01*
X64853047Y-126906476D01*
X64776857Y-126944571D01*
X64738761Y-126982666D01*
X64700666Y-127058857D01*
X64700666Y-127211238D01*
X64738761Y-127287428D01*
X64776857Y-127325523D01*
X64853047Y-127363619D01*
%TO.C,C37*%
X58119714Y-128430285D02*
X58157809Y-128468380D01*
X58195904Y-128582666D01*
X58195904Y-128658857D01*
X58157809Y-128773142D01*
X58081619Y-128849333D01*
X58005428Y-128887428D01*
X57853047Y-128925523D01*
X57738761Y-128925523D01*
X57586380Y-128887428D01*
X57510190Y-128849333D01*
X57434000Y-128773142D01*
X57395904Y-128658857D01*
X57395904Y-128582666D01*
X57434000Y-128468380D01*
X57472095Y-128430285D01*
X57395904Y-128163619D02*
X57395904Y-127668380D01*
X57700666Y-127935047D01*
X57700666Y-127820761D01*
X57738761Y-127744571D01*
X57776857Y-127706476D01*
X57853047Y-127668380D01*
X58043523Y-127668380D01*
X58119714Y-127706476D01*
X58157809Y-127744571D01*
X58195904Y-127820761D01*
X58195904Y-128049333D01*
X58157809Y-128125523D01*
X58119714Y-128163619D01*
X57395904Y-127401714D02*
X57395904Y-126868380D01*
X58195904Y-127211238D01*
%TO.C,C38*%
X76451714Y-132348285D02*
X76489809Y-132386380D01*
X76527904Y-132500666D01*
X76527904Y-132576857D01*
X76489809Y-132691142D01*
X76413619Y-132767333D01*
X76337428Y-132805428D01*
X76185047Y-132843523D01*
X76070761Y-132843523D01*
X75918380Y-132805428D01*
X75842190Y-132767333D01*
X75766000Y-132691142D01*
X75727904Y-132576857D01*
X75727904Y-132500666D01*
X75766000Y-132386380D01*
X75804095Y-132348285D01*
X75727904Y-132081619D02*
X75727904Y-131586380D01*
X76032666Y-131853047D01*
X76032666Y-131738761D01*
X76070761Y-131662571D01*
X76108857Y-131624476D01*
X76185047Y-131586380D01*
X76375523Y-131586380D01*
X76451714Y-131624476D01*
X76489809Y-131662571D01*
X76527904Y-131738761D01*
X76527904Y-131967333D01*
X76489809Y-132043523D01*
X76451714Y-132081619D01*
X76070761Y-131129238D02*
X76032666Y-131205428D01*
X75994571Y-131243523D01*
X75918380Y-131281619D01*
X75880285Y-131281619D01*
X75804095Y-131243523D01*
X75766000Y-131205428D01*
X75727904Y-131129238D01*
X75727904Y-130976857D01*
X75766000Y-130900666D01*
X75804095Y-130862571D01*
X75880285Y-130824476D01*
X75918380Y-130824476D01*
X75994571Y-130862571D01*
X76032666Y-130900666D01*
X76070761Y-130976857D01*
X76070761Y-131129238D01*
X76108857Y-131205428D01*
X76146952Y-131243523D01*
X76223142Y-131281619D01*
X76375523Y-131281619D01*
X76451714Y-131243523D01*
X76489809Y-131205428D01*
X76527904Y-131129238D01*
X76527904Y-130976857D01*
X76489809Y-130900666D01*
X76451714Y-130862571D01*
X76375523Y-130824476D01*
X76223142Y-130824476D01*
X76146952Y-130862571D01*
X76108857Y-130900666D01*
X76070761Y-130976857D01*
%TO.C,C39*%
X81869714Y-128430285D02*
X81907809Y-128468380D01*
X81945904Y-128582666D01*
X81945904Y-128658857D01*
X81907809Y-128773142D01*
X81831619Y-128849333D01*
X81755428Y-128887428D01*
X81603047Y-128925523D01*
X81488761Y-128925523D01*
X81336380Y-128887428D01*
X81260190Y-128849333D01*
X81184000Y-128773142D01*
X81145904Y-128658857D01*
X81145904Y-128582666D01*
X81184000Y-128468380D01*
X81222095Y-128430285D01*
X81145904Y-128163619D02*
X81145904Y-127668380D01*
X81450666Y-127935047D01*
X81450666Y-127820761D01*
X81488761Y-127744571D01*
X81526857Y-127706476D01*
X81603047Y-127668380D01*
X81793523Y-127668380D01*
X81869714Y-127706476D01*
X81907809Y-127744571D01*
X81945904Y-127820761D01*
X81945904Y-128049333D01*
X81907809Y-128125523D01*
X81869714Y-128163619D01*
X81945904Y-127287428D02*
X81945904Y-127135047D01*
X81907809Y-127058857D01*
X81869714Y-127020761D01*
X81755428Y-126944571D01*
X81603047Y-126906476D01*
X81298285Y-126906476D01*
X81222095Y-126944571D01*
X81184000Y-126982666D01*
X81145904Y-127058857D01*
X81145904Y-127211238D01*
X81184000Y-127287428D01*
X81222095Y-127325523D01*
X81298285Y-127363619D01*
X81488761Y-127363619D01*
X81564952Y-127325523D01*
X81603047Y-127287428D01*
X81641142Y-127211238D01*
X81641142Y-127058857D01*
X81603047Y-126982666D01*
X81564952Y-126944571D01*
X81488761Y-126906476D01*
%TO.C,C40*%
X77601714Y-128648285D02*
X77639809Y-128686380D01*
X77677904Y-128800666D01*
X77677904Y-128876857D01*
X77639809Y-128991142D01*
X77563619Y-129067333D01*
X77487428Y-129105428D01*
X77335047Y-129143523D01*
X77220761Y-129143523D01*
X77068380Y-129105428D01*
X76992190Y-129067333D01*
X76916000Y-128991142D01*
X76877904Y-128876857D01*
X76877904Y-128800666D01*
X76916000Y-128686380D01*
X76954095Y-128648285D01*
X77144571Y-127962571D02*
X77677904Y-127962571D01*
X76839809Y-128153047D02*
X77411238Y-128343523D01*
X77411238Y-127848285D01*
X76877904Y-127391142D02*
X76877904Y-127314952D01*
X76916000Y-127238761D01*
X76954095Y-127200666D01*
X77030285Y-127162571D01*
X77182666Y-127124476D01*
X77373142Y-127124476D01*
X77525523Y-127162571D01*
X77601714Y-127200666D01*
X77639809Y-127238761D01*
X77677904Y-127314952D01*
X77677904Y-127391142D01*
X77639809Y-127467333D01*
X77601714Y-127505428D01*
X77525523Y-127543523D01*
X77373142Y-127581619D01*
X77182666Y-127581619D01*
X77030285Y-127543523D01*
X76954095Y-127505428D01*
X76916000Y-127467333D01*
X76877904Y-127391142D01*
%TO.C,C41*%
X93201714Y-132348285D02*
X93239809Y-132386380D01*
X93277904Y-132500666D01*
X93277904Y-132576857D01*
X93239809Y-132691142D01*
X93163619Y-132767333D01*
X93087428Y-132805428D01*
X92935047Y-132843523D01*
X92820761Y-132843523D01*
X92668380Y-132805428D01*
X92592190Y-132767333D01*
X92516000Y-132691142D01*
X92477904Y-132576857D01*
X92477904Y-132500666D01*
X92516000Y-132386380D01*
X92554095Y-132348285D01*
X92744571Y-131662571D02*
X93277904Y-131662571D01*
X92439809Y-131853047D02*
X93011238Y-132043523D01*
X93011238Y-131548285D01*
X93277904Y-130824476D02*
X93277904Y-131281619D01*
X93277904Y-131053047D02*
X92477904Y-131053047D01*
X92592190Y-131129238D01*
X92668380Y-131205428D01*
X92706476Y-131281619D01*
%TO.C,C42*%
X98369714Y-128430285D02*
X98407809Y-128468380D01*
X98445904Y-128582666D01*
X98445904Y-128658857D01*
X98407809Y-128773142D01*
X98331619Y-128849333D01*
X98255428Y-128887428D01*
X98103047Y-128925523D01*
X97988761Y-128925523D01*
X97836380Y-128887428D01*
X97760190Y-128849333D01*
X97684000Y-128773142D01*
X97645904Y-128658857D01*
X97645904Y-128582666D01*
X97684000Y-128468380D01*
X97722095Y-128430285D01*
X97912571Y-127744571D02*
X98445904Y-127744571D01*
X97607809Y-127935047D02*
X98179238Y-128125523D01*
X98179238Y-127630285D01*
X97722095Y-127363619D02*
X97684000Y-127325523D01*
X97645904Y-127249333D01*
X97645904Y-127058857D01*
X97684000Y-126982666D01*
X97722095Y-126944571D01*
X97798285Y-126906476D01*
X97874476Y-126906476D01*
X97988761Y-126944571D01*
X98445904Y-127401714D01*
X98445904Y-126906476D01*
%TO.C,C43*%
X94101714Y-128648285D02*
X94139809Y-128686380D01*
X94177904Y-128800666D01*
X94177904Y-128876857D01*
X94139809Y-128991142D01*
X94063619Y-129067333D01*
X93987428Y-129105428D01*
X93835047Y-129143523D01*
X93720761Y-129143523D01*
X93568380Y-129105428D01*
X93492190Y-129067333D01*
X93416000Y-128991142D01*
X93377904Y-128876857D01*
X93377904Y-128800666D01*
X93416000Y-128686380D01*
X93454095Y-128648285D01*
X93644571Y-127962571D02*
X94177904Y-127962571D01*
X93339809Y-128153047D02*
X93911238Y-128343523D01*
X93911238Y-127848285D01*
X93377904Y-127619714D02*
X93377904Y-127124476D01*
X93682666Y-127391142D01*
X93682666Y-127276857D01*
X93720761Y-127200666D01*
X93758857Y-127162571D01*
X93835047Y-127124476D01*
X94025523Y-127124476D01*
X94101714Y-127162571D01*
X94139809Y-127200666D01*
X94177904Y-127276857D01*
X94177904Y-127505428D01*
X94139809Y-127581619D01*
X94101714Y-127619714D01*
%TO.C,C44*%
X109701714Y-132348285D02*
X109739809Y-132386380D01*
X109777904Y-132500666D01*
X109777904Y-132576857D01*
X109739809Y-132691142D01*
X109663619Y-132767333D01*
X109587428Y-132805428D01*
X109435047Y-132843523D01*
X109320761Y-132843523D01*
X109168380Y-132805428D01*
X109092190Y-132767333D01*
X109016000Y-132691142D01*
X108977904Y-132576857D01*
X108977904Y-132500666D01*
X109016000Y-132386380D01*
X109054095Y-132348285D01*
X109244571Y-131662571D02*
X109777904Y-131662571D01*
X108939809Y-131853047D02*
X109511238Y-132043523D01*
X109511238Y-131548285D01*
X109244571Y-130900666D02*
X109777904Y-130900666D01*
X108939809Y-131091142D02*
X109511238Y-131281619D01*
X109511238Y-130786380D01*
%TO.C,J1*%
D16*
X101290000Y-163230571D02*
X101290000Y-164302000D01*
X101218571Y-164516285D01*
X101075714Y-164659142D01*
X100861428Y-164730571D01*
X100718571Y-164730571D01*
X102790000Y-164730571D02*
X101932857Y-164730571D01*
X102361428Y-164730571D02*
X102361428Y-163230571D01*
X102218571Y-163444857D01*
X102075714Y-163587714D01*
X101932857Y-163659142D01*
%TO.C,J2*%
X132716571Y-130194000D02*
X133788000Y-130194000D01*
X134002285Y-130265428D01*
X134145142Y-130408285D01*
X134216571Y-130622571D01*
X134216571Y-130765428D01*
X132859428Y-129551142D02*
X132788000Y-129479714D01*
X132716571Y-129336857D01*
X132716571Y-128979714D01*
X132788000Y-128836857D01*
X132859428Y-128765428D01*
X133002285Y-128694000D01*
X133145142Y-128694000D01*
X133359428Y-128765428D01*
X134216571Y-129622571D01*
X134216571Y-128694000D01*
%TO.C,J3*%
X132716571Y-113694000D02*
X133788000Y-113694000D01*
X134002285Y-113765428D01*
X134145142Y-113908285D01*
X134216571Y-114122571D01*
X134216571Y-114265428D01*
X132716571Y-113122571D02*
X132716571Y-112194000D01*
X133288000Y-112694000D01*
X133288000Y-112479714D01*
X133359428Y-112336857D01*
X133430857Y-112265428D01*
X133573714Y-112194000D01*
X133930857Y-112194000D01*
X134073714Y-112265428D01*
X134145142Y-112336857D01*
X134216571Y-112479714D01*
X134216571Y-112908285D01*
X134145142Y-113051142D01*
X134073714Y-113122571D01*
%TO.C,J7*%
D11*
X58562380Y-103028333D02*
X59276666Y-103028333D01*
X59419523Y-103075952D01*
X59514761Y-103171190D01*
X59562380Y-103314047D01*
X59562380Y-103409285D01*
X58562380Y-102647380D02*
X58562380Y-101980714D01*
X59562380Y-102409285D01*
%TO.C,J8*%
X75312380Y-103028333D02*
X76026666Y-103028333D01*
X76169523Y-103075952D01*
X76264761Y-103171190D01*
X76312380Y-103314047D01*
X76312380Y-103409285D01*
X75740952Y-102409285D02*
X75693333Y-102504523D01*
X75645714Y-102552142D01*
X75550476Y-102599761D01*
X75502857Y-102599761D01*
X75407619Y-102552142D01*
X75360000Y-102504523D01*
X75312380Y-102409285D01*
X75312380Y-102218809D01*
X75360000Y-102123571D01*
X75407619Y-102075952D01*
X75502857Y-102028333D01*
X75550476Y-102028333D01*
X75645714Y-102075952D01*
X75693333Y-102123571D01*
X75740952Y-102218809D01*
X75740952Y-102409285D01*
X75788571Y-102504523D01*
X75836190Y-102552142D01*
X75931428Y-102599761D01*
X76121904Y-102599761D01*
X76217142Y-102552142D01*
X76264761Y-102504523D01*
X76312380Y-102409285D01*
X76312380Y-102218809D01*
X76264761Y-102123571D01*
X76217142Y-102075952D01*
X76121904Y-102028333D01*
X75931428Y-102028333D01*
X75836190Y-102075952D01*
X75788571Y-102123571D01*
X75740952Y-102218809D01*
%TO.C,J9*%
X91812380Y-103028333D02*
X92526666Y-103028333D01*
X92669523Y-103075952D01*
X92764761Y-103171190D01*
X92812380Y-103314047D01*
X92812380Y-103409285D01*
X92812380Y-102504523D02*
X92812380Y-102314047D01*
X92764761Y-102218809D01*
X92717142Y-102171190D01*
X92574285Y-102075952D01*
X92383809Y-102028333D01*
X92002857Y-102028333D01*
X91907619Y-102075952D01*
X91860000Y-102123571D01*
X91812380Y-102218809D01*
X91812380Y-102409285D01*
X91860000Y-102504523D01*
X91907619Y-102552142D01*
X92002857Y-102599761D01*
X92240952Y-102599761D01*
X92336190Y-102552142D01*
X92383809Y-102504523D01*
X92431428Y-102409285D01*
X92431428Y-102218809D01*
X92383809Y-102123571D01*
X92336190Y-102075952D01*
X92240952Y-102028333D01*
%TO.C,JP1*%
X64402380Y-142583333D02*
X65116666Y-142583333D01*
X65259523Y-142630952D01*
X65354761Y-142726190D01*
X65402380Y-142869047D01*
X65402380Y-142964285D01*
X65402380Y-142107142D02*
X64402380Y-142107142D01*
X64402380Y-141726190D01*
X64450000Y-141630952D01*
X64497619Y-141583333D01*
X64592857Y-141535714D01*
X64735714Y-141535714D01*
X64830952Y-141583333D01*
X64878571Y-141630952D01*
X64926190Y-141726190D01*
X64926190Y-142107142D01*
X65402380Y-140583333D02*
X65402380Y-141154761D01*
X65402380Y-140869047D02*
X64402380Y-140869047D01*
X64545238Y-140964285D01*
X64640476Y-141059523D01*
X64688095Y-141154761D01*
%TO.C,L1*%
X54583333Y-162522380D02*
X54107142Y-162522380D01*
X54107142Y-161522380D01*
X55440476Y-162522380D02*
X54869047Y-162522380D01*
X55154761Y-162522380D02*
X55154761Y-161522380D01*
X55059523Y-161665238D01*
X54964285Y-161760476D01*
X54869047Y-161808095D01*
%TO.C,R2*%
X54333333Y-150382380D02*
X54000000Y-149906190D01*
X53761904Y-150382380D02*
X53761904Y-149382380D01*
X54142857Y-149382380D01*
X54238095Y-149430000D01*
X54285714Y-149477619D01*
X54333333Y-149572857D01*
X54333333Y-149715714D01*
X54285714Y-149810952D01*
X54238095Y-149858571D01*
X54142857Y-149906190D01*
X53761904Y-149906190D01*
X54714285Y-149477619D02*
X54761904Y-149430000D01*
X54857142Y-149382380D01*
X55095238Y-149382380D01*
X55190476Y-149430000D01*
X55238095Y-149477619D01*
X55285714Y-149572857D01*
X55285714Y-149668095D01*
X55238095Y-149810952D01*
X54666666Y-150382380D01*
X55285714Y-150382380D01*
%TO.C,U1*%
X84448095Y-178972380D02*
X84448095Y-179781904D01*
X84495714Y-179877142D01*
X84543333Y-179924761D01*
X84638571Y-179972380D01*
X84829047Y-179972380D01*
X84924285Y-179924761D01*
X84971904Y-179877142D01*
X85019523Y-179781904D01*
X85019523Y-178972380D01*
X86019523Y-179972380D02*
X85448095Y-179972380D01*
X85733809Y-179972380D02*
X85733809Y-178972380D01*
X85638571Y-179115238D01*
X85543333Y-179210476D01*
X85448095Y-179258095D01*
%TO.C,U2*%
X84202380Y-159761904D02*
X85011904Y-159761904D01*
X85107142Y-159714285D01*
X85154761Y-159666666D01*
X85202380Y-159571428D01*
X85202380Y-159380952D01*
X85154761Y-159285714D01*
X85107142Y-159238095D01*
X85011904Y-159190476D01*
X84202380Y-159190476D01*
X84297619Y-158761904D02*
X84250000Y-158714285D01*
X84202380Y-158619047D01*
X84202380Y-158380952D01*
X84250000Y-158285714D01*
X84297619Y-158238095D01*
X84392857Y-158190476D01*
X84488095Y-158190476D01*
X84630952Y-158238095D01*
X85202380Y-158809523D01*
X85202380Y-158190476D01*
%TO.C,U4*%
D14*
X126600095Y-117578380D02*
X126600095Y-118387904D01*
X126647714Y-118483142D01*
X126695333Y-118530761D01*
X126790571Y-118578380D01*
X126981047Y-118578380D01*
X127076285Y-118530761D01*
X127123904Y-118483142D01*
X127171523Y-118387904D01*
X127171523Y-117578380D01*
X128076285Y-117911714D02*
X128076285Y-118578380D01*
X127838190Y-117530761D02*
X127600095Y-118245047D01*
X128219142Y-118245047D01*
%TO.C,U5*%
X126600095Y-124578380D02*
X126600095Y-125387904D01*
X126647714Y-125483142D01*
X126695333Y-125530761D01*
X126790571Y-125578380D01*
X126981047Y-125578380D01*
X127076285Y-125530761D01*
X127123904Y-125483142D01*
X127171523Y-125387904D01*
X127171523Y-124578380D01*
X128123904Y-124578380D02*
X127647714Y-124578380D01*
X127600095Y-125054571D01*
X127647714Y-125006952D01*
X127742952Y-124959333D01*
X127981047Y-124959333D01*
X128076285Y-125006952D01*
X128123904Y-125054571D01*
X128171523Y-125149809D01*
X128171523Y-125387904D01*
X128123904Y-125483142D01*
X128076285Y-125530761D01*
X127981047Y-125578380D01*
X127742952Y-125578380D01*
X127647714Y-125530761D01*
X127600095Y-125483142D01*
%TO.C,U6*%
X128850095Y-103578380D02*
X128850095Y-104387904D01*
X128897714Y-104483142D01*
X128945333Y-104530761D01*
X129040571Y-104578380D01*
X129231047Y-104578380D01*
X129326285Y-104530761D01*
X129373904Y-104483142D01*
X129421523Y-104387904D01*
X129421523Y-103578380D01*
X130326285Y-103578380D02*
X130135809Y-103578380D01*
X130040571Y-103626000D01*
X129992952Y-103673619D01*
X129897714Y-103816476D01*
X129850095Y-104006952D01*
X129850095Y-104387904D01*
X129897714Y-104483142D01*
X129945333Y-104530761D01*
X130040571Y-104578380D01*
X130231047Y-104578380D01*
X130326285Y-104530761D01*
X130373904Y-104483142D01*
X130421523Y-104387904D01*
X130421523Y-104149809D01*
X130373904Y-104054571D01*
X130326285Y-104006952D01*
X130231047Y-103959333D01*
X130040571Y-103959333D01*
X129945333Y-104006952D01*
X129897714Y-104054571D01*
X129850095Y-104149809D01*
%TO.C,U9*%
X124326380Y-155723904D02*
X125135904Y-155723904D01*
X125231142Y-155676285D01*
X125278761Y-155628666D01*
X125326380Y-155533428D01*
X125326380Y-155342952D01*
X125278761Y-155247714D01*
X125231142Y-155200095D01*
X125135904Y-155152476D01*
X124326380Y-155152476D01*
X125326380Y-154628666D02*
X125326380Y-154438190D01*
X125278761Y-154342952D01*
X125231142Y-154295333D01*
X125088285Y-154200095D01*
X124897809Y-154152476D01*
X124516857Y-154152476D01*
X124421619Y-154200095D01*
X124374000Y-154247714D01*
X124326380Y-154342952D01*
X124326380Y-154533428D01*
X124374000Y-154628666D01*
X124421619Y-154676285D01*
X124516857Y-154723904D01*
X124754952Y-154723904D01*
X124850190Y-154676285D01*
X124897809Y-154628666D01*
X124945428Y-154533428D01*
X124945428Y-154342952D01*
X124897809Y-154247714D01*
X124850190Y-154200095D01*
X124754952Y-154152476D01*
%TO.C,U10*%
X131576380Y-156200095D02*
X132385904Y-156200095D01*
X132481142Y-156152476D01*
X132528761Y-156104857D01*
X132576380Y-156009619D01*
X132576380Y-155819142D01*
X132528761Y-155723904D01*
X132481142Y-155676285D01*
X132385904Y-155628666D01*
X131576380Y-155628666D01*
X132576380Y-154628666D02*
X132576380Y-155200095D01*
X132576380Y-154914380D02*
X131576380Y-154914380D01*
X131719238Y-155009619D01*
X131814476Y-155104857D01*
X131862095Y-155200095D01*
X131576380Y-154009619D02*
X131576380Y-153914380D01*
X131624000Y-153819142D01*
X131671619Y-153771523D01*
X131766857Y-153723904D01*
X131957333Y-153676285D01*
X132195428Y-153676285D01*
X132385904Y-153723904D01*
X132481142Y-153771523D01*
X132528761Y-153819142D01*
X132576380Y-153914380D01*
X132576380Y-154009619D01*
X132528761Y-154104857D01*
X132481142Y-154152476D01*
X132385904Y-154200095D01*
X132195428Y-154247714D01*
X131957333Y-154247714D01*
X131766857Y-154200095D01*
X131671619Y-154152476D01*
X131624000Y-154104857D01*
X131576380Y-154009619D01*
%TO.C,U11*%
X138326380Y-156200095D02*
X139135904Y-156200095D01*
X139231142Y-156152476D01*
X139278761Y-156104857D01*
X139326380Y-156009619D01*
X139326380Y-155819142D01*
X139278761Y-155723904D01*
X139231142Y-155676285D01*
X139135904Y-155628666D01*
X138326380Y-155628666D01*
X139326380Y-154628666D02*
X139326380Y-155200095D01*
X139326380Y-154914380D02*
X138326380Y-154914380D01*
X138469238Y-155009619D01*
X138564476Y-155104857D01*
X138612095Y-155200095D01*
X139326380Y-153676285D02*
X139326380Y-154247714D01*
X139326380Y-153962000D02*
X138326380Y-153962000D01*
X138469238Y-154057238D01*
X138564476Y-154152476D01*
X138612095Y-154247714D01*
%TO.C,U12*%
X145576380Y-156200095D02*
X146385904Y-156200095D01*
X146481142Y-156152476D01*
X146528761Y-156104857D01*
X146576380Y-156009619D01*
X146576380Y-155819142D01*
X146528761Y-155723904D01*
X146481142Y-155676285D01*
X146385904Y-155628666D01*
X145576380Y-155628666D01*
X146576380Y-154628666D02*
X146576380Y-155200095D01*
X146576380Y-154914380D02*
X145576380Y-154914380D01*
X145719238Y-155009619D01*
X145814476Y-155104857D01*
X145862095Y-155200095D01*
X145671619Y-154247714D02*
X145624000Y-154200095D01*
X145576380Y-154104857D01*
X145576380Y-153866761D01*
X145624000Y-153771523D01*
X145671619Y-153723904D01*
X145766857Y-153676285D01*
X145862095Y-153676285D01*
X146004952Y-153723904D01*
X146576380Y-154295333D01*
X146576380Y-153676285D01*
%TO.C,U13*%
X59578380Y-126876095D02*
X60387904Y-126876095D01*
X60483142Y-126828476D01*
X60530761Y-126780857D01*
X60578380Y-126685619D01*
X60578380Y-126495142D01*
X60530761Y-126399904D01*
X60483142Y-126352285D01*
X60387904Y-126304666D01*
X59578380Y-126304666D01*
X60578380Y-125304666D02*
X60578380Y-125876095D01*
X60578380Y-125590380D02*
X59578380Y-125590380D01*
X59721238Y-125685619D01*
X59816476Y-125780857D01*
X59864095Y-125876095D01*
X59578380Y-124971333D02*
X59578380Y-124352285D01*
X59959333Y-124685619D01*
X59959333Y-124542761D01*
X60006952Y-124447523D01*
X60054571Y-124399904D01*
X60149809Y-124352285D01*
X60387904Y-124352285D01*
X60483142Y-124399904D01*
X60530761Y-124447523D01*
X60578380Y-124542761D01*
X60578380Y-124828476D01*
X60530761Y-124923714D01*
X60483142Y-124971333D01*
%TO.C,U14*%
X66578380Y-126876095D02*
X67387904Y-126876095D01*
X67483142Y-126828476D01*
X67530761Y-126780857D01*
X67578380Y-126685619D01*
X67578380Y-126495142D01*
X67530761Y-126399904D01*
X67483142Y-126352285D01*
X67387904Y-126304666D01*
X66578380Y-126304666D01*
X67578380Y-125304666D02*
X67578380Y-125876095D01*
X67578380Y-125590380D02*
X66578380Y-125590380D01*
X66721238Y-125685619D01*
X66816476Y-125780857D01*
X66864095Y-125876095D01*
X66911714Y-124447523D02*
X67578380Y-124447523D01*
X66530761Y-124685619D02*
X67245047Y-124923714D01*
X67245047Y-124304666D01*
%TO.C,U15*%
X76328380Y-126876095D02*
X77137904Y-126876095D01*
X77233142Y-126828476D01*
X77280761Y-126780857D01*
X77328380Y-126685619D01*
X77328380Y-126495142D01*
X77280761Y-126399904D01*
X77233142Y-126352285D01*
X77137904Y-126304666D01*
X76328380Y-126304666D01*
X77328380Y-125304666D02*
X77328380Y-125876095D01*
X77328380Y-125590380D02*
X76328380Y-125590380D01*
X76471238Y-125685619D01*
X76566476Y-125780857D01*
X76614095Y-125876095D01*
X76328380Y-124399904D02*
X76328380Y-124876095D01*
X76804571Y-124923714D01*
X76756952Y-124876095D01*
X76709333Y-124780857D01*
X76709333Y-124542761D01*
X76756952Y-124447523D01*
X76804571Y-124399904D01*
X76899809Y-124352285D01*
X77137904Y-124352285D01*
X77233142Y-124399904D01*
X77280761Y-124447523D01*
X77328380Y-124542761D01*
X77328380Y-124780857D01*
X77280761Y-124876095D01*
X77233142Y-124923714D01*
%TO.C,U16*%
X83328380Y-126876095D02*
X84137904Y-126876095D01*
X84233142Y-126828476D01*
X84280761Y-126780857D01*
X84328380Y-126685619D01*
X84328380Y-126495142D01*
X84280761Y-126399904D01*
X84233142Y-126352285D01*
X84137904Y-126304666D01*
X83328380Y-126304666D01*
X84328380Y-125304666D02*
X84328380Y-125876095D01*
X84328380Y-125590380D02*
X83328380Y-125590380D01*
X83471238Y-125685619D01*
X83566476Y-125780857D01*
X83614095Y-125876095D01*
X83328380Y-124447523D02*
X83328380Y-124638000D01*
X83376000Y-124733238D01*
X83423619Y-124780857D01*
X83566476Y-124876095D01*
X83756952Y-124923714D01*
X84137904Y-124923714D01*
X84233142Y-124876095D01*
X84280761Y-124828476D01*
X84328380Y-124733238D01*
X84328380Y-124542761D01*
X84280761Y-124447523D01*
X84233142Y-124399904D01*
X84137904Y-124352285D01*
X83899809Y-124352285D01*
X83804571Y-124399904D01*
X83756952Y-124447523D01*
X83709333Y-124542761D01*
X83709333Y-124733238D01*
X83756952Y-124828476D01*
X83804571Y-124876095D01*
X83899809Y-124923714D01*
%TO.C,U17*%
X92828380Y-126876095D02*
X93637904Y-126876095D01*
X93733142Y-126828476D01*
X93780761Y-126780857D01*
X93828380Y-126685619D01*
X93828380Y-126495142D01*
X93780761Y-126399904D01*
X93733142Y-126352285D01*
X93637904Y-126304666D01*
X92828380Y-126304666D01*
X93828380Y-125304666D02*
X93828380Y-125876095D01*
X93828380Y-125590380D02*
X92828380Y-125590380D01*
X92971238Y-125685619D01*
X93066476Y-125780857D01*
X93114095Y-125876095D01*
X92828380Y-124971333D02*
X92828380Y-124304666D01*
X93828380Y-124733238D01*
%TO.C,U18*%
X99828380Y-126876095D02*
X100637904Y-126876095D01*
X100733142Y-126828476D01*
X100780761Y-126780857D01*
X100828380Y-126685619D01*
X100828380Y-126495142D01*
X100780761Y-126399904D01*
X100733142Y-126352285D01*
X100637904Y-126304666D01*
X99828380Y-126304666D01*
X100828380Y-125304666D02*
X100828380Y-125876095D01*
X100828380Y-125590380D02*
X99828380Y-125590380D01*
X99971238Y-125685619D01*
X100066476Y-125780857D01*
X100114095Y-125876095D01*
X100256952Y-124733238D02*
X100209333Y-124828476D01*
X100161714Y-124876095D01*
X100066476Y-124923714D01*
X100018857Y-124923714D01*
X99923619Y-124876095D01*
X99876000Y-124828476D01*
X99828380Y-124733238D01*
X99828380Y-124542761D01*
X99876000Y-124447523D01*
X99923619Y-124399904D01*
X100018857Y-124352285D01*
X100066476Y-124352285D01*
X100161714Y-124399904D01*
X100209333Y-124447523D01*
X100256952Y-124542761D01*
X100256952Y-124733238D01*
X100304571Y-124828476D01*
X100352190Y-124876095D01*
X100447428Y-124923714D01*
X100637904Y-124923714D01*
X100733142Y-124876095D01*
X100780761Y-124828476D01*
X100828380Y-124733238D01*
X100828380Y-124542761D01*
X100780761Y-124447523D01*
X100733142Y-124399904D01*
X100637904Y-124352285D01*
X100447428Y-124352285D01*
X100352190Y-124399904D01*
X100304571Y-124447523D01*
X100256952Y-124542761D01*
%TO.C,Y1*%
X53358808Y-152476190D02*
X53358808Y-152952380D01*
X53025475Y-151952380D02*
X53358808Y-152476190D01*
X53692141Y-151952380D01*
X54549284Y-152952380D02*
X53977856Y-152952380D01*
X54263570Y-152952380D02*
X54263570Y-151952380D01*
X54168332Y-152095238D01*
X54073094Y-152190476D01*
X53977856Y-152238095D01*
%TD*%
M02*
