M48
; DRILL file {KiCad (5.1.9)-1} date 06/23/21 22:51:50
; FORMAT={-:-/ absolute / metric / decimal}
; #@! TF.CreationDate,2021-06-23T22:51:50+02:00
; #@! TF.GenerationSoftware,Kicad,Pcbnew,(5.1.9)-1
FMAT,2
METRIC
T1C0.300
T2C0.400
T3C0.800
T4C0.900
T5C1.000
T6C1.100
T7C1.300
T8C1.500
T9C3.100
T10C3.500
%
G90
G05
T1
X51.75Y-159.15
X52.6Y-145.0
X52.7Y-156.5
X52.7Y-160.0
X52.7Y-161.7
X52.8Y-158.3
X56.4Y-147.6
X56.7Y-158.8
X58.1Y-148.9
X59.4Y-158.7
X59.4Y-159.5
X59.5Y-157.25
X62.3Y-163.0
X62.6Y-165.7
X62.6Y-166.4
X63.4Y-147.3
X63.6Y-140.2
X63.9Y-144.0
X64.15Y-159.75
X64.3Y-156.7
X65.2Y-129.2
X65.25Y-127.0
X65.549Y-158.799
X65.85Y-159.568
X66.0Y-158.0
X66.75Y-124.5
X71.9Y-157.25
X72.0Y-126.5
X72.3Y-162.8
X72.3Y-163.5
X72.65Y-149.75
X72.7Y-157.25
X73.0Y-162.8
X73.0Y-163.5
X73.125Y-151.0
X73.5Y-157.25
X73.75Y-151.55
X74.35Y-147.75
X74.5Y-157.25
X78.5Y-148.125
X79.0Y-159.8
X79.25Y-152.0
X80.0Y-160.2
X80.249Y-154.023
X80.25Y-152.4
X80.268Y-153.224
X81.0Y-160.6
X81.75Y-147.65
X81.75Y-161.0
X82.25Y-127.0
X83.25Y-124.0
X83.75Y-148.898
X85.25Y-149.0
X86.5Y-148.75
X87.45Y-148.75
X88.25Y-148.75
X88.875Y-126.567
X89.25Y-148.75
X90.25Y-148.75
X92.226Y-142.426
X92.249Y-140.826
X92.25Y-143.25
X92.254Y-141.626
X98.75Y-127.0
X99.75Y-124.5
X105.375Y-126.75
X105.727Y-145.227
X107.25Y-149.0
X108.25Y-146.75
X110.0Y-144.25
X111.75Y-154.85
X113.0Y-148.9
X113.549Y-140.799
X113.75Y-139.75
X113.75Y-154.75
X114.5Y-140.25
X115.0Y-146.75
X115.0Y-151.5
X115.25Y-144.25
X117.5Y-106.0
X117.75Y-154.85
X118.4Y-146.9
X119.25Y-139.5
X120.0Y-141.25
X120.0Y-154.75
X120.25Y-149.0
X120.85Y-140.5
X121.75Y-139.75
X122.0Y-146.75
X124.0Y-144.25
X124.9Y-117.3
X125.1Y-113.0
X125.75Y-154.85
X126.5Y-130.5
X126.75Y-122.25
X126.75Y-149.0
X127.0Y-151.0
X128.0Y-154.75
X128.25Y-146.75
X128.5Y-93.5
X129.25Y-109.25
X129.25Y-113.25
X129.25Y-124.5
X130.25Y-119.0
X130.25Y-128.5
X130.5Y-101.5
X131.25Y-87.5
X131.25Y-144.25
X131.75Y-154.85
X132.0Y-131.75
X132.4Y-146.8
X134.0Y-154.75
X135.0Y-146.75
X135.5Y-93.5
X136.0Y-146.75
X136.25Y-87.25
X136.25Y-94.75
X137.5Y-107.5
X137.75Y-145.0
X139.75Y-154.85
X140.0Y-150.0
X141.25Y-146.75
X141.5Y-93.5
X142.0Y-154.75
X142.25Y-146.5
X142.75Y-94.75
X143.0Y-87.25
X145.75Y-154.85
X147.0Y-150.0
T2
X53.75Y-142.5
X55.5Y-142.5
X66.75Y-138.0
X66.75Y-139.0
X73.0Y-136.75
X74.0Y-136.75
X77.75Y-136.75
X78.75Y-136.75
X80.025Y-144.025
X80.025Y-145.225
X82.0Y-163.5
X83.0Y-163.5
X84.0Y-163.5
X91.5Y-136.75
X92.75Y-136.75
X93.25Y-163.5
X94.25Y-163.5
X94.75Y-136.75
X95.75Y-136.75
X112.25Y-131.75
X113.25Y-131.75
X122.75Y-131.75
X123.75Y-131.75
T3
X87.25Y-168.25
X89.75Y-168.25
X97.5Y-156.25
X97.5Y-163.5
X100.0Y-156.25
X100.0Y-163.5
T4
X135.42Y-100.14
X135.42Y-102.43
X135.42Y-111.57
X135.42Y-113.86
X135.42Y-116.64
X135.42Y-118.93
X135.42Y-128.07
X135.42Y-130.36
X140.28Y-104.45
X140.28Y-106.49
X140.28Y-108.53
X140.28Y-110.57
X140.28Y-120.95
X140.28Y-122.99
X140.28Y-125.03
X140.28Y-127.07
X142.06Y-103.43
X142.06Y-105.47
X142.06Y-107.51
X142.06Y-109.55
X142.06Y-119.93
X142.06Y-121.97
X142.06Y-124.01
X142.06Y-126.05
T5
X57.25Y-172.46
X57.25Y-175.0
X59.79Y-172.46
X59.79Y-175.0
X62.33Y-172.46
X62.33Y-175.0
X65.0Y-93.0
X65.0Y-95.77
X65.0Y-98.54
X65.0Y-101.31
X65.0Y-104.08
X65.0Y-106.85
X65.0Y-109.62
X65.0Y-112.39
X67.84Y-94.385
X67.84Y-97.155
X67.84Y-99.925
X67.84Y-102.695
X67.84Y-105.465
X67.84Y-108.235
X67.84Y-111.005
X81.75Y-93.0
X81.75Y-95.77
X81.75Y-98.54
X81.75Y-101.31
X81.75Y-104.08
X81.75Y-106.85
X81.75Y-109.62
X81.75Y-112.39
X84.59Y-94.385
X84.59Y-97.155
X84.59Y-99.925
X84.59Y-102.695
X84.59Y-105.465
X84.59Y-108.235
X84.59Y-111.005
X98.25Y-93.0
X98.25Y-95.77
X98.25Y-98.54
X98.25Y-101.31
X98.25Y-104.08
X98.25Y-106.85
X98.25Y-109.62
X98.25Y-112.39
X101.09Y-94.385
X101.09Y-97.155
X101.09Y-99.925
X101.09Y-102.695
X101.09Y-105.465
X101.09Y-108.235
X101.09Y-111.005
T6
X82.67Y-175.25
X85.21Y-175.25
X87.75Y-175.25
T7
X107.75Y-160.3
X109.5Y-171.7
X111.25Y-160.3
X113.0Y-171.7
X114.75Y-160.3
X116.5Y-171.7
X118.25Y-160.3
X120.0Y-171.7
X121.75Y-160.3
X123.5Y-171.7
X125.25Y-160.3
X127.0Y-171.7
X128.75Y-160.3
X130.5Y-171.7
X132.25Y-160.3
X134.0Y-171.7
X135.75Y-160.3
X137.5Y-171.7
X139.25Y-160.3
X141.0Y-171.7
X142.75Y-160.3
X144.5Y-171.7
X146.25Y-160.3
X148.0Y-171.7
T8
X96.37Y-169.9
X101.45Y-169.9
X141.17Y-98.75
X141.17Y-115.25
X141.17Y-115.25
X141.17Y-131.75
T9
X144.6Y-100.65
X144.6Y-113.35
X144.6Y-117.15
X144.6Y-129.85
T10
X55.0Y-88.0
X55.0Y-113.0
X120.0Y-88.0
X120.0Y-113.0
T0
M30
