%TF.GenerationSoftware,KiCad,Pcbnew,(5.1.9)-1*%
%TF.CreationDate,2021-06-23T22:51:48+02:00*%
%TF.ProjectId,EndatDecoder,456e6461-7444-4656-936f-6465722e6b69,rev?*%
%TF.SameCoordinates,Original*%
%TF.FileFunction,Paste,Top*%
%TF.FilePolarity,Positive*%
%FSLAX46Y46*%
G04 Gerber Fmt 4.6, Leading zero omitted, Abs format (unit mm)*
G04 Created by KiCad (PCBNEW (5.1.9)-1) date 2021-06-23 22:51:48*
%MOMM*%
%LPD*%
G01*
G04 APERTURE LIST*
%ADD10R,0.800000X0.900000*%
%ADD11R,3.800000X2.000000*%
%ADD12R,1.500000X2.000000*%
G04 APERTURE END LIST*
%TO.C,U3*%
G36*
G01*
X60275000Y-147575000D02*
X60275000Y-147425000D01*
G75*
G02*
X60350000Y-147350000I75000J0D01*
G01*
X61800000Y-147350000D01*
G75*
G02*
X61875000Y-147425000I0J-75000D01*
G01*
X61875000Y-147575000D01*
G75*
G02*
X61800000Y-147650000I-75000J0D01*
G01*
X60350000Y-147650000D01*
G75*
G02*
X60275000Y-147575000I0J75000D01*
G01*
G37*
G36*
G01*
X60275000Y-148075000D02*
X60275000Y-147925000D01*
G75*
G02*
X60350000Y-147850000I75000J0D01*
G01*
X61800000Y-147850000D01*
G75*
G02*
X61875000Y-147925000I0J-75000D01*
G01*
X61875000Y-148075000D01*
G75*
G02*
X61800000Y-148150000I-75000J0D01*
G01*
X60350000Y-148150000D01*
G75*
G02*
X60275000Y-148075000I0J75000D01*
G01*
G37*
G36*
G01*
X60275000Y-148575000D02*
X60275000Y-148425000D01*
G75*
G02*
X60350000Y-148350000I75000J0D01*
G01*
X61800000Y-148350000D01*
G75*
G02*
X61875000Y-148425000I0J-75000D01*
G01*
X61875000Y-148575000D01*
G75*
G02*
X61800000Y-148650000I-75000J0D01*
G01*
X60350000Y-148650000D01*
G75*
G02*
X60275000Y-148575000I0J75000D01*
G01*
G37*
G36*
G01*
X60275000Y-149075000D02*
X60275000Y-148925000D01*
G75*
G02*
X60350000Y-148850000I75000J0D01*
G01*
X61800000Y-148850000D01*
G75*
G02*
X61875000Y-148925000I0J-75000D01*
G01*
X61875000Y-149075000D01*
G75*
G02*
X61800000Y-149150000I-75000J0D01*
G01*
X60350000Y-149150000D01*
G75*
G02*
X60275000Y-149075000I0J75000D01*
G01*
G37*
G36*
G01*
X60275000Y-149575000D02*
X60275000Y-149425000D01*
G75*
G02*
X60350000Y-149350000I75000J0D01*
G01*
X61800000Y-149350000D01*
G75*
G02*
X61875000Y-149425000I0J-75000D01*
G01*
X61875000Y-149575000D01*
G75*
G02*
X61800000Y-149650000I-75000J0D01*
G01*
X60350000Y-149650000D01*
G75*
G02*
X60275000Y-149575000I0J75000D01*
G01*
G37*
G36*
G01*
X60275000Y-150075000D02*
X60275000Y-149925000D01*
G75*
G02*
X60350000Y-149850000I75000J0D01*
G01*
X61800000Y-149850000D01*
G75*
G02*
X61875000Y-149925000I0J-75000D01*
G01*
X61875000Y-150075000D01*
G75*
G02*
X61800000Y-150150000I-75000J0D01*
G01*
X60350000Y-150150000D01*
G75*
G02*
X60275000Y-150075000I0J75000D01*
G01*
G37*
G36*
G01*
X60275000Y-150575000D02*
X60275000Y-150425000D01*
G75*
G02*
X60350000Y-150350000I75000J0D01*
G01*
X61800000Y-150350000D01*
G75*
G02*
X61875000Y-150425000I0J-75000D01*
G01*
X61875000Y-150575000D01*
G75*
G02*
X61800000Y-150650000I-75000J0D01*
G01*
X60350000Y-150650000D01*
G75*
G02*
X60275000Y-150575000I0J75000D01*
G01*
G37*
G36*
G01*
X60275000Y-151075000D02*
X60275000Y-150925000D01*
G75*
G02*
X60350000Y-150850000I75000J0D01*
G01*
X61800000Y-150850000D01*
G75*
G02*
X61875000Y-150925000I0J-75000D01*
G01*
X61875000Y-151075000D01*
G75*
G02*
X61800000Y-151150000I-75000J0D01*
G01*
X60350000Y-151150000D01*
G75*
G02*
X60275000Y-151075000I0J75000D01*
G01*
G37*
G36*
G01*
X60275000Y-151575000D02*
X60275000Y-151425000D01*
G75*
G02*
X60350000Y-151350000I75000J0D01*
G01*
X61800000Y-151350000D01*
G75*
G02*
X61875000Y-151425000I0J-75000D01*
G01*
X61875000Y-151575000D01*
G75*
G02*
X61800000Y-151650000I-75000J0D01*
G01*
X60350000Y-151650000D01*
G75*
G02*
X60275000Y-151575000I0J75000D01*
G01*
G37*
G36*
G01*
X60275000Y-152075000D02*
X60275000Y-151925000D01*
G75*
G02*
X60350000Y-151850000I75000J0D01*
G01*
X61800000Y-151850000D01*
G75*
G02*
X61875000Y-151925000I0J-75000D01*
G01*
X61875000Y-152075000D01*
G75*
G02*
X61800000Y-152150000I-75000J0D01*
G01*
X60350000Y-152150000D01*
G75*
G02*
X60275000Y-152075000I0J75000D01*
G01*
G37*
G36*
G01*
X60275000Y-152575000D02*
X60275000Y-152425000D01*
G75*
G02*
X60350000Y-152350000I75000J0D01*
G01*
X61800000Y-152350000D01*
G75*
G02*
X61875000Y-152425000I0J-75000D01*
G01*
X61875000Y-152575000D01*
G75*
G02*
X61800000Y-152650000I-75000J0D01*
G01*
X60350000Y-152650000D01*
G75*
G02*
X60275000Y-152575000I0J75000D01*
G01*
G37*
G36*
G01*
X60275000Y-153075000D02*
X60275000Y-152925000D01*
G75*
G02*
X60350000Y-152850000I75000J0D01*
G01*
X61800000Y-152850000D01*
G75*
G02*
X61875000Y-152925000I0J-75000D01*
G01*
X61875000Y-153075000D01*
G75*
G02*
X61800000Y-153150000I-75000J0D01*
G01*
X60350000Y-153150000D01*
G75*
G02*
X60275000Y-153075000I0J75000D01*
G01*
G37*
G36*
G01*
X60275000Y-153575000D02*
X60275000Y-153425000D01*
G75*
G02*
X60350000Y-153350000I75000J0D01*
G01*
X61800000Y-153350000D01*
G75*
G02*
X61875000Y-153425000I0J-75000D01*
G01*
X61875000Y-153575000D01*
G75*
G02*
X61800000Y-153650000I-75000J0D01*
G01*
X60350000Y-153650000D01*
G75*
G02*
X60275000Y-153575000I0J75000D01*
G01*
G37*
G36*
G01*
X60275000Y-154075000D02*
X60275000Y-153925000D01*
G75*
G02*
X60350000Y-153850000I75000J0D01*
G01*
X61800000Y-153850000D01*
G75*
G02*
X61875000Y-153925000I0J-75000D01*
G01*
X61875000Y-154075000D01*
G75*
G02*
X61800000Y-154150000I-75000J0D01*
G01*
X60350000Y-154150000D01*
G75*
G02*
X60275000Y-154075000I0J75000D01*
G01*
G37*
G36*
G01*
X60275000Y-154575000D02*
X60275000Y-154425000D01*
G75*
G02*
X60350000Y-154350000I75000J0D01*
G01*
X61800000Y-154350000D01*
G75*
G02*
X61875000Y-154425000I0J-75000D01*
G01*
X61875000Y-154575000D01*
G75*
G02*
X61800000Y-154650000I-75000J0D01*
G01*
X60350000Y-154650000D01*
G75*
G02*
X60275000Y-154575000I0J75000D01*
G01*
G37*
G36*
G01*
X60275000Y-155075000D02*
X60275000Y-154925000D01*
G75*
G02*
X60350000Y-154850000I75000J0D01*
G01*
X61800000Y-154850000D01*
G75*
G02*
X61875000Y-154925000I0J-75000D01*
G01*
X61875000Y-155075000D01*
G75*
G02*
X61800000Y-155150000I-75000J0D01*
G01*
X60350000Y-155150000D01*
G75*
G02*
X60275000Y-155075000I0J75000D01*
G01*
G37*
G36*
G01*
X60275000Y-155575000D02*
X60275000Y-155425000D01*
G75*
G02*
X60350000Y-155350000I75000J0D01*
G01*
X61800000Y-155350000D01*
G75*
G02*
X61875000Y-155425000I0J-75000D01*
G01*
X61875000Y-155575000D01*
G75*
G02*
X61800000Y-155650000I-75000J0D01*
G01*
X60350000Y-155650000D01*
G75*
G02*
X60275000Y-155575000I0J75000D01*
G01*
G37*
G36*
G01*
X60275000Y-156075000D02*
X60275000Y-155925000D01*
G75*
G02*
X60350000Y-155850000I75000J0D01*
G01*
X61800000Y-155850000D01*
G75*
G02*
X61875000Y-155925000I0J-75000D01*
G01*
X61875000Y-156075000D01*
G75*
G02*
X61800000Y-156150000I-75000J0D01*
G01*
X60350000Y-156150000D01*
G75*
G02*
X60275000Y-156075000I0J75000D01*
G01*
G37*
G36*
G01*
X60275000Y-156575000D02*
X60275000Y-156425000D01*
G75*
G02*
X60350000Y-156350000I75000J0D01*
G01*
X61800000Y-156350000D01*
G75*
G02*
X61875000Y-156425000I0J-75000D01*
G01*
X61875000Y-156575000D01*
G75*
G02*
X61800000Y-156650000I-75000J0D01*
G01*
X60350000Y-156650000D01*
G75*
G02*
X60275000Y-156575000I0J75000D01*
G01*
G37*
G36*
G01*
X60275000Y-157075000D02*
X60275000Y-156925000D01*
G75*
G02*
X60350000Y-156850000I75000J0D01*
G01*
X61800000Y-156850000D01*
G75*
G02*
X61875000Y-156925000I0J-75000D01*
G01*
X61875000Y-157075000D01*
G75*
G02*
X61800000Y-157150000I-75000J0D01*
G01*
X60350000Y-157150000D01*
G75*
G02*
X60275000Y-157075000I0J75000D01*
G01*
G37*
G36*
G01*
X60275000Y-157575000D02*
X60275000Y-157425000D01*
G75*
G02*
X60350000Y-157350000I75000J0D01*
G01*
X61800000Y-157350000D01*
G75*
G02*
X61875000Y-157425000I0J-75000D01*
G01*
X61875000Y-157575000D01*
G75*
G02*
X61800000Y-157650000I-75000J0D01*
G01*
X60350000Y-157650000D01*
G75*
G02*
X60275000Y-157575000I0J75000D01*
G01*
G37*
G36*
G01*
X60275000Y-158075000D02*
X60275000Y-157925000D01*
G75*
G02*
X60350000Y-157850000I75000J0D01*
G01*
X61800000Y-157850000D01*
G75*
G02*
X61875000Y-157925000I0J-75000D01*
G01*
X61875000Y-158075000D01*
G75*
G02*
X61800000Y-158150000I-75000J0D01*
G01*
X60350000Y-158150000D01*
G75*
G02*
X60275000Y-158075000I0J75000D01*
G01*
G37*
G36*
G01*
X60275000Y-158575000D02*
X60275000Y-158425000D01*
G75*
G02*
X60350000Y-158350000I75000J0D01*
G01*
X61800000Y-158350000D01*
G75*
G02*
X61875000Y-158425000I0J-75000D01*
G01*
X61875000Y-158575000D01*
G75*
G02*
X61800000Y-158650000I-75000J0D01*
G01*
X60350000Y-158650000D01*
G75*
G02*
X60275000Y-158575000I0J75000D01*
G01*
G37*
G36*
G01*
X60275000Y-159075000D02*
X60275000Y-158925000D01*
G75*
G02*
X60350000Y-158850000I75000J0D01*
G01*
X61800000Y-158850000D01*
G75*
G02*
X61875000Y-158925000I0J-75000D01*
G01*
X61875000Y-159075000D01*
G75*
G02*
X61800000Y-159150000I-75000J0D01*
G01*
X60350000Y-159150000D01*
G75*
G02*
X60275000Y-159075000I0J75000D01*
G01*
G37*
G36*
G01*
X60275000Y-159575000D02*
X60275000Y-159425000D01*
G75*
G02*
X60350000Y-159350000I75000J0D01*
G01*
X61800000Y-159350000D01*
G75*
G02*
X61875000Y-159425000I0J-75000D01*
G01*
X61875000Y-159575000D01*
G75*
G02*
X61800000Y-159650000I-75000J0D01*
G01*
X60350000Y-159650000D01*
G75*
G02*
X60275000Y-159575000I0J75000D01*
G01*
G37*
G36*
G01*
X62600000Y-161900000D02*
X62600000Y-160450000D01*
G75*
G02*
X62675000Y-160375000I75000J0D01*
G01*
X62825000Y-160375000D01*
G75*
G02*
X62900000Y-160450000I0J-75000D01*
G01*
X62900000Y-161900000D01*
G75*
G02*
X62825000Y-161975000I-75000J0D01*
G01*
X62675000Y-161975000D01*
G75*
G02*
X62600000Y-161900000I0J75000D01*
G01*
G37*
G36*
G01*
X63100000Y-161900000D02*
X63100000Y-160450000D01*
G75*
G02*
X63175000Y-160375000I75000J0D01*
G01*
X63325000Y-160375000D01*
G75*
G02*
X63400000Y-160450000I0J-75000D01*
G01*
X63400000Y-161900000D01*
G75*
G02*
X63325000Y-161975000I-75000J0D01*
G01*
X63175000Y-161975000D01*
G75*
G02*
X63100000Y-161900000I0J75000D01*
G01*
G37*
G36*
G01*
X63600000Y-161900000D02*
X63600000Y-160450000D01*
G75*
G02*
X63675000Y-160375000I75000J0D01*
G01*
X63825000Y-160375000D01*
G75*
G02*
X63900000Y-160450000I0J-75000D01*
G01*
X63900000Y-161900000D01*
G75*
G02*
X63825000Y-161975000I-75000J0D01*
G01*
X63675000Y-161975000D01*
G75*
G02*
X63600000Y-161900000I0J75000D01*
G01*
G37*
G36*
G01*
X64100000Y-161900000D02*
X64100000Y-160450000D01*
G75*
G02*
X64175000Y-160375000I75000J0D01*
G01*
X64325000Y-160375000D01*
G75*
G02*
X64400000Y-160450000I0J-75000D01*
G01*
X64400000Y-161900000D01*
G75*
G02*
X64325000Y-161975000I-75000J0D01*
G01*
X64175000Y-161975000D01*
G75*
G02*
X64100000Y-161900000I0J75000D01*
G01*
G37*
G36*
G01*
X64600000Y-161900000D02*
X64600000Y-160450000D01*
G75*
G02*
X64675000Y-160375000I75000J0D01*
G01*
X64825000Y-160375000D01*
G75*
G02*
X64900000Y-160450000I0J-75000D01*
G01*
X64900000Y-161900000D01*
G75*
G02*
X64825000Y-161975000I-75000J0D01*
G01*
X64675000Y-161975000D01*
G75*
G02*
X64600000Y-161900000I0J75000D01*
G01*
G37*
G36*
G01*
X65100000Y-161900000D02*
X65100000Y-160450000D01*
G75*
G02*
X65175000Y-160375000I75000J0D01*
G01*
X65325000Y-160375000D01*
G75*
G02*
X65400000Y-160450000I0J-75000D01*
G01*
X65400000Y-161900000D01*
G75*
G02*
X65325000Y-161975000I-75000J0D01*
G01*
X65175000Y-161975000D01*
G75*
G02*
X65100000Y-161900000I0J75000D01*
G01*
G37*
G36*
G01*
X65600000Y-161900000D02*
X65600000Y-160450000D01*
G75*
G02*
X65675000Y-160375000I75000J0D01*
G01*
X65825000Y-160375000D01*
G75*
G02*
X65900000Y-160450000I0J-75000D01*
G01*
X65900000Y-161900000D01*
G75*
G02*
X65825000Y-161975000I-75000J0D01*
G01*
X65675000Y-161975000D01*
G75*
G02*
X65600000Y-161900000I0J75000D01*
G01*
G37*
G36*
G01*
X66100000Y-161900000D02*
X66100000Y-160450000D01*
G75*
G02*
X66175000Y-160375000I75000J0D01*
G01*
X66325000Y-160375000D01*
G75*
G02*
X66400000Y-160450000I0J-75000D01*
G01*
X66400000Y-161900000D01*
G75*
G02*
X66325000Y-161975000I-75000J0D01*
G01*
X66175000Y-161975000D01*
G75*
G02*
X66100000Y-161900000I0J75000D01*
G01*
G37*
G36*
G01*
X66600000Y-161900000D02*
X66600000Y-160450000D01*
G75*
G02*
X66675000Y-160375000I75000J0D01*
G01*
X66825000Y-160375000D01*
G75*
G02*
X66900000Y-160450000I0J-75000D01*
G01*
X66900000Y-161900000D01*
G75*
G02*
X66825000Y-161975000I-75000J0D01*
G01*
X66675000Y-161975000D01*
G75*
G02*
X66600000Y-161900000I0J75000D01*
G01*
G37*
G36*
G01*
X67100000Y-161900000D02*
X67100000Y-160450000D01*
G75*
G02*
X67175000Y-160375000I75000J0D01*
G01*
X67325000Y-160375000D01*
G75*
G02*
X67400000Y-160450000I0J-75000D01*
G01*
X67400000Y-161900000D01*
G75*
G02*
X67325000Y-161975000I-75000J0D01*
G01*
X67175000Y-161975000D01*
G75*
G02*
X67100000Y-161900000I0J75000D01*
G01*
G37*
G36*
G01*
X67600000Y-161900000D02*
X67600000Y-160450000D01*
G75*
G02*
X67675000Y-160375000I75000J0D01*
G01*
X67825000Y-160375000D01*
G75*
G02*
X67900000Y-160450000I0J-75000D01*
G01*
X67900000Y-161900000D01*
G75*
G02*
X67825000Y-161975000I-75000J0D01*
G01*
X67675000Y-161975000D01*
G75*
G02*
X67600000Y-161900000I0J75000D01*
G01*
G37*
G36*
G01*
X68100000Y-161900000D02*
X68100000Y-160450000D01*
G75*
G02*
X68175000Y-160375000I75000J0D01*
G01*
X68325000Y-160375000D01*
G75*
G02*
X68400000Y-160450000I0J-75000D01*
G01*
X68400000Y-161900000D01*
G75*
G02*
X68325000Y-161975000I-75000J0D01*
G01*
X68175000Y-161975000D01*
G75*
G02*
X68100000Y-161900000I0J75000D01*
G01*
G37*
G36*
G01*
X68600000Y-161900000D02*
X68600000Y-160450000D01*
G75*
G02*
X68675000Y-160375000I75000J0D01*
G01*
X68825000Y-160375000D01*
G75*
G02*
X68900000Y-160450000I0J-75000D01*
G01*
X68900000Y-161900000D01*
G75*
G02*
X68825000Y-161975000I-75000J0D01*
G01*
X68675000Y-161975000D01*
G75*
G02*
X68600000Y-161900000I0J75000D01*
G01*
G37*
G36*
G01*
X69100000Y-161900000D02*
X69100000Y-160450000D01*
G75*
G02*
X69175000Y-160375000I75000J0D01*
G01*
X69325000Y-160375000D01*
G75*
G02*
X69400000Y-160450000I0J-75000D01*
G01*
X69400000Y-161900000D01*
G75*
G02*
X69325000Y-161975000I-75000J0D01*
G01*
X69175000Y-161975000D01*
G75*
G02*
X69100000Y-161900000I0J75000D01*
G01*
G37*
G36*
G01*
X69600000Y-161900000D02*
X69600000Y-160450000D01*
G75*
G02*
X69675000Y-160375000I75000J0D01*
G01*
X69825000Y-160375000D01*
G75*
G02*
X69900000Y-160450000I0J-75000D01*
G01*
X69900000Y-161900000D01*
G75*
G02*
X69825000Y-161975000I-75000J0D01*
G01*
X69675000Y-161975000D01*
G75*
G02*
X69600000Y-161900000I0J75000D01*
G01*
G37*
G36*
G01*
X70100000Y-161900000D02*
X70100000Y-160450000D01*
G75*
G02*
X70175000Y-160375000I75000J0D01*
G01*
X70325000Y-160375000D01*
G75*
G02*
X70400000Y-160450000I0J-75000D01*
G01*
X70400000Y-161900000D01*
G75*
G02*
X70325000Y-161975000I-75000J0D01*
G01*
X70175000Y-161975000D01*
G75*
G02*
X70100000Y-161900000I0J75000D01*
G01*
G37*
G36*
G01*
X70600000Y-161900000D02*
X70600000Y-160450000D01*
G75*
G02*
X70675000Y-160375000I75000J0D01*
G01*
X70825000Y-160375000D01*
G75*
G02*
X70900000Y-160450000I0J-75000D01*
G01*
X70900000Y-161900000D01*
G75*
G02*
X70825000Y-161975000I-75000J0D01*
G01*
X70675000Y-161975000D01*
G75*
G02*
X70600000Y-161900000I0J75000D01*
G01*
G37*
G36*
G01*
X71100000Y-161900000D02*
X71100000Y-160450000D01*
G75*
G02*
X71175000Y-160375000I75000J0D01*
G01*
X71325000Y-160375000D01*
G75*
G02*
X71400000Y-160450000I0J-75000D01*
G01*
X71400000Y-161900000D01*
G75*
G02*
X71325000Y-161975000I-75000J0D01*
G01*
X71175000Y-161975000D01*
G75*
G02*
X71100000Y-161900000I0J75000D01*
G01*
G37*
G36*
G01*
X71600000Y-161900000D02*
X71600000Y-160450000D01*
G75*
G02*
X71675000Y-160375000I75000J0D01*
G01*
X71825000Y-160375000D01*
G75*
G02*
X71900000Y-160450000I0J-75000D01*
G01*
X71900000Y-161900000D01*
G75*
G02*
X71825000Y-161975000I-75000J0D01*
G01*
X71675000Y-161975000D01*
G75*
G02*
X71600000Y-161900000I0J75000D01*
G01*
G37*
G36*
G01*
X72100000Y-161900000D02*
X72100000Y-160450000D01*
G75*
G02*
X72175000Y-160375000I75000J0D01*
G01*
X72325000Y-160375000D01*
G75*
G02*
X72400000Y-160450000I0J-75000D01*
G01*
X72400000Y-161900000D01*
G75*
G02*
X72325000Y-161975000I-75000J0D01*
G01*
X72175000Y-161975000D01*
G75*
G02*
X72100000Y-161900000I0J75000D01*
G01*
G37*
G36*
G01*
X72600000Y-161900000D02*
X72600000Y-160450000D01*
G75*
G02*
X72675000Y-160375000I75000J0D01*
G01*
X72825000Y-160375000D01*
G75*
G02*
X72900000Y-160450000I0J-75000D01*
G01*
X72900000Y-161900000D01*
G75*
G02*
X72825000Y-161975000I-75000J0D01*
G01*
X72675000Y-161975000D01*
G75*
G02*
X72600000Y-161900000I0J75000D01*
G01*
G37*
G36*
G01*
X73100000Y-161900000D02*
X73100000Y-160450000D01*
G75*
G02*
X73175000Y-160375000I75000J0D01*
G01*
X73325000Y-160375000D01*
G75*
G02*
X73400000Y-160450000I0J-75000D01*
G01*
X73400000Y-161900000D01*
G75*
G02*
X73325000Y-161975000I-75000J0D01*
G01*
X73175000Y-161975000D01*
G75*
G02*
X73100000Y-161900000I0J75000D01*
G01*
G37*
G36*
G01*
X73600000Y-161900000D02*
X73600000Y-160450000D01*
G75*
G02*
X73675000Y-160375000I75000J0D01*
G01*
X73825000Y-160375000D01*
G75*
G02*
X73900000Y-160450000I0J-75000D01*
G01*
X73900000Y-161900000D01*
G75*
G02*
X73825000Y-161975000I-75000J0D01*
G01*
X73675000Y-161975000D01*
G75*
G02*
X73600000Y-161900000I0J75000D01*
G01*
G37*
G36*
G01*
X74100000Y-161900000D02*
X74100000Y-160450000D01*
G75*
G02*
X74175000Y-160375000I75000J0D01*
G01*
X74325000Y-160375000D01*
G75*
G02*
X74400000Y-160450000I0J-75000D01*
G01*
X74400000Y-161900000D01*
G75*
G02*
X74325000Y-161975000I-75000J0D01*
G01*
X74175000Y-161975000D01*
G75*
G02*
X74100000Y-161900000I0J75000D01*
G01*
G37*
G36*
G01*
X74600000Y-161900000D02*
X74600000Y-160450000D01*
G75*
G02*
X74675000Y-160375000I75000J0D01*
G01*
X74825000Y-160375000D01*
G75*
G02*
X74900000Y-160450000I0J-75000D01*
G01*
X74900000Y-161900000D01*
G75*
G02*
X74825000Y-161975000I-75000J0D01*
G01*
X74675000Y-161975000D01*
G75*
G02*
X74600000Y-161900000I0J75000D01*
G01*
G37*
G36*
G01*
X75625000Y-159575000D02*
X75625000Y-159425000D01*
G75*
G02*
X75700000Y-159350000I75000J0D01*
G01*
X77150000Y-159350000D01*
G75*
G02*
X77225000Y-159425000I0J-75000D01*
G01*
X77225000Y-159575000D01*
G75*
G02*
X77150000Y-159650000I-75000J0D01*
G01*
X75700000Y-159650000D01*
G75*
G02*
X75625000Y-159575000I0J75000D01*
G01*
G37*
G36*
G01*
X75625000Y-159075000D02*
X75625000Y-158925000D01*
G75*
G02*
X75700000Y-158850000I75000J0D01*
G01*
X77150000Y-158850000D01*
G75*
G02*
X77225000Y-158925000I0J-75000D01*
G01*
X77225000Y-159075000D01*
G75*
G02*
X77150000Y-159150000I-75000J0D01*
G01*
X75700000Y-159150000D01*
G75*
G02*
X75625000Y-159075000I0J75000D01*
G01*
G37*
G36*
G01*
X75625000Y-158575000D02*
X75625000Y-158425000D01*
G75*
G02*
X75700000Y-158350000I75000J0D01*
G01*
X77150000Y-158350000D01*
G75*
G02*
X77225000Y-158425000I0J-75000D01*
G01*
X77225000Y-158575000D01*
G75*
G02*
X77150000Y-158650000I-75000J0D01*
G01*
X75700000Y-158650000D01*
G75*
G02*
X75625000Y-158575000I0J75000D01*
G01*
G37*
G36*
G01*
X75625000Y-158075000D02*
X75625000Y-157925000D01*
G75*
G02*
X75700000Y-157850000I75000J0D01*
G01*
X77150000Y-157850000D01*
G75*
G02*
X77225000Y-157925000I0J-75000D01*
G01*
X77225000Y-158075000D01*
G75*
G02*
X77150000Y-158150000I-75000J0D01*
G01*
X75700000Y-158150000D01*
G75*
G02*
X75625000Y-158075000I0J75000D01*
G01*
G37*
G36*
G01*
X75625000Y-157575000D02*
X75625000Y-157425000D01*
G75*
G02*
X75700000Y-157350000I75000J0D01*
G01*
X77150000Y-157350000D01*
G75*
G02*
X77225000Y-157425000I0J-75000D01*
G01*
X77225000Y-157575000D01*
G75*
G02*
X77150000Y-157650000I-75000J0D01*
G01*
X75700000Y-157650000D01*
G75*
G02*
X75625000Y-157575000I0J75000D01*
G01*
G37*
G36*
G01*
X75625000Y-157075000D02*
X75625000Y-156925000D01*
G75*
G02*
X75700000Y-156850000I75000J0D01*
G01*
X77150000Y-156850000D01*
G75*
G02*
X77225000Y-156925000I0J-75000D01*
G01*
X77225000Y-157075000D01*
G75*
G02*
X77150000Y-157150000I-75000J0D01*
G01*
X75700000Y-157150000D01*
G75*
G02*
X75625000Y-157075000I0J75000D01*
G01*
G37*
G36*
G01*
X75625000Y-156575000D02*
X75625000Y-156425000D01*
G75*
G02*
X75700000Y-156350000I75000J0D01*
G01*
X77150000Y-156350000D01*
G75*
G02*
X77225000Y-156425000I0J-75000D01*
G01*
X77225000Y-156575000D01*
G75*
G02*
X77150000Y-156650000I-75000J0D01*
G01*
X75700000Y-156650000D01*
G75*
G02*
X75625000Y-156575000I0J75000D01*
G01*
G37*
G36*
G01*
X75625000Y-156075000D02*
X75625000Y-155925000D01*
G75*
G02*
X75700000Y-155850000I75000J0D01*
G01*
X77150000Y-155850000D01*
G75*
G02*
X77225000Y-155925000I0J-75000D01*
G01*
X77225000Y-156075000D01*
G75*
G02*
X77150000Y-156150000I-75000J0D01*
G01*
X75700000Y-156150000D01*
G75*
G02*
X75625000Y-156075000I0J75000D01*
G01*
G37*
G36*
G01*
X75625000Y-155575000D02*
X75625000Y-155425000D01*
G75*
G02*
X75700000Y-155350000I75000J0D01*
G01*
X77150000Y-155350000D01*
G75*
G02*
X77225000Y-155425000I0J-75000D01*
G01*
X77225000Y-155575000D01*
G75*
G02*
X77150000Y-155650000I-75000J0D01*
G01*
X75700000Y-155650000D01*
G75*
G02*
X75625000Y-155575000I0J75000D01*
G01*
G37*
G36*
G01*
X75625000Y-155075000D02*
X75625000Y-154925000D01*
G75*
G02*
X75700000Y-154850000I75000J0D01*
G01*
X77150000Y-154850000D01*
G75*
G02*
X77225000Y-154925000I0J-75000D01*
G01*
X77225000Y-155075000D01*
G75*
G02*
X77150000Y-155150000I-75000J0D01*
G01*
X75700000Y-155150000D01*
G75*
G02*
X75625000Y-155075000I0J75000D01*
G01*
G37*
G36*
G01*
X75625000Y-154575000D02*
X75625000Y-154425000D01*
G75*
G02*
X75700000Y-154350000I75000J0D01*
G01*
X77150000Y-154350000D01*
G75*
G02*
X77225000Y-154425000I0J-75000D01*
G01*
X77225000Y-154575000D01*
G75*
G02*
X77150000Y-154650000I-75000J0D01*
G01*
X75700000Y-154650000D01*
G75*
G02*
X75625000Y-154575000I0J75000D01*
G01*
G37*
G36*
G01*
X75625000Y-154075000D02*
X75625000Y-153925000D01*
G75*
G02*
X75700000Y-153850000I75000J0D01*
G01*
X77150000Y-153850000D01*
G75*
G02*
X77225000Y-153925000I0J-75000D01*
G01*
X77225000Y-154075000D01*
G75*
G02*
X77150000Y-154150000I-75000J0D01*
G01*
X75700000Y-154150000D01*
G75*
G02*
X75625000Y-154075000I0J75000D01*
G01*
G37*
G36*
G01*
X75625000Y-153575000D02*
X75625000Y-153425000D01*
G75*
G02*
X75700000Y-153350000I75000J0D01*
G01*
X77150000Y-153350000D01*
G75*
G02*
X77225000Y-153425000I0J-75000D01*
G01*
X77225000Y-153575000D01*
G75*
G02*
X77150000Y-153650000I-75000J0D01*
G01*
X75700000Y-153650000D01*
G75*
G02*
X75625000Y-153575000I0J75000D01*
G01*
G37*
G36*
G01*
X75625000Y-153075000D02*
X75625000Y-152925000D01*
G75*
G02*
X75700000Y-152850000I75000J0D01*
G01*
X77150000Y-152850000D01*
G75*
G02*
X77225000Y-152925000I0J-75000D01*
G01*
X77225000Y-153075000D01*
G75*
G02*
X77150000Y-153150000I-75000J0D01*
G01*
X75700000Y-153150000D01*
G75*
G02*
X75625000Y-153075000I0J75000D01*
G01*
G37*
G36*
G01*
X75625000Y-152575000D02*
X75625000Y-152425000D01*
G75*
G02*
X75700000Y-152350000I75000J0D01*
G01*
X77150000Y-152350000D01*
G75*
G02*
X77225000Y-152425000I0J-75000D01*
G01*
X77225000Y-152575000D01*
G75*
G02*
X77150000Y-152650000I-75000J0D01*
G01*
X75700000Y-152650000D01*
G75*
G02*
X75625000Y-152575000I0J75000D01*
G01*
G37*
G36*
G01*
X75625000Y-152075000D02*
X75625000Y-151925000D01*
G75*
G02*
X75700000Y-151850000I75000J0D01*
G01*
X77150000Y-151850000D01*
G75*
G02*
X77225000Y-151925000I0J-75000D01*
G01*
X77225000Y-152075000D01*
G75*
G02*
X77150000Y-152150000I-75000J0D01*
G01*
X75700000Y-152150000D01*
G75*
G02*
X75625000Y-152075000I0J75000D01*
G01*
G37*
G36*
G01*
X75625000Y-151575000D02*
X75625000Y-151425000D01*
G75*
G02*
X75700000Y-151350000I75000J0D01*
G01*
X77150000Y-151350000D01*
G75*
G02*
X77225000Y-151425000I0J-75000D01*
G01*
X77225000Y-151575000D01*
G75*
G02*
X77150000Y-151650000I-75000J0D01*
G01*
X75700000Y-151650000D01*
G75*
G02*
X75625000Y-151575000I0J75000D01*
G01*
G37*
G36*
G01*
X75625000Y-151075000D02*
X75625000Y-150925000D01*
G75*
G02*
X75700000Y-150850000I75000J0D01*
G01*
X77150000Y-150850000D01*
G75*
G02*
X77225000Y-150925000I0J-75000D01*
G01*
X77225000Y-151075000D01*
G75*
G02*
X77150000Y-151150000I-75000J0D01*
G01*
X75700000Y-151150000D01*
G75*
G02*
X75625000Y-151075000I0J75000D01*
G01*
G37*
G36*
G01*
X75625000Y-150575000D02*
X75625000Y-150425000D01*
G75*
G02*
X75700000Y-150350000I75000J0D01*
G01*
X77150000Y-150350000D01*
G75*
G02*
X77225000Y-150425000I0J-75000D01*
G01*
X77225000Y-150575000D01*
G75*
G02*
X77150000Y-150650000I-75000J0D01*
G01*
X75700000Y-150650000D01*
G75*
G02*
X75625000Y-150575000I0J75000D01*
G01*
G37*
G36*
G01*
X75625000Y-150075000D02*
X75625000Y-149925000D01*
G75*
G02*
X75700000Y-149850000I75000J0D01*
G01*
X77150000Y-149850000D01*
G75*
G02*
X77225000Y-149925000I0J-75000D01*
G01*
X77225000Y-150075000D01*
G75*
G02*
X77150000Y-150150000I-75000J0D01*
G01*
X75700000Y-150150000D01*
G75*
G02*
X75625000Y-150075000I0J75000D01*
G01*
G37*
G36*
G01*
X75625000Y-149575000D02*
X75625000Y-149425000D01*
G75*
G02*
X75700000Y-149350000I75000J0D01*
G01*
X77150000Y-149350000D01*
G75*
G02*
X77225000Y-149425000I0J-75000D01*
G01*
X77225000Y-149575000D01*
G75*
G02*
X77150000Y-149650000I-75000J0D01*
G01*
X75700000Y-149650000D01*
G75*
G02*
X75625000Y-149575000I0J75000D01*
G01*
G37*
G36*
G01*
X75625000Y-149075000D02*
X75625000Y-148925000D01*
G75*
G02*
X75700000Y-148850000I75000J0D01*
G01*
X77150000Y-148850000D01*
G75*
G02*
X77225000Y-148925000I0J-75000D01*
G01*
X77225000Y-149075000D01*
G75*
G02*
X77150000Y-149150000I-75000J0D01*
G01*
X75700000Y-149150000D01*
G75*
G02*
X75625000Y-149075000I0J75000D01*
G01*
G37*
G36*
G01*
X75625000Y-148575000D02*
X75625000Y-148425000D01*
G75*
G02*
X75700000Y-148350000I75000J0D01*
G01*
X77150000Y-148350000D01*
G75*
G02*
X77225000Y-148425000I0J-75000D01*
G01*
X77225000Y-148575000D01*
G75*
G02*
X77150000Y-148650000I-75000J0D01*
G01*
X75700000Y-148650000D01*
G75*
G02*
X75625000Y-148575000I0J75000D01*
G01*
G37*
G36*
G01*
X75625000Y-148075000D02*
X75625000Y-147925000D01*
G75*
G02*
X75700000Y-147850000I75000J0D01*
G01*
X77150000Y-147850000D01*
G75*
G02*
X77225000Y-147925000I0J-75000D01*
G01*
X77225000Y-148075000D01*
G75*
G02*
X77150000Y-148150000I-75000J0D01*
G01*
X75700000Y-148150000D01*
G75*
G02*
X75625000Y-148075000I0J75000D01*
G01*
G37*
G36*
G01*
X75625000Y-147575000D02*
X75625000Y-147425000D01*
G75*
G02*
X75700000Y-147350000I75000J0D01*
G01*
X77150000Y-147350000D01*
G75*
G02*
X77225000Y-147425000I0J-75000D01*
G01*
X77225000Y-147575000D01*
G75*
G02*
X77150000Y-147650000I-75000J0D01*
G01*
X75700000Y-147650000D01*
G75*
G02*
X75625000Y-147575000I0J75000D01*
G01*
G37*
G36*
G01*
X74600000Y-146550000D02*
X74600000Y-145100000D01*
G75*
G02*
X74675000Y-145025000I75000J0D01*
G01*
X74825000Y-145025000D01*
G75*
G02*
X74900000Y-145100000I0J-75000D01*
G01*
X74900000Y-146550000D01*
G75*
G02*
X74825000Y-146625000I-75000J0D01*
G01*
X74675000Y-146625000D01*
G75*
G02*
X74600000Y-146550000I0J75000D01*
G01*
G37*
G36*
G01*
X74100000Y-146550000D02*
X74100000Y-145100000D01*
G75*
G02*
X74175000Y-145025000I75000J0D01*
G01*
X74325000Y-145025000D01*
G75*
G02*
X74400000Y-145100000I0J-75000D01*
G01*
X74400000Y-146550000D01*
G75*
G02*
X74325000Y-146625000I-75000J0D01*
G01*
X74175000Y-146625000D01*
G75*
G02*
X74100000Y-146550000I0J75000D01*
G01*
G37*
G36*
G01*
X73600000Y-146550000D02*
X73600000Y-145100000D01*
G75*
G02*
X73675000Y-145025000I75000J0D01*
G01*
X73825000Y-145025000D01*
G75*
G02*
X73900000Y-145100000I0J-75000D01*
G01*
X73900000Y-146550000D01*
G75*
G02*
X73825000Y-146625000I-75000J0D01*
G01*
X73675000Y-146625000D01*
G75*
G02*
X73600000Y-146550000I0J75000D01*
G01*
G37*
G36*
G01*
X73100000Y-146550000D02*
X73100000Y-145100000D01*
G75*
G02*
X73175000Y-145025000I75000J0D01*
G01*
X73325000Y-145025000D01*
G75*
G02*
X73400000Y-145100000I0J-75000D01*
G01*
X73400000Y-146550000D01*
G75*
G02*
X73325000Y-146625000I-75000J0D01*
G01*
X73175000Y-146625000D01*
G75*
G02*
X73100000Y-146550000I0J75000D01*
G01*
G37*
G36*
G01*
X72600000Y-146550000D02*
X72600000Y-145100000D01*
G75*
G02*
X72675000Y-145025000I75000J0D01*
G01*
X72825000Y-145025000D01*
G75*
G02*
X72900000Y-145100000I0J-75000D01*
G01*
X72900000Y-146550000D01*
G75*
G02*
X72825000Y-146625000I-75000J0D01*
G01*
X72675000Y-146625000D01*
G75*
G02*
X72600000Y-146550000I0J75000D01*
G01*
G37*
G36*
G01*
X72100000Y-146550000D02*
X72100000Y-145100000D01*
G75*
G02*
X72175000Y-145025000I75000J0D01*
G01*
X72325000Y-145025000D01*
G75*
G02*
X72400000Y-145100000I0J-75000D01*
G01*
X72400000Y-146550000D01*
G75*
G02*
X72325000Y-146625000I-75000J0D01*
G01*
X72175000Y-146625000D01*
G75*
G02*
X72100000Y-146550000I0J75000D01*
G01*
G37*
G36*
G01*
X71600000Y-146550000D02*
X71600000Y-145100000D01*
G75*
G02*
X71675000Y-145025000I75000J0D01*
G01*
X71825000Y-145025000D01*
G75*
G02*
X71900000Y-145100000I0J-75000D01*
G01*
X71900000Y-146550000D01*
G75*
G02*
X71825000Y-146625000I-75000J0D01*
G01*
X71675000Y-146625000D01*
G75*
G02*
X71600000Y-146550000I0J75000D01*
G01*
G37*
G36*
G01*
X71100000Y-146550000D02*
X71100000Y-145100000D01*
G75*
G02*
X71175000Y-145025000I75000J0D01*
G01*
X71325000Y-145025000D01*
G75*
G02*
X71400000Y-145100000I0J-75000D01*
G01*
X71400000Y-146550000D01*
G75*
G02*
X71325000Y-146625000I-75000J0D01*
G01*
X71175000Y-146625000D01*
G75*
G02*
X71100000Y-146550000I0J75000D01*
G01*
G37*
G36*
G01*
X70600000Y-146550000D02*
X70600000Y-145100000D01*
G75*
G02*
X70675000Y-145025000I75000J0D01*
G01*
X70825000Y-145025000D01*
G75*
G02*
X70900000Y-145100000I0J-75000D01*
G01*
X70900000Y-146550000D01*
G75*
G02*
X70825000Y-146625000I-75000J0D01*
G01*
X70675000Y-146625000D01*
G75*
G02*
X70600000Y-146550000I0J75000D01*
G01*
G37*
G36*
G01*
X70100000Y-146550000D02*
X70100000Y-145100000D01*
G75*
G02*
X70175000Y-145025000I75000J0D01*
G01*
X70325000Y-145025000D01*
G75*
G02*
X70400000Y-145100000I0J-75000D01*
G01*
X70400000Y-146550000D01*
G75*
G02*
X70325000Y-146625000I-75000J0D01*
G01*
X70175000Y-146625000D01*
G75*
G02*
X70100000Y-146550000I0J75000D01*
G01*
G37*
G36*
G01*
X69600000Y-146550000D02*
X69600000Y-145100000D01*
G75*
G02*
X69675000Y-145025000I75000J0D01*
G01*
X69825000Y-145025000D01*
G75*
G02*
X69900000Y-145100000I0J-75000D01*
G01*
X69900000Y-146550000D01*
G75*
G02*
X69825000Y-146625000I-75000J0D01*
G01*
X69675000Y-146625000D01*
G75*
G02*
X69600000Y-146550000I0J75000D01*
G01*
G37*
G36*
G01*
X69100000Y-146550000D02*
X69100000Y-145100000D01*
G75*
G02*
X69175000Y-145025000I75000J0D01*
G01*
X69325000Y-145025000D01*
G75*
G02*
X69400000Y-145100000I0J-75000D01*
G01*
X69400000Y-146550000D01*
G75*
G02*
X69325000Y-146625000I-75000J0D01*
G01*
X69175000Y-146625000D01*
G75*
G02*
X69100000Y-146550000I0J75000D01*
G01*
G37*
G36*
G01*
X68600000Y-146550000D02*
X68600000Y-145100000D01*
G75*
G02*
X68675000Y-145025000I75000J0D01*
G01*
X68825000Y-145025000D01*
G75*
G02*
X68900000Y-145100000I0J-75000D01*
G01*
X68900000Y-146550000D01*
G75*
G02*
X68825000Y-146625000I-75000J0D01*
G01*
X68675000Y-146625000D01*
G75*
G02*
X68600000Y-146550000I0J75000D01*
G01*
G37*
G36*
G01*
X68100000Y-146550000D02*
X68100000Y-145100000D01*
G75*
G02*
X68175000Y-145025000I75000J0D01*
G01*
X68325000Y-145025000D01*
G75*
G02*
X68400000Y-145100000I0J-75000D01*
G01*
X68400000Y-146550000D01*
G75*
G02*
X68325000Y-146625000I-75000J0D01*
G01*
X68175000Y-146625000D01*
G75*
G02*
X68100000Y-146550000I0J75000D01*
G01*
G37*
G36*
G01*
X67600000Y-146550000D02*
X67600000Y-145100000D01*
G75*
G02*
X67675000Y-145025000I75000J0D01*
G01*
X67825000Y-145025000D01*
G75*
G02*
X67900000Y-145100000I0J-75000D01*
G01*
X67900000Y-146550000D01*
G75*
G02*
X67825000Y-146625000I-75000J0D01*
G01*
X67675000Y-146625000D01*
G75*
G02*
X67600000Y-146550000I0J75000D01*
G01*
G37*
G36*
G01*
X67100000Y-146550000D02*
X67100000Y-145100000D01*
G75*
G02*
X67175000Y-145025000I75000J0D01*
G01*
X67325000Y-145025000D01*
G75*
G02*
X67400000Y-145100000I0J-75000D01*
G01*
X67400000Y-146550000D01*
G75*
G02*
X67325000Y-146625000I-75000J0D01*
G01*
X67175000Y-146625000D01*
G75*
G02*
X67100000Y-146550000I0J75000D01*
G01*
G37*
G36*
G01*
X66600000Y-146550000D02*
X66600000Y-145100000D01*
G75*
G02*
X66675000Y-145025000I75000J0D01*
G01*
X66825000Y-145025000D01*
G75*
G02*
X66900000Y-145100000I0J-75000D01*
G01*
X66900000Y-146550000D01*
G75*
G02*
X66825000Y-146625000I-75000J0D01*
G01*
X66675000Y-146625000D01*
G75*
G02*
X66600000Y-146550000I0J75000D01*
G01*
G37*
G36*
G01*
X66100000Y-146550000D02*
X66100000Y-145100000D01*
G75*
G02*
X66175000Y-145025000I75000J0D01*
G01*
X66325000Y-145025000D01*
G75*
G02*
X66400000Y-145100000I0J-75000D01*
G01*
X66400000Y-146550000D01*
G75*
G02*
X66325000Y-146625000I-75000J0D01*
G01*
X66175000Y-146625000D01*
G75*
G02*
X66100000Y-146550000I0J75000D01*
G01*
G37*
G36*
G01*
X65600000Y-146550000D02*
X65600000Y-145100000D01*
G75*
G02*
X65675000Y-145025000I75000J0D01*
G01*
X65825000Y-145025000D01*
G75*
G02*
X65900000Y-145100000I0J-75000D01*
G01*
X65900000Y-146550000D01*
G75*
G02*
X65825000Y-146625000I-75000J0D01*
G01*
X65675000Y-146625000D01*
G75*
G02*
X65600000Y-146550000I0J75000D01*
G01*
G37*
G36*
G01*
X65100000Y-146550000D02*
X65100000Y-145100000D01*
G75*
G02*
X65175000Y-145025000I75000J0D01*
G01*
X65325000Y-145025000D01*
G75*
G02*
X65400000Y-145100000I0J-75000D01*
G01*
X65400000Y-146550000D01*
G75*
G02*
X65325000Y-146625000I-75000J0D01*
G01*
X65175000Y-146625000D01*
G75*
G02*
X65100000Y-146550000I0J75000D01*
G01*
G37*
G36*
G01*
X64600000Y-146550000D02*
X64600000Y-145100000D01*
G75*
G02*
X64675000Y-145025000I75000J0D01*
G01*
X64825000Y-145025000D01*
G75*
G02*
X64900000Y-145100000I0J-75000D01*
G01*
X64900000Y-146550000D01*
G75*
G02*
X64825000Y-146625000I-75000J0D01*
G01*
X64675000Y-146625000D01*
G75*
G02*
X64600000Y-146550000I0J75000D01*
G01*
G37*
G36*
G01*
X64100000Y-146550000D02*
X64100000Y-145100000D01*
G75*
G02*
X64175000Y-145025000I75000J0D01*
G01*
X64325000Y-145025000D01*
G75*
G02*
X64400000Y-145100000I0J-75000D01*
G01*
X64400000Y-146550000D01*
G75*
G02*
X64325000Y-146625000I-75000J0D01*
G01*
X64175000Y-146625000D01*
G75*
G02*
X64100000Y-146550000I0J75000D01*
G01*
G37*
G36*
G01*
X63600000Y-146550000D02*
X63600000Y-145100000D01*
G75*
G02*
X63675000Y-145025000I75000J0D01*
G01*
X63825000Y-145025000D01*
G75*
G02*
X63900000Y-145100000I0J-75000D01*
G01*
X63900000Y-146550000D01*
G75*
G02*
X63825000Y-146625000I-75000J0D01*
G01*
X63675000Y-146625000D01*
G75*
G02*
X63600000Y-146550000I0J75000D01*
G01*
G37*
G36*
G01*
X63100000Y-146550000D02*
X63100000Y-145100000D01*
G75*
G02*
X63175000Y-145025000I75000J0D01*
G01*
X63325000Y-145025000D01*
G75*
G02*
X63400000Y-145100000I0J-75000D01*
G01*
X63400000Y-146550000D01*
G75*
G02*
X63325000Y-146625000I-75000J0D01*
G01*
X63175000Y-146625000D01*
G75*
G02*
X63100000Y-146550000I0J75000D01*
G01*
G37*
G36*
G01*
X62600000Y-146550000D02*
X62600000Y-145100000D01*
G75*
G02*
X62675000Y-145025000I75000J0D01*
G01*
X62825000Y-145025000D01*
G75*
G02*
X62900000Y-145100000I0J-75000D01*
G01*
X62900000Y-146550000D01*
G75*
G02*
X62825000Y-146625000I-75000J0D01*
G01*
X62675000Y-146625000D01*
G75*
G02*
X62600000Y-146550000I0J75000D01*
G01*
G37*
%TD*%
%TO.C,U7*%
G36*
G01*
X110405000Y-152850000D02*
X110405000Y-153850000D01*
G75*
G02*
X110280000Y-153975000I-125000J0D01*
G01*
X110030000Y-153975000D01*
G75*
G02*
X109905000Y-153850000I0J125000D01*
G01*
X109905000Y-152850000D01*
G75*
G02*
X110030000Y-152725000I125000J0D01*
G01*
X110280000Y-152725000D01*
G75*
G02*
X110405000Y-152850000I0J-125000D01*
G01*
G37*
G36*
G01*
X109135000Y-152850000D02*
X109135000Y-153850000D01*
G75*
G02*
X109010000Y-153975000I-125000J0D01*
G01*
X108760000Y-153975000D01*
G75*
G02*
X108635000Y-153850000I0J125000D01*
G01*
X108635000Y-152850000D01*
G75*
G02*
X108760000Y-152725000I125000J0D01*
G01*
X109010000Y-152725000D01*
G75*
G02*
X109135000Y-152850000I0J-125000D01*
G01*
G37*
G36*
G01*
X107865000Y-152850000D02*
X107865000Y-153850000D01*
G75*
G02*
X107740000Y-153975000I-125000J0D01*
G01*
X107490000Y-153975000D01*
G75*
G02*
X107365000Y-153850000I0J125000D01*
G01*
X107365000Y-152850000D01*
G75*
G02*
X107490000Y-152725000I125000J0D01*
G01*
X107740000Y-152725000D01*
G75*
G02*
X107865000Y-152850000I0J-125000D01*
G01*
G37*
G36*
G01*
X106595000Y-152850000D02*
X106595000Y-153850000D01*
G75*
G02*
X106470000Y-153975000I-125000J0D01*
G01*
X106220000Y-153975000D01*
G75*
G02*
X106095000Y-153850000I0J125000D01*
G01*
X106095000Y-152850000D01*
G75*
G02*
X106220000Y-152725000I125000J0D01*
G01*
X106470000Y-152725000D01*
G75*
G02*
X106595000Y-152850000I0J-125000D01*
G01*
G37*
G36*
G01*
X106595000Y-147350000D02*
X106595000Y-148350000D01*
G75*
G02*
X106470000Y-148475000I-125000J0D01*
G01*
X106220000Y-148475000D01*
G75*
G02*
X106095000Y-148350000I0J125000D01*
G01*
X106095000Y-147350000D01*
G75*
G02*
X106220000Y-147225000I125000J0D01*
G01*
X106470000Y-147225000D01*
G75*
G02*
X106595000Y-147350000I0J-125000D01*
G01*
G37*
G36*
G01*
X107865000Y-147350000D02*
X107865000Y-148350000D01*
G75*
G02*
X107740000Y-148475000I-125000J0D01*
G01*
X107490000Y-148475000D01*
G75*
G02*
X107365000Y-148350000I0J125000D01*
G01*
X107365000Y-147350000D01*
G75*
G02*
X107490000Y-147225000I125000J0D01*
G01*
X107740000Y-147225000D01*
G75*
G02*
X107865000Y-147350000I0J-125000D01*
G01*
G37*
G36*
G01*
X109135000Y-147350000D02*
X109135000Y-148350000D01*
G75*
G02*
X109010000Y-148475000I-125000J0D01*
G01*
X108760000Y-148475000D01*
G75*
G02*
X108635000Y-148350000I0J125000D01*
G01*
X108635000Y-147350000D01*
G75*
G02*
X108760000Y-147225000I125000J0D01*
G01*
X109010000Y-147225000D01*
G75*
G02*
X109135000Y-147350000I0J-125000D01*
G01*
G37*
G36*
G01*
X110405000Y-147350000D02*
X110405000Y-148350000D01*
G75*
G02*
X110280000Y-148475000I-125000J0D01*
G01*
X110030000Y-148475000D01*
G75*
G02*
X109905000Y-148350000I0J125000D01*
G01*
X109905000Y-147350000D01*
G75*
G02*
X110030000Y-147225000I125000J0D01*
G01*
X110280000Y-147225000D01*
G75*
G02*
X110405000Y-147350000I0J-125000D01*
G01*
G37*
%TD*%
%TO.C,R1*%
G36*
G01*
X64262500Y-140350000D02*
X64737500Y-140350000D01*
G75*
G02*
X64975000Y-140587500I0J-237500D01*
G01*
X64975000Y-141087500D01*
G75*
G02*
X64737500Y-141325000I-237500J0D01*
G01*
X64262500Y-141325000D01*
G75*
G02*
X64025000Y-141087500I0J237500D01*
G01*
X64025000Y-140587500D01*
G75*
G02*
X64262500Y-140350000I237500J0D01*
G01*
G37*
G36*
G01*
X64262500Y-142175000D02*
X64737500Y-142175000D01*
G75*
G02*
X64975000Y-142412500I0J-237500D01*
G01*
X64975000Y-142912500D01*
G75*
G02*
X64737500Y-143150000I-237500J0D01*
G01*
X64262500Y-143150000D01*
G75*
G02*
X64025000Y-142912500I0J237500D01*
G01*
X64025000Y-142412500D01*
G75*
G02*
X64262500Y-142175000I237500J0D01*
G01*
G37*
%TD*%
%TO.C,C7*%
G36*
G01*
X81212500Y-148987500D02*
X81212500Y-148512500D01*
G75*
G02*
X81450000Y-148275000I237500J0D01*
G01*
X82050000Y-148275000D01*
G75*
G02*
X82287500Y-148512500I0J-237500D01*
G01*
X82287500Y-148987500D01*
G75*
G02*
X82050000Y-149225000I-237500J0D01*
G01*
X81450000Y-149225000D01*
G75*
G02*
X81212500Y-148987500I0J237500D01*
G01*
G37*
G36*
G01*
X79487500Y-148987500D02*
X79487500Y-148512500D01*
G75*
G02*
X79725000Y-148275000I237500J0D01*
G01*
X80325000Y-148275000D01*
G75*
G02*
X80562500Y-148512500I0J-237500D01*
G01*
X80562500Y-148987500D01*
G75*
G02*
X80325000Y-149225000I-237500J0D01*
G01*
X79725000Y-149225000D01*
G75*
G02*
X79487500Y-148987500I0J237500D01*
G01*
G37*
%TD*%
%TO.C,C6*%
G36*
G01*
X74512500Y-164575000D02*
X74987500Y-164575000D01*
G75*
G02*
X75225000Y-164812500I0J-237500D01*
G01*
X75225000Y-165412500D01*
G75*
G02*
X74987500Y-165650000I-237500J0D01*
G01*
X74512500Y-165650000D01*
G75*
G02*
X74275000Y-165412500I0J237500D01*
G01*
X74275000Y-164812500D01*
G75*
G02*
X74512500Y-164575000I237500J0D01*
G01*
G37*
G36*
G01*
X74512500Y-162850000D02*
X74987500Y-162850000D01*
G75*
G02*
X75225000Y-163087500I0J-237500D01*
G01*
X75225000Y-163687500D01*
G75*
G02*
X74987500Y-163925000I-237500J0D01*
G01*
X74512500Y-163925000D01*
G75*
G02*
X74275000Y-163687500I0J237500D01*
G01*
X74275000Y-163087500D01*
G75*
G02*
X74512500Y-162850000I237500J0D01*
G01*
G37*
%TD*%
%TO.C,R43*%
G36*
G01*
X132045000Y-112747500D02*
X132045000Y-113252500D01*
G75*
G02*
X131897500Y-113400000I-147500J0D01*
G01*
X131602500Y-113400000D01*
G75*
G02*
X131455000Y-113252500I0J147500D01*
G01*
X131455000Y-112747500D01*
G75*
G02*
X131602500Y-112600000I147500J0D01*
G01*
X131897500Y-112600000D01*
G75*
G02*
X132045000Y-112747500I0J-147500D01*
G01*
G37*
G36*
G01*
X133545000Y-112747500D02*
X133545000Y-113252500D01*
G75*
G02*
X133397500Y-113400000I-147500J0D01*
G01*
X133102500Y-113400000D01*
G75*
G02*
X132955000Y-113252500I0J147500D01*
G01*
X132955000Y-112747500D01*
G75*
G02*
X133102500Y-112600000I147500J0D01*
G01*
X133397500Y-112600000D01*
G75*
G02*
X133545000Y-112747500I0J-147500D01*
G01*
G37*
%TD*%
%TO.C,R34*%
G36*
G01*
X132295000Y-101247500D02*
X132295000Y-101752500D01*
G75*
G02*
X132147500Y-101900000I-147500J0D01*
G01*
X131852500Y-101900000D01*
G75*
G02*
X131705000Y-101752500I0J147500D01*
G01*
X131705000Y-101247500D01*
G75*
G02*
X131852500Y-101100000I147500J0D01*
G01*
X132147500Y-101100000D01*
G75*
G02*
X132295000Y-101247500I0J-147500D01*
G01*
G37*
G36*
G01*
X133795000Y-101247500D02*
X133795000Y-101752500D01*
G75*
G02*
X133647500Y-101900000I-147500J0D01*
G01*
X133352500Y-101900000D01*
G75*
G02*
X133205000Y-101752500I0J147500D01*
G01*
X133205000Y-101247500D01*
G75*
G02*
X133352500Y-101100000I147500J0D01*
G01*
X133647500Y-101100000D01*
G75*
G02*
X133795000Y-101247500I0J-147500D01*
G01*
G37*
%TD*%
%TO.C,R33*%
G36*
G01*
X132295000Y-129997500D02*
X132295000Y-130502500D01*
G75*
G02*
X132147500Y-130650000I-147500J0D01*
G01*
X131852500Y-130650000D01*
G75*
G02*
X131705000Y-130502500I0J147500D01*
G01*
X131705000Y-129997500D01*
G75*
G02*
X131852500Y-129850000I147500J0D01*
G01*
X132147500Y-129850000D01*
G75*
G02*
X132295000Y-129997500I0J-147500D01*
G01*
G37*
G36*
G01*
X133795000Y-129997500D02*
X133795000Y-130502500D01*
G75*
G02*
X133647500Y-130650000I-147500J0D01*
G01*
X133352500Y-130650000D01*
G75*
G02*
X133205000Y-130502500I0J147500D01*
G01*
X133205000Y-129997500D01*
G75*
G02*
X133352500Y-129850000I147500J0D01*
G01*
X133647500Y-129850000D01*
G75*
G02*
X133795000Y-129997500I0J-147500D01*
G01*
G37*
%TD*%
%TO.C,R32*%
G36*
G01*
X131795000Y-118747500D02*
X131795000Y-119252500D01*
G75*
G02*
X131647500Y-119400000I-147500J0D01*
G01*
X131352500Y-119400000D01*
G75*
G02*
X131205000Y-119252500I0J147500D01*
G01*
X131205000Y-118747500D01*
G75*
G02*
X131352500Y-118600000I147500J0D01*
G01*
X131647500Y-118600000D01*
G75*
G02*
X131795000Y-118747500I0J-147500D01*
G01*
G37*
G36*
G01*
X133295000Y-118747500D02*
X133295000Y-119252500D01*
G75*
G02*
X133147500Y-119400000I-147500J0D01*
G01*
X132852500Y-119400000D01*
G75*
G02*
X132705000Y-119252500I0J147500D01*
G01*
X132705000Y-118747500D01*
G75*
G02*
X132852500Y-118600000I147500J0D01*
G01*
X133147500Y-118600000D01*
G75*
G02*
X133295000Y-118747500I0J-147500D01*
G01*
G37*
%TD*%
%TO.C,R31*%
G36*
G01*
X148439999Y-94994000D02*
X148439999Y-94489000D01*
G75*
G02*
X148587499Y-94341500I147500J0D01*
G01*
X148882499Y-94341500D01*
G75*
G02*
X149029999Y-94489000I0J-147500D01*
G01*
X149029999Y-94994000D01*
G75*
G02*
X148882499Y-95141500I-147500J0D01*
G01*
X148587499Y-95141500D01*
G75*
G02*
X148439999Y-94994000I0J147500D01*
G01*
G37*
G36*
G01*
X146939999Y-94994000D02*
X146939999Y-94489000D01*
G75*
G02*
X147087499Y-94341500I147500J0D01*
G01*
X147382499Y-94341500D01*
G75*
G02*
X147529999Y-94489000I0J-147500D01*
G01*
X147529999Y-94994000D01*
G75*
G02*
X147382499Y-95141500I-147500J0D01*
G01*
X147087499Y-95141500D01*
G75*
G02*
X146939999Y-94994000I0J147500D01*
G01*
G37*
%TD*%
%TO.C,R30*%
G36*
G01*
X141737499Y-91286500D02*
X141232499Y-91286500D01*
G75*
G02*
X141084999Y-91139000I0J147500D01*
G01*
X141084999Y-90844000D01*
G75*
G02*
X141232499Y-90696500I147500J0D01*
G01*
X141737499Y-90696500D01*
G75*
G02*
X141884999Y-90844000I0J-147500D01*
G01*
X141884999Y-91139000D01*
G75*
G02*
X141737499Y-91286500I-147500J0D01*
G01*
G37*
G36*
G01*
X141737499Y-92786500D02*
X141232499Y-92786500D01*
G75*
G02*
X141084999Y-92639000I0J147500D01*
G01*
X141084999Y-92344000D01*
G75*
G02*
X141232499Y-92196500I147500J0D01*
G01*
X141737499Y-92196500D01*
G75*
G02*
X141884999Y-92344000I0J-147500D01*
G01*
X141884999Y-92639000D01*
G75*
G02*
X141737499Y-92786500I-147500J0D01*
G01*
G37*
%TD*%
%TO.C,R29*%
G36*
G01*
X143237499Y-91286500D02*
X142732499Y-91286500D01*
G75*
G02*
X142584999Y-91139000I0J147500D01*
G01*
X142584999Y-90844000D01*
G75*
G02*
X142732499Y-90696500I147500J0D01*
G01*
X143237499Y-90696500D01*
G75*
G02*
X143384999Y-90844000I0J-147500D01*
G01*
X143384999Y-91139000D01*
G75*
G02*
X143237499Y-91286500I-147500J0D01*
G01*
G37*
G36*
G01*
X143237499Y-92786500D02*
X142732499Y-92786500D01*
G75*
G02*
X142584999Y-92639000I0J147500D01*
G01*
X142584999Y-92344000D01*
G75*
G02*
X142732499Y-92196500I147500J0D01*
G01*
X143237499Y-92196500D01*
G75*
G02*
X143384999Y-92344000I0J-147500D01*
G01*
X143384999Y-92639000D01*
G75*
G02*
X143237499Y-92786500I-147500J0D01*
G01*
G37*
%TD*%
%TO.C,R28*%
G36*
G01*
X143237499Y-88536500D02*
X142732499Y-88536500D01*
G75*
G02*
X142584999Y-88389000I0J147500D01*
G01*
X142584999Y-88094000D01*
G75*
G02*
X142732499Y-87946500I147500J0D01*
G01*
X143237499Y-87946500D01*
G75*
G02*
X143384999Y-88094000I0J-147500D01*
G01*
X143384999Y-88389000D01*
G75*
G02*
X143237499Y-88536500I-147500J0D01*
G01*
G37*
G36*
G01*
X143237499Y-90036500D02*
X142732499Y-90036500D01*
G75*
G02*
X142584999Y-89889000I0J147500D01*
G01*
X142584999Y-89594000D01*
G75*
G02*
X142732499Y-89446500I147500J0D01*
G01*
X143237499Y-89446500D01*
G75*
G02*
X143384999Y-89594000I0J-147500D01*
G01*
X143384999Y-89889000D01*
G75*
G02*
X143237499Y-90036500I-147500J0D01*
G01*
G37*
%TD*%
%TO.C,R27*%
G36*
G01*
X141737499Y-88536500D02*
X141232499Y-88536500D01*
G75*
G02*
X141084999Y-88389000I0J147500D01*
G01*
X141084999Y-88094000D01*
G75*
G02*
X141232499Y-87946500I147500J0D01*
G01*
X141737499Y-87946500D01*
G75*
G02*
X141884999Y-88094000I0J-147500D01*
G01*
X141884999Y-88389000D01*
G75*
G02*
X141737499Y-88536500I-147500J0D01*
G01*
G37*
G36*
G01*
X141737499Y-90036500D02*
X141232499Y-90036500D01*
G75*
G02*
X141084999Y-89889000I0J147500D01*
G01*
X141084999Y-89594000D01*
G75*
G02*
X141232499Y-89446500I147500J0D01*
G01*
X141737499Y-89446500D01*
G75*
G02*
X141884999Y-89594000I0J-147500D01*
G01*
X141884999Y-89889000D01*
G75*
G02*
X141737499Y-90036500I-147500J0D01*
G01*
G37*
%TD*%
%TO.C,R26*%
G36*
G01*
X141579999Y-94944000D02*
X141579999Y-94439000D01*
G75*
G02*
X141727499Y-94291500I147500J0D01*
G01*
X142022499Y-94291500D01*
G75*
G02*
X142169999Y-94439000I0J-147500D01*
G01*
X142169999Y-94944000D01*
G75*
G02*
X142022499Y-95091500I-147500J0D01*
G01*
X141727499Y-95091500D01*
G75*
G02*
X141579999Y-94944000I0J147500D01*
G01*
G37*
G36*
G01*
X140079999Y-94944000D02*
X140079999Y-94439000D01*
G75*
G02*
X140227499Y-94291500I147500J0D01*
G01*
X140522499Y-94291500D01*
G75*
G02*
X140669999Y-94439000I0J-147500D01*
G01*
X140669999Y-94944000D01*
G75*
G02*
X140522499Y-95091500I-147500J0D01*
G01*
X140227499Y-95091500D01*
G75*
G02*
X140079999Y-94944000I0J147500D01*
G01*
G37*
%TD*%
%TO.C,R25*%
G36*
G01*
X134877499Y-91236500D02*
X134372499Y-91236500D01*
G75*
G02*
X134224999Y-91089000I0J147500D01*
G01*
X134224999Y-90794000D01*
G75*
G02*
X134372499Y-90646500I147500J0D01*
G01*
X134877499Y-90646500D01*
G75*
G02*
X135024999Y-90794000I0J-147500D01*
G01*
X135024999Y-91089000D01*
G75*
G02*
X134877499Y-91236500I-147500J0D01*
G01*
G37*
G36*
G01*
X134877499Y-92736500D02*
X134372499Y-92736500D01*
G75*
G02*
X134224999Y-92589000I0J147500D01*
G01*
X134224999Y-92294000D01*
G75*
G02*
X134372499Y-92146500I147500J0D01*
G01*
X134877499Y-92146500D01*
G75*
G02*
X135024999Y-92294000I0J-147500D01*
G01*
X135024999Y-92589000D01*
G75*
G02*
X134877499Y-92736500I-147500J0D01*
G01*
G37*
%TD*%
%TO.C,R23*%
G36*
G01*
X136377499Y-91236500D02*
X135872499Y-91236500D01*
G75*
G02*
X135724999Y-91089000I0J147500D01*
G01*
X135724999Y-90794000D01*
G75*
G02*
X135872499Y-90646500I147500J0D01*
G01*
X136377499Y-90646500D01*
G75*
G02*
X136524999Y-90794000I0J-147500D01*
G01*
X136524999Y-91089000D01*
G75*
G02*
X136377499Y-91236500I-147500J0D01*
G01*
G37*
G36*
G01*
X136377499Y-92736500D02*
X135872499Y-92736500D01*
G75*
G02*
X135724999Y-92589000I0J147500D01*
G01*
X135724999Y-92294000D01*
G75*
G02*
X135872499Y-92146500I147500J0D01*
G01*
X136377499Y-92146500D01*
G75*
G02*
X136524999Y-92294000I0J-147500D01*
G01*
X136524999Y-92589000D01*
G75*
G02*
X136377499Y-92736500I-147500J0D01*
G01*
G37*
%TD*%
%TO.C,R22*%
G36*
G01*
X136377499Y-88486500D02*
X135872499Y-88486500D01*
G75*
G02*
X135724999Y-88339000I0J147500D01*
G01*
X135724999Y-88044000D01*
G75*
G02*
X135872499Y-87896500I147500J0D01*
G01*
X136377499Y-87896500D01*
G75*
G02*
X136524999Y-88044000I0J-147500D01*
G01*
X136524999Y-88339000D01*
G75*
G02*
X136377499Y-88486500I-147500J0D01*
G01*
G37*
G36*
G01*
X136377499Y-89986500D02*
X135872499Y-89986500D01*
G75*
G02*
X135724999Y-89839000I0J147500D01*
G01*
X135724999Y-89544000D01*
G75*
G02*
X135872499Y-89396500I147500J0D01*
G01*
X136377499Y-89396500D01*
G75*
G02*
X136524999Y-89544000I0J-147500D01*
G01*
X136524999Y-89839000D01*
G75*
G02*
X136377499Y-89986500I-147500J0D01*
G01*
G37*
%TD*%
%TO.C,R21*%
G36*
G01*
X134877499Y-88486500D02*
X134372499Y-88486500D01*
G75*
G02*
X134224999Y-88339000I0J147500D01*
G01*
X134224999Y-88044000D01*
G75*
G02*
X134372499Y-87896500I147500J0D01*
G01*
X134877499Y-87896500D01*
G75*
G02*
X135024999Y-88044000I0J-147500D01*
G01*
X135024999Y-88339000D01*
G75*
G02*
X134877499Y-88486500I-147500J0D01*
G01*
G37*
G36*
G01*
X134877499Y-89986500D02*
X134372499Y-89986500D01*
G75*
G02*
X134224999Y-89839000I0J147500D01*
G01*
X134224999Y-89544000D01*
G75*
G02*
X134372499Y-89396500I147500J0D01*
G01*
X134877499Y-89396500D01*
G75*
G02*
X135024999Y-89544000I0J-147500D01*
G01*
X135024999Y-89839000D01*
G75*
G02*
X134877499Y-89986500I-147500J0D01*
G01*
G37*
%TD*%
%TO.C,R20*%
G36*
G01*
X134705000Y-95002500D02*
X134705000Y-94497500D01*
G75*
G02*
X134852500Y-94350000I147500J0D01*
G01*
X135147500Y-94350000D01*
G75*
G02*
X135295000Y-94497500I0J-147500D01*
G01*
X135295000Y-95002500D01*
G75*
G02*
X135147500Y-95150000I-147500J0D01*
G01*
X134852500Y-95150000D01*
G75*
G02*
X134705000Y-95002500I0J147500D01*
G01*
G37*
G36*
G01*
X133205000Y-95002500D02*
X133205000Y-94497500D01*
G75*
G02*
X133352500Y-94350000I147500J0D01*
G01*
X133647500Y-94350000D01*
G75*
G02*
X133795000Y-94497500I0J-147500D01*
G01*
X133795000Y-95002500D01*
G75*
G02*
X133647500Y-95150000I-147500J0D01*
G01*
X133352500Y-95150000D01*
G75*
G02*
X133205000Y-95002500I0J147500D01*
G01*
G37*
%TD*%
%TO.C,R19*%
G36*
G01*
X128002500Y-91295000D02*
X127497500Y-91295000D01*
G75*
G02*
X127350000Y-91147500I0J147500D01*
G01*
X127350000Y-90852500D01*
G75*
G02*
X127497500Y-90705000I147500J0D01*
G01*
X128002500Y-90705000D01*
G75*
G02*
X128150000Y-90852500I0J-147500D01*
G01*
X128150000Y-91147500D01*
G75*
G02*
X128002500Y-91295000I-147500J0D01*
G01*
G37*
G36*
G01*
X128002500Y-92795000D02*
X127497500Y-92795000D01*
G75*
G02*
X127350000Y-92647500I0J147500D01*
G01*
X127350000Y-92352500D01*
G75*
G02*
X127497500Y-92205000I147500J0D01*
G01*
X128002500Y-92205000D01*
G75*
G02*
X128150000Y-92352500I0J-147500D01*
G01*
X128150000Y-92647500D01*
G75*
G02*
X128002500Y-92795000I-147500J0D01*
G01*
G37*
%TD*%
%TO.C,R15*%
G36*
G01*
X129502500Y-91295000D02*
X128997500Y-91295000D01*
G75*
G02*
X128850000Y-91147500I0J147500D01*
G01*
X128850000Y-90852500D01*
G75*
G02*
X128997500Y-90705000I147500J0D01*
G01*
X129502500Y-90705000D01*
G75*
G02*
X129650000Y-90852500I0J-147500D01*
G01*
X129650000Y-91147500D01*
G75*
G02*
X129502500Y-91295000I-147500J0D01*
G01*
G37*
G36*
G01*
X129502500Y-92795000D02*
X128997500Y-92795000D01*
G75*
G02*
X128850000Y-92647500I0J147500D01*
G01*
X128850000Y-92352500D01*
G75*
G02*
X128997500Y-92205000I147500J0D01*
G01*
X129502500Y-92205000D01*
G75*
G02*
X129650000Y-92352500I0J-147500D01*
G01*
X129650000Y-92647500D01*
G75*
G02*
X129502500Y-92795000I-147500J0D01*
G01*
G37*
%TD*%
%TO.C,R14*%
G36*
G01*
X129502500Y-88545000D02*
X128997500Y-88545000D01*
G75*
G02*
X128850000Y-88397500I0J147500D01*
G01*
X128850000Y-88102500D01*
G75*
G02*
X128997500Y-87955000I147500J0D01*
G01*
X129502500Y-87955000D01*
G75*
G02*
X129650000Y-88102500I0J-147500D01*
G01*
X129650000Y-88397500D01*
G75*
G02*
X129502500Y-88545000I-147500J0D01*
G01*
G37*
G36*
G01*
X129502500Y-90045000D02*
X128997500Y-90045000D01*
G75*
G02*
X128850000Y-89897500I0J147500D01*
G01*
X128850000Y-89602500D01*
G75*
G02*
X128997500Y-89455000I147500J0D01*
G01*
X129502500Y-89455000D01*
G75*
G02*
X129650000Y-89602500I0J-147500D01*
G01*
X129650000Y-89897500D01*
G75*
G02*
X129502500Y-90045000I-147500J0D01*
G01*
G37*
%TD*%
%TO.C,R13*%
G36*
G01*
X128002500Y-88545000D02*
X127497500Y-88545000D01*
G75*
G02*
X127350000Y-88397500I0J147500D01*
G01*
X127350000Y-88102500D01*
G75*
G02*
X127497500Y-87955000I147500J0D01*
G01*
X128002500Y-87955000D01*
G75*
G02*
X128150000Y-88102500I0J-147500D01*
G01*
X128150000Y-88397500D01*
G75*
G02*
X128002500Y-88545000I-147500J0D01*
G01*
G37*
G36*
G01*
X128002500Y-90045000D02*
X127497500Y-90045000D01*
G75*
G02*
X127350000Y-89897500I0J147500D01*
G01*
X127350000Y-89602500D01*
G75*
G02*
X127497500Y-89455000I147500J0D01*
G01*
X128002500Y-89455000D01*
G75*
G02*
X128150000Y-89602500I0J-147500D01*
G01*
X128150000Y-89897500D01*
G75*
G02*
X128002500Y-90045000I-147500J0D01*
G01*
G37*
%TD*%
D10*
%TO.C,Q6*%
X145734999Y-94741500D03*
X144784999Y-92741500D03*
X146684999Y-92741500D03*
%TD*%
%TO.C,Q5*%
X145734999Y-90741500D03*
X144784999Y-88741500D03*
X146684999Y-88741500D03*
%TD*%
%TO.C,Q4*%
X138874999Y-94691500D03*
X137924999Y-92691500D03*
X139824999Y-92691500D03*
%TD*%
%TO.C,Q3*%
X138874999Y-90691500D03*
X137924999Y-88691500D03*
X139824999Y-88691500D03*
%TD*%
%TO.C,Q2*%
X132000000Y-94750000D03*
X131050000Y-92750000D03*
X132950000Y-92750000D03*
%TD*%
%TO.C,Q1*%
X132000000Y-90750000D03*
X131050000Y-88750000D03*
X132950000Y-88750000D03*
%TD*%
%TO.C,C5*%
G36*
G01*
X54425000Y-156262500D02*
X54425000Y-156737500D01*
G75*
G02*
X54187500Y-156975000I-237500J0D01*
G01*
X53587500Y-156975000D01*
G75*
G02*
X53350000Y-156737500I0J237500D01*
G01*
X53350000Y-156262500D01*
G75*
G02*
X53587500Y-156025000I237500J0D01*
G01*
X54187500Y-156025000D01*
G75*
G02*
X54425000Y-156262500I0J-237500D01*
G01*
G37*
G36*
G01*
X56150000Y-156262500D02*
X56150000Y-156737500D01*
G75*
G02*
X55912500Y-156975000I-237500J0D01*
G01*
X55312500Y-156975000D01*
G75*
G02*
X55075000Y-156737500I0J237500D01*
G01*
X55075000Y-156262500D01*
G75*
G02*
X55312500Y-156025000I237500J0D01*
G01*
X55912500Y-156025000D01*
G75*
G02*
X56150000Y-156262500I0J-237500D01*
G01*
G37*
%TD*%
%TO.C,C4*%
G36*
G01*
X54825000Y-146987500D02*
X54825000Y-146512500D01*
G75*
G02*
X55062500Y-146275000I237500J0D01*
G01*
X55662500Y-146275000D01*
G75*
G02*
X55900000Y-146512500I0J-237500D01*
G01*
X55900000Y-146987500D01*
G75*
G02*
X55662500Y-147225000I-237500J0D01*
G01*
X55062500Y-147225000D01*
G75*
G02*
X54825000Y-146987500I0J237500D01*
G01*
G37*
G36*
G01*
X53100000Y-146987500D02*
X53100000Y-146512500D01*
G75*
G02*
X53337500Y-146275000I237500J0D01*
G01*
X53937500Y-146275000D01*
G75*
G02*
X54175000Y-146512500I0J-237500D01*
G01*
X54175000Y-146987500D01*
G75*
G02*
X53937500Y-147225000I-237500J0D01*
G01*
X53337500Y-147225000D01*
G75*
G02*
X53100000Y-146987500I0J237500D01*
G01*
G37*
%TD*%
%TO.C,C26*%
G36*
G01*
X112252500Y-152645000D02*
X111747500Y-152645000D01*
G75*
G02*
X111600000Y-152497500I0J147500D01*
G01*
X111600000Y-152202500D01*
G75*
G02*
X111747500Y-152055000I147500J0D01*
G01*
X112252500Y-152055000D01*
G75*
G02*
X112400000Y-152202500I0J-147500D01*
G01*
X112400000Y-152497500D01*
G75*
G02*
X112252500Y-152645000I-147500J0D01*
G01*
G37*
G36*
G01*
X112252500Y-151145000D02*
X111747500Y-151145000D01*
G75*
G02*
X111600000Y-150997500I0J147500D01*
G01*
X111600000Y-150702500D01*
G75*
G02*
X111747500Y-150555000I147500J0D01*
G01*
X112252500Y-150555000D01*
G75*
G02*
X112400000Y-150702500I0J-147500D01*
G01*
X112400000Y-150997500D01*
G75*
G02*
X112252500Y-151145000I-147500J0D01*
G01*
G37*
%TD*%
%TO.C,C25*%
G36*
G01*
X119252500Y-152645000D02*
X118747500Y-152645000D01*
G75*
G02*
X118600000Y-152497500I0J147500D01*
G01*
X118600000Y-152202500D01*
G75*
G02*
X118747500Y-152055000I147500J0D01*
G01*
X119252500Y-152055000D01*
G75*
G02*
X119400000Y-152202500I0J-147500D01*
G01*
X119400000Y-152497500D01*
G75*
G02*
X119252500Y-152645000I-147500J0D01*
G01*
G37*
G36*
G01*
X119252500Y-151145000D02*
X118747500Y-151145000D01*
G75*
G02*
X118600000Y-150997500I0J147500D01*
G01*
X118600000Y-150702500D01*
G75*
G02*
X118747500Y-150555000I147500J0D01*
G01*
X119252500Y-150555000D01*
G75*
G02*
X119400000Y-150702500I0J-147500D01*
G01*
X119400000Y-150997500D01*
G75*
G02*
X119252500Y-151145000I-147500J0D01*
G01*
G37*
%TD*%
%TO.C,R41*%
G36*
G01*
X109252500Y-144645000D02*
X108747500Y-144645000D01*
G75*
G02*
X108600000Y-144497500I0J147500D01*
G01*
X108600000Y-144202500D01*
G75*
G02*
X108747500Y-144055000I147500J0D01*
G01*
X109252500Y-144055000D01*
G75*
G02*
X109400000Y-144202500I0J-147500D01*
G01*
X109400000Y-144497500D01*
G75*
G02*
X109252500Y-144645000I-147500J0D01*
G01*
G37*
G36*
G01*
X109252500Y-146145000D02*
X108747500Y-146145000D01*
G75*
G02*
X108600000Y-145997500I0J147500D01*
G01*
X108600000Y-145702500D01*
G75*
G02*
X108747500Y-145555000I147500J0D01*
G01*
X109252500Y-145555000D01*
G75*
G02*
X109400000Y-145702500I0J-147500D01*
G01*
X109400000Y-145997500D01*
G75*
G02*
X109252500Y-146145000I-147500J0D01*
G01*
G37*
%TD*%
%TO.C,R42*%
G36*
G01*
X116552500Y-144645000D02*
X116047500Y-144645000D01*
G75*
G02*
X115900000Y-144497500I0J147500D01*
G01*
X115900000Y-144202500D01*
G75*
G02*
X116047500Y-144055000I147500J0D01*
G01*
X116552500Y-144055000D01*
G75*
G02*
X116700000Y-144202500I0J-147500D01*
G01*
X116700000Y-144497500D01*
G75*
G02*
X116552500Y-144645000I-147500J0D01*
G01*
G37*
G36*
G01*
X116552500Y-146145000D02*
X116047500Y-146145000D01*
G75*
G02*
X115900000Y-145997500I0J147500D01*
G01*
X115900000Y-145702500D01*
G75*
G02*
X116047500Y-145555000I147500J0D01*
G01*
X116552500Y-145555000D01*
G75*
G02*
X116700000Y-145702500I0J-147500D01*
G01*
X116700000Y-145997500D01*
G75*
G02*
X116552500Y-146145000I-147500J0D01*
G01*
G37*
%TD*%
%TO.C,U8*%
G36*
G01*
X117655000Y-147350000D02*
X117655000Y-148350000D01*
G75*
G02*
X117530000Y-148475000I-125000J0D01*
G01*
X117280000Y-148475000D01*
G75*
G02*
X117155000Y-148350000I0J125000D01*
G01*
X117155000Y-147350000D01*
G75*
G02*
X117280000Y-147225000I125000J0D01*
G01*
X117530000Y-147225000D01*
G75*
G02*
X117655000Y-147350000I0J-125000D01*
G01*
G37*
G36*
G01*
X116385000Y-147350000D02*
X116385000Y-148350000D01*
G75*
G02*
X116260000Y-148475000I-125000J0D01*
G01*
X116010000Y-148475000D01*
G75*
G02*
X115885000Y-148350000I0J125000D01*
G01*
X115885000Y-147350000D01*
G75*
G02*
X116010000Y-147225000I125000J0D01*
G01*
X116260000Y-147225000D01*
G75*
G02*
X116385000Y-147350000I0J-125000D01*
G01*
G37*
G36*
G01*
X115115000Y-147350000D02*
X115115000Y-148350000D01*
G75*
G02*
X114990000Y-148475000I-125000J0D01*
G01*
X114740000Y-148475000D01*
G75*
G02*
X114615000Y-148350000I0J125000D01*
G01*
X114615000Y-147350000D01*
G75*
G02*
X114740000Y-147225000I125000J0D01*
G01*
X114990000Y-147225000D01*
G75*
G02*
X115115000Y-147350000I0J-125000D01*
G01*
G37*
G36*
G01*
X113845000Y-147350000D02*
X113845000Y-148350000D01*
G75*
G02*
X113720000Y-148475000I-125000J0D01*
G01*
X113470000Y-148475000D01*
G75*
G02*
X113345000Y-148350000I0J125000D01*
G01*
X113345000Y-147350000D01*
G75*
G02*
X113470000Y-147225000I125000J0D01*
G01*
X113720000Y-147225000D01*
G75*
G02*
X113845000Y-147350000I0J-125000D01*
G01*
G37*
G36*
G01*
X113845000Y-152850000D02*
X113845000Y-153850000D01*
G75*
G02*
X113720000Y-153975000I-125000J0D01*
G01*
X113470000Y-153975000D01*
G75*
G02*
X113345000Y-153850000I0J125000D01*
G01*
X113345000Y-152850000D01*
G75*
G02*
X113470000Y-152725000I125000J0D01*
G01*
X113720000Y-152725000D01*
G75*
G02*
X113845000Y-152850000I0J-125000D01*
G01*
G37*
G36*
G01*
X115115000Y-152850000D02*
X115115000Y-153850000D01*
G75*
G02*
X114990000Y-153975000I-125000J0D01*
G01*
X114740000Y-153975000D01*
G75*
G02*
X114615000Y-153850000I0J125000D01*
G01*
X114615000Y-152850000D01*
G75*
G02*
X114740000Y-152725000I125000J0D01*
G01*
X114990000Y-152725000D01*
G75*
G02*
X115115000Y-152850000I0J-125000D01*
G01*
G37*
G36*
G01*
X116385000Y-152850000D02*
X116385000Y-153850000D01*
G75*
G02*
X116260000Y-153975000I-125000J0D01*
G01*
X116010000Y-153975000D01*
G75*
G02*
X115885000Y-153850000I0J125000D01*
G01*
X115885000Y-152850000D01*
G75*
G02*
X116010000Y-152725000I125000J0D01*
G01*
X116260000Y-152725000D01*
G75*
G02*
X116385000Y-152850000I0J-125000D01*
G01*
G37*
G36*
G01*
X117655000Y-152850000D02*
X117655000Y-153850000D01*
G75*
G02*
X117530000Y-153975000I-125000J0D01*
G01*
X117280000Y-153975000D01*
G75*
G02*
X117155000Y-153850000I0J125000D01*
G01*
X117155000Y-152850000D01*
G75*
G02*
X117280000Y-152725000I125000J0D01*
G01*
X117530000Y-152725000D01*
G75*
G02*
X117655000Y-152850000I0J-125000D01*
G01*
G37*
%TD*%
%TO.C,C8*%
G36*
G01*
X55075000Y-158487500D02*
X55075000Y-158012500D01*
G75*
G02*
X55312500Y-157775000I237500J0D01*
G01*
X55912500Y-157775000D01*
G75*
G02*
X56150000Y-158012500I0J-237500D01*
G01*
X56150000Y-158487500D01*
G75*
G02*
X55912500Y-158725000I-237500J0D01*
G01*
X55312500Y-158725000D01*
G75*
G02*
X55075000Y-158487500I0J237500D01*
G01*
G37*
G36*
G01*
X53350000Y-158487500D02*
X53350000Y-158012500D01*
G75*
G02*
X53587500Y-157775000I237500J0D01*
G01*
X54187500Y-157775000D01*
G75*
G02*
X54425000Y-158012500I0J-237500D01*
G01*
X54425000Y-158487500D01*
G75*
G02*
X54187500Y-158725000I-237500J0D01*
G01*
X53587500Y-158725000D01*
G75*
G02*
X53350000Y-158487500I0J237500D01*
G01*
G37*
%TD*%
%TO.C,C9*%
G36*
G01*
X53100000Y-145237500D02*
X53100000Y-144762500D01*
G75*
G02*
X53337500Y-144525000I237500J0D01*
G01*
X53937500Y-144525000D01*
G75*
G02*
X54175000Y-144762500I0J-237500D01*
G01*
X54175000Y-145237500D01*
G75*
G02*
X53937500Y-145475000I-237500J0D01*
G01*
X53337500Y-145475000D01*
G75*
G02*
X53100000Y-145237500I0J237500D01*
G01*
G37*
G36*
G01*
X54825000Y-145237500D02*
X54825000Y-144762500D01*
G75*
G02*
X55062500Y-144525000I237500J0D01*
G01*
X55662500Y-144525000D01*
G75*
G02*
X55900000Y-144762500I0J-237500D01*
G01*
X55900000Y-145237500D01*
G75*
G02*
X55662500Y-145475000I-237500J0D01*
G01*
X55062500Y-145475000D01*
G75*
G02*
X54825000Y-145237500I0J237500D01*
G01*
G37*
%TD*%
%TO.C,C10*%
G36*
G01*
X58262500Y-149350000D02*
X58737500Y-149350000D01*
G75*
G02*
X58975000Y-149587500I0J-237500D01*
G01*
X58975000Y-150187500D01*
G75*
G02*
X58737500Y-150425000I-237500J0D01*
G01*
X58262500Y-150425000D01*
G75*
G02*
X58025000Y-150187500I0J237500D01*
G01*
X58025000Y-149587500D01*
G75*
G02*
X58262500Y-149350000I237500J0D01*
G01*
G37*
G36*
G01*
X58262500Y-151075000D02*
X58737500Y-151075000D01*
G75*
G02*
X58975000Y-151312500I0J-237500D01*
G01*
X58975000Y-151912500D01*
G75*
G02*
X58737500Y-152150000I-237500J0D01*
G01*
X58262500Y-152150000D01*
G75*
G02*
X58025000Y-151912500I0J237500D01*
G01*
X58025000Y-151312500D01*
G75*
G02*
X58262500Y-151075000I237500J0D01*
G01*
G37*
%TD*%
%TO.C,C11*%
G36*
G01*
X55075000Y-160237500D02*
X55075000Y-159762500D01*
G75*
G02*
X55312500Y-159525000I237500J0D01*
G01*
X55912500Y-159525000D01*
G75*
G02*
X56150000Y-159762500I0J-237500D01*
G01*
X56150000Y-160237500D01*
G75*
G02*
X55912500Y-160475000I-237500J0D01*
G01*
X55312500Y-160475000D01*
G75*
G02*
X55075000Y-160237500I0J237500D01*
G01*
G37*
G36*
G01*
X53350000Y-160237500D02*
X53350000Y-159762500D01*
G75*
G02*
X53587500Y-159525000I237500J0D01*
G01*
X54187500Y-159525000D01*
G75*
G02*
X54425000Y-159762500I0J-237500D01*
G01*
X54425000Y-160237500D01*
G75*
G02*
X54187500Y-160475000I-237500J0D01*
G01*
X53587500Y-160475000D01*
G75*
G02*
X53350000Y-160237500I0J237500D01*
G01*
G37*
%TD*%
%TO.C,C12*%
G36*
G01*
X62100000Y-164487500D02*
X62100000Y-164012500D01*
G75*
G02*
X62337500Y-163775000I237500J0D01*
G01*
X62937500Y-163775000D01*
G75*
G02*
X63175000Y-164012500I0J-237500D01*
G01*
X63175000Y-164487500D01*
G75*
G02*
X62937500Y-164725000I-237500J0D01*
G01*
X62337500Y-164725000D01*
G75*
G02*
X62100000Y-164487500I0J237500D01*
G01*
G37*
G36*
G01*
X63825000Y-164487500D02*
X63825000Y-164012500D01*
G75*
G02*
X64062500Y-163775000I237500J0D01*
G01*
X64662500Y-163775000D01*
G75*
G02*
X64900000Y-164012500I0J-237500D01*
G01*
X64900000Y-164487500D01*
G75*
G02*
X64662500Y-164725000I-237500J0D01*
G01*
X64062500Y-164725000D01*
G75*
G02*
X63825000Y-164487500I0J237500D01*
G01*
G37*
%TD*%
%TO.C,C13*%
G36*
G01*
X76737500Y-165650000D02*
X76262500Y-165650000D01*
G75*
G02*
X76025000Y-165412500I0J237500D01*
G01*
X76025000Y-164812500D01*
G75*
G02*
X76262500Y-164575000I237500J0D01*
G01*
X76737500Y-164575000D01*
G75*
G02*
X76975000Y-164812500I0J-237500D01*
G01*
X76975000Y-165412500D01*
G75*
G02*
X76737500Y-165650000I-237500J0D01*
G01*
G37*
G36*
G01*
X76737500Y-163925000D02*
X76262500Y-163925000D01*
G75*
G02*
X76025000Y-163687500I0J237500D01*
G01*
X76025000Y-163087500D01*
G75*
G02*
X76262500Y-162850000I237500J0D01*
G01*
X76737500Y-162850000D01*
G75*
G02*
X76975000Y-163087500I0J-237500D01*
G01*
X76975000Y-163687500D01*
G75*
G02*
X76737500Y-163925000I-237500J0D01*
G01*
G37*
%TD*%
%TO.C,C14*%
G36*
G01*
X80562500Y-146262500D02*
X80562500Y-146737500D01*
G75*
G02*
X80325000Y-146975000I-237500J0D01*
G01*
X79725000Y-146975000D01*
G75*
G02*
X79487500Y-146737500I0J237500D01*
G01*
X79487500Y-146262500D01*
G75*
G02*
X79725000Y-146025000I237500J0D01*
G01*
X80325000Y-146025000D01*
G75*
G02*
X80562500Y-146262500I0J-237500D01*
G01*
G37*
G36*
G01*
X82287500Y-146262500D02*
X82287500Y-146737500D01*
G75*
G02*
X82050000Y-146975000I-237500J0D01*
G01*
X81450000Y-146975000D01*
G75*
G02*
X81212500Y-146737500I0J237500D01*
G01*
X81212500Y-146262500D01*
G75*
G02*
X81450000Y-146025000I237500J0D01*
G01*
X82050000Y-146025000D01*
G75*
G02*
X82287500Y-146262500I0J-237500D01*
G01*
G37*
%TD*%
%TO.C,C15*%
G36*
G01*
X62512500Y-142075000D02*
X62987500Y-142075000D01*
G75*
G02*
X63225000Y-142312500I0J-237500D01*
G01*
X63225000Y-142912500D01*
G75*
G02*
X62987500Y-143150000I-237500J0D01*
G01*
X62512500Y-143150000D01*
G75*
G02*
X62275000Y-142912500I0J237500D01*
G01*
X62275000Y-142312500D01*
G75*
G02*
X62512500Y-142075000I237500J0D01*
G01*
G37*
G36*
G01*
X62512500Y-140350000D02*
X62987500Y-140350000D01*
G75*
G02*
X63225000Y-140587500I0J-237500D01*
G01*
X63225000Y-141187500D01*
G75*
G02*
X62987500Y-141425000I-237500J0D01*
G01*
X62512500Y-141425000D01*
G75*
G02*
X62275000Y-141187500I0J237500D01*
G01*
X62275000Y-140587500D01*
G75*
G02*
X62512500Y-140350000I237500J0D01*
G01*
G37*
%TD*%
%TO.C,C16*%
G36*
G01*
X53350000Y-161987500D02*
X53350000Y-161512500D01*
G75*
G02*
X53587500Y-161275000I237500J0D01*
G01*
X54187500Y-161275000D01*
G75*
G02*
X54425000Y-161512500I0J-237500D01*
G01*
X54425000Y-161987500D01*
G75*
G02*
X54187500Y-162225000I-237500J0D01*
G01*
X53587500Y-162225000D01*
G75*
G02*
X53350000Y-161987500I0J237500D01*
G01*
G37*
G36*
G01*
X55075000Y-161987500D02*
X55075000Y-161512500D01*
G75*
G02*
X55312500Y-161275000I237500J0D01*
G01*
X55912500Y-161275000D01*
G75*
G02*
X56150000Y-161512500I0J-237500D01*
G01*
X56150000Y-161987500D01*
G75*
G02*
X55912500Y-162225000I-237500J0D01*
G01*
X55312500Y-162225000D01*
G75*
G02*
X55075000Y-161987500I0J237500D01*
G01*
G37*
%TD*%
%TO.C,C17*%
G36*
G01*
X138997500Y-134705000D02*
X139502500Y-134705000D01*
G75*
G02*
X139650000Y-134852500I0J-147500D01*
G01*
X139650000Y-135147500D01*
G75*
G02*
X139502500Y-135295000I-147500J0D01*
G01*
X138997500Y-135295000D01*
G75*
G02*
X138850000Y-135147500I0J147500D01*
G01*
X138850000Y-134852500D01*
G75*
G02*
X138997500Y-134705000I147500J0D01*
G01*
G37*
G36*
G01*
X138997500Y-133205000D02*
X139502500Y-133205000D01*
G75*
G02*
X139650000Y-133352500I0J-147500D01*
G01*
X139650000Y-133647500D01*
G75*
G02*
X139502500Y-133795000I-147500J0D01*
G01*
X138997500Y-133795000D01*
G75*
G02*
X138850000Y-133647500I0J147500D01*
G01*
X138850000Y-133352500D01*
G75*
G02*
X138997500Y-133205000I147500J0D01*
G01*
G37*
%TD*%
%TO.C,C18*%
G36*
G01*
X124545000Y-116497500D02*
X124545000Y-117002500D01*
G75*
G02*
X124397500Y-117150000I-147500J0D01*
G01*
X124102500Y-117150000D01*
G75*
G02*
X123955000Y-117002500I0J147500D01*
G01*
X123955000Y-116497500D01*
G75*
G02*
X124102500Y-116350000I147500J0D01*
G01*
X124397500Y-116350000D01*
G75*
G02*
X124545000Y-116497500I0J-147500D01*
G01*
G37*
G36*
G01*
X126045000Y-116497500D02*
X126045000Y-117002500D01*
G75*
G02*
X125897500Y-117150000I-147500J0D01*
G01*
X125602500Y-117150000D01*
G75*
G02*
X125455000Y-117002500I0J147500D01*
G01*
X125455000Y-116497500D01*
G75*
G02*
X125602500Y-116350000I147500J0D01*
G01*
X125897500Y-116350000D01*
G75*
G02*
X126045000Y-116497500I0J-147500D01*
G01*
G37*
%TD*%
%TO.C,C19*%
G36*
G01*
X125705000Y-124502500D02*
X125705000Y-123997500D01*
G75*
G02*
X125852500Y-123850000I147500J0D01*
G01*
X126147500Y-123850000D01*
G75*
G02*
X126295000Y-123997500I0J-147500D01*
G01*
X126295000Y-124502500D01*
G75*
G02*
X126147500Y-124650000I-147500J0D01*
G01*
X125852500Y-124650000D01*
G75*
G02*
X125705000Y-124502500I0J147500D01*
G01*
G37*
G36*
G01*
X124205000Y-124502500D02*
X124205000Y-123997500D01*
G75*
G02*
X124352500Y-123850000I147500J0D01*
G01*
X124647500Y-123850000D01*
G75*
G02*
X124795000Y-123997500I0J-147500D01*
G01*
X124795000Y-124502500D01*
G75*
G02*
X124647500Y-124650000I-147500J0D01*
G01*
X124352500Y-124650000D01*
G75*
G02*
X124205000Y-124502500I0J147500D01*
G01*
G37*
%TD*%
%TO.C,C20*%
G36*
G01*
X125455000Y-114002500D02*
X125455000Y-113497500D01*
G75*
G02*
X125602500Y-113350000I147500J0D01*
G01*
X125897500Y-113350000D01*
G75*
G02*
X126045000Y-113497500I0J-147500D01*
G01*
X126045000Y-114002500D01*
G75*
G02*
X125897500Y-114150000I-147500J0D01*
G01*
X125602500Y-114150000D01*
G75*
G02*
X125455000Y-114002500I0J147500D01*
G01*
G37*
G36*
G01*
X123955000Y-114002500D02*
X123955000Y-113497500D01*
G75*
G02*
X124102500Y-113350000I147500J0D01*
G01*
X124397500Y-113350000D01*
G75*
G02*
X124545000Y-113497500I0J-147500D01*
G01*
X124545000Y-114002500D01*
G75*
G02*
X124397500Y-114150000I-147500J0D01*
G01*
X124102500Y-114150000D01*
G75*
G02*
X123955000Y-114002500I0J147500D01*
G01*
G37*
%TD*%
%TO.C,C21*%
G36*
G01*
X132045000Y-114247500D02*
X132045000Y-114752500D01*
G75*
G02*
X131897500Y-114900000I-147500J0D01*
G01*
X131602500Y-114900000D01*
G75*
G02*
X131455000Y-114752500I0J147500D01*
G01*
X131455000Y-114247500D01*
G75*
G02*
X131602500Y-114100000I147500J0D01*
G01*
X131897500Y-114100000D01*
G75*
G02*
X132045000Y-114247500I0J-147500D01*
G01*
G37*
G36*
G01*
X133545000Y-114247500D02*
X133545000Y-114752500D01*
G75*
G02*
X133397500Y-114900000I-147500J0D01*
G01*
X133102500Y-114900000D01*
G75*
G02*
X132955000Y-114752500I0J147500D01*
G01*
X132955000Y-114247500D01*
G75*
G02*
X133102500Y-114100000I147500J0D01*
G01*
X133397500Y-114100000D01*
G75*
G02*
X133545000Y-114247500I0J-147500D01*
G01*
G37*
%TD*%
%TO.C,C22*%
G36*
G01*
X127295000Y-102997500D02*
X127295000Y-103502500D01*
G75*
G02*
X127147500Y-103650000I-147500J0D01*
G01*
X126852500Y-103650000D01*
G75*
G02*
X126705000Y-103502500I0J147500D01*
G01*
X126705000Y-102997500D01*
G75*
G02*
X126852500Y-102850000I147500J0D01*
G01*
X127147500Y-102850000D01*
G75*
G02*
X127295000Y-102997500I0J-147500D01*
G01*
G37*
G36*
G01*
X125795000Y-102997500D02*
X125795000Y-103502500D01*
G75*
G02*
X125647500Y-103650000I-147500J0D01*
G01*
X125352500Y-103650000D01*
G75*
G02*
X125205000Y-103502500I0J147500D01*
G01*
X125205000Y-102997500D01*
G75*
G02*
X125352500Y-102850000I147500J0D01*
G01*
X125647500Y-102850000D01*
G75*
G02*
X125795000Y-102997500I0J-147500D01*
G01*
G37*
%TD*%
%TO.C,C23*%
G36*
G01*
X126705000Y-100502500D02*
X126705000Y-99997500D01*
G75*
G02*
X126852500Y-99850000I147500J0D01*
G01*
X127147500Y-99850000D01*
G75*
G02*
X127295000Y-99997500I0J-147500D01*
G01*
X127295000Y-100502500D01*
G75*
G02*
X127147500Y-100650000I-147500J0D01*
G01*
X126852500Y-100650000D01*
G75*
G02*
X126705000Y-100502500I0J147500D01*
G01*
G37*
G36*
G01*
X125205000Y-100502500D02*
X125205000Y-99997500D01*
G75*
G02*
X125352500Y-99850000I147500J0D01*
G01*
X125647500Y-99850000D01*
G75*
G02*
X125795000Y-99997500I0J-147500D01*
G01*
X125795000Y-100502500D01*
G75*
G02*
X125647500Y-100650000I-147500J0D01*
G01*
X125352500Y-100650000D01*
G75*
G02*
X125205000Y-100502500I0J147500D01*
G01*
G37*
%TD*%
%TO.C,C27*%
G36*
G01*
X104997500Y-145555000D02*
X105502500Y-145555000D01*
G75*
G02*
X105650000Y-145702500I0J-147500D01*
G01*
X105650000Y-145997500D01*
G75*
G02*
X105502500Y-146145000I-147500J0D01*
G01*
X104997500Y-146145000D01*
G75*
G02*
X104850000Y-145997500I0J147500D01*
G01*
X104850000Y-145702500D01*
G75*
G02*
X104997500Y-145555000I147500J0D01*
G01*
G37*
G36*
G01*
X104997500Y-144055000D02*
X105502500Y-144055000D01*
G75*
G02*
X105650000Y-144202500I0J-147500D01*
G01*
X105650000Y-144497500D01*
G75*
G02*
X105502500Y-144645000I-147500J0D01*
G01*
X104997500Y-144645000D01*
G75*
G02*
X104850000Y-144497500I0J147500D01*
G01*
X104850000Y-144202500D01*
G75*
G02*
X104997500Y-144055000I147500J0D01*
G01*
G37*
%TD*%
%TO.C,C29*%
G36*
G01*
X133252500Y-152645000D02*
X132747500Y-152645000D01*
G75*
G02*
X132600000Y-152497500I0J147500D01*
G01*
X132600000Y-152202500D01*
G75*
G02*
X132747500Y-152055000I147500J0D01*
G01*
X133252500Y-152055000D01*
G75*
G02*
X133400000Y-152202500I0J-147500D01*
G01*
X133400000Y-152497500D01*
G75*
G02*
X133252500Y-152645000I-147500J0D01*
G01*
G37*
G36*
G01*
X133252500Y-151145000D02*
X132747500Y-151145000D01*
G75*
G02*
X132600000Y-150997500I0J147500D01*
G01*
X132600000Y-150702500D01*
G75*
G02*
X132747500Y-150555000I147500J0D01*
G01*
X133252500Y-150555000D01*
G75*
G02*
X133400000Y-150702500I0J-147500D01*
G01*
X133400000Y-150997500D01*
G75*
G02*
X133252500Y-151145000I-147500J0D01*
G01*
G37*
%TD*%
%TO.C,C30*%
G36*
G01*
X126252500Y-151145000D02*
X125747500Y-151145000D01*
G75*
G02*
X125600000Y-150997500I0J147500D01*
G01*
X125600000Y-150702500D01*
G75*
G02*
X125747500Y-150555000I147500J0D01*
G01*
X126252500Y-150555000D01*
G75*
G02*
X126400000Y-150702500I0J-147500D01*
G01*
X126400000Y-150997500D01*
G75*
G02*
X126252500Y-151145000I-147500J0D01*
G01*
G37*
G36*
G01*
X126252500Y-152645000D02*
X125747500Y-152645000D01*
G75*
G02*
X125600000Y-152497500I0J147500D01*
G01*
X125600000Y-152202500D01*
G75*
G02*
X125747500Y-152055000I147500J0D01*
G01*
X126252500Y-152055000D01*
G75*
G02*
X126400000Y-152202500I0J-147500D01*
G01*
X126400000Y-152497500D01*
G75*
G02*
X126252500Y-152645000I-147500J0D01*
G01*
G37*
%TD*%
%TO.C,C31*%
G36*
G01*
X118997500Y-144055000D02*
X119502500Y-144055000D01*
G75*
G02*
X119650000Y-144202500I0J-147500D01*
G01*
X119650000Y-144497500D01*
G75*
G02*
X119502500Y-144645000I-147500J0D01*
G01*
X118997500Y-144645000D01*
G75*
G02*
X118850000Y-144497500I0J147500D01*
G01*
X118850000Y-144202500D01*
G75*
G02*
X118997500Y-144055000I147500J0D01*
G01*
G37*
G36*
G01*
X118997500Y-145555000D02*
X119502500Y-145555000D01*
G75*
G02*
X119650000Y-145702500I0J-147500D01*
G01*
X119650000Y-145997500D01*
G75*
G02*
X119502500Y-146145000I-147500J0D01*
G01*
X118997500Y-146145000D01*
G75*
G02*
X118850000Y-145997500I0J147500D01*
G01*
X118850000Y-145702500D01*
G75*
G02*
X118997500Y-145555000I147500J0D01*
G01*
G37*
%TD*%
%TO.C,C33*%
G36*
G01*
X147252500Y-151145000D02*
X146747500Y-151145000D01*
G75*
G02*
X146600000Y-150997500I0J147500D01*
G01*
X146600000Y-150702500D01*
G75*
G02*
X146747500Y-150555000I147500J0D01*
G01*
X147252500Y-150555000D01*
G75*
G02*
X147400000Y-150702500I0J-147500D01*
G01*
X147400000Y-150997500D01*
G75*
G02*
X147252500Y-151145000I-147500J0D01*
G01*
G37*
G36*
G01*
X147252500Y-152645000D02*
X146747500Y-152645000D01*
G75*
G02*
X146600000Y-152497500I0J147500D01*
G01*
X146600000Y-152202500D01*
G75*
G02*
X146747500Y-152055000I147500J0D01*
G01*
X147252500Y-152055000D01*
G75*
G02*
X147400000Y-152202500I0J-147500D01*
G01*
X147400000Y-152497500D01*
G75*
G02*
X147252500Y-152645000I-147500J0D01*
G01*
G37*
%TD*%
%TO.C,C34*%
G36*
G01*
X140252500Y-152645000D02*
X139747500Y-152645000D01*
G75*
G02*
X139600000Y-152497500I0J147500D01*
G01*
X139600000Y-152202500D01*
G75*
G02*
X139747500Y-152055000I147500J0D01*
G01*
X140252500Y-152055000D01*
G75*
G02*
X140400000Y-152202500I0J-147500D01*
G01*
X140400000Y-152497500D01*
G75*
G02*
X140252500Y-152645000I-147500J0D01*
G01*
G37*
G36*
G01*
X140252500Y-151145000D02*
X139747500Y-151145000D01*
G75*
G02*
X139600000Y-150997500I0J147500D01*
G01*
X139600000Y-150702500D01*
G75*
G02*
X139747500Y-150555000I147500J0D01*
G01*
X140252500Y-150555000D01*
G75*
G02*
X140400000Y-150702500I0J-147500D01*
G01*
X140400000Y-150997500D01*
G75*
G02*
X140252500Y-151145000I-147500J0D01*
G01*
G37*
%TD*%
%TO.C,C35*%
G36*
G01*
X132997500Y-144055000D02*
X133502500Y-144055000D01*
G75*
G02*
X133650000Y-144202500I0J-147500D01*
G01*
X133650000Y-144497500D01*
G75*
G02*
X133502500Y-144645000I-147500J0D01*
G01*
X132997500Y-144645000D01*
G75*
G02*
X132850000Y-144497500I0J147500D01*
G01*
X132850000Y-144202500D01*
G75*
G02*
X132997500Y-144055000I147500J0D01*
G01*
G37*
G36*
G01*
X132997500Y-145555000D02*
X133502500Y-145555000D01*
G75*
G02*
X133650000Y-145702500I0J-147500D01*
G01*
X133650000Y-145997500D01*
G75*
G02*
X133502500Y-146145000I-147500J0D01*
G01*
X132997500Y-146145000D01*
G75*
G02*
X132850000Y-145997500I0J147500D01*
G01*
X132850000Y-145702500D01*
G75*
G02*
X132997500Y-145555000I147500J0D01*
G01*
G37*
%TD*%
%TO.C,C36*%
G36*
G01*
X65997500Y-127705000D02*
X66502500Y-127705000D01*
G75*
G02*
X66650000Y-127852500I0J-147500D01*
G01*
X66650000Y-128147500D01*
G75*
G02*
X66502500Y-128295000I-147500J0D01*
G01*
X65997500Y-128295000D01*
G75*
G02*
X65850000Y-128147500I0J147500D01*
G01*
X65850000Y-127852500D01*
G75*
G02*
X65997500Y-127705000I147500J0D01*
G01*
G37*
G36*
G01*
X65997500Y-129205000D02*
X66502500Y-129205000D01*
G75*
G02*
X66650000Y-129352500I0J-147500D01*
G01*
X66650000Y-129647500D01*
G75*
G02*
X66502500Y-129795000I-147500J0D01*
G01*
X65997500Y-129795000D01*
G75*
G02*
X65850000Y-129647500I0J147500D01*
G01*
X65850000Y-129352500D01*
G75*
G02*
X65997500Y-129205000I147500J0D01*
G01*
G37*
%TD*%
%TO.C,C37*%
G36*
G01*
X58997500Y-129205000D02*
X59502500Y-129205000D01*
G75*
G02*
X59650000Y-129352500I0J-147500D01*
G01*
X59650000Y-129647500D01*
G75*
G02*
X59502500Y-129795000I-147500J0D01*
G01*
X58997500Y-129795000D01*
G75*
G02*
X58850000Y-129647500I0J147500D01*
G01*
X58850000Y-129352500D01*
G75*
G02*
X58997500Y-129205000I147500J0D01*
G01*
G37*
G36*
G01*
X58997500Y-127705000D02*
X59502500Y-127705000D01*
G75*
G02*
X59650000Y-127852500I0J-147500D01*
G01*
X59650000Y-128147500D01*
G75*
G02*
X59502500Y-128295000I-147500J0D01*
G01*
X58997500Y-128295000D01*
G75*
G02*
X58850000Y-128147500I0J147500D01*
G01*
X58850000Y-127852500D01*
G75*
G02*
X58997500Y-127705000I147500J0D01*
G01*
G37*
%TD*%
%TO.C,C38*%
G36*
G01*
X75002500Y-132045000D02*
X74497500Y-132045000D01*
G75*
G02*
X74350000Y-131897500I0J147500D01*
G01*
X74350000Y-131602500D01*
G75*
G02*
X74497500Y-131455000I147500J0D01*
G01*
X75002500Y-131455000D01*
G75*
G02*
X75150000Y-131602500I0J-147500D01*
G01*
X75150000Y-131897500D01*
G75*
G02*
X75002500Y-132045000I-147500J0D01*
G01*
G37*
G36*
G01*
X75002500Y-130545000D02*
X74497500Y-130545000D01*
G75*
G02*
X74350000Y-130397500I0J147500D01*
G01*
X74350000Y-130102500D01*
G75*
G02*
X74497500Y-129955000I147500J0D01*
G01*
X75002500Y-129955000D01*
G75*
G02*
X75150000Y-130102500I0J-147500D01*
G01*
X75150000Y-130397500D01*
G75*
G02*
X75002500Y-130545000I-147500J0D01*
G01*
G37*
%TD*%
%TO.C,C39*%
G36*
G01*
X82747500Y-127705000D02*
X83252500Y-127705000D01*
G75*
G02*
X83400000Y-127852500I0J-147500D01*
G01*
X83400000Y-128147500D01*
G75*
G02*
X83252500Y-128295000I-147500J0D01*
G01*
X82747500Y-128295000D01*
G75*
G02*
X82600000Y-128147500I0J147500D01*
G01*
X82600000Y-127852500D01*
G75*
G02*
X82747500Y-127705000I147500J0D01*
G01*
G37*
G36*
G01*
X82747500Y-129205000D02*
X83252500Y-129205000D01*
G75*
G02*
X83400000Y-129352500I0J-147500D01*
G01*
X83400000Y-129647500D01*
G75*
G02*
X83252500Y-129795000I-147500J0D01*
G01*
X82747500Y-129795000D01*
G75*
G02*
X82600000Y-129647500I0J147500D01*
G01*
X82600000Y-129352500D01*
G75*
G02*
X82747500Y-129205000I147500J0D01*
G01*
G37*
%TD*%
%TO.C,C40*%
G36*
G01*
X76152500Y-128345000D02*
X75647500Y-128345000D01*
G75*
G02*
X75500000Y-128197500I0J147500D01*
G01*
X75500000Y-127902500D01*
G75*
G02*
X75647500Y-127755000I147500J0D01*
G01*
X76152500Y-127755000D01*
G75*
G02*
X76300000Y-127902500I0J-147500D01*
G01*
X76300000Y-128197500D01*
G75*
G02*
X76152500Y-128345000I-147500J0D01*
G01*
G37*
G36*
G01*
X76152500Y-126845000D02*
X75647500Y-126845000D01*
G75*
G02*
X75500000Y-126697500I0J147500D01*
G01*
X75500000Y-126402500D01*
G75*
G02*
X75647500Y-126255000I147500J0D01*
G01*
X76152500Y-126255000D01*
G75*
G02*
X76300000Y-126402500I0J-147500D01*
G01*
X76300000Y-126697500D01*
G75*
G02*
X76152500Y-126845000I-147500J0D01*
G01*
G37*
%TD*%
%TO.C,C41*%
G36*
G01*
X91752500Y-130545000D02*
X91247500Y-130545000D01*
G75*
G02*
X91100000Y-130397500I0J147500D01*
G01*
X91100000Y-130102500D01*
G75*
G02*
X91247500Y-129955000I147500J0D01*
G01*
X91752500Y-129955000D01*
G75*
G02*
X91900000Y-130102500I0J-147500D01*
G01*
X91900000Y-130397500D01*
G75*
G02*
X91752500Y-130545000I-147500J0D01*
G01*
G37*
G36*
G01*
X91752500Y-132045000D02*
X91247500Y-132045000D01*
G75*
G02*
X91100000Y-131897500I0J147500D01*
G01*
X91100000Y-131602500D01*
G75*
G02*
X91247500Y-131455000I147500J0D01*
G01*
X91752500Y-131455000D01*
G75*
G02*
X91900000Y-131602500I0J-147500D01*
G01*
X91900000Y-131897500D01*
G75*
G02*
X91752500Y-132045000I-147500J0D01*
G01*
G37*
%TD*%
%TO.C,C42*%
G36*
G01*
X99247500Y-129205000D02*
X99752500Y-129205000D01*
G75*
G02*
X99900000Y-129352500I0J-147500D01*
G01*
X99900000Y-129647500D01*
G75*
G02*
X99752500Y-129795000I-147500J0D01*
G01*
X99247500Y-129795000D01*
G75*
G02*
X99100000Y-129647500I0J147500D01*
G01*
X99100000Y-129352500D01*
G75*
G02*
X99247500Y-129205000I147500J0D01*
G01*
G37*
G36*
G01*
X99247500Y-127705000D02*
X99752500Y-127705000D01*
G75*
G02*
X99900000Y-127852500I0J-147500D01*
G01*
X99900000Y-128147500D01*
G75*
G02*
X99752500Y-128295000I-147500J0D01*
G01*
X99247500Y-128295000D01*
G75*
G02*
X99100000Y-128147500I0J147500D01*
G01*
X99100000Y-127852500D01*
G75*
G02*
X99247500Y-127705000I147500J0D01*
G01*
G37*
%TD*%
%TO.C,C43*%
G36*
G01*
X92652500Y-126845000D02*
X92147500Y-126845000D01*
G75*
G02*
X92000000Y-126697500I0J147500D01*
G01*
X92000000Y-126402500D01*
G75*
G02*
X92147500Y-126255000I147500J0D01*
G01*
X92652500Y-126255000D01*
G75*
G02*
X92800000Y-126402500I0J-147500D01*
G01*
X92800000Y-126697500D01*
G75*
G02*
X92652500Y-126845000I-147500J0D01*
G01*
G37*
G36*
G01*
X92652500Y-128345000D02*
X92147500Y-128345000D01*
G75*
G02*
X92000000Y-128197500I0J147500D01*
G01*
X92000000Y-127902500D01*
G75*
G02*
X92147500Y-127755000I147500J0D01*
G01*
X92652500Y-127755000D01*
G75*
G02*
X92800000Y-127902500I0J-147500D01*
G01*
X92800000Y-128197500D01*
G75*
G02*
X92652500Y-128345000I-147500J0D01*
G01*
G37*
%TD*%
%TO.C,C44*%
G36*
G01*
X108252500Y-132045000D02*
X107747500Y-132045000D01*
G75*
G02*
X107600000Y-131897500I0J147500D01*
G01*
X107600000Y-131602500D01*
G75*
G02*
X107747500Y-131455000I147500J0D01*
G01*
X108252500Y-131455000D01*
G75*
G02*
X108400000Y-131602500I0J-147500D01*
G01*
X108400000Y-131897500D01*
G75*
G02*
X108252500Y-132045000I-147500J0D01*
G01*
G37*
G36*
G01*
X108252500Y-130545000D02*
X107747500Y-130545000D01*
G75*
G02*
X107600000Y-130397500I0J147500D01*
G01*
X107600000Y-130102500D01*
G75*
G02*
X107747500Y-129955000I147500J0D01*
G01*
X108252500Y-129955000D01*
G75*
G02*
X108400000Y-130102500I0J-147500D01*
G01*
X108400000Y-130397500D01*
G75*
G02*
X108252500Y-130545000I-147500J0D01*
G01*
G37*
%TD*%
%TO.C,L1*%
G36*
G01*
X53350000Y-163737500D02*
X53350000Y-163262500D01*
G75*
G02*
X53587500Y-163025000I237500J0D01*
G01*
X54162500Y-163025000D01*
G75*
G02*
X54400000Y-163262500I0J-237500D01*
G01*
X54400000Y-163737500D01*
G75*
G02*
X54162500Y-163975000I-237500J0D01*
G01*
X53587500Y-163975000D01*
G75*
G02*
X53350000Y-163737500I0J237500D01*
G01*
G37*
G36*
G01*
X55100000Y-163737500D02*
X55100000Y-163262500D01*
G75*
G02*
X55337500Y-163025000I237500J0D01*
G01*
X55912500Y-163025000D01*
G75*
G02*
X56150000Y-163262500I0J-237500D01*
G01*
X56150000Y-163737500D01*
G75*
G02*
X55912500Y-163975000I-237500J0D01*
G01*
X55337500Y-163975000D01*
G75*
G02*
X55100000Y-163737500I0J237500D01*
G01*
G37*
%TD*%
%TO.C,L2*%
G36*
G01*
X124545000Y-114997500D02*
X124545000Y-115502500D01*
G75*
G02*
X124397500Y-115650000I-147500J0D01*
G01*
X124102500Y-115650000D01*
G75*
G02*
X123955000Y-115502500I0J147500D01*
G01*
X123955000Y-114997500D01*
G75*
G02*
X124102500Y-114850000I147500J0D01*
G01*
X124397500Y-114850000D01*
G75*
G02*
X124545000Y-114997500I0J-147500D01*
G01*
G37*
G36*
G01*
X126045000Y-114997500D02*
X126045000Y-115502500D01*
G75*
G02*
X125897500Y-115650000I-147500J0D01*
G01*
X125602500Y-115650000D01*
G75*
G02*
X125455000Y-115502500I0J147500D01*
G01*
X125455000Y-114997500D01*
G75*
G02*
X125602500Y-114850000I147500J0D01*
G01*
X125897500Y-114850000D01*
G75*
G02*
X126045000Y-114997500I0J-147500D01*
G01*
G37*
%TD*%
%TO.C,L3*%
G36*
G01*
X125795000Y-101497500D02*
X125795000Y-102002500D01*
G75*
G02*
X125647500Y-102150000I-147500J0D01*
G01*
X125352500Y-102150000D01*
G75*
G02*
X125205000Y-102002500I0J147500D01*
G01*
X125205000Y-101497500D01*
G75*
G02*
X125352500Y-101350000I147500J0D01*
G01*
X125647500Y-101350000D01*
G75*
G02*
X125795000Y-101497500I0J-147500D01*
G01*
G37*
G36*
G01*
X127295000Y-101497500D02*
X127295000Y-102002500D01*
G75*
G02*
X127147500Y-102150000I-147500J0D01*
G01*
X126852500Y-102150000D01*
G75*
G02*
X126705000Y-102002500I0J147500D01*
G01*
X126705000Y-101497500D01*
G75*
G02*
X126852500Y-101350000I147500J0D01*
G01*
X127147500Y-101350000D01*
G75*
G02*
X127295000Y-101497500I0J-147500D01*
G01*
G37*
%TD*%
%TO.C,L4*%
G36*
G01*
X107002500Y-146145000D02*
X106497500Y-146145000D01*
G75*
G02*
X106350000Y-145997500I0J147500D01*
G01*
X106350000Y-145702500D01*
G75*
G02*
X106497500Y-145555000I147500J0D01*
G01*
X107002500Y-145555000D01*
G75*
G02*
X107150000Y-145702500I0J-147500D01*
G01*
X107150000Y-145997500D01*
G75*
G02*
X107002500Y-146145000I-147500J0D01*
G01*
G37*
G36*
G01*
X107002500Y-144645000D02*
X106497500Y-144645000D01*
G75*
G02*
X106350000Y-144497500I0J147500D01*
G01*
X106350000Y-144202500D01*
G75*
G02*
X106497500Y-144055000I147500J0D01*
G01*
X107002500Y-144055000D01*
G75*
G02*
X107150000Y-144202500I0J-147500D01*
G01*
X107150000Y-144497500D01*
G75*
G02*
X107002500Y-144645000I-147500J0D01*
G01*
G37*
%TD*%
%TO.C,L5*%
G36*
G01*
X121002500Y-144645000D02*
X120497500Y-144645000D01*
G75*
G02*
X120350000Y-144497500I0J147500D01*
G01*
X120350000Y-144202500D01*
G75*
G02*
X120497500Y-144055000I147500J0D01*
G01*
X121002500Y-144055000D01*
G75*
G02*
X121150000Y-144202500I0J-147500D01*
G01*
X121150000Y-144497500D01*
G75*
G02*
X121002500Y-144645000I-147500J0D01*
G01*
G37*
G36*
G01*
X121002500Y-146145000D02*
X120497500Y-146145000D01*
G75*
G02*
X120350000Y-145997500I0J147500D01*
G01*
X120350000Y-145702500D01*
G75*
G02*
X120497500Y-145555000I147500J0D01*
G01*
X121002500Y-145555000D01*
G75*
G02*
X121150000Y-145702500I0J-147500D01*
G01*
X121150000Y-145997500D01*
G75*
G02*
X121002500Y-146145000I-147500J0D01*
G01*
G37*
%TD*%
%TO.C,L6*%
G36*
G01*
X135002500Y-144645000D02*
X134497500Y-144645000D01*
G75*
G02*
X134350000Y-144497500I0J147500D01*
G01*
X134350000Y-144202500D01*
G75*
G02*
X134497500Y-144055000I147500J0D01*
G01*
X135002500Y-144055000D01*
G75*
G02*
X135150000Y-144202500I0J-147500D01*
G01*
X135150000Y-144497500D01*
G75*
G02*
X135002500Y-144645000I-147500J0D01*
G01*
G37*
G36*
G01*
X135002500Y-146145000D02*
X134497500Y-146145000D01*
G75*
G02*
X134350000Y-145997500I0J147500D01*
G01*
X134350000Y-145702500D01*
G75*
G02*
X134497500Y-145555000I147500J0D01*
G01*
X135002500Y-145555000D01*
G75*
G02*
X135150000Y-145702500I0J-147500D01*
G01*
X135150000Y-145997500D01*
G75*
G02*
X135002500Y-146145000I-147500J0D01*
G01*
G37*
%TD*%
%TO.C,L7*%
G36*
G01*
X72997500Y-129955000D02*
X73502500Y-129955000D01*
G75*
G02*
X73650000Y-130102500I0J-147500D01*
G01*
X73650000Y-130397500D01*
G75*
G02*
X73502500Y-130545000I-147500J0D01*
G01*
X72997500Y-130545000D01*
G75*
G02*
X72850000Y-130397500I0J147500D01*
G01*
X72850000Y-130102500D01*
G75*
G02*
X72997500Y-129955000I147500J0D01*
G01*
G37*
G36*
G01*
X72997500Y-131455000D02*
X73502500Y-131455000D01*
G75*
G02*
X73650000Y-131602500I0J-147500D01*
G01*
X73650000Y-131897500D01*
G75*
G02*
X73502500Y-132045000I-147500J0D01*
G01*
X72997500Y-132045000D01*
G75*
G02*
X72850000Y-131897500I0J147500D01*
G01*
X72850000Y-131602500D01*
G75*
G02*
X72997500Y-131455000I147500J0D01*
G01*
G37*
%TD*%
%TO.C,L8*%
G36*
G01*
X89747500Y-131455000D02*
X90252500Y-131455000D01*
G75*
G02*
X90400000Y-131602500I0J-147500D01*
G01*
X90400000Y-131897500D01*
G75*
G02*
X90252500Y-132045000I-147500J0D01*
G01*
X89747500Y-132045000D01*
G75*
G02*
X89600000Y-131897500I0J147500D01*
G01*
X89600000Y-131602500D01*
G75*
G02*
X89747500Y-131455000I147500J0D01*
G01*
G37*
G36*
G01*
X89747500Y-129955000D02*
X90252500Y-129955000D01*
G75*
G02*
X90400000Y-130102500I0J-147500D01*
G01*
X90400000Y-130397500D01*
G75*
G02*
X90252500Y-130545000I-147500J0D01*
G01*
X89747500Y-130545000D01*
G75*
G02*
X89600000Y-130397500I0J147500D01*
G01*
X89600000Y-130102500D01*
G75*
G02*
X89747500Y-129955000I147500J0D01*
G01*
G37*
%TD*%
%TO.C,L9*%
G36*
G01*
X106247500Y-129955000D02*
X106752500Y-129955000D01*
G75*
G02*
X106900000Y-130102500I0J-147500D01*
G01*
X106900000Y-130397500D01*
G75*
G02*
X106752500Y-130545000I-147500J0D01*
G01*
X106247500Y-130545000D01*
G75*
G02*
X106100000Y-130397500I0J147500D01*
G01*
X106100000Y-130102500D01*
G75*
G02*
X106247500Y-129955000I147500J0D01*
G01*
G37*
G36*
G01*
X106247500Y-131455000D02*
X106752500Y-131455000D01*
G75*
G02*
X106900000Y-131602500I0J-147500D01*
G01*
X106900000Y-131897500D01*
G75*
G02*
X106752500Y-132045000I-147500J0D01*
G01*
X106247500Y-132045000D01*
G75*
G02*
X106100000Y-131897500I0J147500D01*
G01*
X106100000Y-131602500D01*
G75*
G02*
X106247500Y-131455000I147500J0D01*
G01*
G37*
%TD*%
%TO.C,R2*%
G36*
G01*
X54075000Y-148262500D02*
X54075000Y-148737500D01*
G75*
G02*
X53837500Y-148975000I-237500J0D01*
G01*
X53337500Y-148975000D01*
G75*
G02*
X53100000Y-148737500I0J237500D01*
G01*
X53100000Y-148262500D01*
G75*
G02*
X53337500Y-148025000I237500J0D01*
G01*
X53837500Y-148025000D01*
G75*
G02*
X54075000Y-148262500I0J-237500D01*
G01*
G37*
G36*
G01*
X55900000Y-148262500D02*
X55900000Y-148737500D01*
G75*
G02*
X55662500Y-148975000I-237500J0D01*
G01*
X55162500Y-148975000D01*
G75*
G02*
X54925000Y-148737500I0J237500D01*
G01*
X54925000Y-148262500D01*
G75*
G02*
X55162500Y-148025000I237500J0D01*
G01*
X55662500Y-148025000D01*
G75*
G02*
X55900000Y-148262500I0J-237500D01*
G01*
G37*
%TD*%
%TO.C,R3*%
G36*
G01*
X142247500Y-134705000D02*
X142752500Y-134705000D01*
G75*
G02*
X142900000Y-134852500I0J-147500D01*
G01*
X142900000Y-135147500D01*
G75*
G02*
X142752500Y-135295000I-147500J0D01*
G01*
X142247500Y-135295000D01*
G75*
G02*
X142100000Y-135147500I0J147500D01*
G01*
X142100000Y-134852500D01*
G75*
G02*
X142247500Y-134705000I147500J0D01*
G01*
G37*
G36*
G01*
X142247500Y-133205000D02*
X142752500Y-133205000D01*
G75*
G02*
X142900000Y-133352500I0J-147500D01*
G01*
X142900000Y-133647500D01*
G75*
G02*
X142752500Y-133795000I-147500J0D01*
G01*
X142247500Y-133795000D01*
G75*
G02*
X142100000Y-133647500I0J147500D01*
G01*
X142100000Y-133352500D01*
G75*
G02*
X142247500Y-133205000I147500J0D01*
G01*
G37*
%TD*%
%TO.C,R4*%
G36*
G01*
X129545000Y-122747500D02*
X129545000Y-123252500D01*
G75*
G02*
X129397500Y-123400000I-147500J0D01*
G01*
X129102500Y-123400000D01*
G75*
G02*
X128955000Y-123252500I0J147500D01*
G01*
X128955000Y-122747500D01*
G75*
G02*
X129102500Y-122600000I147500J0D01*
G01*
X129397500Y-122600000D01*
G75*
G02*
X129545000Y-122747500I0J-147500D01*
G01*
G37*
G36*
G01*
X128045000Y-122747500D02*
X128045000Y-123252500D01*
G75*
G02*
X127897500Y-123400000I-147500J0D01*
G01*
X127602500Y-123400000D01*
G75*
G02*
X127455000Y-123252500I0J147500D01*
G01*
X127455000Y-122747500D01*
G75*
G02*
X127602500Y-122600000I147500J0D01*
G01*
X127897500Y-122600000D01*
G75*
G02*
X128045000Y-122747500I0J-147500D01*
G01*
G37*
%TD*%
%TO.C,R5*%
G36*
G01*
X128002500Y-120295000D02*
X127497500Y-120295000D01*
G75*
G02*
X127350000Y-120147500I0J147500D01*
G01*
X127350000Y-119852500D01*
G75*
G02*
X127497500Y-119705000I147500J0D01*
G01*
X128002500Y-119705000D01*
G75*
G02*
X128150000Y-119852500I0J-147500D01*
G01*
X128150000Y-120147500D01*
G75*
G02*
X128002500Y-120295000I-147500J0D01*
G01*
G37*
G36*
G01*
X128002500Y-121795000D02*
X127497500Y-121795000D01*
G75*
G02*
X127350000Y-121647500I0J147500D01*
G01*
X127350000Y-121352500D01*
G75*
G02*
X127497500Y-121205000I147500J0D01*
G01*
X128002500Y-121205000D01*
G75*
G02*
X128150000Y-121352500I0J-147500D01*
G01*
X128150000Y-121647500D01*
G75*
G02*
X128002500Y-121795000I-147500J0D01*
G01*
G37*
%TD*%
%TO.C,R6*%
G36*
G01*
X128002500Y-117545000D02*
X127497500Y-117545000D01*
G75*
G02*
X127350000Y-117397500I0J147500D01*
G01*
X127350000Y-117102500D01*
G75*
G02*
X127497500Y-116955000I147500J0D01*
G01*
X128002500Y-116955000D01*
G75*
G02*
X128150000Y-117102500I0J-147500D01*
G01*
X128150000Y-117397500D01*
G75*
G02*
X128002500Y-117545000I-147500J0D01*
G01*
G37*
G36*
G01*
X128002500Y-119045000D02*
X127497500Y-119045000D01*
G75*
G02*
X127350000Y-118897500I0J147500D01*
G01*
X127350000Y-118602500D01*
G75*
G02*
X127497500Y-118455000I147500J0D01*
G01*
X128002500Y-118455000D01*
G75*
G02*
X128150000Y-118602500I0J-147500D01*
G01*
X128150000Y-118897500D01*
G75*
G02*
X128002500Y-119045000I-147500J0D01*
G01*
G37*
%TD*%
%TO.C,R7*%
G36*
G01*
X128002500Y-131545000D02*
X127497500Y-131545000D01*
G75*
G02*
X127350000Y-131397500I0J147500D01*
G01*
X127350000Y-131102500D01*
G75*
G02*
X127497500Y-130955000I147500J0D01*
G01*
X128002500Y-130955000D01*
G75*
G02*
X128150000Y-131102500I0J-147500D01*
G01*
X128150000Y-131397500D01*
G75*
G02*
X128002500Y-131545000I-147500J0D01*
G01*
G37*
G36*
G01*
X128002500Y-130045000D02*
X127497500Y-130045000D01*
G75*
G02*
X127350000Y-129897500I0J147500D01*
G01*
X127350000Y-129602500D01*
G75*
G02*
X127497500Y-129455000I147500J0D01*
G01*
X128002500Y-129455000D01*
G75*
G02*
X128150000Y-129602500I0J-147500D01*
G01*
X128150000Y-129897500D01*
G75*
G02*
X128002500Y-130045000I-147500J0D01*
G01*
G37*
%TD*%
%TO.C,R8*%
G36*
G01*
X128002500Y-128795000D02*
X127497500Y-128795000D01*
G75*
G02*
X127350000Y-128647500I0J147500D01*
G01*
X127350000Y-128352500D01*
G75*
G02*
X127497500Y-128205000I147500J0D01*
G01*
X128002500Y-128205000D01*
G75*
G02*
X128150000Y-128352500I0J-147500D01*
G01*
X128150000Y-128647500D01*
G75*
G02*
X128002500Y-128795000I-147500J0D01*
G01*
G37*
G36*
G01*
X128002500Y-127295000D02*
X127497500Y-127295000D01*
G75*
G02*
X127350000Y-127147500I0J147500D01*
G01*
X127350000Y-126852500D01*
G75*
G02*
X127497500Y-126705000I147500J0D01*
G01*
X128002500Y-126705000D01*
G75*
G02*
X128150000Y-126852500I0J-147500D01*
G01*
X128150000Y-127147500D01*
G75*
G02*
X128002500Y-127295000I-147500J0D01*
G01*
G37*
%TD*%
%TO.C,R9*%
G36*
G01*
X128955000Y-125752500D02*
X128955000Y-125247500D01*
G75*
G02*
X129102500Y-125100000I147500J0D01*
G01*
X129397500Y-125100000D01*
G75*
G02*
X129545000Y-125247500I0J-147500D01*
G01*
X129545000Y-125752500D01*
G75*
G02*
X129397500Y-125900000I-147500J0D01*
G01*
X129102500Y-125900000D01*
G75*
G02*
X128955000Y-125752500I0J147500D01*
G01*
G37*
G36*
G01*
X127455000Y-125752500D02*
X127455000Y-125247500D01*
G75*
G02*
X127602500Y-125100000I147500J0D01*
G01*
X127897500Y-125100000D01*
G75*
G02*
X128045000Y-125247500I0J-147500D01*
G01*
X128045000Y-125752500D01*
G75*
G02*
X127897500Y-125900000I-147500J0D01*
G01*
X127602500Y-125900000D01*
G75*
G02*
X127455000Y-125752500I0J147500D01*
G01*
G37*
%TD*%
%TO.C,R10*%
G36*
G01*
X118545000Y-119747500D02*
X118545000Y-120252500D01*
G75*
G02*
X118397500Y-120400000I-147500J0D01*
G01*
X118102500Y-120400000D01*
G75*
G02*
X117955000Y-120252500I0J147500D01*
G01*
X117955000Y-119747500D01*
G75*
G02*
X118102500Y-119600000I147500J0D01*
G01*
X118397500Y-119600000D01*
G75*
G02*
X118545000Y-119747500I0J-147500D01*
G01*
G37*
G36*
G01*
X117045000Y-119747500D02*
X117045000Y-120252500D01*
G75*
G02*
X116897500Y-120400000I-147500J0D01*
G01*
X116602500Y-120400000D01*
G75*
G02*
X116455000Y-120252500I0J147500D01*
G01*
X116455000Y-119747500D01*
G75*
G02*
X116602500Y-119600000I147500J0D01*
G01*
X116897500Y-119600000D01*
G75*
G02*
X117045000Y-119747500I0J-147500D01*
G01*
G37*
%TD*%
%TO.C,R11*%
G36*
G01*
X118545000Y-126747500D02*
X118545000Y-127252500D01*
G75*
G02*
X118397500Y-127400000I-147500J0D01*
G01*
X118102500Y-127400000D01*
G75*
G02*
X117955000Y-127252500I0J147500D01*
G01*
X117955000Y-126747500D01*
G75*
G02*
X118102500Y-126600000I147500J0D01*
G01*
X118397500Y-126600000D01*
G75*
G02*
X118545000Y-126747500I0J-147500D01*
G01*
G37*
G36*
G01*
X117045000Y-126747500D02*
X117045000Y-127252500D01*
G75*
G02*
X116897500Y-127400000I-147500J0D01*
G01*
X116602500Y-127400000D01*
G75*
G02*
X116455000Y-127252500I0J147500D01*
G01*
X116455000Y-126747500D01*
G75*
G02*
X116602500Y-126600000I147500J0D01*
G01*
X116897500Y-126600000D01*
G75*
G02*
X117045000Y-126747500I0J-147500D01*
G01*
G37*
%TD*%
%TO.C,R12*%
G36*
G01*
X133545000Y-115747500D02*
X133545000Y-116252500D01*
G75*
G02*
X133397500Y-116400000I-147500J0D01*
G01*
X133102500Y-116400000D01*
G75*
G02*
X132955000Y-116252500I0J147500D01*
G01*
X132955000Y-115747500D01*
G75*
G02*
X133102500Y-115600000I147500J0D01*
G01*
X133397500Y-115600000D01*
G75*
G02*
X133545000Y-115747500I0J-147500D01*
G01*
G37*
G36*
G01*
X132045000Y-115747500D02*
X132045000Y-116252500D01*
G75*
G02*
X131897500Y-116400000I-147500J0D01*
G01*
X131602500Y-116400000D01*
G75*
G02*
X131455000Y-116252500I0J147500D01*
G01*
X131455000Y-115747500D01*
G75*
G02*
X131602500Y-115600000I147500J0D01*
G01*
X131897500Y-115600000D01*
G75*
G02*
X132045000Y-115747500I0J-147500D01*
G01*
G37*
%TD*%
%TO.C,R16*%
G36*
G01*
X130752500Y-109045000D02*
X130247500Y-109045000D01*
G75*
G02*
X130100000Y-108897500I0J147500D01*
G01*
X130100000Y-108602500D01*
G75*
G02*
X130247500Y-108455000I147500J0D01*
G01*
X130752500Y-108455000D01*
G75*
G02*
X130900000Y-108602500I0J-147500D01*
G01*
X130900000Y-108897500D01*
G75*
G02*
X130752500Y-109045000I-147500J0D01*
G01*
G37*
G36*
G01*
X130752500Y-110545000D02*
X130247500Y-110545000D01*
G75*
G02*
X130100000Y-110397500I0J147500D01*
G01*
X130100000Y-110102500D01*
G75*
G02*
X130247500Y-109955000I147500J0D01*
G01*
X130752500Y-109955000D01*
G75*
G02*
X130900000Y-110102500I0J-147500D01*
G01*
X130900000Y-110397500D01*
G75*
G02*
X130752500Y-110545000I-147500J0D01*
G01*
G37*
%TD*%
%TO.C,R17*%
G36*
G01*
X130752500Y-107795000D02*
X130247500Y-107795000D01*
G75*
G02*
X130100000Y-107647500I0J147500D01*
G01*
X130100000Y-107352500D01*
G75*
G02*
X130247500Y-107205000I147500J0D01*
G01*
X130752500Y-107205000D01*
G75*
G02*
X130900000Y-107352500I0J-147500D01*
G01*
X130900000Y-107647500D01*
G75*
G02*
X130752500Y-107795000I-147500J0D01*
G01*
G37*
G36*
G01*
X130752500Y-106295000D02*
X130247500Y-106295000D01*
G75*
G02*
X130100000Y-106147500I0J147500D01*
G01*
X130100000Y-105852500D01*
G75*
G02*
X130247500Y-105705000I147500J0D01*
G01*
X130752500Y-105705000D01*
G75*
G02*
X130900000Y-105852500I0J-147500D01*
G01*
X130900000Y-106147500D01*
G75*
G02*
X130752500Y-106295000I-147500J0D01*
G01*
G37*
%TD*%
%TO.C,R18*%
G36*
G01*
X130752500Y-105045000D02*
X130247500Y-105045000D01*
G75*
G02*
X130100000Y-104897500I0J147500D01*
G01*
X130100000Y-104602500D01*
G75*
G02*
X130247500Y-104455000I147500J0D01*
G01*
X130752500Y-104455000D01*
G75*
G02*
X130900000Y-104602500I0J-147500D01*
G01*
X130900000Y-104897500D01*
G75*
G02*
X130752500Y-105045000I-147500J0D01*
G01*
G37*
G36*
G01*
X130752500Y-103545000D02*
X130247500Y-103545000D01*
G75*
G02*
X130100000Y-103397500I0J147500D01*
G01*
X130100000Y-103102500D01*
G75*
G02*
X130247500Y-102955000I147500J0D01*
G01*
X130752500Y-102955000D01*
G75*
G02*
X130900000Y-103102500I0J-147500D01*
G01*
X130900000Y-103397500D01*
G75*
G02*
X130752500Y-103545000I-147500J0D01*
G01*
G37*
%TD*%
%TO.C,R24*%
G36*
G01*
X120295000Y-105747500D02*
X120295000Y-106252500D01*
G75*
G02*
X120147500Y-106400000I-147500J0D01*
G01*
X119852500Y-106400000D01*
G75*
G02*
X119705000Y-106252500I0J147500D01*
G01*
X119705000Y-105747500D01*
G75*
G02*
X119852500Y-105600000I147500J0D01*
G01*
X120147500Y-105600000D01*
G75*
G02*
X120295000Y-105747500I0J-147500D01*
G01*
G37*
G36*
G01*
X118795000Y-105747500D02*
X118795000Y-106252500D01*
G75*
G02*
X118647500Y-106400000I-147500J0D01*
G01*
X118352500Y-106400000D01*
G75*
G02*
X118205000Y-106252500I0J147500D01*
G01*
X118205000Y-105747500D01*
G75*
G02*
X118352500Y-105600000I147500J0D01*
G01*
X118647500Y-105600000D01*
G75*
G02*
X118795000Y-105747500I0J-147500D01*
G01*
G37*
%TD*%
%TO.C,R35*%
G36*
G01*
X106997500Y-157055000D02*
X107502500Y-157055000D01*
G75*
G02*
X107650000Y-157202500I0J-147500D01*
G01*
X107650000Y-157497500D01*
G75*
G02*
X107502500Y-157645000I-147500J0D01*
G01*
X106997500Y-157645000D01*
G75*
G02*
X106850000Y-157497500I0J147500D01*
G01*
X106850000Y-157202500D01*
G75*
G02*
X106997500Y-157055000I147500J0D01*
G01*
G37*
G36*
G01*
X106997500Y-155555000D02*
X107502500Y-155555000D01*
G75*
G02*
X107650000Y-155702500I0J-147500D01*
G01*
X107650000Y-155997500D01*
G75*
G02*
X107502500Y-156145000I-147500J0D01*
G01*
X106997500Y-156145000D01*
G75*
G02*
X106850000Y-155997500I0J147500D01*
G01*
X106850000Y-155702500D01*
G75*
G02*
X106997500Y-155555000I147500J0D01*
G01*
G37*
%TD*%
%TO.C,R36*%
G36*
G01*
X109955000Y-156852500D02*
X109955000Y-156347500D01*
G75*
G02*
X110102500Y-156200000I147500J0D01*
G01*
X110397500Y-156200000D01*
G75*
G02*
X110545000Y-156347500I0J-147500D01*
G01*
X110545000Y-156852500D01*
G75*
G02*
X110397500Y-157000000I-147500J0D01*
G01*
X110102500Y-157000000D01*
G75*
G02*
X109955000Y-156852500I0J147500D01*
G01*
G37*
G36*
G01*
X108455000Y-156852500D02*
X108455000Y-156347500D01*
G75*
G02*
X108602500Y-156200000I147500J0D01*
G01*
X108897500Y-156200000D01*
G75*
G02*
X109045000Y-156347500I0J-147500D01*
G01*
X109045000Y-156852500D01*
G75*
G02*
X108897500Y-157000000I-147500J0D01*
G01*
X108602500Y-157000000D01*
G75*
G02*
X108455000Y-156852500I0J147500D01*
G01*
G37*
%TD*%
%TO.C,R37*%
G36*
G01*
X112002500Y-156145000D02*
X111497500Y-156145000D01*
G75*
G02*
X111350000Y-155997500I0J147500D01*
G01*
X111350000Y-155702500D01*
G75*
G02*
X111497500Y-155555000I147500J0D01*
G01*
X112002500Y-155555000D01*
G75*
G02*
X112150000Y-155702500I0J-147500D01*
G01*
X112150000Y-155997500D01*
G75*
G02*
X112002500Y-156145000I-147500J0D01*
G01*
G37*
G36*
G01*
X112002500Y-157645000D02*
X111497500Y-157645000D01*
G75*
G02*
X111350000Y-157497500I0J147500D01*
G01*
X111350000Y-157202500D01*
G75*
G02*
X111497500Y-157055000I147500J0D01*
G01*
X112002500Y-157055000D01*
G75*
G02*
X112150000Y-157202500I0J-147500D01*
G01*
X112150000Y-157497500D01*
G75*
G02*
X112002500Y-157645000I-147500J0D01*
G01*
G37*
%TD*%
%TO.C,R38*%
G36*
G01*
X113502500Y-156145000D02*
X112997500Y-156145000D01*
G75*
G02*
X112850000Y-155997500I0J147500D01*
G01*
X112850000Y-155702500D01*
G75*
G02*
X112997500Y-155555000I147500J0D01*
G01*
X113502500Y-155555000D01*
G75*
G02*
X113650000Y-155702500I0J-147500D01*
G01*
X113650000Y-155997500D01*
G75*
G02*
X113502500Y-156145000I-147500J0D01*
G01*
G37*
G36*
G01*
X113502500Y-157645000D02*
X112997500Y-157645000D01*
G75*
G02*
X112850000Y-157497500I0J147500D01*
G01*
X112850000Y-157202500D01*
G75*
G02*
X112997500Y-157055000I147500J0D01*
G01*
X113502500Y-157055000D01*
G75*
G02*
X113650000Y-157202500I0J-147500D01*
G01*
X113650000Y-157497500D01*
G75*
G02*
X113502500Y-157645000I-147500J0D01*
G01*
G37*
%TD*%
%TO.C,R39*%
G36*
G01*
X115955000Y-156852500D02*
X115955000Y-156347500D01*
G75*
G02*
X116102500Y-156200000I147500J0D01*
G01*
X116397500Y-156200000D01*
G75*
G02*
X116545000Y-156347500I0J-147500D01*
G01*
X116545000Y-156852500D01*
G75*
G02*
X116397500Y-157000000I-147500J0D01*
G01*
X116102500Y-157000000D01*
G75*
G02*
X115955000Y-156852500I0J147500D01*
G01*
G37*
G36*
G01*
X114455000Y-156852500D02*
X114455000Y-156347500D01*
G75*
G02*
X114602500Y-156200000I147500J0D01*
G01*
X114897500Y-156200000D01*
G75*
G02*
X115045000Y-156347500I0J-147500D01*
G01*
X115045000Y-156852500D01*
G75*
G02*
X114897500Y-157000000I-147500J0D01*
G01*
X114602500Y-157000000D01*
G75*
G02*
X114455000Y-156852500I0J147500D01*
G01*
G37*
%TD*%
%TO.C,R40*%
G36*
G01*
X118002500Y-157645000D02*
X117497500Y-157645000D01*
G75*
G02*
X117350000Y-157497500I0J147500D01*
G01*
X117350000Y-157202500D01*
G75*
G02*
X117497500Y-157055000I147500J0D01*
G01*
X118002500Y-157055000D01*
G75*
G02*
X118150000Y-157202500I0J-147500D01*
G01*
X118150000Y-157497500D01*
G75*
G02*
X118002500Y-157645000I-147500J0D01*
G01*
G37*
G36*
G01*
X118002500Y-156145000D02*
X117497500Y-156145000D01*
G75*
G02*
X117350000Y-155997500I0J147500D01*
G01*
X117350000Y-155702500D01*
G75*
G02*
X117497500Y-155555000I147500J0D01*
G01*
X118002500Y-155555000D01*
G75*
G02*
X118150000Y-155702500I0J-147500D01*
G01*
X118150000Y-155997500D01*
G75*
G02*
X118002500Y-156145000I-147500J0D01*
G01*
G37*
%TD*%
%TO.C,R46*%
G36*
G01*
X120997500Y-157055000D02*
X121502500Y-157055000D01*
G75*
G02*
X121650000Y-157202500I0J-147500D01*
G01*
X121650000Y-157497500D01*
G75*
G02*
X121502500Y-157645000I-147500J0D01*
G01*
X120997500Y-157645000D01*
G75*
G02*
X120850000Y-157497500I0J147500D01*
G01*
X120850000Y-157202500D01*
G75*
G02*
X120997500Y-157055000I147500J0D01*
G01*
G37*
G36*
G01*
X120997500Y-155555000D02*
X121502500Y-155555000D01*
G75*
G02*
X121650000Y-155702500I0J-147500D01*
G01*
X121650000Y-155997500D01*
G75*
G02*
X121502500Y-156145000I-147500J0D01*
G01*
X120997500Y-156145000D01*
G75*
G02*
X120850000Y-155997500I0J147500D01*
G01*
X120850000Y-155702500D01*
G75*
G02*
X120997500Y-155555000I147500J0D01*
G01*
G37*
%TD*%
%TO.C,R47*%
G36*
G01*
X122455000Y-156852500D02*
X122455000Y-156347500D01*
G75*
G02*
X122602500Y-156200000I147500J0D01*
G01*
X122897500Y-156200000D01*
G75*
G02*
X123045000Y-156347500I0J-147500D01*
G01*
X123045000Y-156852500D01*
G75*
G02*
X122897500Y-157000000I-147500J0D01*
G01*
X122602500Y-157000000D01*
G75*
G02*
X122455000Y-156852500I0J147500D01*
G01*
G37*
G36*
G01*
X123955000Y-156852500D02*
X123955000Y-156347500D01*
G75*
G02*
X124102500Y-156200000I147500J0D01*
G01*
X124397500Y-156200000D01*
G75*
G02*
X124545000Y-156347500I0J-147500D01*
G01*
X124545000Y-156852500D01*
G75*
G02*
X124397500Y-157000000I-147500J0D01*
G01*
X124102500Y-157000000D01*
G75*
G02*
X123955000Y-156852500I0J147500D01*
G01*
G37*
%TD*%
%TO.C,R48*%
G36*
G01*
X126002500Y-156145000D02*
X125497500Y-156145000D01*
G75*
G02*
X125350000Y-155997500I0J147500D01*
G01*
X125350000Y-155702500D01*
G75*
G02*
X125497500Y-155555000I147500J0D01*
G01*
X126002500Y-155555000D01*
G75*
G02*
X126150000Y-155702500I0J-147500D01*
G01*
X126150000Y-155997500D01*
G75*
G02*
X126002500Y-156145000I-147500J0D01*
G01*
G37*
G36*
G01*
X126002500Y-157645000D02*
X125497500Y-157645000D01*
G75*
G02*
X125350000Y-157497500I0J147500D01*
G01*
X125350000Y-157202500D01*
G75*
G02*
X125497500Y-157055000I147500J0D01*
G01*
X126002500Y-157055000D01*
G75*
G02*
X126150000Y-157202500I0J-147500D01*
G01*
X126150000Y-157497500D01*
G75*
G02*
X126002500Y-157645000I-147500J0D01*
G01*
G37*
%TD*%
%TO.C,R49*%
G36*
G01*
X127502500Y-157645000D02*
X126997500Y-157645000D01*
G75*
G02*
X126850000Y-157497500I0J147500D01*
G01*
X126850000Y-157202500D01*
G75*
G02*
X126997500Y-157055000I147500J0D01*
G01*
X127502500Y-157055000D01*
G75*
G02*
X127650000Y-157202500I0J-147500D01*
G01*
X127650000Y-157497500D01*
G75*
G02*
X127502500Y-157645000I-147500J0D01*
G01*
G37*
G36*
G01*
X127502500Y-156145000D02*
X126997500Y-156145000D01*
G75*
G02*
X126850000Y-155997500I0J147500D01*
G01*
X126850000Y-155702500D01*
G75*
G02*
X126997500Y-155555000I147500J0D01*
G01*
X127502500Y-155555000D01*
G75*
G02*
X127650000Y-155702500I0J-147500D01*
G01*
X127650000Y-155997500D01*
G75*
G02*
X127502500Y-156145000I-147500J0D01*
G01*
G37*
%TD*%
%TO.C,R50*%
G36*
G01*
X128455000Y-156852500D02*
X128455000Y-156347500D01*
G75*
G02*
X128602500Y-156200000I147500J0D01*
G01*
X128897500Y-156200000D01*
G75*
G02*
X129045000Y-156347500I0J-147500D01*
G01*
X129045000Y-156852500D01*
G75*
G02*
X128897500Y-157000000I-147500J0D01*
G01*
X128602500Y-157000000D01*
G75*
G02*
X128455000Y-156852500I0J147500D01*
G01*
G37*
G36*
G01*
X129955000Y-156852500D02*
X129955000Y-156347500D01*
G75*
G02*
X130102500Y-156200000I147500J0D01*
G01*
X130397500Y-156200000D01*
G75*
G02*
X130545000Y-156347500I0J-147500D01*
G01*
X130545000Y-156852500D01*
G75*
G02*
X130397500Y-157000000I-147500J0D01*
G01*
X130102500Y-157000000D01*
G75*
G02*
X129955000Y-156852500I0J147500D01*
G01*
G37*
%TD*%
%TO.C,R51*%
G36*
G01*
X132002500Y-157645000D02*
X131497500Y-157645000D01*
G75*
G02*
X131350000Y-157497500I0J147500D01*
G01*
X131350000Y-157202500D01*
G75*
G02*
X131497500Y-157055000I147500J0D01*
G01*
X132002500Y-157055000D01*
G75*
G02*
X132150000Y-157202500I0J-147500D01*
G01*
X132150000Y-157497500D01*
G75*
G02*
X132002500Y-157645000I-147500J0D01*
G01*
G37*
G36*
G01*
X132002500Y-156145000D02*
X131497500Y-156145000D01*
G75*
G02*
X131350000Y-155997500I0J147500D01*
G01*
X131350000Y-155702500D01*
G75*
G02*
X131497500Y-155555000I147500J0D01*
G01*
X132002500Y-155555000D01*
G75*
G02*
X132150000Y-155702500I0J-147500D01*
G01*
X132150000Y-155997500D01*
G75*
G02*
X132002500Y-156145000I-147500J0D01*
G01*
G37*
%TD*%
%TO.C,R52*%
G36*
G01*
X123252500Y-144645000D02*
X122747500Y-144645000D01*
G75*
G02*
X122600000Y-144497500I0J147500D01*
G01*
X122600000Y-144202500D01*
G75*
G02*
X122747500Y-144055000I147500J0D01*
G01*
X123252500Y-144055000D01*
G75*
G02*
X123400000Y-144202500I0J-147500D01*
G01*
X123400000Y-144497500D01*
G75*
G02*
X123252500Y-144645000I-147500J0D01*
G01*
G37*
G36*
G01*
X123252500Y-146145000D02*
X122747500Y-146145000D01*
G75*
G02*
X122600000Y-145997500I0J147500D01*
G01*
X122600000Y-145702500D01*
G75*
G02*
X122747500Y-145555000I147500J0D01*
G01*
X123252500Y-145555000D01*
G75*
G02*
X123400000Y-145702500I0J-147500D01*
G01*
X123400000Y-145997500D01*
G75*
G02*
X123252500Y-146145000I-147500J0D01*
G01*
G37*
%TD*%
%TO.C,R53*%
G36*
G01*
X130652500Y-146145000D02*
X130147500Y-146145000D01*
G75*
G02*
X130000000Y-145997500I0J147500D01*
G01*
X130000000Y-145702500D01*
G75*
G02*
X130147500Y-145555000I147500J0D01*
G01*
X130652500Y-145555000D01*
G75*
G02*
X130800000Y-145702500I0J-147500D01*
G01*
X130800000Y-145997500D01*
G75*
G02*
X130652500Y-146145000I-147500J0D01*
G01*
G37*
G36*
G01*
X130652500Y-144645000D02*
X130147500Y-144645000D01*
G75*
G02*
X130000000Y-144497500I0J147500D01*
G01*
X130000000Y-144202500D01*
G75*
G02*
X130147500Y-144055000I147500J0D01*
G01*
X130652500Y-144055000D01*
G75*
G02*
X130800000Y-144202500I0J-147500D01*
G01*
X130800000Y-144497500D01*
G75*
G02*
X130652500Y-144645000I-147500J0D01*
G01*
G37*
%TD*%
%TO.C,R57*%
G36*
G01*
X134997500Y-155555000D02*
X135502500Y-155555000D01*
G75*
G02*
X135650000Y-155702500I0J-147500D01*
G01*
X135650000Y-155997500D01*
G75*
G02*
X135502500Y-156145000I-147500J0D01*
G01*
X134997500Y-156145000D01*
G75*
G02*
X134850000Y-155997500I0J147500D01*
G01*
X134850000Y-155702500D01*
G75*
G02*
X134997500Y-155555000I147500J0D01*
G01*
G37*
G36*
G01*
X134997500Y-157055000D02*
X135502500Y-157055000D01*
G75*
G02*
X135650000Y-157202500I0J-147500D01*
G01*
X135650000Y-157497500D01*
G75*
G02*
X135502500Y-157645000I-147500J0D01*
G01*
X134997500Y-157645000D01*
G75*
G02*
X134850000Y-157497500I0J147500D01*
G01*
X134850000Y-157202500D01*
G75*
G02*
X134997500Y-157055000I147500J0D01*
G01*
G37*
%TD*%
%TO.C,R58*%
G36*
G01*
X136455000Y-156852500D02*
X136455000Y-156347500D01*
G75*
G02*
X136602500Y-156200000I147500J0D01*
G01*
X136897500Y-156200000D01*
G75*
G02*
X137045000Y-156347500I0J-147500D01*
G01*
X137045000Y-156852500D01*
G75*
G02*
X136897500Y-157000000I-147500J0D01*
G01*
X136602500Y-157000000D01*
G75*
G02*
X136455000Y-156852500I0J147500D01*
G01*
G37*
G36*
G01*
X137955000Y-156852500D02*
X137955000Y-156347500D01*
G75*
G02*
X138102500Y-156200000I147500J0D01*
G01*
X138397500Y-156200000D01*
G75*
G02*
X138545000Y-156347500I0J-147500D01*
G01*
X138545000Y-156852500D01*
G75*
G02*
X138397500Y-157000000I-147500J0D01*
G01*
X138102500Y-157000000D01*
G75*
G02*
X137955000Y-156852500I0J147500D01*
G01*
G37*
%TD*%
%TO.C,R59*%
G36*
G01*
X140002500Y-157645000D02*
X139497500Y-157645000D01*
G75*
G02*
X139350000Y-157497500I0J147500D01*
G01*
X139350000Y-157202500D01*
G75*
G02*
X139497500Y-157055000I147500J0D01*
G01*
X140002500Y-157055000D01*
G75*
G02*
X140150000Y-157202500I0J-147500D01*
G01*
X140150000Y-157497500D01*
G75*
G02*
X140002500Y-157645000I-147500J0D01*
G01*
G37*
G36*
G01*
X140002500Y-156145000D02*
X139497500Y-156145000D01*
G75*
G02*
X139350000Y-155997500I0J147500D01*
G01*
X139350000Y-155702500D01*
G75*
G02*
X139497500Y-155555000I147500J0D01*
G01*
X140002500Y-155555000D01*
G75*
G02*
X140150000Y-155702500I0J-147500D01*
G01*
X140150000Y-155997500D01*
G75*
G02*
X140002500Y-156145000I-147500J0D01*
G01*
G37*
%TD*%
%TO.C,R60*%
G36*
G01*
X141502500Y-156145000D02*
X140997500Y-156145000D01*
G75*
G02*
X140850000Y-155997500I0J147500D01*
G01*
X140850000Y-155702500D01*
G75*
G02*
X140997500Y-155555000I147500J0D01*
G01*
X141502500Y-155555000D01*
G75*
G02*
X141650000Y-155702500I0J-147500D01*
G01*
X141650000Y-155997500D01*
G75*
G02*
X141502500Y-156145000I-147500J0D01*
G01*
G37*
G36*
G01*
X141502500Y-157645000D02*
X140997500Y-157645000D01*
G75*
G02*
X140850000Y-157497500I0J147500D01*
G01*
X140850000Y-157202500D01*
G75*
G02*
X140997500Y-157055000I147500J0D01*
G01*
X141502500Y-157055000D01*
G75*
G02*
X141650000Y-157202500I0J-147500D01*
G01*
X141650000Y-157497500D01*
G75*
G02*
X141502500Y-157645000I-147500J0D01*
G01*
G37*
%TD*%
%TO.C,R61*%
G36*
G01*
X143955000Y-156852500D02*
X143955000Y-156347500D01*
G75*
G02*
X144102500Y-156200000I147500J0D01*
G01*
X144397500Y-156200000D01*
G75*
G02*
X144545000Y-156347500I0J-147500D01*
G01*
X144545000Y-156852500D01*
G75*
G02*
X144397500Y-157000000I-147500J0D01*
G01*
X144102500Y-157000000D01*
G75*
G02*
X143955000Y-156852500I0J147500D01*
G01*
G37*
G36*
G01*
X142455000Y-156852500D02*
X142455000Y-156347500D01*
G75*
G02*
X142602500Y-156200000I147500J0D01*
G01*
X142897500Y-156200000D01*
G75*
G02*
X143045000Y-156347500I0J-147500D01*
G01*
X143045000Y-156852500D01*
G75*
G02*
X142897500Y-157000000I-147500J0D01*
G01*
X142602500Y-157000000D01*
G75*
G02*
X142455000Y-156852500I0J147500D01*
G01*
G37*
%TD*%
%TO.C,R62*%
G36*
G01*
X146002500Y-157645000D02*
X145497500Y-157645000D01*
G75*
G02*
X145350000Y-157497500I0J147500D01*
G01*
X145350000Y-157202500D01*
G75*
G02*
X145497500Y-157055000I147500J0D01*
G01*
X146002500Y-157055000D01*
G75*
G02*
X146150000Y-157202500I0J-147500D01*
G01*
X146150000Y-157497500D01*
G75*
G02*
X146002500Y-157645000I-147500J0D01*
G01*
G37*
G36*
G01*
X146002500Y-156145000D02*
X145497500Y-156145000D01*
G75*
G02*
X145350000Y-155997500I0J147500D01*
G01*
X145350000Y-155702500D01*
G75*
G02*
X145497500Y-155555000I147500J0D01*
G01*
X146002500Y-155555000D01*
G75*
G02*
X146150000Y-155702500I0J-147500D01*
G01*
X146150000Y-155997500D01*
G75*
G02*
X146002500Y-156145000I-147500J0D01*
G01*
G37*
%TD*%
%TO.C,R63*%
G36*
G01*
X137252500Y-144645000D02*
X136747500Y-144645000D01*
G75*
G02*
X136600000Y-144497500I0J147500D01*
G01*
X136600000Y-144202500D01*
G75*
G02*
X136747500Y-144055000I147500J0D01*
G01*
X137252500Y-144055000D01*
G75*
G02*
X137400000Y-144202500I0J-147500D01*
G01*
X137400000Y-144497500D01*
G75*
G02*
X137252500Y-144645000I-147500J0D01*
G01*
G37*
G36*
G01*
X137252500Y-146145000D02*
X136747500Y-146145000D01*
G75*
G02*
X136600000Y-145997500I0J147500D01*
G01*
X136600000Y-145702500D01*
G75*
G02*
X136747500Y-145555000I147500J0D01*
G01*
X137252500Y-145555000D01*
G75*
G02*
X137400000Y-145702500I0J-147500D01*
G01*
X137400000Y-145997500D01*
G75*
G02*
X137252500Y-146145000I-147500J0D01*
G01*
G37*
%TD*%
%TO.C,R64*%
G36*
G01*
X144502500Y-146395000D02*
X143997500Y-146395000D01*
G75*
G02*
X143850000Y-146247500I0J147500D01*
G01*
X143850000Y-145952500D01*
G75*
G02*
X143997500Y-145805000I147500J0D01*
G01*
X144502500Y-145805000D01*
G75*
G02*
X144650000Y-145952500I0J-147500D01*
G01*
X144650000Y-146247500D01*
G75*
G02*
X144502500Y-146395000I-147500J0D01*
G01*
G37*
G36*
G01*
X144502500Y-144895000D02*
X143997500Y-144895000D01*
G75*
G02*
X143850000Y-144747500I0J147500D01*
G01*
X143850000Y-144452500D01*
G75*
G02*
X143997500Y-144305000I147500J0D01*
G01*
X144502500Y-144305000D01*
G75*
G02*
X144650000Y-144452500I0J-147500D01*
G01*
X144650000Y-144747500D01*
G75*
G02*
X144502500Y-144895000I-147500J0D01*
G01*
G37*
%TD*%
%TO.C,R65*%
G36*
G01*
X65252500Y-124295000D02*
X64747500Y-124295000D01*
G75*
G02*
X64600000Y-124147500I0J147500D01*
G01*
X64600000Y-123852500D01*
G75*
G02*
X64747500Y-123705000I147500J0D01*
G01*
X65252500Y-123705000D01*
G75*
G02*
X65400000Y-123852500I0J-147500D01*
G01*
X65400000Y-124147500D01*
G75*
G02*
X65252500Y-124295000I-147500J0D01*
G01*
G37*
G36*
G01*
X65252500Y-125795000D02*
X64747500Y-125795000D01*
G75*
G02*
X64600000Y-125647500I0J147500D01*
G01*
X64600000Y-125352500D01*
G75*
G02*
X64747500Y-125205000I147500J0D01*
G01*
X65252500Y-125205000D01*
G75*
G02*
X65400000Y-125352500I0J-147500D01*
G01*
X65400000Y-125647500D01*
G75*
G02*
X65252500Y-125795000I-147500J0D01*
G01*
G37*
%TD*%
%TO.C,R66*%
G36*
G01*
X63795000Y-125247500D02*
X63795000Y-125752500D01*
G75*
G02*
X63647500Y-125900000I-147500J0D01*
G01*
X63352500Y-125900000D01*
G75*
G02*
X63205000Y-125752500I0J147500D01*
G01*
X63205000Y-125247500D01*
G75*
G02*
X63352500Y-125100000I147500J0D01*
G01*
X63647500Y-125100000D01*
G75*
G02*
X63795000Y-125247500I0J-147500D01*
G01*
G37*
G36*
G01*
X62295000Y-125247500D02*
X62295000Y-125752500D01*
G75*
G02*
X62147500Y-125900000I-147500J0D01*
G01*
X61852500Y-125900000D01*
G75*
G02*
X61705000Y-125752500I0J147500D01*
G01*
X61705000Y-125247500D01*
G75*
G02*
X61852500Y-125100000I147500J0D01*
G01*
X62147500Y-125100000D01*
G75*
G02*
X62295000Y-125247500I0J-147500D01*
G01*
G37*
%TD*%
%TO.C,R67*%
G36*
G01*
X60752500Y-124295000D02*
X60247500Y-124295000D01*
G75*
G02*
X60100000Y-124147500I0J147500D01*
G01*
X60100000Y-123852500D01*
G75*
G02*
X60247500Y-123705000I147500J0D01*
G01*
X60752500Y-123705000D01*
G75*
G02*
X60900000Y-123852500I0J-147500D01*
G01*
X60900000Y-124147500D01*
G75*
G02*
X60752500Y-124295000I-147500J0D01*
G01*
G37*
G36*
G01*
X60752500Y-125795000D02*
X60247500Y-125795000D01*
G75*
G02*
X60100000Y-125647500I0J147500D01*
G01*
X60100000Y-125352500D01*
G75*
G02*
X60247500Y-125205000I147500J0D01*
G01*
X60752500Y-125205000D01*
G75*
G02*
X60900000Y-125352500I0J-147500D01*
G01*
X60900000Y-125647500D01*
G75*
G02*
X60752500Y-125795000I-147500J0D01*
G01*
G37*
%TD*%
%TO.C,R68*%
G36*
G01*
X72252500Y-125795000D02*
X71747500Y-125795000D01*
G75*
G02*
X71600000Y-125647500I0J147500D01*
G01*
X71600000Y-125352500D01*
G75*
G02*
X71747500Y-125205000I147500J0D01*
G01*
X72252500Y-125205000D01*
G75*
G02*
X72400000Y-125352500I0J-147500D01*
G01*
X72400000Y-125647500D01*
G75*
G02*
X72252500Y-125795000I-147500J0D01*
G01*
G37*
G36*
G01*
X72252500Y-124295000D02*
X71747500Y-124295000D01*
G75*
G02*
X71600000Y-124147500I0J147500D01*
G01*
X71600000Y-123852500D01*
G75*
G02*
X71747500Y-123705000I147500J0D01*
G01*
X72252500Y-123705000D01*
G75*
G02*
X72400000Y-123852500I0J-147500D01*
G01*
X72400000Y-124147500D01*
G75*
G02*
X72252500Y-124295000I-147500J0D01*
G01*
G37*
%TD*%
%TO.C,R69*%
G36*
G01*
X69295000Y-125247500D02*
X69295000Y-125752500D01*
G75*
G02*
X69147500Y-125900000I-147500J0D01*
G01*
X68852500Y-125900000D01*
G75*
G02*
X68705000Y-125752500I0J147500D01*
G01*
X68705000Y-125247500D01*
G75*
G02*
X68852500Y-125100000I147500J0D01*
G01*
X69147500Y-125100000D01*
G75*
G02*
X69295000Y-125247500I0J-147500D01*
G01*
G37*
G36*
G01*
X70795000Y-125247500D02*
X70795000Y-125752500D01*
G75*
G02*
X70647500Y-125900000I-147500J0D01*
G01*
X70352500Y-125900000D01*
G75*
G02*
X70205000Y-125752500I0J147500D01*
G01*
X70205000Y-125247500D01*
G75*
G02*
X70352500Y-125100000I147500J0D01*
G01*
X70647500Y-125100000D01*
G75*
G02*
X70795000Y-125247500I0J-147500D01*
G01*
G37*
%TD*%
%TO.C,R70*%
G36*
G01*
X67752500Y-124295000D02*
X67247500Y-124295000D01*
G75*
G02*
X67100000Y-124147500I0J147500D01*
G01*
X67100000Y-123852500D01*
G75*
G02*
X67247500Y-123705000I147500J0D01*
G01*
X67752500Y-123705000D01*
G75*
G02*
X67900000Y-123852500I0J-147500D01*
G01*
X67900000Y-124147500D01*
G75*
G02*
X67752500Y-124295000I-147500J0D01*
G01*
G37*
G36*
G01*
X67752500Y-125795000D02*
X67247500Y-125795000D01*
G75*
G02*
X67100000Y-125647500I0J147500D01*
G01*
X67100000Y-125352500D01*
G75*
G02*
X67247500Y-125205000I147500J0D01*
G01*
X67752500Y-125205000D01*
G75*
G02*
X67900000Y-125352500I0J-147500D01*
G01*
X67900000Y-125647500D01*
G75*
G02*
X67752500Y-125795000I-147500J0D01*
G01*
G37*
%TD*%
%TO.C,R71*%
G36*
G01*
X63752500Y-135545000D02*
X63247500Y-135545000D01*
G75*
G02*
X63100000Y-135397500I0J147500D01*
G01*
X63100000Y-135102500D01*
G75*
G02*
X63247500Y-134955000I147500J0D01*
G01*
X63752500Y-134955000D01*
G75*
G02*
X63900000Y-135102500I0J-147500D01*
G01*
X63900000Y-135397500D01*
G75*
G02*
X63752500Y-135545000I-147500J0D01*
G01*
G37*
G36*
G01*
X63752500Y-137045000D02*
X63247500Y-137045000D01*
G75*
G02*
X63100000Y-136897500I0J147500D01*
G01*
X63100000Y-136602500D01*
G75*
G02*
X63247500Y-136455000I147500J0D01*
G01*
X63752500Y-136455000D01*
G75*
G02*
X63900000Y-136602500I0J-147500D01*
G01*
X63900000Y-136897500D01*
G75*
G02*
X63752500Y-137045000I-147500J0D01*
G01*
G37*
%TD*%
%TO.C,R72*%
G36*
G01*
X70752500Y-137045000D02*
X70247500Y-137045000D01*
G75*
G02*
X70100000Y-136897500I0J147500D01*
G01*
X70100000Y-136602500D01*
G75*
G02*
X70247500Y-136455000I147500J0D01*
G01*
X70752500Y-136455000D01*
G75*
G02*
X70900000Y-136602500I0J-147500D01*
G01*
X70900000Y-136897500D01*
G75*
G02*
X70752500Y-137045000I-147500J0D01*
G01*
G37*
G36*
G01*
X70752500Y-135545000D02*
X70247500Y-135545000D01*
G75*
G02*
X70100000Y-135397500I0J147500D01*
G01*
X70100000Y-135102500D01*
G75*
G02*
X70247500Y-134955000I147500J0D01*
G01*
X70752500Y-134955000D01*
G75*
G02*
X70900000Y-135102500I0J-147500D01*
G01*
X70900000Y-135397500D01*
G75*
G02*
X70752500Y-135545000I-147500J0D01*
G01*
G37*
%TD*%
%TO.C,R73*%
G36*
G01*
X82002500Y-124295000D02*
X81497500Y-124295000D01*
G75*
G02*
X81350000Y-124147500I0J147500D01*
G01*
X81350000Y-123852500D01*
G75*
G02*
X81497500Y-123705000I147500J0D01*
G01*
X82002500Y-123705000D01*
G75*
G02*
X82150000Y-123852500I0J-147500D01*
G01*
X82150000Y-124147500D01*
G75*
G02*
X82002500Y-124295000I-147500J0D01*
G01*
G37*
G36*
G01*
X82002500Y-125795000D02*
X81497500Y-125795000D01*
G75*
G02*
X81350000Y-125647500I0J147500D01*
G01*
X81350000Y-125352500D01*
G75*
G02*
X81497500Y-125205000I147500J0D01*
G01*
X82002500Y-125205000D01*
G75*
G02*
X82150000Y-125352500I0J-147500D01*
G01*
X82150000Y-125647500D01*
G75*
G02*
X82002500Y-125795000I-147500J0D01*
G01*
G37*
%TD*%
%TO.C,R74*%
G36*
G01*
X79045000Y-125247500D02*
X79045000Y-125752500D01*
G75*
G02*
X78897500Y-125900000I-147500J0D01*
G01*
X78602500Y-125900000D01*
G75*
G02*
X78455000Y-125752500I0J147500D01*
G01*
X78455000Y-125247500D01*
G75*
G02*
X78602500Y-125100000I147500J0D01*
G01*
X78897500Y-125100000D01*
G75*
G02*
X79045000Y-125247500I0J-147500D01*
G01*
G37*
G36*
G01*
X80545000Y-125247500D02*
X80545000Y-125752500D01*
G75*
G02*
X80397500Y-125900000I-147500J0D01*
G01*
X80102500Y-125900000D01*
G75*
G02*
X79955000Y-125752500I0J147500D01*
G01*
X79955000Y-125247500D01*
G75*
G02*
X80102500Y-125100000I147500J0D01*
G01*
X80397500Y-125100000D01*
G75*
G02*
X80545000Y-125247500I0J-147500D01*
G01*
G37*
%TD*%
%TO.C,R75*%
G36*
G01*
X77502500Y-124295000D02*
X76997500Y-124295000D01*
G75*
G02*
X76850000Y-124147500I0J147500D01*
G01*
X76850000Y-123852500D01*
G75*
G02*
X76997500Y-123705000I147500J0D01*
G01*
X77502500Y-123705000D01*
G75*
G02*
X77650000Y-123852500I0J-147500D01*
G01*
X77650000Y-124147500D01*
G75*
G02*
X77502500Y-124295000I-147500J0D01*
G01*
G37*
G36*
G01*
X77502500Y-125795000D02*
X76997500Y-125795000D01*
G75*
G02*
X76850000Y-125647500I0J147500D01*
G01*
X76850000Y-125352500D01*
G75*
G02*
X76997500Y-125205000I147500J0D01*
G01*
X77502500Y-125205000D01*
G75*
G02*
X77650000Y-125352500I0J-147500D01*
G01*
X77650000Y-125647500D01*
G75*
G02*
X77502500Y-125795000I-147500J0D01*
G01*
G37*
%TD*%
%TO.C,R76*%
G36*
G01*
X89002500Y-124295000D02*
X88497500Y-124295000D01*
G75*
G02*
X88350000Y-124147500I0J147500D01*
G01*
X88350000Y-123852500D01*
G75*
G02*
X88497500Y-123705000I147500J0D01*
G01*
X89002500Y-123705000D01*
G75*
G02*
X89150000Y-123852500I0J-147500D01*
G01*
X89150000Y-124147500D01*
G75*
G02*
X89002500Y-124295000I-147500J0D01*
G01*
G37*
G36*
G01*
X89002500Y-125795000D02*
X88497500Y-125795000D01*
G75*
G02*
X88350000Y-125647500I0J147500D01*
G01*
X88350000Y-125352500D01*
G75*
G02*
X88497500Y-125205000I147500J0D01*
G01*
X89002500Y-125205000D01*
G75*
G02*
X89150000Y-125352500I0J-147500D01*
G01*
X89150000Y-125647500D01*
G75*
G02*
X89002500Y-125795000I-147500J0D01*
G01*
G37*
%TD*%
%TO.C,R77*%
G36*
G01*
X87545000Y-125247500D02*
X87545000Y-125752500D01*
G75*
G02*
X87397500Y-125900000I-147500J0D01*
G01*
X87102500Y-125900000D01*
G75*
G02*
X86955000Y-125752500I0J147500D01*
G01*
X86955000Y-125247500D01*
G75*
G02*
X87102500Y-125100000I147500J0D01*
G01*
X87397500Y-125100000D01*
G75*
G02*
X87545000Y-125247500I0J-147500D01*
G01*
G37*
G36*
G01*
X86045000Y-125247500D02*
X86045000Y-125752500D01*
G75*
G02*
X85897500Y-125900000I-147500J0D01*
G01*
X85602500Y-125900000D01*
G75*
G02*
X85455000Y-125752500I0J147500D01*
G01*
X85455000Y-125247500D01*
G75*
G02*
X85602500Y-125100000I147500J0D01*
G01*
X85897500Y-125100000D01*
G75*
G02*
X86045000Y-125247500I0J-147500D01*
G01*
G37*
%TD*%
%TO.C,R78*%
G36*
G01*
X84502500Y-125795000D02*
X83997500Y-125795000D01*
G75*
G02*
X83850000Y-125647500I0J147500D01*
G01*
X83850000Y-125352500D01*
G75*
G02*
X83997500Y-125205000I147500J0D01*
G01*
X84502500Y-125205000D01*
G75*
G02*
X84650000Y-125352500I0J-147500D01*
G01*
X84650000Y-125647500D01*
G75*
G02*
X84502500Y-125795000I-147500J0D01*
G01*
G37*
G36*
G01*
X84502500Y-124295000D02*
X83997500Y-124295000D01*
G75*
G02*
X83850000Y-124147500I0J147500D01*
G01*
X83850000Y-123852500D01*
G75*
G02*
X83997500Y-123705000I147500J0D01*
G01*
X84502500Y-123705000D01*
G75*
G02*
X84650000Y-123852500I0J-147500D01*
G01*
X84650000Y-124147500D01*
G75*
G02*
X84502500Y-124295000I-147500J0D01*
G01*
G37*
%TD*%
%TO.C,R79*%
G36*
G01*
X80502500Y-137045000D02*
X79997500Y-137045000D01*
G75*
G02*
X79850000Y-136897500I0J147500D01*
G01*
X79850000Y-136602500D01*
G75*
G02*
X79997500Y-136455000I147500J0D01*
G01*
X80502500Y-136455000D01*
G75*
G02*
X80650000Y-136602500I0J-147500D01*
G01*
X80650000Y-136897500D01*
G75*
G02*
X80502500Y-137045000I-147500J0D01*
G01*
G37*
G36*
G01*
X80502500Y-135545000D02*
X79997500Y-135545000D01*
G75*
G02*
X79850000Y-135397500I0J147500D01*
G01*
X79850000Y-135102500D01*
G75*
G02*
X79997500Y-134955000I147500J0D01*
G01*
X80502500Y-134955000D01*
G75*
G02*
X80650000Y-135102500I0J-147500D01*
G01*
X80650000Y-135397500D01*
G75*
G02*
X80502500Y-135545000I-147500J0D01*
G01*
G37*
%TD*%
%TO.C,R80*%
G36*
G01*
X87502500Y-135545000D02*
X86997500Y-135545000D01*
G75*
G02*
X86850000Y-135397500I0J147500D01*
G01*
X86850000Y-135102500D01*
G75*
G02*
X86997500Y-134955000I147500J0D01*
G01*
X87502500Y-134955000D01*
G75*
G02*
X87650000Y-135102500I0J-147500D01*
G01*
X87650000Y-135397500D01*
G75*
G02*
X87502500Y-135545000I-147500J0D01*
G01*
G37*
G36*
G01*
X87502500Y-137045000D02*
X86997500Y-137045000D01*
G75*
G02*
X86850000Y-136897500I0J147500D01*
G01*
X86850000Y-136602500D01*
G75*
G02*
X86997500Y-136455000I147500J0D01*
G01*
X87502500Y-136455000D01*
G75*
G02*
X87650000Y-136602500I0J-147500D01*
G01*
X87650000Y-136897500D01*
G75*
G02*
X87502500Y-137045000I-147500J0D01*
G01*
G37*
%TD*%
%TO.C,R81*%
G36*
G01*
X98502500Y-125795000D02*
X97997500Y-125795000D01*
G75*
G02*
X97850000Y-125647500I0J147500D01*
G01*
X97850000Y-125352500D01*
G75*
G02*
X97997500Y-125205000I147500J0D01*
G01*
X98502500Y-125205000D01*
G75*
G02*
X98650000Y-125352500I0J-147500D01*
G01*
X98650000Y-125647500D01*
G75*
G02*
X98502500Y-125795000I-147500J0D01*
G01*
G37*
G36*
G01*
X98502500Y-124295000D02*
X97997500Y-124295000D01*
G75*
G02*
X97850000Y-124147500I0J147500D01*
G01*
X97850000Y-123852500D01*
G75*
G02*
X97997500Y-123705000I147500J0D01*
G01*
X98502500Y-123705000D01*
G75*
G02*
X98650000Y-123852500I0J-147500D01*
G01*
X98650000Y-124147500D01*
G75*
G02*
X98502500Y-124295000I-147500J0D01*
G01*
G37*
%TD*%
%TO.C,R82*%
G36*
G01*
X97045000Y-125247500D02*
X97045000Y-125752500D01*
G75*
G02*
X96897500Y-125900000I-147500J0D01*
G01*
X96602500Y-125900000D01*
G75*
G02*
X96455000Y-125752500I0J147500D01*
G01*
X96455000Y-125247500D01*
G75*
G02*
X96602500Y-125100000I147500J0D01*
G01*
X96897500Y-125100000D01*
G75*
G02*
X97045000Y-125247500I0J-147500D01*
G01*
G37*
G36*
G01*
X95545000Y-125247500D02*
X95545000Y-125752500D01*
G75*
G02*
X95397500Y-125900000I-147500J0D01*
G01*
X95102500Y-125900000D01*
G75*
G02*
X94955000Y-125752500I0J147500D01*
G01*
X94955000Y-125247500D01*
G75*
G02*
X95102500Y-125100000I147500J0D01*
G01*
X95397500Y-125100000D01*
G75*
G02*
X95545000Y-125247500I0J-147500D01*
G01*
G37*
%TD*%
%TO.C,R83*%
G36*
G01*
X94002500Y-125795000D02*
X93497500Y-125795000D01*
G75*
G02*
X93350000Y-125647500I0J147500D01*
G01*
X93350000Y-125352500D01*
G75*
G02*
X93497500Y-125205000I147500J0D01*
G01*
X94002500Y-125205000D01*
G75*
G02*
X94150000Y-125352500I0J-147500D01*
G01*
X94150000Y-125647500D01*
G75*
G02*
X94002500Y-125795000I-147500J0D01*
G01*
G37*
G36*
G01*
X94002500Y-124295000D02*
X93497500Y-124295000D01*
G75*
G02*
X93350000Y-124147500I0J147500D01*
G01*
X93350000Y-123852500D01*
G75*
G02*
X93497500Y-123705000I147500J0D01*
G01*
X94002500Y-123705000D01*
G75*
G02*
X94150000Y-123852500I0J-147500D01*
G01*
X94150000Y-124147500D01*
G75*
G02*
X94002500Y-124295000I-147500J0D01*
G01*
G37*
%TD*%
%TO.C,R84*%
G36*
G01*
X105502500Y-125795000D02*
X104997500Y-125795000D01*
G75*
G02*
X104850000Y-125647500I0J147500D01*
G01*
X104850000Y-125352500D01*
G75*
G02*
X104997500Y-125205000I147500J0D01*
G01*
X105502500Y-125205000D01*
G75*
G02*
X105650000Y-125352500I0J-147500D01*
G01*
X105650000Y-125647500D01*
G75*
G02*
X105502500Y-125795000I-147500J0D01*
G01*
G37*
G36*
G01*
X105502500Y-124295000D02*
X104997500Y-124295000D01*
G75*
G02*
X104850000Y-124147500I0J147500D01*
G01*
X104850000Y-123852500D01*
G75*
G02*
X104997500Y-123705000I147500J0D01*
G01*
X105502500Y-123705000D01*
G75*
G02*
X105650000Y-123852500I0J-147500D01*
G01*
X105650000Y-124147500D01*
G75*
G02*
X105502500Y-124295000I-147500J0D01*
G01*
G37*
%TD*%
%TO.C,R85*%
G36*
G01*
X102545000Y-125247500D02*
X102545000Y-125752500D01*
G75*
G02*
X102397500Y-125900000I-147500J0D01*
G01*
X102102500Y-125900000D01*
G75*
G02*
X101955000Y-125752500I0J147500D01*
G01*
X101955000Y-125247500D01*
G75*
G02*
X102102500Y-125100000I147500J0D01*
G01*
X102397500Y-125100000D01*
G75*
G02*
X102545000Y-125247500I0J-147500D01*
G01*
G37*
G36*
G01*
X104045000Y-125247500D02*
X104045000Y-125752500D01*
G75*
G02*
X103897500Y-125900000I-147500J0D01*
G01*
X103602500Y-125900000D01*
G75*
G02*
X103455000Y-125752500I0J147500D01*
G01*
X103455000Y-125247500D01*
G75*
G02*
X103602500Y-125100000I147500J0D01*
G01*
X103897500Y-125100000D01*
G75*
G02*
X104045000Y-125247500I0J-147500D01*
G01*
G37*
%TD*%
%TO.C,R86*%
G36*
G01*
X101002500Y-124295000D02*
X100497500Y-124295000D01*
G75*
G02*
X100350000Y-124147500I0J147500D01*
G01*
X100350000Y-123852500D01*
G75*
G02*
X100497500Y-123705000I147500J0D01*
G01*
X101002500Y-123705000D01*
G75*
G02*
X101150000Y-123852500I0J-147500D01*
G01*
X101150000Y-124147500D01*
G75*
G02*
X101002500Y-124295000I-147500J0D01*
G01*
G37*
G36*
G01*
X101002500Y-125795000D02*
X100497500Y-125795000D01*
G75*
G02*
X100350000Y-125647500I0J147500D01*
G01*
X100350000Y-125352500D01*
G75*
G02*
X100497500Y-125205000I147500J0D01*
G01*
X101002500Y-125205000D01*
G75*
G02*
X101150000Y-125352500I0J-147500D01*
G01*
X101150000Y-125647500D01*
G75*
G02*
X101002500Y-125795000I-147500J0D01*
G01*
G37*
%TD*%
%TO.C,R87*%
G36*
G01*
X97002500Y-135545000D02*
X96497500Y-135545000D01*
G75*
G02*
X96350000Y-135397500I0J147500D01*
G01*
X96350000Y-135102500D01*
G75*
G02*
X96497500Y-134955000I147500J0D01*
G01*
X97002500Y-134955000D01*
G75*
G02*
X97150000Y-135102500I0J-147500D01*
G01*
X97150000Y-135397500D01*
G75*
G02*
X97002500Y-135545000I-147500J0D01*
G01*
G37*
G36*
G01*
X97002500Y-137045000D02*
X96497500Y-137045000D01*
G75*
G02*
X96350000Y-136897500I0J147500D01*
G01*
X96350000Y-136602500D01*
G75*
G02*
X96497500Y-136455000I147500J0D01*
G01*
X97002500Y-136455000D01*
G75*
G02*
X97150000Y-136602500I0J-147500D01*
G01*
X97150000Y-136897500D01*
G75*
G02*
X97002500Y-137045000I-147500J0D01*
G01*
G37*
%TD*%
%TO.C,R88*%
G36*
G01*
X104002500Y-137045000D02*
X103497500Y-137045000D01*
G75*
G02*
X103350000Y-136897500I0J147500D01*
G01*
X103350000Y-136602500D01*
G75*
G02*
X103497500Y-136455000I147500J0D01*
G01*
X104002500Y-136455000D01*
G75*
G02*
X104150000Y-136602500I0J-147500D01*
G01*
X104150000Y-136897500D01*
G75*
G02*
X104002500Y-137045000I-147500J0D01*
G01*
G37*
G36*
G01*
X104002500Y-135545000D02*
X103497500Y-135545000D01*
G75*
G02*
X103350000Y-135397500I0J147500D01*
G01*
X103350000Y-135102500D01*
G75*
G02*
X103497500Y-134955000I147500J0D01*
G01*
X104002500Y-134955000D01*
G75*
G02*
X104150000Y-135102500I0J-147500D01*
G01*
X104150000Y-135397500D01*
G75*
G02*
X104002500Y-135545000I-147500J0D01*
G01*
G37*
%TD*%
D11*
%TO.C,U2*%
X89250000Y-155850000D03*
D12*
X89250000Y-162150000D03*
X91550000Y-162150000D03*
X86950000Y-162150000D03*
%TD*%
%TO.C,U4*%
G36*
G01*
X125250000Y-118595000D02*
X126250000Y-118595000D01*
G75*
G02*
X126375000Y-118720000I0J-125000D01*
G01*
X126375000Y-118970000D01*
G75*
G02*
X126250000Y-119095000I-125000J0D01*
G01*
X125250000Y-119095000D01*
G75*
G02*
X125125000Y-118970000I0J125000D01*
G01*
X125125000Y-118720000D01*
G75*
G02*
X125250000Y-118595000I125000J0D01*
G01*
G37*
G36*
G01*
X125250000Y-119865000D02*
X126250000Y-119865000D01*
G75*
G02*
X126375000Y-119990000I0J-125000D01*
G01*
X126375000Y-120240000D01*
G75*
G02*
X126250000Y-120365000I-125000J0D01*
G01*
X125250000Y-120365000D01*
G75*
G02*
X125125000Y-120240000I0J125000D01*
G01*
X125125000Y-119990000D01*
G75*
G02*
X125250000Y-119865000I125000J0D01*
G01*
G37*
G36*
G01*
X125250000Y-121135000D02*
X126250000Y-121135000D01*
G75*
G02*
X126375000Y-121260000I0J-125000D01*
G01*
X126375000Y-121510000D01*
G75*
G02*
X126250000Y-121635000I-125000J0D01*
G01*
X125250000Y-121635000D01*
G75*
G02*
X125125000Y-121510000I0J125000D01*
G01*
X125125000Y-121260000D01*
G75*
G02*
X125250000Y-121135000I125000J0D01*
G01*
G37*
G36*
G01*
X125250000Y-122405000D02*
X126250000Y-122405000D01*
G75*
G02*
X126375000Y-122530000I0J-125000D01*
G01*
X126375000Y-122780000D01*
G75*
G02*
X126250000Y-122905000I-125000J0D01*
G01*
X125250000Y-122905000D01*
G75*
G02*
X125125000Y-122780000I0J125000D01*
G01*
X125125000Y-122530000D01*
G75*
G02*
X125250000Y-122405000I125000J0D01*
G01*
G37*
G36*
G01*
X119750000Y-122405000D02*
X120750000Y-122405000D01*
G75*
G02*
X120875000Y-122530000I0J-125000D01*
G01*
X120875000Y-122780000D01*
G75*
G02*
X120750000Y-122905000I-125000J0D01*
G01*
X119750000Y-122905000D01*
G75*
G02*
X119625000Y-122780000I0J125000D01*
G01*
X119625000Y-122530000D01*
G75*
G02*
X119750000Y-122405000I125000J0D01*
G01*
G37*
G36*
G01*
X119750000Y-121135000D02*
X120750000Y-121135000D01*
G75*
G02*
X120875000Y-121260000I0J-125000D01*
G01*
X120875000Y-121510000D01*
G75*
G02*
X120750000Y-121635000I-125000J0D01*
G01*
X119750000Y-121635000D01*
G75*
G02*
X119625000Y-121510000I0J125000D01*
G01*
X119625000Y-121260000D01*
G75*
G02*
X119750000Y-121135000I125000J0D01*
G01*
G37*
G36*
G01*
X119750000Y-119865000D02*
X120750000Y-119865000D01*
G75*
G02*
X120875000Y-119990000I0J-125000D01*
G01*
X120875000Y-120240000D01*
G75*
G02*
X120750000Y-120365000I-125000J0D01*
G01*
X119750000Y-120365000D01*
G75*
G02*
X119625000Y-120240000I0J125000D01*
G01*
X119625000Y-119990000D01*
G75*
G02*
X119750000Y-119865000I125000J0D01*
G01*
G37*
G36*
G01*
X119750000Y-118595000D02*
X120750000Y-118595000D01*
G75*
G02*
X120875000Y-118720000I0J-125000D01*
G01*
X120875000Y-118970000D01*
G75*
G02*
X120750000Y-119095000I-125000J0D01*
G01*
X119750000Y-119095000D01*
G75*
G02*
X119625000Y-118970000I0J125000D01*
G01*
X119625000Y-118720000D01*
G75*
G02*
X119750000Y-118595000I125000J0D01*
G01*
G37*
%TD*%
%TO.C,U5*%
G36*
G01*
X125250000Y-125595000D02*
X126250000Y-125595000D01*
G75*
G02*
X126375000Y-125720000I0J-125000D01*
G01*
X126375000Y-125970000D01*
G75*
G02*
X126250000Y-126095000I-125000J0D01*
G01*
X125250000Y-126095000D01*
G75*
G02*
X125125000Y-125970000I0J125000D01*
G01*
X125125000Y-125720000D01*
G75*
G02*
X125250000Y-125595000I125000J0D01*
G01*
G37*
G36*
G01*
X125250000Y-126865000D02*
X126250000Y-126865000D01*
G75*
G02*
X126375000Y-126990000I0J-125000D01*
G01*
X126375000Y-127240000D01*
G75*
G02*
X126250000Y-127365000I-125000J0D01*
G01*
X125250000Y-127365000D01*
G75*
G02*
X125125000Y-127240000I0J125000D01*
G01*
X125125000Y-126990000D01*
G75*
G02*
X125250000Y-126865000I125000J0D01*
G01*
G37*
G36*
G01*
X125250000Y-128135000D02*
X126250000Y-128135000D01*
G75*
G02*
X126375000Y-128260000I0J-125000D01*
G01*
X126375000Y-128510000D01*
G75*
G02*
X126250000Y-128635000I-125000J0D01*
G01*
X125250000Y-128635000D01*
G75*
G02*
X125125000Y-128510000I0J125000D01*
G01*
X125125000Y-128260000D01*
G75*
G02*
X125250000Y-128135000I125000J0D01*
G01*
G37*
G36*
G01*
X125250000Y-129405000D02*
X126250000Y-129405000D01*
G75*
G02*
X126375000Y-129530000I0J-125000D01*
G01*
X126375000Y-129780000D01*
G75*
G02*
X126250000Y-129905000I-125000J0D01*
G01*
X125250000Y-129905000D01*
G75*
G02*
X125125000Y-129780000I0J125000D01*
G01*
X125125000Y-129530000D01*
G75*
G02*
X125250000Y-129405000I125000J0D01*
G01*
G37*
G36*
G01*
X119750000Y-129405000D02*
X120750000Y-129405000D01*
G75*
G02*
X120875000Y-129530000I0J-125000D01*
G01*
X120875000Y-129780000D01*
G75*
G02*
X120750000Y-129905000I-125000J0D01*
G01*
X119750000Y-129905000D01*
G75*
G02*
X119625000Y-129780000I0J125000D01*
G01*
X119625000Y-129530000D01*
G75*
G02*
X119750000Y-129405000I125000J0D01*
G01*
G37*
G36*
G01*
X119750000Y-128135000D02*
X120750000Y-128135000D01*
G75*
G02*
X120875000Y-128260000I0J-125000D01*
G01*
X120875000Y-128510000D01*
G75*
G02*
X120750000Y-128635000I-125000J0D01*
G01*
X119750000Y-128635000D01*
G75*
G02*
X119625000Y-128510000I0J125000D01*
G01*
X119625000Y-128260000D01*
G75*
G02*
X119750000Y-128135000I125000J0D01*
G01*
G37*
G36*
G01*
X119750000Y-126865000D02*
X120750000Y-126865000D01*
G75*
G02*
X120875000Y-126990000I0J-125000D01*
G01*
X120875000Y-127240000D01*
G75*
G02*
X120750000Y-127365000I-125000J0D01*
G01*
X119750000Y-127365000D01*
G75*
G02*
X119625000Y-127240000I0J125000D01*
G01*
X119625000Y-126990000D01*
G75*
G02*
X119750000Y-126865000I125000J0D01*
G01*
G37*
G36*
G01*
X119750000Y-125595000D02*
X120750000Y-125595000D01*
G75*
G02*
X120875000Y-125720000I0J-125000D01*
G01*
X120875000Y-125970000D01*
G75*
G02*
X120750000Y-126095000I-125000J0D01*
G01*
X119750000Y-126095000D01*
G75*
G02*
X119625000Y-125970000I0J125000D01*
G01*
X119625000Y-125720000D01*
G75*
G02*
X119750000Y-125595000I125000J0D01*
G01*
G37*
%TD*%
%TO.C,U6*%
G36*
G01*
X127500000Y-104595000D02*
X128500000Y-104595000D01*
G75*
G02*
X128625000Y-104720000I0J-125000D01*
G01*
X128625000Y-104970000D01*
G75*
G02*
X128500000Y-105095000I-125000J0D01*
G01*
X127500000Y-105095000D01*
G75*
G02*
X127375000Y-104970000I0J125000D01*
G01*
X127375000Y-104720000D01*
G75*
G02*
X127500000Y-104595000I125000J0D01*
G01*
G37*
G36*
G01*
X127500000Y-105865000D02*
X128500000Y-105865000D01*
G75*
G02*
X128625000Y-105990000I0J-125000D01*
G01*
X128625000Y-106240000D01*
G75*
G02*
X128500000Y-106365000I-125000J0D01*
G01*
X127500000Y-106365000D01*
G75*
G02*
X127375000Y-106240000I0J125000D01*
G01*
X127375000Y-105990000D01*
G75*
G02*
X127500000Y-105865000I125000J0D01*
G01*
G37*
G36*
G01*
X127500000Y-107135000D02*
X128500000Y-107135000D01*
G75*
G02*
X128625000Y-107260000I0J-125000D01*
G01*
X128625000Y-107510000D01*
G75*
G02*
X128500000Y-107635000I-125000J0D01*
G01*
X127500000Y-107635000D01*
G75*
G02*
X127375000Y-107510000I0J125000D01*
G01*
X127375000Y-107260000D01*
G75*
G02*
X127500000Y-107135000I125000J0D01*
G01*
G37*
G36*
G01*
X127500000Y-108405000D02*
X128500000Y-108405000D01*
G75*
G02*
X128625000Y-108530000I0J-125000D01*
G01*
X128625000Y-108780000D01*
G75*
G02*
X128500000Y-108905000I-125000J0D01*
G01*
X127500000Y-108905000D01*
G75*
G02*
X127375000Y-108780000I0J125000D01*
G01*
X127375000Y-108530000D01*
G75*
G02*
X127500000Y-108405000I125000J0D01*
G01*
G37*
G36*
G01*
X122000000Y-108405000D02*
X123000000Y-108405000D01*
G75*
G02*
X123125000Y-108530000I0J-125000D01*
G01*
X123125000Y-108780000D01*
G75*
G02*
X123000000Y-108905000I-125000J0D01*
G01*
X122000000Y-108905000D01*
G75*
G02*
X121875000Y-108780000I0J125000D01*
G01*
X121875000Y-108530000D01*
G75*
G02*
X122000000Y-108405000I125000J0D01*
G01*
G37*
G36*
G01*
X122000000Y-107135000D02*
X123000000Y-107135000D01*
G75*
G02*
X123125000Y-107260000I0J-125000D01*
G01*
X123125000Y-107510000D01*
G75*
G02*
X123000000Y-107635000I-125000J0D01*
G01*
X122000000Y-107635000D01*
G75*
G02*
X121875000Y-107510000I0J125000D01*
G01*
X121875000Y-107260000D01*
G75*
G02*
X122000000Y-107135000I125000J0D01*
G01*
G37*
G36*
G01*
X122000000Y-105865000D02*
X123000000Y-105865000D01*
G75*
G02*
X123125000Y-105990000I0J-125000D01*
G01*
X123125000Y-106240000D01*
G75*
G02*
X123000000Y-106365000I-125000J0D01*
G01*
X122000000Y-106365000D01*
G75*
G02*
X121875000Y-106240000I0J125000D01*
G01*
X121875000Y-105990000D01*
G75*
G02*
X122000000Y-105865000I125000J0D01*
G01*
G37*
G36*
G01*
X122000000Y-104595000D02*
X123000000Y-104595000D01*
G75*
G02*
X123125000Y-104720000I0J-125000D01*
G01*
X123125000Y-104970000D01*
G75*
G02*
X123000000Y-105095000I-125000J0D01*
G01*
X122000000Y-105095000D01*
G75*
G02*
X121875000Y-104970000I0J125000D01*
G01*
X121875000Y-104720000D01*
G75*
G02*
X122000000Y-104595000I125000J0D01*
G01*
G37*
%TD*%
%TO.C,U9*%
G36*
G01*
X124405000Y-152850000D02*
X124405000Y-153850000D01*
G75*
G02*
X124280000Y-153975000I-125000J0D01*
G01*
X124030000Y-153975000D01*
G75*
G02*
X123905000Y-153850000I0J125000D01*
G01*
X123905000Y-152850000D01*
G75*
G02*
X124030000Y-152725000I125000J0D01*
G01*
X124280000Y-152725000D01*
G75*
G02*
X124405000Y-152850000I0J-125000D01*
G01*
G37*
G36*
G01*
X123135000Y-152850000D02*
X123135000Y-153850000D01*
G75*
G02*
X123010000Y-153975000I-125000J0D01*
G01*
X122760000Y-153975000D01*
G75*
G02*
X122635000Y-153850000I0J125000D01*
G01*
X122635000Y-152850000D01*
G75*
G02*
X122760000Y-152725000I125000J0D01*
G01*
X123010000Y-152725000D01*
G75*
G02*
X123135000Y-152850000I0J-125000D01*
G01*
G37*
G36*
G01*
X121865000Y-152850000D02*
X121865000Y-153850000D01*
G75*
G02*
X121740000Y-153975000I-125000J0D01*
G01*
X121490000Y-153975000D01*
G75*
G02*
X121365000Y-153850000I0J125000D01*
G01*
X121365000Y-152850000D01*
G75*
G02*
X121490000Y-152725000I125000J0D01*
G01*
X121740000Y-152725000D01*
G75*
G02*
X121865000Y-152850000I0J-125000D01*
G01*
G37*
G36*
G01*
X120595000Y-152850000D02*
X120595000Y-153850000D01*
G75*
G02*
X120470000Y-153975000I-125000J0D01*
G01*
X120220000Y-153975000D01*
G75*
G02*
X120095000Y-153850000I0J125000D01*
G01*
X120095000Y-152850000D01*
G75*
G02*
X120220000Y-152725000I125000J0D01*
G01*
X120470000Y-152725000D01*
G75*
G02*
X120595000Y-152850000I0J-125000D01*
G01*
G37*
G36*
G01*
X120595000Y-147350000D02*
X120595000Y-148350000D01*
G75*
G02*
X120470000Y-148475000I-125000J0D01*
G01*
X120220000Y-148475000D01*
G75*
G02*
X120095000Y-148350000I0J125000D01*
G01*
X120095000Y-147350000D01*
G75*
G02*
X120220000Y-147225000I125000J0D01*
G01*
X120470000Y-147225000D01*
G75*
G02*
X120595000Y-147350000I0J-125000D01*
G01*
G37*
G36*
G01*
X121865000Y-147350000D02*
X121865000Y-148350000D01*
G75*
G02*
X121740000Y-148475000I-125000J0D01*
G01*
X121490000Y-148475000D01*
G75*
G02*
X121365000Y-148350000I0J125000D01*
G01*
X121365000Y-147350000D01*
G75*
G02*
X121490000Y-147225000I125000J0D01*
G01*
X121740000Y-147225000D01*
G75*
G02*
X121865000Y-147350000I0J-125000D01*
G01*
G37*
G36*
G01*
X123135000Y-147350000D02*
X123135000Y-148350000D01*
G75*
G02*
X123010000Y-148475000I-125000J0D01*
G01*
X122760000Y-148475000D01*
G75*
G02*
X122635000Y-148350000I0J125000D01*
G01*
X122635000Y-147350000D01*
G75*
G02*
X122760000Y-147225000I125000J0D01*
G01*
X123010000Y-147225000D01*
G75*
G02*
X123135000Y-147350000I0J-125000D01*
G01*
G37*
G36*
G01*
X124405000Y-147350000D02*
X124405000Y-148350000D01*
G75*
G02*
X124280000Y-148475000I-125000J0D01*
G01*
X124030000Y-148475000D01*
G75*
G02*
X123905000Y-148350000I0J125000D01*
G01*
X123905000Y-147350000D01*
G75*
G02*
X124030000Y-147225000I125000J0D01*
G01*
X124280000Y-147225000D01*
G75*
G02*
X124405000Y-147350000I0J-125000D01*
G01*
G37*
%TD*%
%TO.C,U10*%
G36*
G01*
X131655000Y-152850000D02*
X131655000Y-153850000D01*
G75*
G02*
X131530000Y-153975000I-125000J0D01*
G01*
X131280000Y-153975000D01*
G75*
G02*
X131155000Y-153850000I0J125000D01*
G01*
X131155000Y-152850000D01*
G75*
G02*
X131280000Y-152725000I125000J0D01*
G01*
X131530000Y-152725000D01*
G75*
G02*
X131655000Y-152850000I0J-125000D01*
G01*
G37*
G36*
G01*
X130385000Y-152850000D02*
X130385000Y-153850000D01*
G75*
G02*
X130260000Y-153975000I-125000J0D01*
G01*
X130010000Y-153975000D01*
G75*
G02*
X129885000Y-153850000I0J125000D01*
G01*
X129885000Y-152850000D01*
G75*
G02*
X130010000Y-152725000I125000J0D01*
G01*
X130260000Y-152725000D01*
G75*
G02*
X130385000Y-152850000I0J-125000D01*
G01*
G37*
G36*
G01*
X129115000Y-152850000D02*
X129115000Y-153850000D01*
G75*
G02*
X128990000Y-153975000I-125000J0D01*
G01*
X128740000Y-153975000D01*
G75*
G02*
X128615000Y-153850000I0J125000D01*
G01*
X128615000Y-152850000D01*
G75*
G02*
X128740000Y-152725000I125000J0D01*
G01*
X128990000Y-152725000D01*
G75*
G02*
X129115000Y-152850000I0J-125000D01*
G01*
G37*
G36*
G01*
X127845000Y-152850000D02*
X127845000Y-153850000D01*
G75*
G02*
X127720000Y-153975000I-125000J0D01*
G01*
X127470000Y-153975000D01*
G75*
G02*
X127345000Y-153850000I0J125000D01*
G01*
X127345000Y-152850000D01*
G75*
G02*
X127470000Y-152725000I125000J0D01*
G01*
X127720000Y-152725000D01*
G75*
G02*
X127845000Y-152850000I0J-125000D01*
G01*
G37*
G36*
G01*
X127845000Y-147350000D02*
X127845000Y-148350000D01*
G75*
G02*
X127720000Y-148475000I-125000J0D01*
G01*
X127470000Y-148475000D01*
G75*
G02*
X127345000Y-148350000I0J125000D01*
G01*
X127345000Y-147350000D01*
G75*
G02*
X127470000Y-147225000I125000J0D01*
G01*
X127720000Y-147225000D01*
G75*
G02*
X127845000Y-147350000I0J-125000D01*
G01*
G37*
G36*
G01*
X129115000Y-147350000D02*
X129115000Y-148350000D01*
G75*
G02*
X128990000Y-148475000I-125000J0D01*
G01*
X128740000Y-148475000D01*
G75*
G02*
X128615000Y-148350000I0J125000D01*
G01*
X128615000Y-147350000D01*
G75*
G02*
X128740000Y-147225000I125000J0D01*
G01*
X128990000Y-147225000D01*
G75*
G02*
X129115000Y-147350000I0J-125000D01*
G01*
G37*
G36*
G01*
X130385000Y-147350000D02*
X130385000Y-148350000D01*
G75*
G02*
X130260000Y-148475000I-125000J0D01*
G01*
X130010000Y-148475000D01*
G75*
G02*
X129885000Y-148350000I0J125000D01*
G01*
X129885000Y-147350000D01*
G75*
G02*
X130010000Y-147225000I125000J0D01*
G01*
X130260000Y-147225000D01*
G75*
G02*
X130385000Y-147350000I0J-125000D01*
G01*
G37*
G36*
G01*
X131655000Y-147350000D02*
X131655000Y-148350000D01*
G75*
G02*
X131530000Y-148475000I-125000J0D01*
G01*
X131280000Y-148475000D01*
G75*
G02*
X131155000Y-148350000I0J125000D01*
G01*
X131155000Y-147350000D01*
G75*
G02*
X131280000Y-147225000I125000J0D01*
G01*
X131530000Y-147225000D01*
G75*
G02*
X131655000Y-147350000I0J-125000D01*
G01*
G37*
%TD*%
%TO.C,U11*%
G36*
G01*
X138405000Y-147350000D02*
X138405000Y-148350000D01*
G75*
G02*
X138280000Y-148475000I-125000J0D01*
G01*
X138030000Y-148475000D01*
G75*
G02*
X137905000Y-148350000I0J125000D01*
G01*
X137905000Y-147350000D01*
G75*
G02*
X138030000Y-147225000I125000J0D01*
G01*
X138280000Y-147225000D01*
G75*
G02*
X138405000Y-147350000I0J-125000D01*
G01*
G37*
G36*
G01*
X137135000Y-147350000D02*
X137135000Y-148350000D01*
G75*
G02*
X137010000Y-148475000I-125000J0D01*
G01*
X136760000Y-148475000D01*
G75*
G02*
X136635000Y-148350000I0J125000D01*
G01*
X136635000Y-147350000D01*
G75*
G02*
X136760000Y-147225000I125000J0D01*
G01*
X137010000Y-147225000D01*
G75*
G02*
X137135000Y-147350000I0J-125000D01*
G01*
G37*
G36*
G01*
X135865000Y-147350000D02*
X135865000Y-148350000D01*
G75*
G02*
X135740000Y-148475000I-125000J0D01*
G01*
X135490000Y-148475000D01*
G75*
G02*
X135365000Y-148350000I0J125000D01*
G01*
X135365000Y-147350000D01*
G75*
G02*
X135490000Y-147225000I125000J0D01*
G01*
X135740000Y-147225000D01*
G75*
G02*
X135865000Y-147350000I0J-125000D01*
G01*
G37*
G36*
G01*
X134595000Y-147350000D02*
X134595000Y-148350000D01*
G75*
G02*
X134470000Y-148475000I-125000J0D01*
G01*
X134220000Y-148475000D01*
G75*
G02*
X134095000Y-148350000I0J125000D01*
G01*
X134095000Y-147350000D01*
G75*
G02*
X134220000Y-147225000I125000J0D01*
G01*
X134470000Y-147225000D01*
G75*
G02*
X134595000Y-147350000I0J-125000D01*
G01*
G37*
G36*
G01*
X134595000Y-152850000D02*
X134595000Y-153850000D01*
G75*
G02*
X134470000Y-153975000I-125000J0D01*
G01*
X134220000Y-153975000D01*
G75*
G02*
X134095000Y-153850000I0J125000D01*
G01*
X134095000Y-152850000D01*
G75*
G02*
X134220000Y-152725000I125000J0D01*
G01*
X134470000Y-152725000D01*
G75*
G02*
X134595000Y-152850000I0J-125000D01*
G01*
G37*
G36*
G01*
X135865000Y-152850000D02*
X135865000Y-153850000D01*
G75*
G02*
X135740000Y-153975000I-125000J0D01*
G01*
X135490000Y-153975000D01*
G75*
G02*
X135365000Y-153850000I0J125000D01*
G01*
X135365000Y-152850000D01*
G75*
G02*
X135490000Y-152725000I125000J0D01*
G01*
X135740000Y-152725000D01*
G75*
G02*
X135865000Y-152850000I0J-125000D01*
G01*
G37*
G36*
G01*
X137135000Y-152850000D02*
X137135000Y-153850000D01*
G75*
G02*
X137010000Y-153975000I-125000J0D01*
G01*
X136760000Y-153975000D01*
G75*
G02*
X136635000Y-153850000I0J125000D01*
G01*
X136635000Y-152850000D01*
G75*
G02*
X136760000Y-152725000I125000J0D01*
G01*
X137010000Y-152725000D01*
G75*
G02*
X137135000Y-152850000I0J-125000D01*
G01*
G37*
G36*
G01*
X138405000Y-152850000D02*
X138405000Y-153850000D01*
G75*
G02*
X138280000Y-153975000I-125000J0D01*
G01*
X138030000Y-153975000D01*
G75*
G02*
X137905000Y-153850000I0J125000D01*
G01*
X137905000Y-152850000D01*
G75*
G02*
X138030000Y-152725000I125000J0D01*
G01*
X138280000Y-152725000D01*
G75*
G02*
X138405000Y-152850000I0J-125000D01*
G01*
G37*
%TD*%
%TO.C,U12*%
G36*
G01*
X145655000Y-147350000D02*
X145655000Y-148350000D01*
G75*
G02*
X145530000Y-148475000I-125000J0D01*
G01*
X145280000Y-148475000D01*
G75*
G02*
X145155000Y-148350000I0J125000D01*
G01*
X145155000Y-147350000D01*
G75*
G02*
X145280000Y-147225000I125000J0D01*
G01*
X145530000Y-147225000D01*
G75*
G02*
X145655000Y-147350000I0J-125000D01*
G01*
G37*
G36*
G01*
X144385000Y-147350000D02*
X144385000Y-148350000D01*
G75*
G02*
X144260000Y-148475000I-125000J0D01*
G01*
X144010000Y-148475000D01*
G75*
G02*
X143885000Y-148350000I0J125000D01*
G01*
X143885000Y-147350000D01*
G75*
G02*
X144010000Y-147225000I125000J0D01*
G01*
X144260000Y-147225000D01*
G75*
G02*
X144385000Y-147350000I0J-125000D01*
G01*
G37*
G36*
G01*
X143115000Y-147350000D02*
X143115000Y-148350000D01*
G75*
G02*
X142990000Y-148475000I-125000J0D01*
G01*
X142740000Y-148475000D01*
G75*
G02*
X142615000Y-148350000I0J125000D01*
G01*
X142615000Y-147350000D01*
G75*
G02*
X142740000Y-147225000I125000J0D01*
G01*
X142990000Y-147225000D01*
G75*
G02*
X143115000Y-147350000I0J-125000D01*
G01*
G37*
G36*
G01*
X141845000Y-147350000D02*
X141845000Y-148350000D01*
G75*
G02*
X141720000Y-148475000I-125000J0D01*
G01*
X141470000Y-148475000D01*
G75*
G02*
X141345000Y-148350000I0J125000D01*
G01*
X141345000Y-147350000D01*
G75*
G02*
X141470000Y-147225000I125000J0D01*
G01*
X141720000Y-147225000D01*
G75*
G02*
X141845000Y-147350000I0J-125000D01*
G01*
G37*
G36*
G01*
X141845000Y-152850000D02*
X141845000Y-153850000D01*
G75*
G02*
X141720000Y-153975000I-125000J0D01*
G01*
X141470000Y-153975000D01*
G75*
G02*
X141345000Y-153850000I0J125000D01*
G01*
X141345000Y-152850000D01*
G75*
G02*
X141470000Y-152725000I125000J0D01*
G01*
X141720000Y-152725000D01*
G75*
G02*
X141845000Y-152850000I0J-125000D01*
G01*
G37*
G36*
G01*
X143115000Y-152850000D02*
X143115000Y-153850000D01*
G75*
G02*
X142990000Y-153975000I-125000J0D01*
G01*
X142740000Y-153975000D01*
G75*
G02*
X142615000Y-153850000I0J125000D01*
G01*
X142615000Y-152850000D01*
G75*
G02*
X142740000Y-152725000I125000J0D01*
G01*
X142990000Y-152725000D01*
G75*
G02*
X143115000Y-152850000I0J-125000D01*
G01*
G37*
G36*
G01*
X144385000Y-152850000D02*
X144385000Y-153850000D01*
G75*
G02*
X144260000Y-153975000I-125000J0D01*
G01*
X144010000Y-153975000D01*
G75*
G02*
X143885000Y-153850000I0J125000D01*
G01*
X143885000Y-152850000D01*
G75*
G02*
X144010000Y-152725000I125000J0D01*
G01*
X144260000Y-152725000D01*
G75*
G02*
X144385000Y-152850000I0J-125000D01*
G01*
G37*
G36*
G01*
X145655000Y-152850000D02*
X145655000Y-153850000D01*
G75*
G02*
X145530000Y-153975000I-125000J0D01*
G01*
X145280000Y-153975000D01*
G75*
G02*
X145155000Y-153850000I0J125000D01*
G01*
X145155000Y-152850000D01*
G75*
G02*
X145280000Y-152725000I125000J0D01*
G01*
X145530000Y-152725000D01*
G75*
G02*
X145655000Y-152850000I0J-125000D01*
G01*
G37*
%TD*%
%TO.C,U13*%
G36*
G01*
X60595000Y-127750000D02*
X60595000Y-126750000D01*
G75*
G02*
X60720000Y-126625000I125000J0D01*
G01*
X60970000Y-126625000D01*
G75*
G02*
X61095000Y-126750000I0J-125000D01*
G01*
X61095000Y-127750000D01*
G75*
G02*
X60970000Y-127875000I-125000J0D01*
G01*
X60720000Y-127875000D01*
G75*
G02*
X60595000Y-127750000I0J125000D01*
G01*
G37*
G36*
G01*
X61865000Y-127750000D02*
X61865000Y-126750000D01*
G75*
G02*
X61990000Y-126625000I125000J0D01*
G01*
X62240000Y-126625000D01*
G75*
G02*
X62365000Y-126750000I0J-125000D01*
G01*
X62365000Y-127750000D01*
G75*
G02*
X62240000Y-127875000I-125000J0D01*
G01*
X61990000Y-127875000D01*
G75*
G02*
X61865000Y-127750000I0J125000D01*
G01*
G37*
G36*
G01*
X63135000Y-127750000D02*
X63135000Y-126750000D01*
G75*
G02*
X63260000Y-126625000I125000J0D01*
G01*
X63510000Y-126625000D01*
G75*
G02*
X63635000Y-126750000I0J-125000D01*
G01*
X63635000Y-127750000D01*
G75*
G02*
X63510000Y-127875000I-125000J0D01*
G01*
X63260000Y-127875000D01*
G75*
G02*
X63135000Y-127750000I0J125000D01*
G01*
G37*
G36*
G01*
X64405000Y-127750000D02*
X64405000Y-126750000D01*
G75*
G02*
X64530000Y-126625000I125000J0D01*
G01*
X64780000Y-126625000D01*
G75*
G02*
X64905000Y-126750000I0J-125000D01*
G01*
X64905000Y-127750000D01*
G75*
G02*
X64780000Y-127875000I-125000J0D01*
G01*
X64530000Y-127875000D01*
G75*
G02*
X64405000Y-127750000I0J125000D01*
G01*
G37*
G36*
G01*
X64405000Y-133250000D02*
X64405000Y-132250000D01*
G75*
G02*
X64530000Y-132125000I125000J0D01*
G01*
X64780000Y-132125000D01*
G75*
G02*
X64905000Y-132250000I0J-125000D01*
G01*
X64905000Y-133250000D01*
G75*
G02*
X64780000Y-133375000I-125000J0D01*
G01*
X64530000Y-133375000D01*
G75*
G02*
X64405000Y-133250000I0J125000D01*
G01*
G37*
G36*
G01*
X63135000Y-133250000D02*
X63135000Y-132250000D01*
G75*
G02*
X63260000Y-132125000I125000J0D01*
G01*
X63510000Y-132125000D01*
G75*
G02*
X63635000Y-132250000I0J-125000D01*
G01*
X63635000Y-133250000D01*
G75*
G02*
X63510000Y-133375000I-125000J0D01*
G01*
X63260000Y-133375000D01*
G75*
G02*
X63135000Y-133250000I0J125000D01*
G01*
G37*
G36*
G01*
X61865000Y-133250000D02*
X61865000Y-132250000D01*
G75*
G02*
X61990000Y-132125000I125000J0D01*
G01*
X62240000Y-132125000D01*
G75*
G02*
X62365000Y-132250000I0J-125000D01*
G01*
X62365000Y-133250000D01*
G75*
G02*
X62240000Y-133375000I-125000J0D01*
G01*
X61990000Y-133375000D01*
G75*
G02*
X61865000Y-133250000I0J125000D01*
G01*
G37*
G36*
G01*
X60595000Y-133250000D02*
X60595000Y-132250000D01*
G75*
G02*
X60720000Y-132125000I125000J0D01*
G01*
X60970000Y-132125000D01*
G75*
G02*
X61095000Y-132250000I0J-125000D01*
G01*
X61095000Y-133250000D01*
G75*
G02*
X60970000Y-133375000I-125000J0D01*
G01*
X60720000Y-133375000D01*
G75*
G02*
X60595000Y-133250000I0J125000D01*
G01*
G37*
%TD*%
%TO.C,U14*%
G36*
G01*
X67595000Y-133250000D02*
X67595000Y-132250000D01*
G75*
G02*
X67720000Y-132125000I125000J0D01*
G01*
X67970000Y-132125000D01*
G75*
G02*
X68095000Y-132250000I0J-125000D01*
G01*
X68095000Y-133250000D01*
G75*
G02*
X67970000Y-133375000I-125000J0D01*
G01*
X67720000Y-133375000D01*
G75*
G02*
X67595000Y-133250000I0J125000D01*
G01*
G37*
G36*
G01*
X68865000Y-133250000D02*
X68865000Y-132250000D01*
G75*
G02*
X68990000Y-132125000I125000J0D01*
G01*
X69240000Y-132125000D01*
G75*
G02*
X69365000Y-132250000I0J-125000D01*
G01*
X69365000Y-133250000D01*
G75*
G02*
X69240000Y-133375000I-125000J0D01*
G01*
X68990000Y-133375000D01*
G75*
G02*
X68865000Y-133250000I0J125000D01*
G01*
G37*
G36*
G01*
X70135000Y-133250000D02*
X70135000Y-132250000D01*
G75*
G02*
X70260000Y-132125000I125000J0D01*
G01*
X70510000Y-132125000D01*
G75*
G02*
X70635000Y-132250000I0J-125000D01*
G01*
X70635000Y-133250000D01*
G75*
G02*
X70510000Y-133375000I-125000J0D01*
G01*
X70260000Y-133375000D01*
G75*
G02*
X70135000Y-133250000I0J125000D01*
G01*
G37*
G36*
G01*
X71405000Y-133250000D02*
X71405000Y-132250000D01*
G75*
G02*
X71530000Y-132125000I125000J0D01*
G01*
X71780000Y-132125000D01*
G75*
G02*
X71905000Y-132250000I0J-125000D01*
G01*
X71905000Y-133250000D01*
G75*
G02*
X71780000Y-133375000I-125000J0D01*
G01*
X71530000Y-133375000D01*
G75*
G02*
X71405000Y-133250000I0J125000D01*
G01*
G37*
G36*
G01*
X71405000Y-127750000D02*
X71405000Y-126750000D01*
G75*
G02*
X71530000Y-126625000I125000J0D01*
G01*
X71780000Y-126625000D01*
G75*
G02*
X71905000Y-126750000I0J-125000D01*
G01*
X71905000Y-127750000D01*
G75*
G02*
X71780000Y-127875000I-125000J0D01*
G01*
X71530000Y-127875000D01*
G75*
G02*
X71405000Y-127750000I0J125000D01*
G01*
G37*
G36*
G01*
X70135000Y-127750000D02*
X70135000Y-126750000D01*
G75*
G02*
X70260000Y-126625000I125000J0D01*
G01*
X70510000Y-126625000D01*
G75*
G02*
X70635000Y-126750000I0J-125000D01*
G01*
X70635000Y-127750000D01*
G75*
G02*
X70510000Y-127875000I-125000J0D01*
G01*
X70260000Y-127875000D01*
G75*
G02*
X70135000Y-127750000I0J125000D01*
G01*
G37*
G36*
G01*
X68865000Y-127750000D02*
X68865000Y-126750000D01*
G75*
G02*
X68990000Y-126625000I125000J0D01*
G01*
X69240000Y-126625000D01*
G75*
G02*
X69365000Y-126750000I0J-125000D01*
G01*
X69365000Y-127750000D01*
G75*
G02*
X69240000Y-127875000I-125000J0D01*
G01*
X68990000Y-127875000D01*
G75*
G02*
X68865000Y-127750000I0J125000D01*
G01*
G37*
G36*
G01*
X67595000Y-127750000D02*
X67595000Y-126750000D01*
G75*
G02*
X67720000Y-126625000I125000J0D01*
G01*
X67970000Y-126625000D01*
G75*
G02*
X68095000Y-126750000I0J-125000D01*
G01*
X68095000Y-127750000D01*
G75*
G02*
X67970000Y-127875000I-125000J0D01*
G01*
X67720000Y-127875000D01*
G75*
G02*
X67595000Y-127750000I0J125000D01*
G01*
G37*
%TD*%
%TO.C,U15*%
G36*
G01*
X77345000Y-133250000D02*
X77345000Y-132250000D01*
G75*
G02*
X77470000Y-132125000I125000J0D01*
G01*
X77720000Y-132125000D01*
G75*
G02*
X77845000Y-132250000I0J-125000D01*
G01*
X77845000Y-133250000D01*
G75*
G02*
X77720000Y-133375000I-125000J0D01*
G01*
X77470000Y-133375000D01*
G75*
G02*
X77345000Y-133250000I0J125000D01*
G01*
G37*
G36*
G01*
X78615000Y-133250000D02*
X78615000Y-132250000D01*
G75*
G02*
X78740000Y-132125000I125000J0D01*
G01*
X78990000Y-132125000D01*
G75*
G02*
X79115000Y-132250000I0J-125000D01*
G01*
X79115000Y-133250000D01*
G75*
G02*
X78990000Y-133375000I-125000J0D01*
G01*
X78740000Y-133375000D01*
G75*
G02*
X78615000Y-133250000I0J125000D01*
G01*
G37*
G36*
G01*
X79885000Y-133250000D02*
X79885000Y-132250000D01*
G75*
G02*
X80010000Y-132125000I125000J0D01*
G01*
X80260000Y-132125000D01*
G75*
G02*
X80385000Y-132250000I0J-125000D01*
G01*
X80385000Y-133250000D01*
G75*
G02*
X80260000Y-133375000I-125000J0D01*
G01*
X80010000Y-133375000D01*
G75*
G02*
X79885000Y-133250000I0J125000D01*
G01*
G37*
G36*
G01*
X81155000Y-133250000D02*
X81155000Y-132250000D01*
G75*
G02*
X81280000Y-132125000I125000J0D01*
G01*
X81530000Y-132125000D01*
G75*
G02*
X81655000Y-132250000I0J-125000D01*
G01*
X81655000Y-133250000D01*
G75*
G02*
X81530000Y-133375000I-125000J0D01*
G01*
X81280000Y-133375000D01*
G75*
G02*
X81155000Y-133250000I0J125000D01*
G01*
G37*
G36*
G01*
X81155000Y-127750000D02*
X81155000Y-126750000D01*
G75*
G02*
X81280000Y-126625000I125000J0D01*
G01*
X81530000Y-126625000D01*
G75*
G02*
X81655000Y-126750000I0J-125000D01*
G01*
X81655000Y-127750000D01*
G75*
G02*
X81530000Y-127875000I-125000J0D01*
G01*
X81280000Y-127875000D01*
G75*
G02*
X81155000Y-127750000I0J125000D01*
G01*
G37*
G36*
G01*
X79885000Y-127750000D02*
X79885000Y-126750000D01*
G75*
G02*
X80010000Y-126625000I125000J0D01*
G01*
X80260000Y-126625000D01*
G75*
G02*
X80385000Y-126750000I0J-125000D01*
G01*
X80385000Y-127750000D01*
G75*
G02*
X80260000Y-127875000I-125000J0D01*
G01*
X80010000Y-127875000D01*
G75*
G02*
X79885000Y-127750000I0J125000D01*
G01*
G37*
G36*
G01*
X78615000Y-127750000D02*
X78615000Y-126750000D01*
G75*
G02*
X78740000Y-126625000I125000J0D01*
G01*
X78990000Y-126625000D01*
G75*
G02*
X79115000Y-126750000I0J-125000D01*
G01*
X79115000Y-127750000D01*
G75*
G02*
X78990000Y-127875000I-125000J0D01*
G01*
X78740000Y-127875000D01*
G75*
G02*
X78615000Y-127750000I0J125000D01*
G01*
G37*
G36*
G01*
X77345000Y-127750000D02*
X77345000Y-126750000D01*
G75*
G02*
X77470000Y-126625000I125000J0D01*
G01*
X77720000Y-126625000D01*
G75*
G02*
X77845000Y-126750000I0J-125000D01*
G01*
X77845000Y-127750000D01*
G75*
G02*
X77720000Y-127875000I-125000J0D01*
G01*
X77470000Y-127875000D01*
G75*
G02*
X77345000Y-127750000I0J125000D01*
G01*
G37*
%TD*%
%TO.C,U16*%
G36*
G01*
X84345000Y-133250000D02*
X84345000Y-132250000D01*
G75*
G02*
X84470000Y-132125000I125000J0D01*
G01*
X84720000Y-132125000D01*
G75*
G02*
X84845000Y-132250000I0J-125000D01*
G01*
X84845000Y-133250000D01*
G75*
G02*
X84720000Y-133375000I-125000J0D01*
G01*
X84470000Y-133375000D01*
G75*
G02*
X84345000Y-133250000I0J125000D01*
G01*
G37*
G36*
G01*
X85615000Y-133250000D02*
X85615000Y-132250000D01*
G75*
G02*
X85740000Y-132125000I125000J0D01*
G01*
X85990000Y-132125000D01*
G75*
G02*
X86115000Y-132250000I0J-125000D01*
G01*
X86115000Y-133250000D01*
G75*
G02*
X85990000Y-133375000I-125000J0D01*
G01*
X85740000Y-133375000D01*
G75*
G02*
X85615000Y-133250000I0J125000D01*
G01*
G37*
G36*
G01*
X86885000Y-133250000D02*
X86885000Y-132250000D01*
G75*
G02*
X87010000Y-132125000I125000J0D01*
G01*
X87260000Y-132125000D01*
G75*
G02*
X87385000Y-132250000I0J-125000D01*
G01*
X87385000Y-133250000D01*
G75*
G02*
X87260000Y-133375000I-125000J0D01*
G01*
X87010000Y-133375000D01*
G75*
G02*
X86885000Y-133250000I0J125000D01*
G01*
G37*
G36*
G01*
X88155000Y-133250000D02*
X88155000Y-132250000D01*
G75*
G02*
X88280000Y-132125000I125000J0D01*
G01*
X88530000Y-132125000D01*
G75*
G02*
X88655000Y-132250000I0J-125000D01*
G01*
X88655000Y-133250000D01*
G75*
G02*
X88530000Y-133375000I-125000J0D01*
G01*
X88280000Y-133375000D01*
G75*
G02*
X88155000Y-133250000I0J125000D01*
G01*
G37*
G36*
G01*
X88155000Y-127750000D02*
X88155000Y-126750000D01*
G75*
G02*
X88280000Y-126625000I125000J0D01*
G01*
X88530000Y-126625000D01*
G75*
G02*
X88655000Y-126750000I0J-125000D01*
G01*
X88655000Y-127750000D01*
G75*
G02*
X88530000Y-127875000I-125000J0D01*
G01*
X88280000Y-127875000D01*
G75*
G02*
X88155000Y-127750000I0J125000D01*
G01*
G37*
G36*
G01*
X86885000Y-127750000D02*
X86885000Y-126750000D01*
G75*
G02*
X87010000Y-126625000I125000J0D01*
G01*
X87260000Y-126625000D01*
G75*
G02*
X87385000Y-126750000I0J-125000D01*
G01*
X87385000Y-127750000D01*
G75*
G02*
X87260000Y-127875000I-125000J0D01*
G01*
X87010000Y-127875000D01*
G75*
G02*
X86885000Y-127750000I0J125000D01*
G01*
G37*
G36*
G01*
X85615000Y-127750000D02*
X85615000Y-126750000D01*
G75*
G02*
X85740000Y-126625000I125000J0D01*
G01*
X85990000Y-126625000D01*
G75*
G02*
X86115000Y-126750000I0J-125000D01*
G01*
X86115000Y-127750000D01*
G75*
G02*
X85990000Y-127875000I-125000J0D01*
G01*
X85740000Y-127875000D01*
G75*
G02*
X85615000Y-127750000I0J125000D01*
G01*
G37*
G36*
G01*
X84345000Y-127750000D02*
X84345000Y-126750000D01*
G75*
G02*
X84470000Y-126625000I125000J0D01*
G01*
X84720000Y-126625000D01*
G75*
G02*
X84845000Y-126750000I0J-125000D01*
G01*
X84845000Y-127750000D01*
G75*
G02*
X84720000Y-127875000I-125000J0D01*
G01*
X84470000Y-127875000D01*
G75*
G02*
X84345000Y-127750000I0J125000D01*
G01*
G37*
%TD*%
%TO.C,U17*%
G36*
G01*
X93845000Y-133250000D02*
X93845000Y-132250000D01*
G75*
G02*
X93970000Y-132125000I125000J0D01*
G01*
X94220000Y-132125000D01*
G75*
G02*
X94345000Y-132250000I0J-125000D01*
G01*
X94345000Y-133250000D01*
G75*
G02*
X94220000Y-133375000I-125000J0D01*
G01*
X93970000Y-133375000D01*
G75*
G02*
X93845000Y-133250000I0J125000D01*
G01*
G37*
G36*
G01*
X95115000Y-133250000D02*
X95115000Y-132250000D01*
G75*
G02*
X95240000Y-132125000I125000J0D01*
G01*
X95490000Y-132125000D01*
G75*
G02*
X95615000Y-132250000I0J-125000D01*
G01*
X95615000Y-133250000D01*
G75*
G02*
X95490000Y-133375000I-125000J0D01*
G01*
X95240000Y-133375000D01*
G75*
G02*
X95115000Y-133250000I0J125000D01*
G01*
G37*
G36*
G01*
X96385000Y-133250000D02*
X96385000Y-132250000D01*
G75*
G02*
X96510000Y-132125000I125000J0D01*
G01*
X96760000Y-132125000D01*
G75*
G02*
X96885000Y-132250000I0J-125000D01*
G01*
X96885000Y-133250000D01*
G75*
G02*
X96760000Y-133375000I-125000J0D01*
G01*
X96510000Y-133375000D01*
G75*
G02*
X96385000Y-133250000I0J125000D01*
G01*
G37*
G36*
G01*
X97655000Y-133250000D02*
X97655000Y-132250000D01*
G75*
G02*
X97780000Y-132125000I125000J0D01*
G01*
X98030000Y-132125000D01*
G75*
G02*
X98155000Y-132250000I0J-125000D01*
G01*
X98155000Y-133250000D01*
G75*
G02*
X98030000Y-133375000I-125000J0D01*
G01*
X97780000Y-133375000D01*
G75*
G02*
X97655000Y-133250000I0J125000D01*
G01*
G37*
G36*
G01*
X97655000Y-127750000D02*
X97655000Y-126750000D01*
G75*
G02*
X97780000Y-126625000I125000J0D01*
G01*
X98030000Y-126625000D01*
G75*
G02*
X98155000Y-126750000I0J-125000D01*
G01*
X98155000Y-127750000D01*
G75*
G02*
X98030000Y-127875000I-125000J0D01*
G01*
X97780000Y-127875000D01*
G75*
G02*
X97655000Y-127750000I0J125000D01*
G01*
G37*
G36*
G01*
X96385000Y-127750000D02*
X96385000Y-126750000D01*
G75*
G02*
X96510000Y-126625000I125000J0D01*
G01*
X96760000Y-126625000D01*
G75*
G02*
X96885000Y-126750000I0J-125000D01*
G01*
X96885000Y-127750000D01*
G75*
G02*
X96760000Y-127875000I-125000J0D01*
G01*
X96510000Y-127875000D01*
G75*
G02*
X96385000Y-127750000I0J125000D01*
G01*
G37*
G36*
G01*
X95115000Y-127750000D02*
X95115000Y-126750000D01*
G75*
G02*
X95240000Y-126625000I125000J0D01*
G01*
X95490000Y-126625000D01*
G75*
G02*
X95615000Y-126750000I0J-125000D01*
G01*
X95615000Y-127750000D01*
G75*
G02*
X95490000Y-127875000I-125000J0D01*
G01*
X95240000Y-127875000D01*
G75*
G02*
X95115000Y-127750000I0J125000D01*
G01*
G37*
G36*
G01*
X93845000Y-127750000D02*
X93845000Y-126750000D01*
G75*
G02*
X93970000Y-126625000I125000J0D01*
G01*
X94220000Y-126625000D01*
G75*
G02*
X94345000Y-126750000I0J-125000D01*
G01*
X94345000Y-127750000D01*
G75*
G02*
X94220000Y-127875000I-125000J0D01*
G01*
X93970000Y-127875000D01*
G75*
G02*
X93845000Y-127750000I0J125000D01*
G01*
G37*
%TD*%
%TO.C,U18*%
G36*
G01*
X100845000Y-133250000D02*
X100845000Y-132250000D01*
G75*
G02*
X100970000Y-132125000I125000J0D01*
G01*
X101220000Y-132125000D01*
G75*
G02*
X101345000Y-132250000I0J-125000D01*
G01*
X101345000Y-133250000D01*
G75*
G02*
X101220000Y-133375000I-125000J0D01*
G01*
X100970000Y-133375000D01*
G75*
G02*
X100845000Y-133250000I0J125000D01*
G01*
G37*
G36*
G01*
X102115000Y-133250000D02*
X102115000Y-132250000D01*
G75*
G02*
X102240000Y-132125000I125000J0D01*
G01*
X102490000Y-132125000D01*
G75*
G02*
X102615000Y-132250000I0J-125000D01*
G01*
X102615000Y-133250000D01*
G75*
G02*
X102490000Y-133375000I-125000J0D01*
G01*
X102240000Y-133375000D01*
G75*
G02*
X102115000Y-133250000I0J125000D01*
G01*
G37*
G36*
G01*
X103385000Y-133250000D02*
X103385000Y-132250000D01*
G75*
G02*
X103510000Y-132125000I125000J0D01*
G01*
X103760000Y-132125000D01*
G75*
G02*
X103885000Y-132250000I0J-125000D01*
G01*
X103885000Y-133250000D01*
G75*
G02*
X103760000Y-133375000I-125000J0D01*
G01*
X103510000Y-133375000D01*
G75*
G02*
X103385000Y-133250000I0J125000D01*
G01*
G37*
G36*
G01*
X104655000Y-133250000D02*
X104655000Y-132250000D01*
G75*
G02*
X104780000Y-132125000I125000J0D01*
G01*
X105030000Y-132125000D01*
G75*
G02*
X105155000Y-132250000I0J-125000D01*
G01*
X105155000Y-133250000D01*
G75*
G02*
X105030000Y-133375000I-125000J0D01*
G01*
X104780000Y-133375000D01*
G75*
G02*
X104655000Y-133250000I0J125000D01*
G01*
G37*
G36*
G01*
X104655000Y-127750000D02*
X104655000Y-126750000D01*
G75*
G02*
X104780000Y-126625000I125000J0D01*
G01*
X105030000Y-126625000D01*
G75*
G02*
X105155000Y-126750000I0J-125000D01*
G01*
X105155000Y-127750000D01*
G75*
G02*
X105030000Y-127875000I-125000J0D01*
G01*
X104780000Y-127875000D01*
G75*
G02*
X104655000Y-127750000I0J125000D01*
G01*
G37*
G36*
G01*
X103385000Y-127750000D02*
X103385000Y-126750000D01*
G75*
G02*
X103510000Y-126625000I125000J0D01*
G01*
X103760000Y-126625000D01*
G75*
G02*
X103885000Y-126750000I0J-125000D01*
G01*
X103885000Y-127750000D01*
G75*
G02*
X103760000Y-127875000I-125000J0D01*
G01*
X103510000Y-127875000D01*
G75*
G02*
X103385000Y-127750000I0J125000D01*
G01*
G37*
G36*
G01*
X102115000Y-127750000D02*
X102115000Y-126750000D01*
G75*
G02*
X102240000Y-126625000I125000J0D01*
G01*
X102490000Y-126625000D01*
G75*
G02*
X102615000Y-126750000I0J-125000D01*
G01*
X102615000Y-127750000D01*
G75*
G02*
X102490000Y-127875000I-125000J0D01*
G01*
X102240000Y-127875000D01*
G75*
G02*
X102115000Y-127750000I0J125000D01*
G01*
G37*
G36*
G01*
X100845000Y-127750000D02*
X100845000Y-126750000D01*
G75*
G02*
X100970000Y-126625000I125000J0D01*
G01*
X101220000Y-126625000D01*
G75*
G02*
X101345000Y-126750000I0J-125000D01*
G01*
X101345000Y-127750000D01*
G75*
G02*
X101220000Y-127875000I-125000J0D01*
G01*
X100970000Y-127875000D01*
G75*
G02*
X100845000Y-127750000I0J125000D01*
G01*
G37*
%TD*%
%TO.C,Y1*%
G36*
G01*
X55750000Y-149750000D02*
X56250000Y-149750000D01*
G75*
G02*
X56500000Y-150000000I0J-250000D01*
G01*
X56500000Y-151000000D01*
G75*
G02*
X56250000Y-151250000I-250000J0D01*
G01*
X55750000Y-151250000D01*
G75*
G02*
X55500000Y-151000000I0J250000D01*
G01*
X55500000Y-150000000D01*
G75*
G02*
X55750000Y-149750000I250000J0D01*
G01*
G37*
G36*
G01*
X55750000Y-153750000D02*
X56250000Y-153750000D01*
G75*
G02*
X56500000Y-154000000I0J-250000D01*
G01*
X56500000Y-155000000D01*
G75*
G02*
X56250000Y-155250000I-250000J0D01*
G01*
X55750000Y-155250000D01*
G75*
G02*
X55500000Y-155000000I0J250000D01*
G01*
X55500000Y-154000000D01*
G75*
G02*
X55750000Y-153750000I250000J0D01*
G01*
G37*
G36*
G01*
X53250000Y-153750000D02*
X53750000Y-153750000D01*
G75*
G02*
X54000000Y-154000000I0J-250000D01*
G01*
X54000000Y-155000000D01*
G75*
G02*
X53750000Y-155250000I-250000J0D01*
G01*
X53250000Y-155250000D01*
G75*
G02*
X53000000Y-155000000I0J250000D01*
G01*
X53000000Y-154000000D01*
G75*
G02*
X53250000Y-153750000I250000J0D01*
G01*
G37*
G36*
G01*
X53250000Y-149750000D02*
X53750000Y-149750000D01*
G75*
G02*
X54000000Y-150000000I0J-250000D01*
G01*
X54000000Y-151000000D01*
G75*
G02*
X53750000Y-151250000I-250000J0D01*
G01*
X53250000Y-151250000D01*
G75*
G02*
X53000000Y-151000000I0J250000D01*
G01*
X53000000Y-150000000D01*
G75*
G02*
X53250000Y-149750000I250000J0D01*
G01*
G37*
%TD*%
M02*
