%TF.GenerationSoftware,KiCad,Pcbnew,(5.1.9)-1*%
%TF.CreationDate,2021-06-23T22:51:48+02:00*%
%TF.ProjectId,EndatDecoder,456e6461-7444-4656-936f-6465722e6b69,rev?*%
%TF.SameCoordinates,Original*%
%TF.FileFunction,Soldermask,Bot*%
%TF.FilePolarity,Negative*%
%FSLAX46Y46*%
G04 Gerber Fmt 4.6, Leading zero omitted, Abs format (unit mm)*
G04 Created by KiCad (PCBNEW (5.1.9)-1) date 2021-06-23 22:51:48*
%MOMM*%
%LPD*%
G01*
G04 APERTURE LIST*
%ADD10C,1.700000*%
%ADD11C,4.500000*%
%ADD12O,2.000000X3.500000*%
%ADD13C,1.600000*%
%ADD14R,1.600000X1.600000*%
%ADD15C,1.300000*%
%ADD16C,1.900000*%
%ADD17C,3.100000*%
%ADD18R,1.905000X2.000000*%
%ADD19O,1.905000X2.000000*%
G04 APERTURE END LIST*
D10*
%TO.C,J13*%
X62330000Y-172460000D03*
X59790000Y-172460000D03*
X57250000Y-172460000D03*
X62330000Y-175000000D03*
X59790000Y-175000000D03*
G36*
G01*
X57850000Y-175850000D02*
X56650000Y-175850000D01*
G75*
G02*
X56400000Y-175600000I0J250000D01*
G01*
X56400000Y-174400000D01*
G75*
G02*
X56650000Y-174150000I250000J0D01*
G01*
X57850000Y-174150000D01*
G75*
G02*
X58100000Y-174400000I0J-250000D01*
G01*
X58100000Y-175600000D01*
G75*
G02*
X57850000Y-175850000I-250000J0D01*
G01*
G37*
%TD*%
D11*
%TO.C,U22*%
X120000000Y-113000000D03*
%TD*%
%TO.C,U21*%
X55000000Y-88000000D03*
%TD*%
%TO.C,U20*%
X120000000Y-88000000D03*
%TD*%
%TO.C,U19*%
X55000000Y-113000000D03*
%TD*%
D12*
%TO.C,J12*%
X148000000Y-171700000D03*
X146250000Y-160300000D03*
X144500000Y-171700000D03*
X142750000Y-160300000D03*
%TD*%
%TO.C,J11*%
X141000000Y-171700000D03*
X139250000Y-160300000D03*
X137500000Y-171700000D03*
X135750000Y-160300000D03*
%TD*%
%TO.C,J10*%
X134000000Y-171700000D03*
X132250000Y-160300000D03*
X130500000Y-171700000D03*
X128750000Y-160300000D03*
%TD*%
%TO.C,J6*%
X127000000Y-171700000D03*
X125250000Y-160300000D03*
X123500000Y-171700000D03*
X121750000Y-160300000D03*
%TD*%
%TO.C,J5*%
X120000000Y-171700000D03*
X118250000Y-160300000D03*
X116500000Y-171700000D03*
X114750000Y-160300000D03*
%TD*%
%TO.C,J4*%
X113000000Y-171700000D03*
X111250000Y-160300000D03*
X109500000Y-171700000D03*
X107750000Y-160300000D03*
%TD*%
D13*
%TO.C,C3*%
X100000000Y-156250000D03*
D14*
X97500000Y-156250000D03*
%TD*%
D13*
%TO.C,C2*%
X89750000Y-168250000D03*
D14*
X87250000Y-168250000D03*
%TD*%
D13*
%TO.C,C1*%
X97500000Y-163500000D03*
D14*
X100000000Y-163500000D03*
%TD*%
D12*
%TO.C,J1*%
X101450000Y-169900000D03*
X96370000Y-169900000D03*
%TD*%
D15*
%TO.C,J2*%
X135420000Y-116640000D03*
X135420000Y-118930000D03*
X135420000Y-128070000D03*
X135420000Y-130360000D03*
X140280000Y-127070000D03*
X142060000Y-126050000D03*
X140280000Y-125030000D03*
X142060000Y-124010000D03*
X140280000Y-122990000D03*
X142060000Y-121970000D03*
X140280000Y-120950000D03*
X142060000Y-119930000D03*
D16*
X141170000Y-115250000D03*
X141170000Y-131750000D03*
D17*
X144600000Y-117150000D03*
X144600000Y-129850000D03*
%TD*%
D15*
%TO.C,J3*%
X135420000Y-100140000D03*
X135420000Y-102430000D03*
X135420000Y-111570000D03*
X135420000Y-113860000D03*
X140280000Y-110570000D03*
X142060000Y-109550000D03*
X140280000Y-108530000D03*
X142060000Y-107510000D03*
X140280000Y-106490000D03*
X142060000Y-105470000D03*
X140280000Y-104450000D03*
X142060000Y-103430000D03*
D16*
X141170000Y-98750000D03*
X141170000Y-115250000D03*
D17*
X144600000Y-100650000D03*
X144600000Y-113350000D03*
%TD*%
D13*
%TO.C,J7*%
X67840000Y-111005000D03*
X67840000Y-108235000D03*
X67840000Y-105465000D03*
X67840000Y-102695000D03*
X67840000Y-99925000D03*
X67840000Y-97155000D03*
X67840000Y-94385000D03*
X65000000Y-112390000D03*
X65000000Y-109620000D03*
X65000000Y-106850000D03*
X65000000Y-104080000D03*
X65000000Y-101310000D03*
X65000000Y-98540000D03*
X65000000Y-95770000D03*
D14*
X65000000Y-93000000D03*
%TD*%
%TO.C,J8*%
X81750000Y-93000000D03*
D13*
X81750000Y-95770000D03*
X81750000Y-98540000D03*
X81750000Y-101310000D03*
X81750000Y-104080000D03*
X81750000Y-106850000D03*
X81750000Y-109620000D03*
X81750000Y-112390000D03*
X84590000Y-94385000D03*
X84590000Y-97155000D03*
X84590000Y-99925000D03*
X84590000Y-102695000D03*
X84590000Y-105465000D03*
X84590000Y-108235000D03*
X84590000Y-111005000D03*
%TD*%
D14*
%TO.C,J9*%
X98250000Y-93000000D03*
D13*
X98250000Y-95770000D03*
X98250000Y-98540000D03*
X98250000Y-101310000D03*
X98250000Y-104080000D03*
X98250000Y-106850000D03*
X98250000Y-109620000D03*
X98250000Y-112390000D03*
X101090000Y-94385000D03*
X101090000Y-97155000D03*
X101090000Y-99925000D03*
X101090000Y-102695000D03*
X101090000Y-105465000D03*
X101090000Y-108235000D03*
X101090000Y-111005000D03*
%TD*%
D18*
%TO.C,U1*%
X87750000Y-175250000D03*
D19*
X85210000Y-175250000D03*
X82670000Y-175250000D03*
%TD*%
M02*
